<svg xmlns="http://www.w3.org/2000/svg" width="91" height="16" viewBox="0 0 91 16">
  <g id="_4.5" data-name="4.5" transform="translate(19090.553 3099.502)">
    <path id="Icon_awesome-star-half-alt" data-name="Icon awesome-star-half-alt" d="M14.6,5.359l-4.2-.666L8.518.556a.89.89,0,0,0-1.651,0L4.989,4.693l-4.2.665A1.025,1.025,0,0,0,.279,7.063l3.039,3.218L2.6,14.827A.979.979,0,0,0,3.506,16a.849.849,0,0,0,.427-.117l3.759-2.146L11.45,15.88a.853.853,0,0,0,.426.116.978.978,0,0,0,.909-1.169l-.718-4.546,3.04-3.218A1.025,1.025,0,0,0,14.6,5.359ZM11.1,9.208l-.52.551.123.777.56,3.545L8.334,12.406l-.642-.367V2.129L9.157,5.356l.321.707.718.114,3.279.52L11.1,9.208Z" transform="translate(-19014.938 -3099.5)" fill="rgba(252,79,25,0.99)"/>
    <path id="Icon_awesome-star" data-name="Icon awesome-star" d="M8.308.556,6.431,4.692l-4.2.665A1.025,1.025,0,0,0,1.72,7.063l3.04,3.218-.719,4.545a.938.938,0,0,0,1.334,1.053l3.758-2.146,3.758,2.146a.939.939,0,0,0,1.334-1.053l-.719-4.545,3.04-3.218a1.025,1.025,0,0,0-.509-1.706l-4.2-.665L9.959.556A.89.89,0,0,0,8.308.556Z" transform="translate(-19091.994 -3099.501)" fill="rgba(252,79,25,0.99)"/>
    <path id="Icon_awesome-star-2" data-name="Icon awesome-star" d="M8.308.556,6.431,4.692l-4.2.665A1.025,1.025,0,0,0,1.72,7.063l3.04,3.218-.719,4.545a.938.938,0,0,0,1.334,1.053l3.758-2.146,3.758,2.146a.939.939,0,0,0,1.334-1.053l-.719-4.545,3.04-3.218a1.025,1.025,0,0,0-.509-1.706l-4.2-.665L9.959.556A.89.89,0,0,0,8.308.556Z" transform="translate(-19072.941 -3099.501)" fill="rgba(252,79,25,0.99)"/>
    <path id="Icon_awesome-star-3" data-name="Icon awesome-star" d="M8.308.556,6.431,4.692l-4.2.665A1.025,1.025,0,0,0,1.72,7.063l3.04,3.218-.719,4.545a.938.938,0,0,0,1.334,1.053l3.758-2.146,3.758,2.146a.939.939,0,0,0,1.334-1.053l-.719-4.545,3.04-3.218a1.025,1.025,0,0,0-.509-1.706l-4.2-.665L9.959.556A.89.89,0,0,0,8.308.556Z" transform="translate(-19053.891 -3099.501)" fill="rgba(252,79,25,0.99)"/>
    <path id="Icon_awesome-star-4" data-name="Icon awesome-star" d="M8.308.556,6.431,4.692l-4.2.665A1.025,1.025,0,0,0,1.72,7.063l3.04,3.218-.719,4.545a.938.938,0,0,0,1.334,1.053l3.758-2.146,3.758,2.146a.939.939,0,0,0,1.334-1.053l-.719-4.545,3.04-3.218a1.025,1.025,0,0,0-.509-1.706l-4.2-.665L9.959.556A.89.89,0,0,0,8.308.556Z" transform="translate(-19034.836 -3099.501)" fill="rgba(252,79,25,0.99)"/>
  </g>
</svg>
