<svg xmlns="http://www.w3.org/2000/svg" width="570" height="404.526" viewBox="0 0 570 404.526">
  <g id="compatible_for_all" transform="translate(10342.999 -1575.442)">
    <path id="Path_80300" data-name="Path 80300" d="M678.293,317.954c-4.821,39.255-32.637,32.723-37.029,78.366-1.567,16.291,10.289,26.532,16.18,40.637,6.524,15.59,4.213,29.6-4.6,40.283H169.362c-10.688-4.906-20.887-10.126-29.764-16.394-12.221-8.612-21.893-19.228-26.825-33.782-4.452-13.151-7.882-25.838,3.813-35.813,6.349-5.423,12.958-9.608,18.7-14.635a45.448,45.448,0,0,0,11.033-13.655c21.076-41.21-5.96-77.527-15.889-118.763-.958-4.007-1.835-8.054-2.534-12.115-1.821-10.343-2.668-20.836-1.588-31.057a68.448,68.448,0,0,1,8.478-27.132c7.373-12.919,26.472-32,46.995-28.359,15.421,2.739,25.125,17.811,39.049,23.262,17.547,6.868,37.014,1.376,50.159-8.721,25.566-19.637,41.949-56.963,85.645-53.542,14.816,1.158,24.818,13.082,37.809,18.547,17.859,7.522,35.476,7.467,52.544.149,19.628-8.421,33.095-24.065,52.368-33.019a130.4,130.4,0,0,1,20.349-7.454c15.5-4.279,32.458-5.792,48.448-2.494a94.223,94.223,0,0,1,9.65,2.494c53.458,16.775,55.974,71.721,53.458,111.813-1.154,18.369-15.58,50.049-4.923,69.029S682.955,279.995,678.293,317.954Z" transform="translate(-10451.623 1494.97)" fill="rgba(252,79,25,0.99)" opacity="0.1"/>
    <g id="Group_166310" data-name="Group 166310" transform="translate(-10317 1618.024)">
      <g id="Group_163885" data-name="Group 163885" transform="translate(22.328 171.813)">
        <path id="Path_78923" data-name="Path 78923" d="M376.9,245.324c10.213-6.269,22.928-.667,26.366,11.892s17.7,9.758,25.445,23.261,6.063,29.7,7.916,45.488l-20.785,16.573s-17.622-4.4-25.517-16.047.1-20.772-5.107-32.011-11.555-10.328-15.321-21.856C364.027,254.669,376.9,245.324,376.9,245.324Z" transform="translate(-368.361 -242.742)" fill="#59b8a1"/>
        <path id="Path_78924" data-name="Path 78924" d="M373.825,246.147s23.322,55.489,48.049,84.911" transform="translate(-363.669 -239.818)" fill="none" stroke="#fff" stroke-linecap="round" stroke-linejoin="round" stroke-width="0.75"/>
        <path id="Path_78925" data-name="Path 78925" d="M380.866,246.083s.4,13.559-.39,26.511" transform="translate(-357.958 -239.873)" fill="none" stroke="#fff" stroke-linecap="round" stroke-linejoin="round" stroke-width="0.75"/>
        <path id="Path_78926" data-name="Path 78926" d="M373.825,263.054s4.407.939,20.056,9.894" transform="translate(-363.669 -225.301)" fill="none" stroke="#fff" stroke-linecap="round" stroke-linejoin="round" stroke-width="0.75"/>
        <path id="Path_78927" data-name="Path 78927" d="M392.649,259s3.39,19.748-2.128,36.7" transform="translate(-349.333 -228.781)" fill="none" stroke="#fff" stroke-linecap="round" stroke-linejoin="round" stroke-width="0.75"/>
        <path id="Path_78928" data-name="Path 78928" d="M380.74,284.328s10.893,4.972,26.233,2.082" transform="translate(-357.732 -207.035)" fill="none" stroke="#fff" stroke-linecap="round" stroke-linejoin="round" stroke-width="0.75"/>
      </g>
      <g id="Group_163886" data-name="Group 163886" transform="translate(431.35 197.692)">
        <path id="Path_78929" data-name="Path 78929" d="M659.954,258.012c9.668,6.124,10.2,18.841,7.36,26.608s-6.632,14.968-7.579,25.578-2.463,19.893-9.474,26.9-7.957,7.767-10.419,16.861-7.2,27.444-21.789,37.3l-27.472-13.992s1.7-24.82,6.632-40.356,19.7-19.136,23.114-29.556,3.031-24.441,9.473-31.262,12.126-5.115,14.967-11.178S654.072,254.284,659.954,258.012Z" transform="translate(-590.581 -256.665)" fill="#59b8a1"/>
        <path id="Path_78930" data-name="Path 78930" d="M652.911,259.284c-3.675,14.419-19.53,70.657-55.125,122.556" transform="translate(-584.395 -254.417)" fill="none" stroke="#fff" stroke-linecap="round" stroke-linejoin="round" stroke-width="0.75"/>
        <path id="Path_78931" data-name="Path 78931" d="M621.865,259.732c.528,3.89,1.723,11.925,3.762,21.608" transform="translate(-563.72 -254.033)" fill="none" stroke="#fff" stroke-linecap="round" stroke-linejoin="round" stroke-width="0.75"/>
        <path id="Path_78932" data-name="Path 78932" d="M636.226,276.734a59.334,59.334,0,0,1-16.283,10.574" transform="translate(-565.37 -239.434)" fill="none" stroke="#fff" stroke-linecap="round" stroke-linejoin="round" stroke-width="0.75"/>
        <path id="Path_78933" data-name="Path 78933" d="M609.122,276.227a134.7,134.7,0,0,0,8.821,38.152" transform="translate(-574.661 -239.87)" fill="none" stroke="#fff" stroke-linecap="round" stroke-linejoin="round" stroke-width="0.75"/>
        <path id="Path_78934" data-name="Path 78934" d="M625.577,304.264c-5,3.481-11.464,7.109-17.653,8.044" transform="translate(-575.69 -215.796)" fill="none" stroke="#fff" stroke-linecap="round" stroke-linejoin="round" stroke-width="0.75"/>
      </g>
      <path id="Path_78935" data-name="Path 78935" d="M460.621,168.91a33.153,33.153,0,0,0,2.788,63.968,18.54,18.54,0,0,1-7.815,11.914s12.685.026,17.941-11.245a33.155,33.155,0,1,0-12.914-64.637Z" transform="translate(-288.026 -135.657)" opacity="0.12" style="mix-blend-mode: multiply;isolation: isolate"/>
      <g id="Group_163887" data-name="Group 163887" transform="translate(0 207.048)">
        <path id="Path_78936" data-name="Path 78936" d="M358.385,383.555H545.2s-9.46-51.2-26.519-54.4-15.534-36.6-26.292-55.047c-12.559-21.534-37.464-12.685-45.964,8.525-5.37,13.4-2.4,18.294-20.967,21.714s-21.6,3.754-28.8,24.807-10.611,28.253-25.389,26.181C353.891,352.9,354.976,371.43,358.385,383.555Z" transform="translate(-356.348 -261.7)" fill="#ff8b1d"/>
      </g>
      <path id="Path_78938" data-name="Path 78938" d="M460.244,167.877a33.154,33.154,0,0,0,2.786,63.97,18.544,18.544,0,0,1-7.816,11.914s12.685.024,17.941-11.245a33.156,33.156,0,1,0-12.912-64.639Z" transform="translate(-288.346 -136.544)" fill="#fff"/>
      <path id="Path_78939" data-name="Path 78939" d="M554.359,210.117h89.617s-4.738-10.063-11.936-14.943-12.968-2.911-16.674-10.756c-4.862-10.293-19.766-10.934-25.389-3.6-6.029,7.868-5.62,13-14.588,17.051C566.022,202.1,556.632,204.554,554.359,210.117Z" transform="translate(-190.331 -128.311)" fill="#fff"/>
      <path id="Path_78940" data-name="Path 78940" d="M481.677,189.978l-1.745-5.516-5.081,1.608a13.175,13.175,0,0,0-2.927-3.476l2.459-4.732-5.135-2.667-2.457,4.734a13.135,13.135,0,0,0-4.528-.4l-1.608-5.081-5.516,1.745,1.608,5.081a13.137,13.137,0,0,0-3.474,2.927l-4.734-2.457-2.667,5.134,4.734,2.459a13.171,13.171,0,0,0-.4,4.526l-5.08,1.608,1.745,5.516,5.08-1.608a13.138,13.138,0,0,0,2.927,3.474l-2.457,4.734,5.134,2.667,2.459-4.734a13.168,13.168,0,0,0,4.526.4L466.15,211l5.516-1.745-1.608-5.08a13.172,13.172,0,0,0,3.476-2.927l4.732,2.457,2.667-5.134-4.734-2.459a13.123,13.123,0,0,0,.4-4.526Zm-16.618,7.981a5.489,5.489,0,1,1,3.576-6.89A5.49,5.49,0,0,1,465.059,197.959Z" transform="translate(-281.477 -129.565)" fill="#f6a60d"/>
      <g id="Group_163890" data-name="Group 163890" transform="translate(192.943 109.135)">
        <path id="Path_78942" data-name="Path 78942" d="M654.88,246.019H526.564v-37H654.88a18.5,18.5,0,0,1,18.5,18.5h0A18.5,18.5,0,0,1,654.88,246.019Z" transform="translate(-407.14 -209.019)" fill="#466eb6"/>
        <path id="Path_78943" data-name="Path 78943" d="M526.564,226.054v5.338H654.88a18.434,18.434,0,0,0,12.994-5.338Z" transform="translate(-407.14 -194.392)" opacity="0.2" style="mix-blend-mode: multiply;isolation: isolate"/>
        <path id="Path_78944" data-name="Path 78944" d="M583.526,242.241H464.416V210.41h119.11a15.916,15.916,0,0,1,15.915,15.915h0A15.916,15.916,0,0,1,583.526,242.241Z" transform="translate(-460.502 -207.825)" fill="#fff"/>
        <g id="Group_163889" data-name="Group 163889" transform="translate(3.915 9.596)">
          <g id="Group_163888" data-name="Group 163888">
            <line id="Line_80" data-name="Line 80" x2="132.031" fill="none" stroke="#b5b5b5" stroke-miterlimit="10" stroke-width="0.5"/>
            <line id="Line_81" data-name="Line 81" x2="132.031" transform="translate(0 3.562)" fill="none" stroke="#b5b5b5" stroke-miterlimit="10" stroke-width="0.5"/>
            <line id="Line_82" data-name="Line 82" x2="133.639" transform="translate(0 7.124)" fill="none" stroke="#b5b5b5" stroke-miterlimit="10" stroke-width="0.5"/>
            <line id="Line_83" data-name="Line 83" x2="133.639" transform="translate(0 10.686)" fill="none" stroke="#b5b5b5" stroke-miterlimit="10" stroke-width="0.5"/>
            <line id="Line_84" data-name="Line 84" x2="132.031" transform="translate(0 14.248)" fill="none" stroke="#b5b5b5" stroke-miterlimit="10" stroke-width="0.5"/>
            <line id="Line_85" data-name="Line 85" x2="132.031" transform="translate(0 17.81)" fill="none" stroke="#b5b5b5" stroke-miterlimit="10" stroke-width="0.5"/>
          </g>
        </g>
        <path id="Path_78945" data-name="Path 78945" d="M586.791,209.019H462.31v6.063H586.791a12.437,12.437,0,0,1,0,24.874H462.31v6.063H586.791a18.5,18.5,0,0,0,0-37Z" transform="translate(-462.31 -209.019)" fill="#385892"/>
      </g>
      <g id="Group_163892" data-name="Group 163892" transform="translate(140.381 145.915)">
        <path id="Path_78946" data-name="Path 78946" d="M461.164,283.08H645.487V228.808H461.164a27.135,27.135,0,0,0-27.134,27.136h0A27.135,27.135,0,0,0,461.164,283.08Z" transform="translate(-434.03 -228.808)" fill="#59b8a1"/>
        <path id="Path_78947" data-name="Path 78947" d="M439.227,254.569a27.014,27.014,0,0,0,17.475,6.392H641.025v-6.392Z" transform="translate(-429.568 -206.689)" opacity="0.11" style="mix-blend-mode: multiply;isolation: isolate"/>
        <path id="Path_78948" data-name="Path 78948" d="M532.464,275.747H687.237V231.668H532.464a22.039,22.039,0,0,0-22.039,22.04h0A22.039,22.039,0,0,0,532.464,275.747Z" transform="translate(-368.436 -226.352)" fill="#fff"/>
        <g id="Group_163891" data-name="Group 163891" transform="translate(141.988 13.004)">
          <line id="Line_86" data-name="Line 86" x1="174.052" transform="translate(2.761)" fill="none" stroke="#b5b5b5" stroke-miterlimit="10" stroke-width="0.5"/>
          <line id="Line_87" data-name="Line 87" x1="174.052" transform="translate(2.761 4.784)" fill="none" stroke="#b5b5b5" stroke-miterlimit="10" stroke-width="0.5"/>
          <line id="Line_88" data-name="Line 88" x1="175.306" transform="translate(1.507 9.567)" fill="none" stroke="#b5b5b5" stroke-miterlimit="10" stroke-width="0.5"/>
          <line id="Line_89" data-name="Line 89" x1="176.813" transform="translate(0 14.351)" fill="none" stroke="#b5b5b5" stroke-miterlimit="10" stroke-width="0.5"/>
          <line id="Line_90" data-name="Line 90" x1="175.306" transform="translate(1.507 19.134)" fill="none" stroke="#b5b5b5" stroke-miterlimit="10" stroke-width="0.5"/>
          <line id="Line_91" data-name="Line 91" x1="174.052" transform="translate(2.761 23.918)" fill="none" stroke="#b5b5b5" stroke-miterlimit="10" stroke-width="0.5"/>
          <line id="Line_92" data-name="Line 92" x1="174.052" transform="translate(2.761 28.702)" fill="none" stroke="#b5b5b5" stroke-miterlimit="10" stroke-width="0.5"/>
        </g>
        <path id="Path_78949" data-name="Path 78949" d="M533.632,229.044H697.767v8.821H533.632a18.1,18.1,0,0,0,0,36.191H697.767v8.821H533.632a26.917,26.917,0,1,1,0-53.833Z" transform="translate(-371.621 -228.605)" fill="#59b8a1"/>
      </g>
      <g id="Group_163895" data-name="Group 163895" transform="translate(107.878 200.187)">
        <path id="Rectangle_3233" data-name="Rectangle 3233" d="M0,0H176.164a24.415,24.415,0,0,1,24.415,24.415V66.341a24.415,24.415,0,0,1-24.415,24.415H0a0,0,0,0,1,0,0V0A0,0,0,0,1,0,0Z" transform="translate(158.071)" fill="#f47458"/>
        <path id="Path_78950" data-name="Path 78950" d="M501.59,303.3v6.565h155.2a45.161,45.161,0,0,0,23.523-6.565Z" transform="translate(-343.518 -219.115)" opacity="0.32" style="mix-blend-mode: multiply;isolation: isolate"/>
        <path id="Rectangle_3234" data-name="Rectangle 3234" d="M0,0H171.895a21.611,21.611,0,0,1,21.611,21.611V58.722a21.611,21.611,0,0,1-21.611,21.611H0a0,0,0,0,1,0,0V0A0,0,0,0,1,0,0Z" transform="translate(7.511 5.212)" fill="#fff"/>
        <g id="Group_163893" data-name="Group 163893" transform="translate(7.511 16.437)">
          <line id="Line_93" data-name="Line 93" x2="185.674" fill="none" stroke="#b5b5b5" stroke-miterlimit="10" stroke-width="0.816"/>
          <line id="Line_94" data-name="Line 94" x2="185.674" transform="translate(0 8.269)" fill="none" stroke="#b5b5b5" stroke-miterlimit="10" stroke-width="0.816"/>
          <line id="Line_95" data-name="Line 95" x2="191.358" transform="translate(0 16.538)" fill="none" stroke="#b5b5b5" stroke-miterlimit="10" stroke-width="0.816"/>
          <line id="Line_96" data-name="Line 96" x2="191.358" transform="translate(0 24.807)" fill="none" stroke="#b5b5b5" stroke-miterlimit="10" stroke-width="0.816"/>
          <line id="Line_97" data-name="Line 97" x2="191.358" transform="translate(0 33.076)" fill="none" stroke="#b5b5b5" stroke-miterlimit="10" stroke-width="0.816"/>
          <line id="Line_98" data-name="Line 98" x2="191.358" transform="translate(0 41.345)" fill="none" stroke="#b5b5b5" stroke-miterlimit="10" stroke-width="0.816"/>
          <line id="Line_99" data-name="Line 99" x2="185.674" transform="translate(0 49.614)" fill="none" stroke="#b5b5b5" stroke-miterlimit="10" stroke-width="0.816"/>
          <line id="Line_100" data-name="Line 100" x2="185.674" transform="translate(0 57.883)" fill="none" stroke="#b5b5b5" stroke-miterlimit="10" stroke-width="0.816"/>
        </g>
        <g id="Group_163894" data-name="Group 163894" transform="translate(0 0)">
          <path id="Path_78951" data-name="Path 78951" d="M578.874,348.763H416.542V338.154H578.874a34.768,34.768,0,1,0,0-69.537H416.542V258.008H578.874a45.377,45.377,0,1,1,0,90.755Z" transform="translate(-416.542 -258.008)" fill="#f47458"/>
        </g>
      </g>
      <g id="Group_163897" data-name="Group 163897" transform="translate(110.382 290.942)">
        <path id="Rectangle_3235" data-name="Rectangle 3235" d="M15.618,0H224.14a0,0,0,0,1,0,0V58.056a0,0,0,0,1,0,0H15.618A15.618,15.618,0,0,1,0,42.438V15.618A15.618,15.618,0,0,1,15.618,0Z" transform="translate(0 0.001)" fill="#ffcf30"/>
        <path id="Path_78952" data-name="Path 78952" d="M423.35,334.305a28.889,28.889,0,0,0,18.878,7.005H637.339v-7.005Z" transform="translate(-413.2 -283.252)" opacity="0.15" style="mix-blend-mode: multiply;isolation: isolate"/>
        <path id="Rectangle_3237" data-name="Rectangle 3237" d="M13.863,0H174.812a0,0,0,0,1,0,0V51.534a0,0,0,0,1,0,0H13.863A13.863,13.863,0,0,1,0,37.671V13.863A13.863,13.863,0,0,1,13.863,0Z" transform="translate(165.673 3.262)" fill="#fff"/>
        <g id="Group_163896" data-name="Group 163896" transform="translate(167.978 11.788)">
          <line id="Line_101" data-name="Line 101" x1="170.268" transform="translate(2.238)" fill="none" stroke="#b5b5b5" stroke-miterlimit="10" stroke-width="0.816"/>
          <line id="Line_102" data-name="Line 102" x1="170.268" transform="translate(2.238 4.926)" fill="none" stroke="#b5b5b5" stroke-miterlimit="10" stroke-width="0.816"/>
          <line id="Line_103" data-name="Line 103" x1="171.464" transform="translate(1.042 9.852)" fill="none" stroke="#b5b5b5" stroke-miterlimit="10" stroke-width="0.816"/>
          <line id="Line_104" data-name="Line 104" x1="172.506" transform="translate(0 14.778)" fill="none" stroke="#b5b5b5" stroke-miterlimit="10" stroke-width="0.816"/>
          <line id="Line_105" data-name="Line 105" x1="172.506" transform="translate(0 19.704)" fill="none" stroke="#b5b5b5" stroke-miterlimit="10" stroke-width="0.816"/>
          <line id="Line_106" data-name="Line 106" x1="171.464" transform="translate(1.042 24.63)" fill="none" stroke="#b5b5b5" stroke-miterlimit="10" stroke-width="0.816"/>
          <line id="Line_107" data-name="Line 107" x1="170.268" transform="translate(2.238 29.556)" fill="none" stroke="#b5b5b5" stroke-miterlimit="10" stroke-width="0.816"/>
          <line id="Line_108" data-name="Line 108" x1="170.268" transform="translate(2.238 34.482)" fill="none" stroke="#b5b5b5" stroke-miterlimit="10" stroke-width="0.816"/>
        </g>
        <path id="Path_78953" data-name="Path 78953" d="M686.667,357.315H533.741a21.449,21.449,0,0,1,0-42.9H686.667v-7.579H533.741a29.03,29.03,0,0,0-29.028,29.03h0a29.029,29.029,0,0,0,29.028,29.028H686.667Z" transform="translate(-343.34 -306.837)" fill="#ba9723"/>
      </g>
      <g id="Group_163898" data-name="Group 163898" transform="translate(240.734 245.188)" opacity="0.32" style="mix-blend-mode: multiply;isolation: isolate">
        <path id="Path_78954" data-name="Path 78954" d="M488.023,390.286h265.8S748.4,379.967,731.716,372.2c-13.267-6.176-6.879-25.24-24.075-33.531s-23.2-12.789-34.883-30.926c-16.975-26.346-36.375-30.48-48.4-20.644s-16.413,20.8-29.714,20.644c-21.151-.245-33.463,10.921-38.349,26.833s-25.03,20.523-40.261,28.045S489,380.95,488.023,390.286Z" transform="translate(-488.023 -282.22)"/>
      </g>
      <g id="Group_163899" data-name="Group 163899" transform="translate(252.494 245.419)">
        <path id="Path_78955" data-name="Path 78955" d="M494.35,390.41h265.8s-5.429-10.317-22.108-18.084c-13.267-6.176-6.879-25.24-24.075-33.531S690.769,326,679.086,307.87c-16.975-26.348-36.377-30.48-48.4-20.646s-16.414,20.8-29.716,20.646c-21.151-.247-33.461,10.919-38.347,26.831s-25.032,20.525-40.262,28.045S495.331,381.076,494.35,390.41Z" transform="translate(-494.35 -282.344)" fill="#ff8b1d"/>
      </g>
      <g id="Group_163901" data-name="Group 163901" transform="translate(304.069)">
        <path id="Path_78957" data-name="Path 78957" d="M555.18,152.022a33.154,33.154,0,0,0-16.64,61.831,18.544,18.544,0,0,1-11.046,9s12.087,3.849,20.5-5.31a33.155,33.155,0,1,0,7.187-65.522Z" transform="translate(-520.862 -148.823)" opacity="0.12" style="mix-blend-mode: multiply;isolation: isolate"/>
        <path id="Path_78958" data-name="Path 78958" d="M554.555,150.3a33.153,33.153,0,0,0-16.64,61.829,18.532,18.532,0,0,1-11.046,9s12.087,3.851,20.5-5.308a33.155,33.155,0,1,0,7.187-65.522Z" transform="translate(-521.399 -150.301)" fill="#fff"/>
        <g id="Group_163900" data-name="Group 163900" transform="translate(20.62 12.723)">
          <path id="Path_78959" data-name="Path 78959" d="M542.645,179.371a2.331,2.331,0,1,1-2.331-2.331A2.331,2.331,0,0,1,542.645,179.371Z" transform="translate(-527.779 -140.066)" fill="#ff1a79"/>
          <path id="Path_78960" data-name="Path 78960" d="M557.566,169.682a12.537,12.537,0,1,0-22.7,7.334,19.811,19.811,0,0,1,2.9,6.34,51.4,51.4,0,0,1,1.251,5.686h12.04a52.179,52.179,0,0,1,1.416-6.269,18.249,18.249,0,0,1,2.7-5.712A12.483,12.483,0,0,0,557.566,169.682Z" transform="translate(-532.493 -157.147)" fill="#ffcf30"/>
          <path id="Rectangle_3238" data-name="Rectangle 3238" d="M0,0H13.853a0,0,0,0,1,0,0V6.205a1.02,1.02,0,0,1-1.02,1.02H1.02A1.02,1.02,0,0,1,0,6.205V0A0,0,0,0,1,0,0Z" transform="translate(5.609 31.895)" fill="#f47458"/>
          <path id="Path_78961" data-name="Path 78961" d="M544.268,175.76v-7.126c0-2.652-.565-4.8-1.26-4.8-.47,0-.874.983-1.091,2.429-.218-1.446-.621-2.429-1.089-2.429s-.872.983-1.089,2.429c-.217-1.446-.623-2.429-1.091-2.429-.7,0-1.26,2.15-1.26,4.8v7.126" transform="translate(-528.291 -151.407)" fill="none" stroke="#fff" stroke-linecap="round" stroke-linejoin="round" stroke-width="0.506"/>
        </g>
      </g>
      <g id="Group_163904" data-name="Group 163904" transform="translate(220.752 20.297)">
        <g id="Group_163902" data-name="Group 163902" transform="translate(3.892 130.513)">
          <path id="Path_78962" data-name="Path 78962" d="M487.964,231.442l-1.357,9.044a3.188,3.188,0,0,1-.887,1.773c-1.874,1.894-6.758,7.26-7.42,12.3l15.064-9.118a1.583,1.583,0,0,0,.489-2.253c-.47-.682-1.052-1.5-1.585-2.165a1.624,1.624,0,0,1-.3-1.431l2.123-8.146Z" transform="translate(-478.301 -231.442)" fill="#fff"/>
          <path id="Path_78963" data-name="Path 78963" d="M484.555,238.533c-2.23,2.457-5.7,6.869-6.254,11.063l15.064-9.118a1.583,1.583,0,0,0,.487-2.253c-.217-.316-.459-.66-.71-1.006A16.525,16.525,0,0,1,484.555,238.533Z" transform="translate(-478.301 -226.482)" fill="#252933"/>
        </g>
        <g id="Group_163903" data-name="Group 163903" transform="translate(43.365 128.203)">
          <path id="Path_78964" data-name="Path 78964" d="M499.539,232.937l2.827,8.7a3.181,3.181,0,0,1,0,1.981c-.829,2.531-2.8,9.514-1.141,14.317l9.4-14.891a1.581,1.581,0,0,0-.571-2.23c-.725-.4-1.612-.872-2.387-1.23a1.626,1.626,0,0,1-.909-1.145l-1.742-8.237Z" transform="translate(-499.539 -230.199)" fill="#fff"/>
          <path id="Path_78965" data-name="Path 78965" d="M501.394,240.61c-.9,3.193-2.031,8.693-.65,12.691l9.4-14.889a1.581,1.581,0,0,0-.571-2.232c-.336-.186-.706-.387-1.084-.584A16.54,16.54,0,0,1,501.394,240.61Z" transform="translate(-499.058 -225.566)" fill="#252933"/>
        </g>
        <path id="Path_78966" data-name="Path 78966" d="M507.078,219.987h-5.81l-8.563,38.526H482.221s3.548-29.586,4.3-38.526c.738-8.817.885-16.25,8.083-16.25H530.22Z" transform="translate(-471.043 -124.717)" fill="#466eb6"/>
        <path id="Path_78967" data-name="Path 78967" d="M487.033,204.534l3.572,44.837,6.531-29.385h5.81l23.142-16.25H490.468A6.913,6.913,0,0,0,487.033,204.534Z" transform="translate(-466.912 -124.717)" opacity="0.2" style="mix-blend-mode: multiply;isolation: isolate"/>
        <path id="Path_78968" data-name="Path 78968" d="M540.541,202.015s2.02,10.483-1.137,15.283-7.325,5.178-12.252,5.178H511.362l2.779,37.514H503.279s-7.327-27.03-8.715-36.63-.192-17.518,5.21-17.518S540.541,202.015,540.541,202.015Z" transform="translate(-460.902 -126.196)" fill="#466eb6"/>
        <path id="Path_78969" data-name="Path 78969" d="M500.727,180.9a73.119,73.119,0,0,0-6.908,16.618h9.139s2.4-6.44,3.348-9.663S501.84,179.081,500.727,180.9Z" transform="translate(-461.086 -144.629)" fill="#fff"/>
        <path id="Path_78970" data-name="Path 78970" d="M516.921,177.345c6.613.827,11.367,3.411,16.166,14.272s3.031,22.989,4.927,26.147,2.273,6.695,0,8.273-12.126,1.2-15.663,1.2H505.8S501.638,204,499.615,199.07s-4.109-13.133-.63-16.848S507.827,176.208,516.921,177.345Z" transform="translate(-458.25 -147.629)" fill="#ffcf30"/>
        <rect id="Rectangle_3239" data-name="Rectangle 3239" width="65.125" height="2.187" transform="translate(11.178 77.926)" fill="#252933"/>
        <path id="Path_78971" data-name="Path 78971" d="M507.126,190.518c1.119,2.775,2.916,3.593,5.041,3.1s5.475-2.779,5.884-4.739-2.288-20.757-2.288-20.757S499.093,162,497.3,164.039s-5.394,14.218-2.206,19.449S507.126,190.518,507.126,190.518Z" transform="translate(-461.086 -159.161)" fill="#fff"/>
        <path id="Path_78972" data-name="Path 78972" d="M500.244,169.718s1.515,6.442,11.494,7.2c0,0-.632-2.528,1.641-1.769s1.9,4.043,1.137,5.81,1.641,4.422,1.641,8.211-.505,6.063,3.411,5.557,10.484-5.18,11.367-7.959-5.684-4.8-9.724-14.02-13.263-14.4-20.084-9.853c0,0-5.684.126-7.83,4.548s1.136,11.494.885,16.8-4.169,8.211,0,9.221,9.724,2.022,14.272-.885a11.534,11.534,0,0,0-2.4-4.42c-1.643-1.643-4.548,1.7-6.758-5.178l-1.643.316S497.087,174.58,500.244,169.718Z" transform="translate(-462.414 -161.222)" fill="#252933"/>
        <path id="Path_78973" data-name="Path 78973" d="M522.4,180.17c6.433-.338,6.252,8.336,6.158,13.074s-3.031,26.619-5.117,27.851-25.576,2.273-25.576,2.273v-3.885l19.514-4.831s.758-19.136.948-24.346S518.8,180.36,522.4,180.17Z" transform="translate(-457.608 -144.96)" fill="#fff"/>
        <path id="Path_78974" data-name="Path 78974" d="M528.973,220.821h-44.9l-7.863-35.708h44.9Z" transform="translate(-476.207 -140.708)" fill="#252933"/>
      </g>
      <g id="Group_163906" data-name="Group 163906" transform="translate(334.557 104.377)">
        <path id="Path_78976" data-name="Path 78976" d="M639.642,464.027l3.977-.907L585.078,206.459l-3.979.909,2.162,9.475H544.848l-2.368-10.384-3.977.909,58.541,256.659,3.978-.907L596.3,442.4h38.412Zm-53.573-66.464h38.412l4.8,21.06H590.872Zm7.42-135.878H555.076l-4.8-21.062h38.412Zm.311,1.359,4.8,21.06H560.189l-4.8-21.06Zm5.113,22.421,4.8,21.058H565.3l-4.8-21.058Zm5.115,22.42,4.8,21.058H570.418l-4.8-21.058ZM609.14,330.3l4.8,21.058H575.531l-4.8-21.058Zm5.113,22.421,4.8,21.058H580.646l-4.8-21.058Zm5.115,22.419,4.8,21.058H585.759l-4.8-21.058ZM583.571,218.2l4.8,21.06H549.963l-4.8-21.06Zm12.416,222.838-4.8-21.058h38.41l4.8,21.058Z" transform="translate(-538.503 -206.459)" opacity="0.32" style="mix-blend-mode: multiply;isolation: isolate"/>
        <g id="Group_163905" data-name="Group 163905" transform="translate(5.976 0.454)">
          <line id="Line_109" data-name="Line 109" x2="58.541" y2="256.66" fill="none" stroke="#ffcf30" stroke-miterlimit="10" stroke-width="2.195"/>
          <line id="Line_110" data-name="Line 110" x2="58.541" y2="256.66" transform="translate(42.598)" fill="none" stroke="#ffcf30" stroke-miterlimit="10" stroke-width="2.195"/>
          <line id="Line_111" data-name="Line 111" x2="42.598" transform="translate(2.42 10.61)" fill="none" stroke="#ffcf30" stroke-miterlimit="10" stroke-width="0.732"/>
          <line id="Line_112" data-name="Line 112" x2="42.598" transform="translate(7.534 33.03)" fill="none" stroke="#ffcf30" stroke-miterlimit="10" stroke-width="0.732"/>
          <line id="Line_113" data-name="Line 113" x2="42.598" transform="translate(12.647 55.45)" fill="none" stroke="#ffcf30" stroke-miterlimit="10" stroke-width="0.732"/>
          <line id="Line_114" data-name="Line 114" x2="42.598" transform="translate(17.761 77.869)" fill="none" stroke="#ffcf30" stroke-miterlimit="10" stroke-width="0.732"/>
          <line id="Line_115" data-name="Line 115" x2="42.598" transform="translate(22.874 100.289)" fill="none" stroke="#ffcf30" stroke-miterlimit="10" stroke-width="0.732"/>
          <line id="Line_116" data-name="Line 116" x2="42.598" transform="translate(27.988 122.709)" fill="none" stroke="#ffcf30" stroke-miterlimit="10" stroke-width="0.732"/>
          <line id="Line_117" data-name="Line 117" x2="42.598" transform="translate(33.102 145.129)" fill="none" stroke="#ffcf30" stroke-miterlimit="10" stroke-width="0.732"/>
          <line id="Line_118" data-name="Line 118" x2="42.598" transform="translate(38.216 167.549)" fill="none" stroke="#ffcf30" stroke-miterlimit="10" stroke-width="0.732"/>
          <line id="Line_119" data-name="Line 119" x2="42.598" transform="translate(43.329 189.969)" fill="none" stroke="#ffcf30" stroke-miterlimit="10" stroke-width="0.732"/>
          <line id="Line_120" data-name="Line 120" x2="42.598" transform="translate(48.443 212.389)" fill="none" stroke="#ffcf30" stroke-miterlimit="10" stroke-width="0.732"/>
          <line id="Line_121" data-name="Line 121" x2="42.598" transform="translate(53.556 234.808)" fill="none" stroke="#ffcf30" stroke-miterlimit="10" stroke-width="0.732"/>
        </g>
      </g>
      <g id="Group_163909" data-name="Group 163909" transform="translate(89.495 103.253)">
        <g id="Group_163907" data-name="Group 163907" transform="translate(10.337 143.171)">
          <path id="Path_78977" data-name="Path 78977" d="M421.4,282.885l-1.4,6.566a8.09,8.09,0,0,1-2.461,4.288c-2.71,2.476-7.31,6.834-7.015,7.624.42,1.115,14.434-4.184,16.109-6.206s-.558-2.509,0-4.951,1.6-7.321,1.6-7.321Z" transform="translate(-410.505 -282.885)" fill="#ffcf30"/>
          <path id="Path_78978" data-name="Path 78978" d="M422.926,286.946l-3.011-.388a8.074,8.074,0,0,1-2.383,4.028c-2.71,2.476-7.31,6.834-7.015,7.624.42,1.115,14.434-4.184,16.109-6.206,1.349-1.632.158-2.266-.059-3.732l-3.524.238Z" transform="translate(-410.505 -279.731)" fill="#252933"/>
        </g>
        <g id="Group_163908" data-name="Group 163908" transform="translate(0 142.457)">
          <path id="Path_78979" data-name="Path 78979" d="M413.052,283.493l-.435,6.7a8.093,8.093,0,0,1-1.812,4.6c-2.321,2.844-6.239,7.823-5.832,8.561.576,1.045,13.674-6.234,15.034-8.479s-.916-2.4-.717-4.9.522-7.477.522-7.477Z" transform="translate(-404.943 -282.501)" fill="#ffcf30"/>
          <path id="Path_78980" data-name="Path 78980" d="M415.611,286.757l-3.033.052a8.076,8.076,0,0,1-1.773,4.331c-2.321,2.844-6.239,7.823-5.832,8.561.576,1.045,13.674-6.234,15.034-8.479,1.1-1.81-.171-2.264-.6-3.684l-3.451.747Z" transform="translate(-404.943 -278.847)" fill="#252933"/>
        </g>
        <path id="Path_78981" data-name="Path 78981" d="M432.982,265.673h-6.851l-7.7,49.133h-9.845s1.762-45.715,1.762-53.549c0-9.732,8.18-12.754,15.41-12.754h24.881Z" transform="translate(-401.819 -169.235)" fill="#466eb6"/>
        <path id="Path_78982" data-name="Path 78982" d="M449.474,248.5H424.592c-5.927,0-12.481,2.037-14.657,8.126l11.176,33.656,3.858-24.612h6.851Z" transform="translate(-400.657 -169.235)" opacity="0.2" style="mix-blend-mode: multiply;isolation: isolate"/>
        <path id="Path_78983" data-name="Path 78983" d="M479.714,246.663s4.673,21.1-9.094,21.1H439.611L425.4,316.386H415.17s7.706-46.607,8.968-53.934,4.3-12.369,12.126-12.369S479.714,246.663,479.714,246.663Z" transform="translate(-396.162 -170.815)" fill="#466eb6"/>
        <path id="Path_78984" data-name="Path 78984" d="M439.848,233.683l-4.422,13.326-12.442,4.925v4.485s19.832-3.727,21.22-6.442,3.15-16.295,3.15-16.295Z" transform="translate(-389.452 -181.96)" fill="#ffcf30"/>
        <path id="Path_78985" data-name="Path 78985" d="M446.353,222.346c-4.806,1.842-7.648,4.3-10.206,9.609s-5.212,12.981-5.212,12.981h10.8Z" transform="translate(-382.625 -191.694)" fill="#f6a60d"/>
        <path id="Path_78986" data-name="Path 78986" d="M456.393,221.534c3.353.623,7.871,2.039,9.306,5.879s.394,29.794.394,35.383c0,2.747,3.126,7.3-2.559,7.3h-28.8c-4.453,0-2.68-4.453-1.1-10.137s4.89-21.237,5.275-25.671c.533-6.158,4.554-11.022,9.124-12.157A24.08,24.08,0,0,1,456.393,221.534Z" transform="translate(-381.783 -192.505)" fill="#f8bf66"/>
        <path id="Path_78987" data-name="Path 78987" d="M435.678,213.632a32.127,32.127,0,0,1,1.245,6.433,18.063,18.063,0,0,0,1.513,6.317,3.608,3.608,0,0,0,2.8,2.314,14.143,14.143,0,0,0,2.669-.312l.312,5.563s5.784,1.468,8.944-1.781v-8.211s2.046-5.314,1.513-8.563-2.682-5.524-8.721-6.362C444.354,208.807,435.879,212.275,435.678,213.632Z" transform="translate(-378.554 -203.137)" fill="#ffcf30"/>
        <path id="Path_78988" data-name="Path 78988" d="M454.971,236.572l-3.661,10.988-22.989,4.485v4.609s25.7-.253,29.429-3.6,7.453-16.482,7.453-16.482Z" transform="translate(-384.871 -179.48)" fill="#ffcf30"/>
        <path id="Path_78989" data-name="Path 78989" d="M456.239,262.861H415.522l-6.939-31.08H449.3Z" transform="translate(-401.819 -183.594)" fill="#252933"/>
        <rect id="Rectangle_3240" data-name="Rectangle 3240" width="46.513" height="2.093" transform="translate(31.164 77.175)" fill="#252933"/>
        <path id="Path_78990" data-name="Path 78990" d="M447.621,216.522c1.861-.628,1.808,3.264,2.165,5.814s1.6,1.543,1.6.652-.059-2.966,1.186-3.736,2.55.948,2.076,2.372-1.483,3.976-1.483,3.976l2.373,1.245a35.232,35.232,0,0,0,3.085-6.764c1.067-3.44.948-6.643-2.2-8.126,0,0-1.128-4.985-8.009-5.933s-14.594,2.255-15.484,6.228S437.284,220.016,447.621,216.522Z" transform="translate(-380.99 -205.854)" fill="#252933"/>
        <path id="Path_78991" data-name="Path 78991" d="M453.46,223.05c6.689.283,5.115,11.3,4.3,15.726s-2.589,10.988-2.589,10.988H441.334s3.095-11.494,4.042-15.22S448.977,222.86,453.46,223.05Z" transform="translate(-373.697 -191.093)" fill="#f6a60d"/>
      </g>
    </g>
  </g>
</svg>
