<svg id="log-in" xmlns="http://www.w3.org/2000/svg" width="39" height="37" viewBox="0 0 39 37">
  <path id="Path_73543" data-name="Path 73543" d="M30.862.023C30.82.02,30.786,0,30.743,0H12.962A4.808,4.808,0,0,0,8,4.625V6.167A1.6,1.6,0,0,0,9.654,7.708a1.6,1.6,0,0,0,1.654-1.542V4.625a1.6,1.6,0,0,1,1.654-1.542h7.706l-.5.157a3.123,3.123,0,0,0-2.24,2.926V29.292H12.962a1.6,1.6,0,0,1-1.654-1.542V24.667a1.6,1.6,0,0,0-1.654-1.542A1.6,1.6,0,0,0,8,24.667V27.75a4.808,4.808,0,0,0,4.962,4.625h4.962v1.542A3.2,3.2,0,0,0,21.232,37a3.71,3.71,0,0,0,1.054-.153l9.937-3.088a3.123,3.123,0,0,0,2.241-2.926V3.083a3.231,3.231,0,0,0-3.6-3.06Z" transform="translate(4.536)" fill="#c4c4c4"/>
  <path id="Path_73544" data-name="Path 73544" d="M17.709,12.1,11.093,5.485A1.654,1.654,0,0,0,8.27,6.654v4.962H1.654a1.654,1.654,0,0,0,0,3.308H8.27v4.962a1.654,1.654,0,0,0,2.823,1.169l6.616-6.616a1.652,1.652,0,0,0,0-2.339Z" transform="translate(0 2.307)" fill="#c4c4c4"/>
</svg>
