<svg id="server-storage" xmlns="http://www.w3.org/2000/svg" width="39" height="37" viewBox="0 0 39 37">
  <path id="Path_73573" data-name="Path 73573" d="M19.5,0C30.27,0,39,2.015,39,4.5S30.27,9,19.5,9,0,6.985,0,4.5,8.73,0,19.5,0Z" fill="#c4c4c4"/>
  <path id="Path_73545" data-name="Path 73545" d="M19.5,9.625C8.731,9.625,0,7.555,0,5v6.167c0,2.555,8.731,4.625,19.5,4.625S39,13.721,39,11.167V5C39,7.555,30.269,9.625,19.5,9.625Z" transform="translate(0 2.708)" fill="#c4c4c4"/>
  <path id="Path_73546" data-name="Path 73546" d="M19.5,15.625C8.731,15.625,0,13.555,0,11v6.167c0,2.555,8.731,4.625,19.5,4.625S39,19.721,39,17.167V11C39,13.555,30.269,15.625,19.5,15.625Z" transform="translate(0 5.958)" fill="#c4c4c4"/>
  <path id="Path_73547" data-name="Path 73547" d="M19.5,21.625C8.731,21.625,0,19.555,0,17v6.167c0,2.555,8.731,4.625,19.5,4.625S39,25.721,39,23.167V17C39,19.555,30.269,21.625,19.5,21.625Z" transform="translate(0 9.208)" fill="#c4c4c4"/>
</svg>
