<svg xmlns="http://www.w3.org/2000/svg" width="39" height="37" viewBox="0 0 39 37">
  <g id="Group_163800" data-name="Group 163800" transform="translate(-234 -1450)">
    <path id="Path_73539" data-name="Path 73539" d="M5.09,241.122H3.548a1.157,1.157,0,0,1,0-2.314H5.09v-2.622H3.548a1.157,1.157,0,0,1,0-2.314H5.09V231.25H3.548a1.157,1.157,0,0,1,0-2.314H5.09V224H1.157A1.157,1.157,0,0,0,0,225.157V244.9a1.157,1.157,0,0,0,1.157,1.157H5.094C5.089,244.52,5.09,245.521,5.09,241.122Z" transform="translate(234 1240.942)" fill="#c4c4c4"/>
    <path id="Path_73540" data-name="Path 73540" d="M168.186,1.157A1.157,1.157,0,0,0,167.029,0h-9.872A1.157,1.157,0,0,0,156,1.157V2.622h12.186Z" transform="translate(89.884 1450)" fill="#c4c4c4"/>
    <path id="Path_73541" data-name="Path 73541" d="M311.944,200A7.953,7.953,0,0,0,304,207.944c0,3.508,4.74,8.538,7.169,10.731a1.158,1.158,0,0,0,1.55,0c2.485-2.244,7.169-7.244,7.169-10.731A7.953,7.953,0,0,0,311.944,200Zm1.851,9.1h-3.7a1.157,1.157,0,0,1,0-2.314h3.7a1.157,1.157,0,1,1,0,2.314Z" transform="translate(-46.888 1264.091)" fill="#c4c4c4"/>
    <path id="Path_73542" data-name="Path 73542" d="M126.773,93.907h-9.332V92.6c-3.145-2.737-7.713-7.417-7.713-11.416a9.728,9.728,0,0,1,7.713-9.263V65.078A1.12,1.12,0,0,0,116.284,64H97.157A1.12,1.12,0,0,0,96,65.078V96.064h30.773a1.081,1.081,0,1,0,0-2.157ZM109.5,66.3h1.851a1.081,1.081,0,1,1,0,2.157H109.5a1.081,1.081,0,1,1,0-2.157Zm-5.553,20.561h-1.851a1.081,1.081,0,1,1,0-2.157h1.851a1.081,1.081,0,1,1,0,2.157Zm0-4.6h-1.851a1.081,1.081,0,1,1,0-2.157h1.851a1.081,1.081,0,1,1,0,2.157Zm0-4.6h-1.851a1.081,1.081,0,1,1,0-2.157h1.851a1.081,1.081,0,1,1,0,2.157Zm0-4.6h-1.851a1.081,1.081,0,1,1,0-2.157h1.851a1.081,1.081,0,1,1,0,2.157Zm0-4.6h-1.851a1.081,1.081,0,1,1,0-2.157h1.851a1.081,1.081,0,1,1,0,2.157Zm4.4,3.523A1.12,1.12,0,0,1,109.5,70.9h1.851a1.081,1.081,0,1,1,0,2.157H109.5A1.12,1.12,0,0,1,108.34,71.98Z" transform="translate(145.07 1390.936)" fill="#c4c4c4"/>
  </g>
</svg>
