<svg xmlns="http://www.w3.org/2000/svg" xmlns:xlink="http://www.w3.org/1999/xlink" viewBox="0 0 2140.52 1319.68"><defs><style>.cls-1{mask:url(#mask);filter:url(#luminosity-noclip-7);}.cls-10,.cls-12,.cls-2,.cls-4,.cls-6,.cls-8{mix-blend-mode:multiply;}.cls-2{fill:url(#linear-gradient);}.cls-3{mask:url(#mask-2);filter:url(#luminosity-noclip-12);}.cls-4{fill:url(#linear-gradient-2);}.cls-5{mask:url(#mask-3);filter:url(#luminosity-noclip-8);}.cls-6{fill:url(#linear-gradient-3);}.cls-7{mask:url(#mask-4);filter:url(#luminosity-noclip-9);}.cls-8{fill:url(#linear-gradient-4);}.cls-9{mask:url(#mask-5);filter:url(#luminosity-noclip-10);}.cls-10{fill:url(#linear-gradient-5);}.cls-11{mask:url(#mask-6);filter:url(#luminosity-noclip-11);}.cls-12{fill:url(#linear-gradient-6);}.cls-13,.cls-14,.cls-66{opacity:0.3;}.cls-13{fill:url(#linear-gradient-7);}.cls-14{fill:url(#linear-gradient-8);}.cls-15{fill:url(#linear-gradient-9);}.cls-144,.cls-16,.cls-18,.cls-30,.cls-66,.cls-68{fill:#fff;}.cls-16{opacity:0.86;}.cls-17{fill:url(#linear-gradient-10);}.cls-18{opacity:0.43;}.cls-19{fill:url(#linear-gradient-11);}.cls-20{fill:url(#linear-gradient-12);}.cls-21{mask:url(#mask-7);}.cls-131,.cls-133,.cls-140,.cls-142,.cls-22,.cls-24{opacity:0.71;}.cls-22{fill:url(#linear-gradient-13);}.cls-23{mask:url(#mask-8);}.cls-24{fill:url(#linear-gradient-14);}.cls-25{fill:url(#_113);}.cls-26{fill:url(#linear-gradient-15);}.cls-27{fill:url(#linear-gradient-16);}.cls-28{fill:url(#_102);}.cls-29{opacity:0.8;}.cls-31{fill:#f7f4f9;}.cls-32{fill:url(#linear-gradient-17);}.cls-33{fill:url(#linear-gradient-18);}.cls-34{fill:url(#linear-gradient-19);}.cls-35{fill:url(#linear-gradient-20);}.cls-36{fill:url(#linear-gradient-21);}.cls-116,.cls-117,.cls-118,.cls-152,.cls-153,.cls-154,.cls-155,.cls-156,.cls-157,.cls-158,.cls-159,.cls-160,.cls-37,.cls-38,.cls-39,.cls-40,.cls-41{fill-rule:evenodd;}.cls-37{fill:url(#linear-gradient-22);}.cls-38{fill:url(#linear-gradient-23);}.cls-39{fill:url(#linear-gradient-24);}.cls-40{fill:url(#linear-gradient-25);}.cls-41{fill:url(#linear-gradient-26);}.cls-42{fill:url(#linear-gradient-27);}.cls-43{fill:url(#linear-gradient-28);}.cls-44{fill:url(#linear-gradient-29);}.cls-45{fill:url(#linear-gradient-30);}.cls-46{fill:url(#linear-gradient-31);}.cls-47{fill:url(#linear-gradient-32);}.cls-48{fill:url(#linear-gradient-33);}.cls-49{fill:url(#linear-gradient-34);}.cls-50{fill:url(#linear-gradient-35);}.cls-51{fill:url(#linear-gradient-36);}.cls-52{fill:url(#linear-gradient-37);}.cls-53{fill:url(#linear-gradient-38);}.cls-54{fill:url(#linear-gradient-39);}.cls-55{fill:url(#linear-gradient-40);}.cls-56{fill:url(#linear-gradient-41);}.cls-57{fill:url(#linear-gradient-42);}.cls-58{fill:url(#linear-gradient-43);}.cls-59{fill:url(#linear-gradient-44);}.cls-60{fill:url(#linear-gradient-45);}.cls-61{fill:url(#linear-gradient-46);}.cls-62{fill:url(#linear-gradient-47);}.cls-63{fill:url(#linear-gradient-48);}.cls-64{fill:url(#linear-gradient-49);}.cls-65{fill:url(#linear-gradient-50);}.cls-67{fill:url(#linear-gradient-51);}.cls-68{opacity:0.78;}.cls-69{fill:url(#linear-gradient-52);}.cls-70{fill:url(#linear-gradient-53);}.cls-71{fill:url(#linear-gradient-54);}.cls-72{fill:url(#linear-gradient-55);}.cls-73{fill:url(#linear-gradient-56);}.cls-74{fill:url(#linear-gradient-57);}.cls-75{fill:url(#linear-gradient-58);}.cls-76{fill:url(#linear-gradient-59);}.cls-77,.cls-78,.cls-79,.cls-80,.cls-81,.cls-82,.cls-83,.cls-84,.cls-85,.cls-86,.cls-87,.cls-88,.cls-89,.cls-90{opacity:0.49;}.cls-77{fill:url(#linear-gradient-60);}.cls-78{fill:url(#linear-gradient-61);}.cls-79{fill:url(#linear-gradient-62);}.cls-80{fill:url(#linear-gradient-63);}.cls-81{fill:url(#linear-gradient-64);}.cls-82{fill:url(#linear-gradient-65);}.cls-83{fill:url(#linear-gradient-66);}.cls-84{fill:url(#linear-gradient-67);}.cls-85{fill:url(#linear-gradient-68);}.cls-86{fill:url(#linear-gradient-69);}.cls-87{fill:url(#linear-gradient-70);}.cls-88{fill:url(#linear-gradient-71);}.cls-89{fill:url(#linear-gradient-72);}.cls-90{fill:url(#linear-gradient-73);}.cls-91{fill:url(#linear-gradient-74);}.cls-92{fill:url(#linear-gradient-75);}.cls-93{fill:url(#linear-gradient-76);}.cls-94{fill:url(#linear-gradient-77);}.cls-95{fill:url(#linear-gradient-78);}.cls-96{fill:url(#linear-gradient-79);}.cls-97{fill:url(#linear-gradient-80);}.cls-98{opacity:0.75;fill:url(#linear-gradient-81);}.cls-99{fill:url(#linear-gradient-82);}.cls-100{fill:url(#linear-gradient-83);}.cls-101{fill:url(#linear-gradient-84);}.cls-102{fill:url(#linear-gradient-85);}.cls-103{fill:url(#_99);}.cls-104{fill:url(#linear-gradient-86);}.cls-105{fill:url(#linear-gradient-87);}.cls-106{fill:url(#linear-gradient-88);}.cls-107{fill:url(#linear-gradient-89);}.cls-108{fill:url(#linear-gradient-90);}.cls-109{fill:url(#linear-gradient-91);}.cls-110{fill:url(#linear-gradient-92);}.cls-111{fill:url(#linear-gradient-93);}.cls-112{fill:url(#linear-gradient-94);}.cls-113{fill:url(#linear-gradient-95);}.cls-114{fill:url(#linear-gradient-96);}.cls-115{fill:url(#linear-gradient-97);}.cls-116{fill:url(#linear-gradient-98);}.cls-117{fill:url(#linear-gradient-99);}.cls-118{fill:url(#linear-gradient-100);}.cls-119{fill:url(#linear-gradient-101);}.cls-120{fill:url(#linear-gradient-102);}.cls-121{fill:url(#linear-gradient-103);}.cls-122{fill:url(#linear-gradient-104);}.cls-123{fill:url(#_98);}.cls-124{fill:url(#linear-gradient-105);}.cls-125{fill:url(#linear-gradient-106);}.cls-126{fill:url(#linear-gradient-107);}.cls-127{fill:url(#linear-gradient-108);}.cls-128{fill:url(#linear-gradient-109);}.cls-129{fill:url(#linear-gradient-110);}.cls-130{mask:url(#mask-9);}.cls-131{fill:url(#linear-gradient-111);}.cls-132{mask:url(#mask-10);}.cls-133{fill:url(#linear-gradient-112);}.cls-134{fill:url(#linear-gradient-113);}.cls-135{fill:url(#linear-gradient-114);}.cls-136{fill:url(#linear-gradient-115);}.cls-137{fill:url(#linear-gradient-116);}.cls-138{fill:url(#linear-gradient-117);}.cls-139{mask:url(#mask-11);}.cls-140{fill:url(#linear-gradient-118);}.cls-141{mask:url(#mask-12);}.cls-142{fill:url(#linear-gradient-119);}.cls-143{fill:url(#_95);}.cls-144{opacity:0.57;}.cls-145{fill:url(#_103);}.cls-146{fill:url(#linear-gradient-120);}.cls-147{fill:url(#linear-gradient-121);}.cls-148{fill:url(#_96);}.cls-149{fill:url(#linear-gradient-122);}.cls-150{fill:url(#_103-2);}.cls-151{fill:url(#linear-gradient-123);}.cls-152{fill:url(#linear-gradient-124);}.cls-153{fill:url(#linear-gradient-125);}.cls-154{fill:url(#linear-gradient-126);}.cls-155{fill:url(#linear-gradient-127);}.cls-156{fill:url(#linear-gradient-128);}.cls-157{fill:url(#linear-gradient-129);}.cls-158{fill:url(#linear-gradient-130);}.cls-159{fill:url(#linear-gradient-131);}.cls-160{fill:url(#linear-gradient-132);}.cls-161{filter:url(#luminosity-noclip-6);}.cls-162{filter:url(#luminosity-noclip-5);}.cls-163{filter:url(#luminosity-noclip-4);}.cls-164{filter:url(#luminosity-noclip-3);}.cls-165{filter:url(#luminosity-noclip-2);}.cls-166{filter:url(#luminosity-noclip);}</style><filter id="luminosity-noclip" x="425.93" y="-8851.84" width="690.55" height="32766" filterUnits="userSpaceOnUse" color-interpolation-filters="sRGB"></filter><mask id="mask" x="425.93" y="-8851.84" width="690.55" height="32766" maskUnits="userSpaceOnUse"><g class="cls-166"></g></mask><linearGradient id="linear-gradient" x1="1132.85" y1="147.58" x2="-113.24" y2="1778.78" gradientUnits="userSpaceOnUse"><stop offset="0" stop-color="#fff"></stop><stop offset="1"></stop></linearGradient><filter id="luminosity-noclip-2" x="976.91" y="-8851.84" width="120.45" height="32766" filterUnits="userSpaceOnUse" color-interpolation-filters="sRGB"></filter><mask id="mask-2" x="976.91" y="-8851.84" width="120.45" height="32766" maskUnits="userSpaceOnUse"><g class="cls-165"></g></mask><linearGradient id="linear-gradient-2" x1="7976.68" y1="820.96" x2="8146.54" y2="863.27" gradientTransform="matrix(-1, 0, 0, 1, 9043.63, 0)" xlink:href="#linear-gradient"></linearGradient><filter id="luminosity-noclip-3" x="1147.13" y="-8851.84" width="681.8" height="32766" filterUnits="userSpaceOnUse" color-interpolation-filters="sRGB"></filter><mask id="mask-3" x="1147.13" y="-8851.84" width="681.8" height="32766" maskUnits="userSpaceOnUse"><g class="cls-164"></g></mask><linearGradient id="linear-gradient-3" x1="1888.57" y1="170.02" x2="673.93" y2="1565.4" xlink:href="#linear-gradient"></linearGradient><filter id="luminosity-noclip-4" x="813.62" y="-8851.84" width="154.62" height="32766" filterUnits="userSpaceOnUse" color-interpolation-filters="sRGB"></filter><mask id="mask-4" x="813.62" y="-8851.84" width="154.62" height="32766" maskUnits="userSpaceOnUse"><g class="cls-163"></g></mask><linearGradient id="linear-gradient-4" x1="850.82" y1="813.11" x2="1112.8" y2="952.8" xlink:href="#linear-gradient"></linearGradient><filter id="luminosity-noclip-5" x="838.64" y="-8851.84" width="120.45" height="32766" filterUnits="userSpaceOnUse" color-interpolation-filters="sRGB"></filter><mask id="mask-5" x="838.64" y="-8851.84" width="120.45" height="32766" maskUnits="userSpaceOnUse"><g class="cls-162"></g></mask><linearGradient id="linear-gradient-5" x1="869.05" y1="820.96" x2="1038.91" y2="863.27" xlink:href="#linear-gradient"></linearGradient><filter id="luminosity-noclip-6" x="967.76" y="-8851.84" width="154.62" height="32766" filterUnits="userSpaceOnUse" color-interpolation-filters="sRGB"></filter><mask id="mask-6" x="967.76" y="-8851.84" width="154.62" height="32766" maskUnits="userSpaceOnUse"><g class="cls-161"></g></mask><linearGradient id="linear-gradient-6" x1="7917.69" y1="791.38" x2="8179.67" y2="931.07" gradientTransform="matrix(-1, 0, 0, 1, 9043.63, 0)" xlink:href="#linear-gradient"></linearGradient><linearGradient id="linear-gradient-7" x1="798.63" y1="-90.25" x2="1379.87" y2="1557.2" gradientUnits="userSpaceOnUse"><stop offset="0" stop-color="#b37cff"></stop><stop offset="1" stop-color="#f895e7"></stop></linearGradient><linearGradient id="linear-gradient-8" x1="681.21" y1="-154.82" x2="1305.1" y2="1613.54" xlink:href="#linear-gradient-7"></linearGradient><linearGradient id="linear-gradient-9" x1="-1433.07" y1="1926.16" x2="-1255.87" y2="1926.16" gradientTransform="matrix(-0.44, -1.24, 0.94, -0.34, -2082.03, -304.05)" gradientUnits="userSpaceOnUse"><stop offset="0" stop-color="#a737d5"></stop><stop offset="1" stop-color="#ef497a"></stop></linearGradient><linearGradient id="linear-gradient-10" x1="983.18" y1="828.11" x2="1201.22" y2="828.11" gradientTransform="matrix(-0.98, 0.21, 0.21, 0.98, 1193.53, -526.33)" gradientUnits="userSpaceOnUse"><stop offset="0" stop-color="#cb236d"></stop><stop offset="1" stop-color="#4c246d"></stop></linearGradient><linearGradient id="linear-gradient-11" x1="387.16" y1="641.5" x2="1855.62" y2="641.5" gradientUnits="userSpaceOnUse"><stop offset="0" stop-color="#2b3582"></stop><stop offset="1" stop-color="#150e42"></stop></linearGradient><linearGradient id="linear-gradient-12" x1="412.76" y1="605.17" x2="1832.08" y2="605.17" gradientUnits="userSpaceOnUse"><stop offset="0" stop-color="#53d8ff"></stop><stop offset="1" stop-color="#3840f7"></stop></linearGradient><filter id="luminosity-noclip-7" x="425.93" y="94.59" width="690.55" height="1021.32" filterUnits="userSpaceOnUse" color-interpolation-filters="sRGB"></filter><mask id="mask-7" x="425.93" y="94.59" width="690.55" height="1021.32" maskUnits="userSpaceOnUse"><g class="cls-1"><path class="cls-2" d="M1116.48,143.6c-271.73-95.12-409.2-24.31-690.55-14v986.3c243.6-20.53,475.61-24.34,690.55-3.54Z"></path></g></mask><linearGradient id="linear-gradient-13" x1="1132.85" y1="147.58" x2="-113.24" y2="1778.78" gradientUnits="userSpaceOnUse"><stop offset="0" stop-color="#fff"></stop><stop offset="1" stop-color="#fff"></stop></linearGradient><filter id="luminosity-noclip-8" x="1147.13" y="106.29" width="681.8" height="1009.62" filterUnits="userSpaceOnUse" color-interpolation-filters="sRGB"></filter><mask id="mask-8" x="1147.13" y="106.29" width="681.8" height="1009.62" maskUnits="userSpaceOnUse"><g class="cls-5"><path class="cls-6" d="M1147.13,144.42V1115.5l3.87.41c225.77-8.7,450.14-17.79,677.93,0V133C1559.25,124.08,1330.16,71.41,1147.13,144.42Z"></path></g></mask><linearGradient id="linear-gradient-14" x1="1888.57" y1="170.02" x2="673.93" y2="1565.4" xlink:href="#linear-gradient-13"></linearGradient><linearGradient id="_113" x1="1852.59" y1="1071.03" x2="1110.12" y2="1129.74" gradientUnits="userSpaceOnUse"><stop offset="0" stop-color="#53d8ff"></stop><stop offset="0.15" stop-color="#3840f7"></stop></linearGradient><linearGradient id="linear-gradient-15" x1="412.55" y1="1095.91" x2="1129.79" y2="1095.91" xlink:href="#linear-gradient-12"></linearGradient><linearGradient id="linear-gradient-16" x1="1087.51" y1="1134.01" x2="1169.79" y2="1134.01" xlink:href="#linear-gradient-11"></linearGradient><linearGradient id="_102" x1="1107.32" y1="1116.5" x2="1151.44" y2="1116.5" gradientUnits="userSpaceOnUse"><stop offset="0" stop-color="#2b3582"></stop><stop offset="0.5" stop-color="#150e42"></stop></linearGradient><linearGradient id="linear-gradient-17" x1="1411.85" y1="-67.73" x2="1552.76" y2="-67.73" gradientTransform="translate(112.6 -937.31) rotate(68.44)" xlink:href="#linear-gradient-7"></linearGradient><linearGradient id="linear-gradient-18" x1="261.72" y1="929.76" x2="663.71" y2="1402.83" gradientUnits="userSpaceOnUse"><stop offset="0" stop-color="#fdf53f"></stop><stop offset="1" stop-color="#d93c65"></stop></linearGradient><linearGradient id="linear-gradient-19" x1="690.99" y1="895.65" x2="796.82" y2="1151.28" gradientTransform="matrix(-1, 0, 0, 1, 1060.84, 0)" gradientUnits="userSpaceOnUse"><stop offset="0" stop-color="#f9b776"></stop><stop offset="1" stop-color="#f47960"></stop></linearGradient><linearGradient id="linear-gradient-20" x1="-6616.15" y1="895.1" x2="-6510.32" y2="1150.73" gradientTransform="translate(6798.39)" xlink:href="#linear-gradient-19"></linearGradient><linearGradient id="linear-gradient-21" x1="783.89" y1="916.76" x2="782.49" y2="794.24" xlink:href="#linear-gradient-19"></linearGradient><linearGradient id="linear-gradient-22" x1="616.2" y1="804.19" x2="574.19" y2="723.93" gradientTransform="matrix(-1, 0.09, 0.09, 1, 803.95, -40.19)" xlink:href="#linear-gradient-11"></linearGradient><linearGradient id="linear-gradient-23" x1="613.77" y1="846.96" x2="600.7" y2="742.42" gradientTransform="matrix(-1, 0.09, 0.09, 1, 803.95, -40.19)" xlink:href="#linear-gradient-19"></linearGradient><linearGradient id="linear-gradient-24" x1="654.92" y1="841.82" x2="641.86" y2="737.28" gradientTransform="matrix(-1, 0.09, 0.09, 1, 803.95, -40.19)" xlink:href="#linear-gradient-19"></linearGradient><linearGradient id="linear-gradient-25" x1="618.13" y1="803.17" x2="576.13" y2="722.91" gradientTransform="matrix(-1, 0.09, 0.09, 1, 803.95, -40.19)" xlink:href="#linear-gradient-11"></linearGradient><linearGradient id="linear-gradient-26" x1="574.48" y1="851.87" x2="561.41" y2="747.33" gradientTransform="matrix(-1, 0.09, 0.09, 1, 803.95, -40.19)" xlink:href="#linear-gradient-19"></linearGradient><linearGradient id="linear-gradient-27" x1="244.34" y1="919.32" x2="238.85" y2="1141.59" gradientTransform="matrix(1, 0, 0, 1, 0, 0)" xlink:href="#linear-gradient-10"></linearGradient><linearGradient id="linear-gradient-28" x1="2006.89" y1="919.32" x2="2001.4" y2="1141.59" gradientTransform="matrix(-1, 0, 0, 1, 2316.26, 0)" xlink:href="#linear-gradient-10"></linearGradient><linearGradient id="linear-gradient-29" x1="238.32" y1="1088.66" x2="275.74" y2="971.88" gradientTransform="matrix(1, 0, 0, 1, 0, 0)" xlink:href="#linear-gradient-9"></linearGradient><linearGradient id="linear-gradient-30" x1="217.2" y1="974.59" x2="209.1" y2="953.93" gradientTransform="matrix(1, 0, 0, 1, 0, 0)" xlink:href="#linear-gradient-19"></linearGradient><linearGradient id="linear-gradient-31" x1="1933.1" y1="974.59" x2="1924.99" y2="953.93" gradientTransform="matrix(-1, 0, 0, 1, 2269.6, 0)" xlink:href="#linear-gradient-19"></linearGradient><linearGradient id="linear-gradient-32" x1="856.05" y1="1020.34" x2="913.88" y2="1020.34" gradientTransform="matrix(-1, 0.01, 0.01, 1, 1060.51, 22.86)" gradientUnits="userSpaceOnUse"><stop offset="0" stop-color="#2c759e"></stop><stop offset="1" stop-color="#051042"></stop></linearGradient><linearGradient id="linear-gradient-33" x1="920.98" y1="1021.06" x2="870.2" y2="1020.45" gradientTransform="matrix(-1, 0.01, 0.01, 1, 1060.51, 22.86)" gradientUnits="userSpaceOnUse"><stop offset="0" stop-color="#53eac9"></stop><stop offset="1" stop-color="#45aed8"></stop></linearGradient><linearGradient id="linear-gradient-34" x1="886.68" y1="945.52" x2="825.64" y2="1110.87" xlink:href="#linear-gradient-19"></linearGradient><linearGradient id="linear-gradient-35" x1="921.1" y1="1018.89" x2="870.32" y2="1018.28" xlink:href="#linear-gradient-33"></linearGradient><linearGradient id="linear-gradient-36" x1="920.89" y1="1018.54" x2="870.35" y2="1017.94" xlink:href="#linear-gradient-33"></linearGradient><linearGradient id="linear-gradient-37" x1="962.41" y1="839.89" x2="911.29" y2="839.28" gradientTransform="matrix(-1, 0.06, 0.06, 1, 1060.68, 157.88)" xlink:href="#linear-gradient-33"></linearGradient><linearGradient id="linear-gradient-38" x1="961.93" y1="839.54" x2="911.63" y2="838.94" gradientTransform="matrix(-1, 0.06, 0.06, 1, 1060.68, 157.88)" xlink:href="#linear-gradient-33"></linearGradient><linearGradient id="linear-gradient-39" x1="-7137.28" y1="973.74" x2="-7079.43" y2="973.74" gradientTransform="matrix(1, -0.02, 0.02, 1, 7469.05, -66.78)" xlink:href="#linear-gradient-32"></linearGradient><linearGradient id="linear-gradient-40" x1="-7072.34" y1="974.42" x2="-7122.95" y2="973.81" gradientTransform="matrix(1, -0.02, 0.02, 1, 7469.05, -66.78)" xlink:href="#linear-gradient-33"></linearGradient><linearGradient id="linear-gradient-41" x1="764.38" y1="895.7" x2="703.3" y2="1061.13" xlink:href="#linear-gradient-19"></linearGradient><linearGradient id="linear-gradient-42" x1="-7072.35" y1="972.33" x2="-7122.96" y2="971.72" gradientTransform="matrix(1, -0.02, 0.02, 1, 7469.05, -66.78)" xlink:href="#linear-gradient-33"></linearGradient><linearGradient id="linear-gradient-43" x1="-7072.26" y1="971.99" x2="-7122.97" y2="971.38" gradientTransform="matrix(1, -0.02, 0.02, 1, 7469.05, -66.78)" xlink:href="#linear-gradient-33"></linearGradient><linearGradient id="linear-gradient-44" x1="-7023.46" y1="1182.25" x2="-7074.39" y2="1181.64" gradientTransform="translate(7472.43 69.11) rotate(1.65)" xlink:href="#linear-gradient-33"></linearGradient><linearGradient id="linear-gradient-45" x1="-7023.75" y1="1181.91" x2="-7074.18" y2="1181.3" gradientTransform="translate(7472.43 69.11) rotate(1.65)" xlink:href="#linear-gradient-33"></linearGradient><linearGradient id="linear-gradient-46" x1="912.56" y1="942.33" x2="753.86" y2="1061.54" gradientTransform="matrix(-1, 0, 0, 1, 1060.84, 0)" xlink:href="#linear-gradient-11"></linearGradient><linearGradient id="linear-gradient-47" x1="769.05" y1="1049.25" x2="727.46" y2="943.19" gradientTransform="matrix(-1, 0, 0, 1, 1060.84, 0)" xlink:href="#linear-gradient-11"></linearGradient><linearGradient id="linear-gradient-48" x1="10076.56" y1="1071.17" x2="9772.45" y2="1268.3" gradientTransform="matrix(-1, 0, 0, 1, 10291.83, 0)" xlink:href="#linear-gradient-12"></linearGradient><linearGradient id="linear-gradient-49" x1="45.5" y1="1065.18" x2="519.7" y2="1143.51" xlink:href="#linear-gradient-12"></linearGradient><linearGradient id="linear-gradient-50" x1="523.21" y1="1270.17" x2="-78.92" y2="1290.62" xlink:href="#linear-gradient-12"></linearGradient><linearGradient id="linear-gradient-51" x1="-4463.87" y1="1023.27" x2="-4879.6" y2="1285.06" gradientTransform="matrix(-1, 0, 0, 1, -4467.72, 0)" xlink:href="#linear-gradient-7"></linearGradient><linearGradient id="linear-gradient-52" x1="-4946.35" y1="1189.56" x2="-4498.22" y2="1189.56" gradientTransform="matrix(-1, 0, 0, 1, -4467.72, 0)" xlink:href="#linear-gradient-9"></linearGradient><linearGradient id="linear-gradient-53" x1="2303.08" y1="865.54" x2="2734.03" y2="569.38" gradientTransform="translate(-485.9 2243.88) rotate(-46.77)" xlink:href="#linear-gradient-10"></linearGradient><linearGradient id="linear-gradient-54" x1="2727.01" y1="1963.66" x2="3157.98" y2="1667.49" gradientTransform="translate(-1645.52 622.28) rotate(-25.37)" xlink:href="#linear-gradient-9"></linearGradient><linearGradient id="linear-gradient-55" x1="1772.59" y1="208.6" x2="1849.15" y2="132.05" xlink:href="#linear-gradient-11"></linearGradient><linearGradient id="linear-gradient-56" x1="1834.98" y1="161.16" x2="1910.01" y2="-180.27" xlink:href="#linear-gradient-11"></linearGradient><linearGradient id="linear-gradient-57" x1="1926.12" y1="262.18" x2="1908.85" y2="152.76" gradientTransform="translate(-13.58 49.48) rotate(-0.54)" xlink:href="#linear-gradient-11"></linearGradient><linearGradient id="linear-gradient-58" x1="1407.67" y1="576.97" x2="1700.66" y2="1946.8" xlink:href="#linear-gradient-18"></linearGradient><linearGradient id="linear-gradient-59" x1="1445.05" y1="568.89" x2="1738.13" y2="1939.12" xlink:href="#linear-gradient-18"></linearGradient><linearGradient id="linear-gradient-60" x1="1323.86" y1="570.62" x2="1762.68" y2="1326.25" xlink:href="#linear-gradient-18"></linearGradient><linearGradient id="linear-gradient-61" x1="1340.5" y1="561.39" x2="1779.32" y2="1317.03" xlink:href="#linear-gradient-18"></linearGradient><linearGradient id="linear-gradient-62" x1="1394.99" y1="529.3" x2="1833.81" y2="1284.94" xlink:href="#linear-gradient-18"></linearGradient><linearGradient id="linear-gradient-63" x1="1377.88" y1="538.81" x2="1816.69" y2="1294.45" xlink:href="#linear-gradient-18"></linearGradient><linearGradient id="linear-gradient-64" x1="1435.18" y1="505.07" x2="1874" y2="1260.7" xlink:href="#linear-gradient-18"></linearGradient><linearGradient id="linear-gradient-65" x1="1482.81" y1="476.94" x2="1921.62" y2="1232.57" xlink:href="#linear-gradient-18"></linearGradient><linearGradient id="linear-gradient-66" x1="1518.22" y1="484.53" x2="1927.36" y2="1189.07" xlink:href="#linear-gradient-18"></linearGradient><linearGradient id="linear-gradient-67" x1="1550.01" y1="437.23" x2="1988.83" y2="1192.86" xlink:href="#linear-gradient-18"></linearGradient><linearGradient id="linear-gradient-68" x1="1393.78" y1="525.71" x2="1835.29" y2="1285.99" xlink:href="#linear-gradient-18"></linearGradient><linearGradient id="linear-gradient-69" x1="1442.55" y1="497.39" x2="1884.06" y2="1257.67" xlink:href="#linear-gradient-18"></linearGradient><linearGradient id="linear-gradient-70" x1="1481.5" y1="474.76" x2="1923.02" y2="1235.04" xlink:href="#linear-gradient-18"></linearGradient><linearGradient id="linear-gradient-71" x1="1525.1" y1="449.44" x2="1966.62" y2="1209.73" xlink:href="#linear-gradient-18"></linearGradient><linearGradient id="linear-gradient-72" x1="1553.82" y1="432.77" x2="1995.33" y2="1193.05" xlink:href="#linear-gradient-18"></linearGradient><linearGradient id="linear-gradient-73" x1="1571.44" y1="422.53" x2="2012.96" y2="1182.82" xlink:href="#linear-gradient-18"></linearGradient><linearGradient id="linear-gradient-74" x1="1634.37" y1="175.25" x2="1415.51" y2="371.27" xlink:href="#linear-gradient-18"></linearGradient><linearGradient id="linear-gradient-75" x1="1288.56" y1="922.14" x2="1765.84" y2="1260.17" gradientTransform="matrix(1, 0, 0, 1, 0, 0)" xlink:href="#linear-gradient-10"></linearGradient><linearGradient id="linear-gradient-76" x1="1388.76" y1="1026.81" x2="1418.77" y2="1048.06" gradientTransform="translate(2085.5 -565.54) rotate(76.72)" xlink:href="#linear-gradient-18"></linearGradient><linearGradient id="linear-gradient-77" x1="1392.01" y1="413.12" x2="1654.64" y2="976.43" xlink:href="#linear-gradient-18"></linearGradient><linearGradient id="linear-gradient-78" x1="1395.53" y1="227.33" x2="1658.15" y2="790.65" xlink:href="#linear-gradient-18"></linearGradient><linearGradient id="linear-gradient-79" x1="1197.93" y1="411.21" x2="1460.56" y2="974.52" xlink:href="#linear-gradient-18"></linearGradient><linearGradient id="linear-gradient-80" x1="1201.45" y1="225.42" x2="1464.08" y2="788.74" xlink:href="#linear-gradient-18"></linearGradient><linearGradient id="linear-gradient-81" x1="1815.76" y1="716.79" x2="982.12" y2="74.43" xlink:href="#linear-gradient-18"></linearGradient><linearGradient id="linear-gradient-82" x1="1567.96" y1="232.33" x2="2358.18" y2="792" gradientTransform="matrix(1, 0, 0, -1.03, -577.4, 804.74)" xlink:href="#linear-gradient-10"></linearGradient><linearGradient id="linear-gradient-83" x1="1626.59" y1="-741.83" x2="1663.13" y2="3156.01" gradientTransform="matrix(1, 0, 0, 1, 0, 0)" xlink:href="#linear-gradient-10"></linearGradient><linearGradient id="linear-gradient-84" x1="-2389.13" y1="1196.5" x2="-2347.55" y2="934.91" gradientTransform="matrix(1, 0, 0, -1, 3083.75, 2204.04)" xlink:href="#linear-gradient-11"></linearGradient><linearGradient id="linear-gradient-85" x1="-2372.76" y1="1200.7" x2="-2338.79" y2="987.03" gradientTransform="matrix(-1, 0, 0, 1, -1664.48, 0)" xlink:href="#linear-gradient-11"></linearGradient><linearGradient id="_99" x1="-2399" y1="1137.81" x2="-2365.04" y2="924.15" gradientTransform="matrix(-1, 0, 0, 1, -1664.48, 0)" gradientUnits="userSpaceOnUse"><stop offset="0.83" stop-color="#2b3582"></stop><stop offset="1" stop-color="#150e42"></stop></linearGradient><linearGradient id="linear-gradient-86" x1="-3744.36" y1="1200.52" x2="-3710.98" y2="990.53" gradientTransform="translate(4833.26)" xlink:href="#linear-gradient-11"></linearGradient><linearGradient id="linear-gradient-87" x1="-3730.98" y1="1202.65" x2="-3697.59" y2="992.65" gradientTransform="translate(4833.26)" xlink:href="#linear-gradient-11"></linearGradient><linearGradient id="linear-gradient-88" x1="-3756.77" y1="1198.55" x2="-3723.39" y2="988.56" gradientTransform="translate(4833.26)" xlink:href="#linear-gradient-12"></linearGradient><linearGradient id="linear-gradient-89" x1="-3900.86" y1="1066.82" x2="-3791.04" y2="1066.82" gradientTransform="translate(4833.26)" xlink:href="#linear-gradient-19"></linearGradient><linearGradient id="linear-gradient-90" x1="-3833.67" y1="1138.38" x2="-3849.82" y2="1386.06" gradientTransform="translate(4833.26)" xlink:href="#linear-gradient-10"></linearGradient><linearGradient id="linear-gradient-91" x1="-4029.81" y1="1074.32" x2="-3798.07" y2="1074.32" gradientTransform="translate(4833.26)" xlink:href="#linear-gradient-19"></linearGradient><linearGradient id="linear-gradient-92" x1="-3886.82" y1="953.43" x2="-3627.2" y2="953.43" gradientTransform="translate(4833.26)" xlink:href="#linear-gradient-11"></linearGradient><linearGradient id="linear-gradient-93" x1="-3989.54" y1="1128.21" x2="-4005.7" y2="1375.89" gradientTransform="translate(4833.26)" xlink:href="#linear-gradient-10"></linearGradient><linearGradient id="linear-gradient-94" x1="848.34" y1="1044.59" x2="906.53" y2="1044.59" gradientTransform="matrix(-1, -0.02, -0.02, 1, 1657.98, 12.64)" xlink:href="#linear-gradient-19"></linearGradient><linearGradient id="linear-gradient-95" x1="151.68" y1="1042.99" x2="210.39" y2="1042.99" gradientTransform="matrix(-0.99, -0.14, -0.14, 0.99, 1012.78, 40.19)" xlink:href="#linear-gradient-19"></linearGradient><linearGradient id="linear-gradient-96" x1="-4794.23" y1="-1719.8" x2="-4762.97" y2="-1719.8" gradientTransform="translate(4851.66 -1759.8) rotate(-54.02)" xlink:href="#linear-gradient-10"></linearGradient><linearGradient id="linear-gradient-97" x1="-4749.61" y1="-1661.62" x2="-4718.54" y2="-1661.62" gradientTransform="translate(4851.66 -1759.8) rotate(-54.02)" xlink:href="#linear-gradient-10"></linearGradient><linearGradient id="linear-gradient-98" x1="1795.6" y1="936.68" x2="1769.15" y2="707.17" gradientTransform="matrix(1, 0.07, -0.07, 1.03, -1003.95, -73.25)" xlink:href="#linear-gradient-18"></linearGradient><linearGradient id="linear-gradient-99" x1="1160.39" y1="1352.07" x2="1182.49" y2="1150.43" gradientTransform="translate(-749.93 41.01) rotate(-18.95)" xlink:href="#linear-gradient-19"></linearGradient><linearGradient id="linear-gradient-100" x1="1173.68" y1="1349" x2="1193.67" y2="1166.56" gradientTransform="translate(-749.93 41.01) rotate(-18.95)" xlink:href="#linear-gradient-19"></linearGradient><linearGradient id="linear-gradient-101" x1="509.66" y1="1093.51" x2="541.66" y2="1093.51" xlink:href="#linear-gradient-11"></linearGradient><linearGradient id="linear-gradient-102" x1="1272.15" y1="1093.51" x2="1304.15" y2="1093.51" xlink:href="#linear-gradient-11"></linearGradient><linearGradient id="linear-gradient-103" x1="1226.86" y1="1081.83" x2="1250.62" y2="1081.83" xlink:href="#linear-gradient-11"></linearGradient><linearGradient id="linear-gradient-104" x1="566.06" y1="1069.9" x2="589.82" y2="1069.9" xlink:href="#linear-gradient-11"></linearGradient><linearGradient id="_98" x1="490.97" y1="895.77" x2="1412.26" y2="890.35" gradientUnits="userSpaceOnUse"><stop offset="0.78" stop-color="#2b3582"></stop><stop offset="1" stop-color="#150e42"></stop></linearGradient><linearGradient id="linear-gradient-105" x1="455.98" y1="854.43" x2="1345.11" y2="854.43" gradientUnits="userSpaceOnUse"><stop offset="0" stop-color="#18459f"></stop><stop offset="1" stop-color="#2874b5"></stop></linearGradient><linearGradient id="linear-gradient-106" x1="799.42" y1="856.7" x2="968.24" y2="856.7" gradientTransform="matrix(1, 0, 0, 1, 0, 0)" xlink:href="#linear-gradient-10"></linearGradient><linearGradient id="linear-gradient-107" x1="886.57" y1="901.5" x2="888.03" y2="822.07" xlink:href="#linear-gradient-12"></linearGradient><linearGradient id="linear-gradient-108" x1="878.59" y1="901.57" x2="908.25" y2="812.39" xlink:href="#linear-gradient-12"></linearGradient><linearGradient id="linear-gradient-109" x1="861.35" y1="885.71" x2="1035.78" y2="807.73" xlink:href="#linear-gradient-12"></linearGradient><linearGradient id="linear-gradient-110" x1="846.85" y1="813.2" x2="1118.75" y2="958.17" xlink:href="#linear-gradient-12"></linearGradient><filter id="luminosity-noclip-9" x="813.62" y="803.16" width="154.62" height="82.66" filterUnits="userSpaceOnUse" color-interpolation-filters="sRGB"></filter><mask id="mask-9" x="813.62" y="803.16" width="154.62" height="82.66" maskUnits="userSpaceOnUse"><g class="cls-7"><path class="cls-8" d="M968.24,821s-43-32.71-93.35-9.48l-61,36.64a.46.46,0,0,0,.34.85c16-3.46,89.52-18.46,154,36.83Z"></path></g></mask><linearGradient id="linear-gradient-111" x1="850.82" y1="813.11" x2="1112.8" y2="952.8" xlink:href="#linear-gradient-13"></linearGradient><filter id="luminosity-noclip-10" x="838.64" y="808.73" width="120.45" height="51.71" filterUnits="userSpaceOnUse" color-interpolation-filters="sRGB"></filter><mask id="mask-10" x="838.64" y="808.73" width="120.45" height="51.71" maskUnits="userSpaceOnUse"><g class="cls-9"><path class="cls-10" d="M838.88,837.5l43.83-25.81a5.65,5.65,0,0,1,1.64-.64c6.21-1.39,43.29-8.5,72.93,12a4.2,4.2,0,0,1,1.72,4.34l-6.89,31.39a2.07,2.07,0,0,1-3.25,1.22c-10-7.36-48.76-32-109.66-21.66A.48.48,0,0,1,838.88,837.5Z"></path></g></mask><linearGradient id="linear-gradient-112" x1="869.05" y1="820.96" x2="1038.91" y2="863.27" xlink:href="#linear-gradient-13"></linearGradient><linearGradient id="linear-gradient-113" x1="7907.05" y1="856.7" x2="8075.87" y2="856.7" gradientTransform="matrix(-1, 0, 0, 1, 9043.63, 0)" xlink:href="#linear-gradient-10"></linearGradient><linearGradient id="linear-gradient-114" x1="7994.2" y1="901.5" x2="7995.66" y2="822.07" gradientTransform="matrix(-1, 0, 0, 1, 9043.63, 0)" xlink:href="#linear-gradient-12"></linearGradient><linearGradient id="linear-gradient-115" x1="7986.22" y1="901.57" x2="8015.87" y2="812.39" gradientTransform="matrix(-1, 0, 0, 1, 9043.63, 0)" xlink:href="#linear-gradient-12"></linearGradient><linearGradient id="linear-gradient-116" x1="7968.98" y1="885.71" x2="8143.41" y2="807.73" gradientTransform="matrix(-1, 0, 0, 1, 9043.63, 0)" xlink:href="#linear-gradient-12"></linearGradient><linearGradient id="linear-gradient-117" x1="7954.48" y1="813.2" x2="8226.38" y2="958.17" gradientTransform="matrix(-1, 0, 0, 1, 9043.63, 0)" xlink:href="#linear-gradient-12"></linearGradient><filter id="luminosity-noclip-11" x="967.76" y="803.16" width="154.62" height="82.66" filterUnits="userSpaceOnUse" color-interpolation-filters="sRGB"></filter><mask id="mask-11" x="967.76" y="803.16" width="154.62" height="82.66" maskUnits="userSpaceOnUse"><g class="cls-11"><path class="cls-12" d="M967.76,821s43-32.71,93.36-9.48l61,36.64a.46.46,0,0,1-.33.85c-16-3.46-89.52-18.46-154.06,36.83Z"></path></g></mask><linearGradient id="linear-gradient-118" x1="7917.69" y1="791.38" x2="8179.67" y2="931.07" gradientTransform="matrix(-1, 0, 0, 1, 9043.63, 0)" xlink:href="#linear-gradient-13"></linearGradient><filter id="luminosity-noclip-12" x="976.91" y="808.73" width="120.45" height="51.71" filterUnits="userSpaceOnUse" color-interpolation-filters="sRGB"></filter><mask id="mask-12" x="976.91" y="808.73" width="120.45" height="51.71" maskUnits="userSpaceOnUse"><g class="cls-3"><path class="cls-4" d="M1097.13,837.5l-43.84-25.81a5.65,5.65,0,0,0-1.64-.64c-6.21-1.39-43.28-8.5-72.93,12a4.17,4.17,0,0,0-1.71,4.34l6.89,31.39a2.06,2.06,0,0,0,3.24,1.22c10-7.36,48.76-32,109.66-21.66A.48.48,0,0,0,1097.13,837.5Z"></path></g></mask><linearGradient id="linear-gradient-119" x1="7976.68" y1="820.96" x2="8146.54" y2="863.27" gradientTransform="matrix(-1, 0, 0, 1, 9043.63, 0)" xlink:href="#linear-gradient-13"></linearGradient><linearGradient id="_95" x1="699.15" y1="897.86" x2="706.76" y2="828.34" gradientUnits="userSpaceOnUse"><stop offset="0.16" stop-color="#53d8ff"></stop><stop offset="1" stop-color="#3840f7"></stop></linearGradient><linearGradient id="_103" x1="3824.54" y1="-1510.23" x2="4290.59" y2="-958.83" gradientTransform="matrix(-1, 0, 0, 1, 6755.98, 0)" gradientUnits="userSpaceOnUse"><stop offset="0" stop-color="#cb236d"></stop><stop offset="0.31" stop-color="#4c246d"></stop></linearGradient><linearGradient id="linear-gradient-120" x1="1373.6" y1="556.09" x2="933.94" y2="784.48" gradientTransform="matrix(1, 0, 0, 1, 0, 0)" xlink:href="#linear-gradient-9"></linearGradient><linearGradient id="linear-gradient-121" x1="-4429.3" y1="696.71" x2="-4444.95" y2="596.33" gradientTransform="translate(5447.56)" xlink:href="#linear-gradient-19"></linearGradient><linearGradient id="_96" x1="1192.5" y1="779.68" x2="858.3" y2="864.59" gradientUnits="userSpaceOnUse"><stop offset="0" stop-color="#f9b776"></stop><stop offset="0.53" stop-color="#f47960"></stop></linearGradient><linearGradient id="linear-gradient-122" x1="-6016.74" y1="-309.92" x2="-5911.31" y2="-238.31" gradientTransform="matrix(1, -0.06, 0.06, 1, 6972.44, 502.37)" xlink:href="#linear-gradient-19"></linearGradient><linearGradient id="_103-2" x1="4620.96" y1="-2264.31" x2="5087.01" y2="-1712.91" gradientTransform="matrix(-1, 0.06, 0.06, 1, 7282.47, 484.84)" xlink:href="#_103"></linearGradient><linearGradient id="linear-gradient-123" x1="-5679.9" y1="2670.44" x2="-5563.59" y2="2749.44" gradientTransform="translate(7243.91 365.94) rotate(23.93)" xlink:href="#linear-gradient-19"></linearGradient><linearGradient id="linear-gradient-124" x1="-1020.37" y1="550.48" x2="-803.49" y2="712.12" gradientTransform="matrix(-1, 0, 0, 1, -205.67, 0)" xlink:href="#linear-gradient-10"></linearGradient><linearGradient id="linear-gradient-125" x1="1692.62" y1="716.94" x2="1574.81" y2="916.54" gradientTransform="translate(-969.36)" xlink:href="#linear-gradient-18"></linearGradient><linearGradient id="linear-gradient-126" x1="1655.53" y1="781.19" x2="1660.44" y2="731.24" gradientTransform="translate(-969.36)" xlink:href="#linear-gradient-19"></linearGradient><linearGradient id="linear-gradient-127" x1="-1494.97" y1="920.2" x2="-1488.42" y2="822.7" gradientTransform="matrix(-0.98, 0.22, 0.22, 1.03, -955.13, 96.22)" xlink:href="#linear-gradient-19"></linearGradient><linearGradient id="linear-gradient-128" x1="-1676.32" y1="912.06" x2="-1669.77" y2="814.61" gradientTransform="matrix(-1, 0.07, 0.07, 1, -1080.8, -66.04)" xlink:href="#linear-gradient-19"></linearGradient><linearGradient id="linear-gradient-129" x1="2373.05" y1="1001.34" x2="2389.54" y2="893.37" gradientTransform="matrix(-0.52, -0.72, -0.68, 0.48, 2522.19, 2083.03)" xlink:href="#linear-gradient-19"></linearGradient><linearGradient id="linear-gradient-130" x1="-1653.84" y1="813.75" x2="-1638.08" y2="669.89" gradientTransform="matrix(-0.21, 0.98, 0.98, 0.21, -421.26, 2305.42)" xlink:href="#linear-gradient-19"></linearGradient><linearGradient id="linear-gradient-131" x1="-1012.58" y1="529.82" x2="-780.53" y2="702.77" gradientTransform="matrix(-1, 0, 0, 1, -205.67, 0)" xlink:href="#linear-gradient-10"></linearGradient><linearGradient id="linear-gradient-132" x1="782.55" y1="770.62" x2="616.96" y2="842.28" xlink:href="#linear-gradient-18"></linearGradient></defs><title>Parents</title><g id="Calque_2" data-name="Calque 2"><g id="Illustration"><path class="cls-13" d="M1991.37,309.76c.62-3.31,1.12-6.64,1.48-10,9.08-84.29-120.45-131.26-191.11-150.11-212-56.58-438.93-21.91-654.46-6.18-120.23,8.77-218.24-12-333.9-37.36-80.82-17.73-164.22-22.7-247.12-21.89-65.73.65-166.92-8.48-219.44,35.71-30.32,25.51-48.05,64.56-36.13,101.95,3.56,11.16,9.57,22.11,8.66,33.7C318,272.91,300.9,286.43,282.6,290.9c-34.43,8.41-67.16-2.59-102,10.41a139.07,139.07,0,0,0-66,51.75C83.06,398.94,79.29,460,100.77,510c18.45,43,48,81.08,71.55,121.88,25.71,44.49,47.41,99.94,30,150.29-12.13,35-40.59,62.42-59.23,94.73-48.34,83.75-22.5,194.63,45,265.27,51,53.4,124.49,89.68,199.79,96.9,47.42,4.55,93.74,14.94,141.66,17.83,48.9,2.95,97.93,3.18,146.91,3.39l647.1,2.87c139.19.61,275.71.58,412.07-32.77,94.73-23.18,186.73-63.76,255-129.34,33.43-32.13,51.65-65.87,66.45-107.77,14.39-40.74,8.72-83,21.75-124,9.14-28.77,30.12-53,43.8-80.23,27.45-54.57,23.18-121.56-11-172.83-35.57-53.32-99.55-88.47-128-145.25a139.12,139.12,0,0,1-13-85.26C1974.88,359.87,1986.56,335.4,1991.37,309.76Z"></path><path class="cls-14" d="M2042.74,626c-65.39-63.62-175.39-72-161.19-185,4.2-33.43,17.61-65.07,27.92-97.28,10.76-33.62,13.4-63.8,9.48-90.77-14.32-98.52-116.22-154.06-229.48-177.4C1598.79,56.9,1505.54,51.08,1412.91,53c-65,1.34-129.79,6.47-194.34,13.43-84.81,9.14-161,22.34-247.16,18.45A1606.73,1606.73,0,0,1,708.73,51.22C632.4,34.94,557.05,13,479.22,5.59c-92-8.8-319,18.93-272,157.78,8.48,25.09,13.77,53.29-16.43,68.29-22.47,11.16-51.67,7.07-75.81,15.25-46.3,15.7-85.4,51.09-102,95.22-19.19,51-9.89,107.08.32,160.29,13.92,72.6,68.88,127.83,82,199.85,13.44,73.88-35,119.38-68.57,179.41-51.75,92.63-24.09,215.25,48.18,293.38,45.19,48.86,106.62,83.08,172.31,104.36H1457.23c87.7,0,180.19.5,265.45-25.39s176-88,199.86-174.51c10.2-37,7.09-76.12,14.92-113.6,9.8-46.88,36.73-90.12,67.19-127.75,28.37-35,65.4-51.9,74.48-100.31C2086.61,698,2072.66,655.09,2042.74,626Z"></path><path class="cls-15" d="M165.28,596.48c20.19,32.94,143.23,220,287.93,137.7,0,0-58.62-143.67-286.41-142.59C164.81,591.6,164,594.33,165.28,596.48Z"></path><path class="cls-16" d="M196.42,610.3c8.62,7.58,17.57,14.86,26.61,22s18.27,14,27.63,20.7,18.86,13.17,28.52,19.42,19.51,12.19,29.49,17.87,20.2,11,30.56,15.92A336.64,336.64,0,0,0,371,719.43l4.05,1.43c1.36.47,2.7,1,4.07,1.36l8.21,2.53c5.52,1.47,11,3,16.65,4a160.73,160.73,0,0,0,33.9,3.45h0a2,2,0,1,1,.06,4h0a164.77,164.77,0,0,1-34.71-3.81c-5.72-1.12-11.3-2.72-16.9-4.26l-8.3-2.62c-1.39-.42-2.74-.93-4.11-1.42l-4.08-1.48A339.15,339.15,0,0,1,337.87,709c-10.39-5.08-20.63-10.45-30.61-16.28s-19.83-11.86-29.48-18.2-19.12-12.93-28.45-19.72-18.51-13.79-27.53-21-17.9-14.55-26.52-22.26a.85.85,0,0,1,1.13-1.27Z"></path><path class="cls-17" d="M219.74,287.42c-.06-4.09,3.8-3.93,7.38-1.95C423.29,393.75,534.24,639.75,501.65,721.09,501.65,721.09,226,733.31,219.74,287.42Z"></path><path class="cls-18" d="M240.42,338.46c.33.92.78,2,1.19,3l1.28,3,2.64,6q2.67,6,5.42,11.93,5.51,11.88,11.29,23.64,11.5,23.55,23.91,46.63c16.59,30.73,34.12,61,53.17,90.23,9.58,14.59,19.29,29.1,29.57,43.21s20.89,28,32.06,41.37c1.36,1.71,2.77,3.37,4.2,5l4.25,5,4.26,5c1.43,1.64,2.92,3.24,4.37,4.86,3,3.22,5.82,6.51,8.83,9.66l9.07,9.43a498.55,498.55,0,0,0,38.59,35.35h0a.52.52,0,0,1,.07.71.49.49,0,0,1-.69.07,461.81,461.81,0,0,1-39.44-34.66l-9.22-9.36c-3.05-3.14-6-6.41-9-9.6-1.48-1.61-3-3.2-4.45-4.83l-4.33-4.94-4.33-4.94c-1.45-1.64-2.89-3.29-4.27-5a850.91,850.91,0,0,1-62.11-84.65c-9.54-14.68-18.59-29.67-27.43-44.77S292,449.31,283.93,433.8s-16-31.14-23.45-47Q254.9,375,249.57,363c-1.76-4-3.52-8-5.22-12l-2.51-6.06-1.23-3.05c-.39-1-.8-2-1.16-3.15a.49.49,0,0,1,.32-.62.49.49,0,0,1,.62.3Z"></path><path class="cls-19" d="M1133.88,146.78c-1.15.5-2.31,1-3.45,1.48l-4.1-1.48H387.16v982.41c262.79,0,466.35-6.5,704.07,0,235.24-9.1,506.49,7,752.05,7l12.34-989.45Z"></path><path class="cls-20" d="M412.76,126.21c291.56-10.6,431.05-84.57,718.3,20,186.64-82.54,422.3-26.82,701-17.58v990.79c-229.36-17.94-455.27-8.78-682.61,0-228.15-24.9-475.9-21.79-736.71,0Z"></path><g class="cls-21"><path class="cls-22" d="M1116.48,143.6c-271.73-95.12-409.2-24.31-690.55-14v986.3c243.6-20.53,475.61-24.34,690.55-3.54Z"></path></g><g class="cls-23"><path class="cls-24" d="M1147.13,144.42V1115.5l3.87.41c225.77-8.7,450.14-17.79,677.93,0V133C1559.25,124.08,1330.16,71.41,1147.13,144.42Z"></path></g><path class="cls-25" d="M1129.79,1119.8l702.29-.39V1092.8C1440.9,1067.3,1147.13,1044.46,1129.79,1119.8Z"></path><path class="cls-26" d="M1129.79,1119.8l-717.24-.88v-26.61C803.73,1066.82,1122.42,1055.23,1129.79,1119.8Z"></path><path class="cls-27" d="M1087.51,1119.8c3.15,2.38,2.28,5.55,2.28,8.92h0a19.55,19.55,0,0,0,19.49,19.49h41a19.55,19.55,0,0,0,19.49-19.49h0c0-3.37-.87-6.54-7.06-8.92Z"></path><ellipse class="cls-28" cx="1129.38" cy="1116.5" rx="22.06" ry="11.01"></ellipse><g class="cls-29"><path class="cls-30" d="M819.05,625.66l-.34,0-11.43-1.39a2.77,2.77,0,0,1-2.39-2.18l-1.79-8.32a43.49,43.49,0,0,1-10.45-5.9l-8,2.79a2.82,2.82,0,0,1-3.11-.92l-7.1-9.07a2.77,2.77,0,0,1-.15-3.23l4.62-7.15a44,44,0,0,1-3.23-11.56L768,575a2.79,2.79,0,0,1-1.55-2.84l1.39-11.44a2.79,2.79,0,0,1,2.18-2.39l8.32-1.78a44,44,0,0,1,5.9-10.46l-2.78-8a2.78,2.78,0,0,1,.92-3.11l9.06-7.1a2.78,2.78,0,0,1,3.24-.15l7.15,4.62a43.81,43.81,0,0,1,11.55-3.22l3.72-7.66a2.8,2.8,0,0,1,2.85-1.55l11.43,1.39a2.8,2.8,0,0,1,2.39,2.18l1.79,8.32a44.18,44.18,0,0,1,10.45,5.9l8-2.78a2.79,2.79,0,0,1,3.1.91l7.11,9.07a2.8,2.8,0,0,1,.15,3.23l-4.63,7.16A43.46,43.46,0,0,1,863,566.8l7.65,3.72a2.81,2.81,0,0,1,1.55,2.85l-1.39,11.43a2.79,2.79,0,0,1-2.18,2.39L860.32,589a44,44,0,0,1-5.9,10.45l2.78,8.05a2.81,2.81,0,0,1-.91,3.11l-9.07,7.1a2.8,2.8,0,0,1-3.23.15l-7.15-4.63a43.63,43.63,0,0,1-11.56,3.23l-3.72,7.65A2.79,2.79,0,0,1,819.05,625.66Zm-10.43-5.27,9.72,1.18,4.3-8.85,1.1-.12a39.73,39.73,0,0,0,12.43-3.47l1-.47,8.27,5.35,7.7-6-3.21-9.31.69-.86A39.85,39.85,0,0,0,857,586.57l.38-1,9.62-2.07,1.17-9.72-8.84-4.3-.12-1.1a39.8,39.8,0,0,0-3.47-12.43l-.47-1,5.35-8.26-6-7.71-9.31,3.22-.86-.69a39.55,39.55,0,0,0-11.24-6.35l-1-.37L830,525.13,820.31,524l-4.3,8.84-1.1.13a39.8,39.8,0,0,0-12.43,3.47l-1,.46-8.26-5.34-7.71,6,3.22,9.3-.69.86A39.55,39.55,0,0,0,781.69,559l-.38,1-9.61,2.06-1.18,9.72,8.84,4.3.12,1.1A40,40,0,0,0,783,589.6l.46,1-5.34,8.27,6,7.7,9.3-3.21.86.69a39.76,39.76,0,0,0,11.24,6.34l1,.38Zm-.86-.11Zm46.06-12.84Zm-76.28-9.26h0Zm-5.74-37h0Zm-2-.24Zm15-22.87h0Zm7.65-7h0Zm27.06,71.38a29.88,29.88,0,0,1-18.29-6.26,2,2,0,1,1,2.46-3.15,25.68,25.68,0,1,0-9.88-18,2,2,0,1,1-4,.37,29.8,29.8,0,1,1,29.69,27Z"></path><path class="cls-30" d="M819.31,585a12.23,12.23,0,0,1-11.39-16.63,12.23,12.23,0,0,1,22.82,8.8A12.27,12.27,0,0,1,819.31,585Zm0-20.46a8.24,8.24,0,0,0-7.67,5.27,8.23,8.23,0,1,0,7.67-5.27Z"></path><path class="cls-30" d="M901.25,551.41a1.86,1.86,0,0,1-1.43-.66l-2.46-2.91a21.28,21.28,0,0,1-5.35-.12l-2.58,2.79a1.91,1.91,0,0,1-2.14.45l-5.07-2.24a1.88,1.88,0,0,1-1.11-1.88l.31-3.79a21.83,21.83,0,0,1-3.69-3.87l-3.81.15a1.86,1.86,0,0,1-1.82-1.2l-2-5.16a1.88,1.88,0,0,1,.54-2.12l2.9-2.46a21.69,21.69,0,0,1,.12-5.34l-2.79-2.59a1.88,1.88,0,0,1-.44-2.14l2.24-5.07a1.89,1.89,0,0,1,1.87-1.11l3.8.32a21.08,21.08,0,0,1,3.86-3.69l-.14-3.81a1.88,1.88,0,0,1,1.19-1.82l5.17-2a1.89,1.89,0,0,1,2.12.54l2.45,2.91a21.76,21.76,0,0,1,5.35.12l2.58-2.79a1.87,1.87,0,0,1,2.14-.44l5.07,2.23a1.88,1.88,0,0,1,1.11,1.88l-.31,3.79a21.83,21.83,0,0,1,3.69,3.87l3.81-.15a1.89,1.89,0,0,1,1.82,1.2l2,5.16a1.88,1.88,0,0,1-.54,2.12l-2.9,2.46a21.69,21.69,0,0,1-.12,5.34l2.79,2.59a1.89,1.89,0,0,1,.44,2.13l-2.24,5.08a1.88,1.88,0,0,1-1.87,1.11L912,540a21.48,21.48,0,0,1-3.87,3.69l.14,3.81a1.88,1.88,0,0,1-1.2,1.83l-5.16,2A2,2,0,0,1,901.25,551.41Zm-2.66-6.76,3,3.55,3.68-1.42-.18-4.65.68-.46a18.82,18.82,0,0,0,4.37-4.17l.49-.66,4.63.38,1.59-3.6-3.4-3.16.15-.81a18.49,18.49,0,0,0,.13-6l-.11-.82,3.55-3-1.43-3.67-4.64.18-.47-.69a18.57,18.57,0,0,0-4.17-4.36l-.66-.5.39-4.63-3.61-1.59-3.15,3.41-.82-.15a18.49,18.49,0,0,0-6-.14l-.82.12-3-3.55-3.68,1.42.18,4.65-.68.47a18.58,18.58,0,0,0-4.37,4.16l-.49.66-4.63-.38-1.59,3.6,3.4,3.16-.15.81a18.54,18.54,0,0,0-.13,6l.11.81-3.55,3,1.43,3.67,4.64-.18.47.69a18.57,18.57,0,0,0,4.17,4.36l.66.5-.39,4.63,3.61,1.59,3.15-3.41.82.15a18.49,18.49,0,0,0,6,.14Zm-14.49,2.44h0Zm21.91-.6h0Zm-33.43-13.35h0Zm.31-1.26h0Zm44.89-12.6h0Zm-44.87-1Zm43.64-2.17h0Zm-41.14-1.62Zm-1.37-.61h0Zm32.22-8.53Zm-4.41-1.12Zm-13.61-.6h0Zm7,37.43a14.87,14.87,0,0,1-12.12-6.27A1.5,1.5,0,1,1,885.6,533a12,12,0,0,0,4.9,4,11.86,11.86,0,1,0-6.84-13.24,1.5,1.5,0,0,1-2.94-.61,14.48,14.48,0,0,1,1-3A14.86,14.86,0,1,1,895.27,541Z"></path></g><path class="cls-31" d="M646.91,362.8a1,1,0,0,1-.6-.2,1,1,0,0,1-.2-1.4c.82-1.08,1.66-2.15,2.51-3.17a1,1,0,1,1,1.54,1.27c-.83,1-1.66,2.05-2.45,3.1A1,1,0,0,1,646.91,362.8Z"></path><path class="cls-31" d="M808.58,398.37a1,1,0,0,1-1-.79c-.54-2.49-1.2-5-2-7.42a1,1,0,1,1,1.91-.59c.77,2.49,1.44,5,2,7.59a1,1,0,0,1-.76,1.19Zm-6.52-19.25a1,1,0,0,1-.9-.58c-1.08-2.3-2.28-4.59-3.56-6.8a1,1,0,0,1,1.74-1c1.3,2.26,2.52,4.59,3.63,6.95a1,1,0,0,1-.48,1.33A.94.94,0,0,1,802.06,379.12Zm-10.62-17.34a1,1,0,0,1-.79-.38c-1.56-2-3.23-4-5-5.86a1,1,0,1,1,1.47-1.35c1.76,1.91,3.47,3.92,5.07,6a1,1,0,0,1-.18,1.4A1,1,0,0,1,791.44,361.78ZM658.08,350.54a1,1,0,0,1-.74-.32,1,1,0,0,1,.07-1.42c1.92-1.75,3.94-3.45,6-5a1,1,0,0,1,1.22,1.58c-2,1.56-4,3.21-5.88,4.93A1.05,1.05,0,0,1,658.08,350.54Zm119.18-3.31a1,1,0,0,1-.63-.23c-2-1.61-4-3.16-6.14-4.6a1,1,0,0,1,1.13-1.65c2.15,1.47,4.26,3.05,6.27,4.7a1,1,0,0,1,.14,1.41A1,1,0,0,1,777.26,347.23Zm-102.74-8.65a1,1,0,0,1-.87-.5,1,1,0,0,1,.38-1.36c2.26-1.3,4.61-2.51,7-3.6a1,1,0,0,1,.84,1.82c-2.31,1.07-4.6,2.25-6.82,3.51A1,1,0,0,1,674.52,338.58Zm85.67-2.38a1,1,0,0,1-.44-.1c-2.29-1.14-4.64-2.18-7-3.12a1,1,0,1,1,.74-1.86c2.41,1,4.82,2,7.16,3.19a1,1,0,0,1-.45,1.89Zm-67-5.66a1,1,0,0,1-.29-2c2.49-.75,5.05-1.41,7.6-1.95a1,1,0,0,1,.41,2c-2.49.53-5,1.17-7.43,1.91A.92.92,0,0,1,693.19,330.54Zm47.91-1.3a.85.85,0,0,1-.23,0c-2.49-.6-5-1.1-7.53-1.49a1,1,0,0,1,.31-2c2.56.4,5.15.91,7.69,1.53a1,1,0,0,1-.24,2Zm-27.92-2.37a1,1,0,0,1-.07-2c2.6-.18,5.23-.25,7.85-.21a1,1,0,0,1,1,1,1,1,0,0,1-1,1c-2.55,0-5.13,0-7.67.21Z"></path><path class="cls-31" d="M810.61,414.87a1,1,0,0,1-1-1c0-1.32-.11-2.65-.21-3.95a1,1,0,0,1,.93-1.07,1,1,0,0,1,1.07.92c.1,1.33.17,2.69.21,4a1,1,0,0,1-1,1Z"></path><path class="cls-31" d="M784.6,481.51a1,1,0,0,1-.7-.29,1,1,0,0,1,0-1.41c.92-.94,1.83-1.91,2.71-2.89a1,1,0,1,1,1.48,1.34c-.89,1-1.82,2-2.76,2.95A1,1,0,0,1,784.6,481.51Z"></path><path class="cls-31" d="M719.46,508.8h0c-2.56,0-5.15-.12-7.7-.34a1,1,0,0,1-.91-1.08,1,1,0,0,1,1.08-.91c2.49.21,5,.32,7.54.33a1,1,0,0,1,0,2Zm12.37-.82a1,1,0,0,1-1-.86,1,1,0,0,1,.85-1.13c2.49-.33,5-.78,7.43-1.32a1,1,0,1,1,.44,1.95c-2.51.56-5.06,1-7.6,1.35Zm-32.25-1.41-.22,0c-2.49-.56-5-1.23-7.45-2a1,1,0,0,1,.6-1.91c2.4.75,4.85,1.41,7.29,2a1,1,0,0,1-.22,2Zm51.65-3.44a1,1,0,0,1-.35-1.94c2.35-.87,4.69-1.85,7-2.92a1,1,0,1,1,.85,1.81c-2.32,1.09-4.71,2.1-7.11,3A1.12,1.12,0,0,1,751.23,503.13Zm-70.56-3.06a1.11,1.11,0,0,1-.43-.09c-2.32-1.1-4.61-2.3-6.83-3.58a1,1,0,0,1,1-1.73c2.17,1.25,4.42,2.43,6.69,3.5a1,1,0,0,1-.43,1.9Zm88.43-5.92a1,1,0,0,1-.54-1.84c2.11-1.37,4.18-2.84,6.16-4.37a1,1,0,0,1,1.22,1.59c-2,1.56-4.14,3.06-6.29,4.46A1.1,1.1,0,0,1,769.1,494.15Zm-105.47-4.54a1,1,0,0,1-.61-.21c-2-1.57-4-3.25-5.88-5a1,1,0,0,1-.06-1.41,1,1,0,0,1,1.42-.06c1.83,1.7,3.77,3.34,5.75,4.88a1,1,0,0,1-.62,1.79Zm-14.32-13.95a1,1,0,0,1-.77-.36c-1.63-2-3.19-4.05-4.65-6.16a1,1,0,1,1,1.64-1.13c1.43,2.06,3,4.08,4.55,6a1,1,0,0,1-.14,1.41A1,1,0,0,1,649.31,475.66Zm-10.95-16.73a1,1,0,0,1-.89-.55c-1.17-2.29-2.25-4.65-3.21-7a1,1,0,1,1,1.85-.75c.95,2.32,2,4.63,3.14,6.87a1,1,0,0,1-.44,1.34A1,1,0,0,1,638.36,458.93Zm-7.05-18.72a1,1,0,0,1-1-.75c-.64-2.48-1.17-5-1.59-7.55a1,1,0,1,1,2-.33c.41,2.47.94,5,1.56,7.38a1,1,0,0,1-.73,1.22Z"></path><path class="cls-31" d="M628.54,420.36a1,1,0,0,1-1-1c0-1.35,0-2.71,0-4.05a1,1,0,0,1,1-1h0a1,1,0,0,1,1,1c0,1.3,0,2.63,0,3.95a1,1,0,0,1-1,1Z"></path><path class="cls-32" d="M650.32,406.87a1.08,1.08,0,0,0,.46,1.18l11.12,7.29a58,58,0,0,0,2.7,18.58L656,444.08a1.1,1.1,0,0,0-.11,1.26l8.17,13.71a1.09,1.09,0,0,0,1.16.51l13-2.71a57.76,57.76,0,0,0,15,11.23l1.11,13.25a1.1,1.1,0,0,0,.82,1l15.47,3.92a1.09,1.09,0,0,0,1.18-.46l7.3-11.13a57.84,57.84,0,0,0,18.58-2.69l10.15,8.58a1.1,1.1,0,0,0,1.27.1l13.71-8.16a1.11,1.11,0,0,0,.51-1.17l-2.71-13a58.11,58.11,0,0,0,11.22-15l13.25-1.12a1.09,1.09,0,0,0,1-.82l3.92-15.47a1.08,1.08,0,0,0-.46-1.18l-11.12-7.29a58.09,58.09,0,0,0-2.7-18.58l8.58-10.16a1.08,1.08,0,0,0,.1-1.26l-8.16-13.71a1.1,1.1,0,0,0-1.16-.51l-13,2.71a58,58,0,0,0-15-11.22L746,351.36a1.11,1.11,0,0,0-.82-1l-15.47-3.92a1.09,1.09,0,0,0-1.18.46l-7.3,11.13a57.85,57.85,0,0,0-18.58,2.7l-10.15-8.58a1.09,1.09,0,0,0-1.27-.11l-13.71,8.17a1.1,1.1,0,0,0-.51,1.16l2.71,13a58,58,0,0,0-11.22,15.06l-13.26,1.11a1.09,1.09,0,0,0-1,.82Z"></path><path class="cls-30" d="M720.19,432a15.66,15.66,0,1,1,11.07-4.57A15.59,15.59,0,0,1,720.19,432Zm0-28.33a12.66,12.66,0,1,0,9,3.72A12.61,12.61,0,0,0,720.19,403.68Z"></path><path class="cls-30" d="M720.59,456.42a40.3,40.3,0,0,1-9.89-1.24,39.74,39.74,0,0,1-24.54-18.31l-.36-.6a40.59,40.59,0,0,1-3-6.5c0-.11-.07-.21-.11-.32s-.07-.21-.11-.31l2.85-1a37.05,37.05,0,0,0,3.29,7.16h0a37,37,0,0,0,67.66-9.85,37.21,37.21,0,0,0,1.15-9.16A37,37,0,0,0,688,398.84l-2.64-1.42a40,40,0,1,1,35.28,59Z"></path><path class="cls-30" d="M1067.16,194.39a1.91,1.91,0,0,1-.66-.11c-62.12-21.67-148.42-30.73-263.83-27.66-103,2.73-219.26,14.65-331.64,26.17l-15.47,1.59a2,2,0,0,1-.4-4l15.46-1.58c112.46-11.54,228.75-23.47,332-26.2,115.9-3.08,202.66,6,265.25,27.88a2,2,0,0,1-.66,3.89Z"></path><path class="cls-30" d="M1058.85,240.08a2.17,2.17,0,0,1-.66-.11c-62.12-21.68-148.42-30.73-263.83-27.67C691.31,215,575.1,227,462.71,238.48l-15.46,1.59a2,2,0,1,1-.41-4l15.47-1.59C574.76,223,691.05,211,794.25,208.31c115.9-3.07,202.67,6.05,265.26,27.88a2,2,0,0,1-.66,3.89Z"></path><path class="cls-30" d="M1058.85,287.2a1.92,1.92,0,0,1-.66-.12c-62.12-21.67-148.42-30.72-263.84-27.66C691.3,262.15,575.09,274.07,462.7,285.6l-15.45,1.59a2,2,0,1,1-.41-4l15.46-1.59c112.46-11.53,228.74-23.46,332-26.2,115.9-3.07,202.67,6.05,265.26,27.89a2,2,0,0,1-.66,3.89Z"></path><path class="cls-30" d="M1064.15,327.65a2.17,2.17,0,0,1-.66-.11c-62.12-21.67-148.42-30.72-263.83-27.66-103,2.73-219.26,14.65-331.64,26.17l-15.47,1.59a2,2,0,1,1-.41-4l15.47-1.59c112.46-11.53,228.74-23.46,331.94-26.19,115.9-3.07,202.67,6.05,265.26,27.88a2,2,0,0,1-.66,3.89Z"></path><path class="cls-30" d="M1063,366a2.11,2.11,0,0,1-.65-.11c-58.09-20.27-136.73-29.47-240.43-28.13a2,2,0,0,1-2-2,2,2,0,0,1,2-2c104.17-1.36,183.26,7.93,241.79,28.35A2,2,0,0,1,1063,366Z"></path><path class="cls-30" d="M451.2,366a2,2,0,0,1-.2-4l15.63-1.6c50.28-5.16,102.28-10.5,152.42-14.93a2,2,0,1,1,.35,4c-50.11,4.44-102.09,9.77-152.36,14.92L451.4,366Z"></path><path class="cls-30" d="M1054.69,411.65a1.92,1.92,0,0,1-.66-.12C998.12,392,923.44,382.82,825.69,383.3h0a2,2,0,0,1,0-4c98.21-.51,173.33,8.8,229.68,28.46a2,2,0,0,1-.66,3.89Z"></path><path class="cls-30" d="M442.88,411.64a2,2,0,0,1-.2-4l15.39-1.58C507.79,401,559.2,395.7,608.8,391.29a2,2,0,0,1,.36,4c-49.58,4.41-101,9.68-150.68,14.78l-15.39,1.57Z"></path><path class="cls-30" d="M1054.69,458.76a1.91,1.91,0,0,1-.66-.11c-55.91-19.5-130.59-28.74-228.34-28.24h0a2,2,0,0,1,0-4c98.19-.51,173.33,8.81,229.68,28.46a2,2,0,0,1-.66,3.89Z"></path><path class="cls-30" d="M442.88,458.76a2,2,0,0,1-.2-4l15.26-1.56c48.56-5,98.76-10.13,147.25-14.48a2,2,0,0,1,2.17,1.82,2,2,0,0,1-1.81,2.17c-48.46,4.34-98.66,9.49-147.2,14.47l-15.26,1.56Z"></path><path class="cls-30" d="M1060,499.22a1.92,1.92,0,0,1-.66-.12C1002.46,479.26,926.05,470,825.7,470.9h0a2,2,0,0,1,0-4c100.82-.87,177.68,8.43,235,28.43a2,2,0,0,1-.66,3.89Z"></path><path class="cls-30" d="M448.18,499.22a2,2,0,0,1-.2-4l15.59-1.6c47.88-4.91,97.39-10,145.23-14.29a2,2,0,1,1,.36,4c-47.81,4.3-97.31,9.38-145.19,14.29l-15.58,1.59Z"></path><path class="cls-33" d="M330,866.28a68,68,0,0,0-20.69-9.62c-2.78-.76-17.79,3.6-27.06,3.39-12.74-.29-25.7-6.09-36.2-3.47s-19,6-23.89,9.49c-14.75,10.49-23.41,30.06-28.68,49.43A67.5,67.5,0,0,0,216,930.32l2.32,94.18,52.83,9.7,66.42-13.12-2.27-92s20.18-9.4,21.66-12.82S347.76,878.53,330,866.28Z"></path><path class="cls-34" d="M356,915.81s27.05,75-34.63,105.81c-12.81-1.7-7.88-23-7.88-23s26.8-5.93,18.75-68.49C339.67,924.07,356,915.81,356,915.81Z"></path><path class="cls-35" d="M194.73,915.81s-18.61,78.28,34.63,105.81c12.81-1.7,7.88-23,7.88-23s-21.6-10.64-18.75-68.49C211.08,924.07,194.73,915.81,194.73,915.81Z"></path><path class="cls-36" d="M309.26,856.66s-5.63,24.38-32.95,23.88c-27.83-.51-30.31-24-30.31-24l18.18-3.89,1.52-20.26,27.34,2,.51,19.24Z"></path><path class="cls-37" d="M235.79,825.62s-14.16-7.5-9-18.77c0,0-11.08-7.4-6.55-20,0,0-5.64-40.92,38.79-35.69,0,0,21.5-22.62,49.2,3.76,0,0,11.58-.34,14.81,13.64,0,0,27.72,42.74-20.72,51Z"></path><path class="cls-38" d="M232.68,790.91s-12.37,67.4,30.59,69.82,45.17-42.88,45.17-42.88,8.05-23.53-3.05-33.55S238.37,779.91,232.68,790.91Z"></path><path class="cls-39" d="M233.46,821.14s-.76-7.7-7.28-6.09,7.39,16.49,7.39,16.49Z"></path><path class="cls-40" d="M308,807.53s-41,5.42-47.83-17.1c0,0-5.9,3.52-11.21-2.88,0,0-10.14,24-19.92,15.12,0,0-9.72-28.73,15.83-29.92s49.32-1.35,58,2.26S323.4,791.64,308,807.53Z"></path><path class="cls-41" d="M306.06,825l-1.83-20.41s9.62-11.38,12.45-1.14S311,824.06,306.06,825Z"></path><path class="cls-30" d="M337.89,930.94a3.65,3.65,0,0,0-2.92-.48l-59.27,17-58.62-17a4.85,4.85,0,0,0-3.41.48c-.75.56-2,1.45-2,2.39v3l64,21.66,64-18.15v-6.58C339.68,932.39,338.64,931.5,337.89,930.94Z"></path><path class="cls-42" d="M274.47,947.44l-61-14.51a3,3,0,0,0-3.67,3l1.39,68a3,3,0,0,0,2.39,2.86L276,1019.52Z"></path><path class="cls-43" d="M279.23,947.44l61-14.51a3,3,0,0,1,3.68,3l-1.4,68a3,3,0,0,1-2.38,2.86l-62.5,12.81Z"></path><rect class="cls-44" x="266.68" y="942.84" width="13" height="74" rx="2.99"></rect><path class="cls-45" d="M222.83,958.68c-1.36-3.57-8.61.38-11.07,1.85a.64.64,0,0,1-.6,0,.62.62,0,0,1-.34-.49l-.67-5.29-2.31,5c-3.7,5.46-.72,18.88-.72,18.88.89,5.86,7.8,4,12.94,2.26S224.47,963,222.83,958.68Z"></path><path class="cls-46" d="M330.88,958.68c1.36-3.57,8.61.38,11.07,1.85a.64.64,0,0,0,.6,0,.62.62,0,0,0,.34-.49l.67-5.29,2.31,5c3.7,5.46.72,18.88.72,18.88-.89,5.86-7.8,4-12.94,2.26S329.24,963,330.88,958.68Z"></path><path class="cls-47" d="M162.62,1038.39c14-3.21,46.28-1.48,46.28-1.48l1.31,3.55,2.18,17.69s-30.76,5.54-45.93,5.53a14,14,0,0,1-4.25-.64,16.53,16.53,0,0,1-1.34-1.31C154.43,1054.71,156.29,1044.39,162.62,1038.39Z"></path><path class="cls-48" d="M161.24,1038.74c.43-.12.9-.24,1.38-.35-6.33,6-8.19,16.32-1.75,23.34a16.53,16.53,0,0,0,1.34,1.31C150.83,1059.5,149.49,1042.05,161.24,1038.74Z"></path><path class="cls-49" d="M218.18,1035.91l-5.47.23a10.52,10.52,0,0,0-7.68,4,12.89,12.89,0,0,0-2.82,8.86,10.15,10.15,0,0,0,3,6.75,8.27,8.27,0,0,0,6.4,2.43l8.37-.59Z"></path><path class="cls-50" d="M188.88,1054.7a.84.84,0,0,0,.78-.66c1.4-5.59,6.83-11.22,6.88-11.27a1,1,0,0,0,0-1.27.74.74,0,0,0-1.14,0c-.24.24-5.82,6-7.34,12.11a.91.91,0,0,0,.56,1.1A.6.6,0,0,0,188.88,1054.7Z"></path><path class="cls-51" d="M196.28,1054.24a.66.66,0,0,0,.23,0,.91.91,0,0,0,.53-1.13c-1.83-6.5-8.72-11.7-9-11.92a.76.76,0,0,0-1.12.24,1,1,0,0,0,.22,1.25c.06,0,6.71,5.07,8.37,11A.82.82,0,0,0,196.28,1054.24Z"></path><path class="cls-52" d="M174,1055.57a.85.85,0,0,0,.79-.7c1.15-5.66,6.32-11.57,6.38-11.63a1,1,0,0,0,0-1.27.74.74,0,0,0-1.14,0c-.23.25-5.55,6.33-6.8,12.49a.9.9,0,0,0,.61,1.08Z"></path><path class="cls-53" d="M181.41,1054.71a.86.86,0,0,0,.27,0,.93.93,0,0,0,.48-1.16c-2.11-6.39-9.22-11.21-9.53-11.42a.77.77,0,0,0-1.11.31,1,1,0,0,0,.28,1.23c.07.05,6.92,4.7,8.84,10.5A.8.8,0,0,0,181.41,1054.71Z"></path><path class="cls-54" d="M402.1,1036.69c-14.05-2.78-46.3-.06-46.3-.06l-1.22,3.59L352.84,1058s30.89,4.6,46.05,4.12a14.46,14.46,0,0,0,4.24-.77,18.45,18.45,0,0,0,1.3-1.35C410.69,1052.75,408.58,1042.49,402.1,1036.69Z"></path><path class="cls-55" d="M403.49,1037c-.44-.11-.9-.22-1.39-.31,6.48,5.8,8.59,16.06,2.33,23.28a18.45,18.45,0,0,1-1.3,1.35C414.41,1057.43,415.32,1039.94,403.49,1037Z"></path><path class="cls-56" d="M346.5,1035.91l5.47.07a10.46,10.46,0,0,1,7.78,3.74,12.86,12.86,0,0,1,3,8.77,10.24,10.24,0,0,1-2.79,6.84,8.31,8.31,0,0,1-6.33,2.62l-8.39-.33Z"></path><path class="cls-57" d="M376.25,1053.79a.82.82,0,0,1-.79-.63c-1.54-5.55-7.1-11-7.16-11.06a1,1,0,0,1-.07-1.26.75.75,0,0,1,1.14-.09c.24.24,6,5.84,7.64,11.88a.91.91,0,0,1-.54,1.12A.54.54,0,0,1,376.25,1053.79Z"></path><path class="cls-58" d="M368.85,1053.57a.67.67,0,0,1-.24,0,.92.92,0,0,1-.56-1.11c1.67-6.56,8.43-12,8.72-12.19a.76.76,0,0,1,1.13.21,1,1,0,0,1-.19,1.25c-.07,0-6.58,5.27-8.09,11.22A.84.84,0,0,1,368.85,1053.57Z"></path><path class="cls-59" d="M391.11,1054.21a.82.82,0,0,1-.8-.68c-1.29-5.62-6.61-11.37-6.67-11.43a1,1,0,0,1,0-1.27.77.77,0,0,1,1.15,0c.23.25,5.7,6.16,7.11,12.28a.9.9,0,0,1-.59,1.09Z"></path><path class="cls-60" d="M383.73,1053.58a.9.9,0,0,1-.28,0,.93.93,0,0,1-.51-1.14c2-6.46,8.94-11.5,9.24-11.71a.76.76,0,0,1,1.12.27,1,1,0,0,1-.24,1.24c-.07,0-6.81,4.91-8.58,10.77A.81.81,0,0,1,383.73,1053.58Z"></path><path class="cls-61" d="M158.71,983c6.34-14.59,21.84-17,35-10.14.22.31,83.78,43.13,157.47,61.9a80.2,80.2,0,0,0-3.43,21c0,1.58,0,3.13.08,4.66-56.51-2.9-117.84-21.74-170.54-38.3C161,1016.83,151.69,999.12,158.71,983Z"></path><path class="cls-62" d="M217.78,1056.85a48.64,48.64,0,0,0-4.76-22.77c-.09-.32-.21-.63-.31-.95,4.2-1.3,9.64-3.07,16.78-5.49,52.33-17.91,92.25-36,130.35-56.8,14.8-8.09,31.62-2.67,36.36,14.84,4.23,15.64-5.06,29-19.15,33.67-42.18,14-20.22,10.14-34,14.57-37,11.44-83,21.86-125.37,24.7C217.72,1058,217.76,1057.44,217.78,1056.85Z"></path><path class="cls-63" d="M92.35,1126.93H430.28V1075.1H92.35C99.58,1075.1,99.58,1126.93,92.35,1126.93Z"></path><path class="cls-64" d="M430.28,1114v-23.72a15,15,0,0,0-14.92-15.14H93.78c-6.48,0-11.73-4-11.73-9,0-1.51,1.59-2.73,3.56-2.73H437.08c8.06,0,20.86,9.71,20.86,21.69v33.13c0,11.29-12.43,20.45-20,20.45H87.46c-3,0-5.41-1.86-5.41-4.15,0-4.18,4.42-7.57,9.88-7.57H417.5A12.88,12.88,0,0,0,430.28,1114Z"></path><path class="cls-30" d="M420.91,1086.73H104.05a1,1,0,1,1,0-2H420.91a1,1,0,1,1,0,2Z"></path><path class="cls-30" d="M420.91,1094.43H104.05a1,1,0,1,1,0-2H420.91a1,1,0,1,1,0,2Z"></path><path class="cls-30" d="M420.91,1102.12H104.05a1,1,0,1,1,0-2H420.91a1,1,0,1,1,0,2Z"></path><path class="cls-30" d="M420.91,1109.81H104.05a1,1,0,1,1,0-2H420.91a1,1,0,1,1,0,2Z"></path><path class="cls-30" d="M420.91,1117.51H104.05a1,1,0,1,1,0-2H420.91a1,1,0,1,1,0,2Z"></path><path class="cls-65" d="M55.54,1239h395a16,16,0,0,1,16,16v48.68a16,16,0,0,1-16,16h-395a16,16,0,0,1-16-16V1255A16,16,0,0,1,55.54,1239Z"></path><rect class="cls-66" x="87.81" y="1248.28" width="32.91" height="62.13" rx="5.76"></rect><rect class="cls-66" x="134.19" y="1248.28" width="23.66" height="62.13" rx="5.76"></rect><path class="cls-67" d="M463.6,1144.28v17.46c0,3-1.74,5.84-4.78,7.8l-3,1.94c-2.47,1.59-1.95,4.54,1,5.61h0c1.94.7,2.3,2.64.69,3.71l-3.78,2.51a3.51,3.51,0,0,0,0,6.19l2.71,1.81c2.34,1.57,2.28,4.32-.14,5.83l-2.92,1.81c-2,1.25-2.36,3.48-.77,5l1.61,1.58a5.51,5.51,0,0,1,1.77,3.92v27.57H60.36v-94.44Z"></path><path class="cls-68" d="M74.07,1164.49H449.73c.82,0,1.48-.49,1.48-1.1s-.66-1.11-1.48-1.11H74.07c-.82,0-1.48.5-1.48,1.11S73.25,1164.49,74.07,1164.49Z"></path><path class="cls-68" d="M74.07,1180.93H440.84c.82,0,1.48-.49,1.48-1.1s-.66-1.11-1.48-1.11H74.07c-.82,0-1.48.5-1.48,1.11S73.25,1180.93,74.07,1180.93Z"></path><path class="cls-68" d="M74.07,1193H436.28c.82,0,1.48-.49,1.48-1.1s-.66-1.11-1.48-1.11H74.07c-.82,0-1.48.5-1.48,1.11S73.25,1193,74.07,1193Z"></path><path class="cls-69" d="M53.19,1136.6H472.25c3.2,0,6.05,1.74,6.35,4.11.35,2.72-2.51,5-6.08,5H83.94c-6.83,0-12.72,3.57-14.14,8.55-6.36,22.32-5.88,45.55.11,69.53,1.39,5.56,7.91,9.59,15.49,9.59H464.58c3.19,0,6,1.74,6.34,4.11.35,2.72-2.51,5-6.08,5H56c-9.77,0-18.19-5.21-19.93-12.38-7.06-29.09-7.68-57,0-83.42,1.72-5.92,8.82-10.11,16.94-10.11Z"></path><path class="cls-70" d="M1614,1111.66S1661,884.74,1733.4,797.54c64.66-77.82,163-181.24,183.42-202.59a2.24,2.24,0,0,1,3.86,1.55c-.09,33.08-7.9,208.82-158.39,351.21C1595.45,1105.58,1614,1111.66,1614,1111.66Z"></path><path class="cls-16" d="M1891.85,662.84c-15.7,28.88-32.75,56.94-50.56,84.54s-36.62,54.53-56.4,80.76q-14.88,19.64-30.59,38.64t-32.47,37.09c-11.22,12-22.77,23.74-34.73,35s-24.49,22-37.44,32.18a2,2,0,0,1-2.48-3.14h0c12.89-10,25.3-20.69,37.33-31.77s23.48-22.78,34.71-34.69,22-24.26,32.53-36.79,20.73-25.37,30.69-38.38q29.79-39.1,56.67-80.32c17.9-27.45,35.08-55.42,50.87-84.12v0a1,1,0,0,1,1.83,1Z"></path><path class="cls-71" d="M1576.09,1145s126.5-194.15,225.77-248.89c88.6-48.86,217.91-109.25,244.7-121.68a2.24,2.24,0,0,1,3,2.85C2037.44,808,1966,968.8,1774,1046.46,1561,1132.55,1576.09,1145,1576.09,1145Z"></path><path class="cls-16" d="M1998.53,828.51c-25.15,21.16-51.27,41.07-77.92,60.26s-54,37.41-82,54.61q-21,12.84-42.58,24.81t-43.77,22.68c-14.83,7.09-29.85,13.79-45.11,20s-30.84,11.54-46.61,16.3a2,2,0,1,1-1.16-3.83h0c15.66-4.65,31.11-10,46.35-16s30.18-12.64,45-19.62,29.33-14.56,43.71-22.39,28.56-16.06,42.58-24.53q42-25.53,82.07-54.1c26.69-19,52.89-38.79,78.06-59.75l0,0a1,1,0,0,1,1.46.14A1,1,0,0,1,1998.53,828.51Z"></path><path class="cls-72" d="M1753.53,97.3l-14.19,37.22s13.52,59.61,79.68,78.66,92.7-13.43,92.7-13.43l16.77-54.57Z"></path><path class="cls-73" d="M1855.44,40.13l-133.13,34.6a8.85,8.85,0,0,0-3.66,15.19c25.83,23,84.5,76.37,106.53,107.17a8.85,8.85,0,0,0,10.42,3.08l135.05-52.94a8.86,8.86,0,0,0,2.74-14.79c-25.57-23.31-90.65-81.71-112-91.77A8.84,8.84,0,0,0,1855.44,40.13Z"></path><path class="cls-74" d="M1851.29,108.49s69.76,45.87,75,56.15-6.52,56.32-6.52,56.32c10.38,39.36,11.22,81.9-8,103.78,0,0-22.18-51.91-11.43-73.41s14.9-30.33,14.9-30.33,10-49.13,7.25-56.23C1922.47,164.77,1845.24,111.2,1851.29,108.49Z"></path><path class="cls-30" d="M1740.32,86.93l66.41,68.24,16.6,17.07,4.15,4.26,2.07,2.12a12.51,12.51,0,0,0,2.09,1.68,12.3,12.3,0,0,0,10.37,1.35l45.45-14.2a1,1,0,0,1,.59,1.85L1842.76,184a14.86,14.86,0,0,1-12.5-1.5,15.12,15.12,0,0,1-2.56-2l-2.11-2.12-4.19-4.22-16.79-16.88-67.14-67.53a2,2,0,0,1,2.84-2.82Z"></path><path class="cls-30" d="M1914.52,245.08a14.73,14.73,0,0,0-1.19,1.41c-.4.53-.76,1.12-1.15,1.68l-1,1.79c-.33.61-.61,1.25-.92,1.87a19.26,19.26,0,0,0-.82,1.93c-.25.66-.53,1.31-.76,2-.39,1.36-.88,2.69-1.19,4.07s-.68,2.77-.89,4.18l-.61,4.24-.32,4.3a19.23,19.23,0,0,0-.07,2.15v2.17c-.1,2.88.23,5.76.39,8.65.08,1.45.35,2.88.51,4.32s.37,2.88.59,4.31c.57,2.85,1.08,5.72,1.7,8.56l2.17,8.47v0a.7.7,0,0,1-1.34.37l-2.51-8.47c-.73-2.85-1.36-5.73-2-8.6-.28-1.44-.51-2.9-.76-4.36s-.55-2.9-.69-4.38c-.27-2.95-.71-5.88-.73-8.86l-.08-2.23a20.74,20.74,0,0,1,0-2.23L1903,268c.13-1.49.31-3,.47-4.47s.52-3,.77-4.45.75-2.93,1.12-4.39c.22-.73.49-1.44.74-2.16a20.51,20.51,0,0,1,.82-2.14c.31-.7.6-1.41.94-2.11l1.08-2.05c.42-.66.81-1.34,1.27-2a16.75,16.75,0,0,1,1.57-2,2,2,0,0,1,2.92,2.74l-.05.05Z"></path><path class="cls-30" d="M1916.5,263.07l-.11,5.7-.07,6.22-.09,12.46-.1,24.93a1.08,1.08,0,0,1-1.09,1.08,1.09,1.09,0,0,1-1.09-1l-.81-24.92-.36-12.46-.16-6.24-.06-3.13,0-1.59v-.79a11,11,0,0,1,.09-1.25,1.95,1.95,0,0,1,3.88.27Z"></path><rect class="cls-75" x="1172.33" y="517.67" width="583.85" height="647.72" rx="12"></rect><polygon class="cls-76" points="1130.29 623.57 1474.38 52.68 1785.99 636.6 1130.29 623.57"></polygon><rect class="cls-77" x="1580.64" y="1076.88" width="95.03" height="35.46" rx="12"></rect><rect class="cls-78" x="1628.16" y="1120.81" width="95.03" height="35.46" rx="12"></rect><rect class="cls-79" x="1651.19" y="1034.56" width="95.03" height="35.46" rx="12"></rect><rect class="cls-80" x="1603.67" y="991.72" width="95.03" height="35.46" rx="12"></rect><rect class="cls-81" x="1628.16" y="901.46" width="95.03" height="35.46" rx="12"></rect><rect class="cls-82" x="1642.33" y="815.73" width="95.03" height="35.46" rx="12"></rect><rect class="cls-83" x="1636.8" y="736.88" width="76.52" height="35.46" rx="12"></rect><rect class="cls-84" x="1661.14" y="692.69" width="95.03" height="35.46" rx="12"></rect><path class="cls-85" d="M1756.18,1076.76h-58a10.87,10.87,0,0,0-10.84,10.84v13.79a10.87,10.87,0,0,0,10.84,10.84h58Z"></path><path class="cls-86" d="M1756.18,949.63a11.17,11.17,0,0,0-1.93-.18H1680.9a10.87,10.87,0,0,0-10.84,10.84v13.78a10.87,10.87,0,0,0,10.84,10.84h73.35a11.17,11.17,0,0,0,1.93-.18Z"></path><path class="cls-87" d="M1756.18,859.93a10.27,10.27,0,0,0-1.93-.19H1680.9a10.87,10.87,0,0,0-10.84,10.84v13.79a10.87,10.87,0,0,0,10.84,10.84h73.35a10.27,10.27,0,0,0,1.93-.19Z"></path><path class="cls-88" d="M1756.18,774.36h-58a10.87,10.87,0,0,0-10.84,10.84V799a10.87,10.87,0,0,0,10.84,10.84h58Z"></path><path class="cls-89" d="M1756.26,735.08h-26.94a10.87,10.87,0,0,0-10.84,10.84V759.7a10.87,10.87,0,0,0,10.84,10.84h26.94Z"></path><path class="cls-90" d="M1755.35,660.08h-68.84c-6,0-10.84,3.82-10.84,8.48v10.79c0,4.66,4.88,8.48,10.84,8.48h68.84Z"></path><circle class="cls-30" cx="1464.25" cy="327.61" r="50.55"></circle><circle class="cls-91" cx="1464.25" cy="327.61" r="39.04"></circle><path class="cls-30" d="M1464.25,369.65A42,42,0,1,1,1494,357.34h0A41.77,41.77,0,0,1,1464.25,369.65Zm0-78.08a36,36,0,1,0,25.49,61.53h0a36,36,0,0,0-25.49-61.53Z"></path><path class="cls-92" d="M1467.18,884h0a79.46,79.46,0,0,1,79.46,79.46v205.36a0,0,0,0,1,0,0H1379.11a0,0,0,0,1,0,0V972.08A88.07,88.07,0,0,1,1467.18,884Z"></path><circle class="cls-93" cx="1400.04" cy="1034.8" r="8.38" transform="translate(71.26 2159.64) rotate(-76.72)"></circle><rect class="cls-94" x="1501.73" y="709.03" width="118.46" height="132.97"></rect><path class="cls-30" d="M1623.19,845H1498.73V706h124.46Zm-118.46-6h112.46V712H1504.73Z"></path><rect class="cls-30" x="1496.51" y="773.99" width="133.14" height="6" transform="translate(774.41 2334.21) rotate(-89.57)"></rect><rect class="cls-30" x="1557.7" y="707.93" width="6" height="115.18" transform="translate(782.97 2320.17) rotate(-89.55)"></rect><rect class="cls-30" x="1495.93" y="835.37" width="130.07" height="13.25" rx="6.62"></rect><rect class="cls-95" x="1505.25" y="523.24" width="118.46" height="132.97"></rect><path class="cls-30" d="M1626.71,659.21H1502.25v-139h124.46Zm-118.46-6h112.46v-127H1508.25Z"></path><rect class="cls-30" x="1500.02" y="588.2" width="133.14" height="6" transform="translate(963.68 2153.33) rotate(-89.57)"></rect><rect class="cls-30" x="1561.22" y="522.14" width="6" height="115.18" transform="translate(972.22 2139.35) rotate(-89.55)"></rect><path class="cls-30" d="M1622.89,662.84H1506.07a6.64,6.64,0,0,1-6.62-6.63h0a6.64,6.64,0,0,1,6.62-6.62h116.82a6.65,6.65,0,0,1,6.63,6.62h0A6.65,6.65,0,0,1,1622.89,662.84Z"></path><rect class="cls-96" x="1307.66" y="707.12" width="118.46" height="132.97"></rect><path class="cls-30" d="M1429.12,843.09H1304.66v-139h124.46Zm-118.46-6h112.46v-127H1310.66Z"></path><rect class="cls-30" x="1302.43" y="772.08" width="133.14" height="6" transform="translate(583.7 2138.24) rotate(-89.57)"></rect><rect class="cls-30" x="1363.62" y="706.02" width="6" height="115.18" transform="translate(592.31 2124.19) rotate(-89.55)"></rect><path class="cls-30" d="M1425.3,846.71H1308.48a6.64,6.64,0,0,1-6.63-6.62h0a6.64,6.64,0,0,1,6.63-6.63H1425.3a6.64,6.64,0,0,1,6.62,6.63h0A6.64,6.64,0,0,1,1425.3,846.71Z"></path><rect class="cls-97" x="1311.17" y="521.33" width="118.46" height="132.97"></rect><path class="cls-30" d="M1432.63,657.3H1308.17v-139h124.46Zm-118.46-6h112.46v-127H1314.17Z"></path><rect class="cls-30" x="1305.95" y="586.29" width="133.14" height="6" transform="translate(772.97 1957.36) rotate(-89.57)"></rect><rect class="cls-30" x="1367.14" y="520.23" width="6" height="115.18" transform="translate(781.59 1943.39) rotate(-89.55)"></rect><path class="cls-30" d="M1428.81,660.92H1312a6.64,6.64,0,0,1-6.62-6.62h0a6.64,6.64,0,0,1,6.62-6.62h116.82a6.64,6.64,0,0,1,6.63,6.62h0A6.64,6.64,0,0,1,1428.81,660.92Z"></path><path class="cls-98" d="M1478,34.11,1134.76,616a5,5,0,0,0,4.32,7.48l25.07-.27a44.09,44.09,0,0,0,37.59-21.81L1460,160.66a5,5,0,0,1,8.52,0l285.89,472.53a4.93,4.93,0,0,0,5,2.33h0A27.26,27.26,0,0,0,1779.31,596L1486.65,34.34A5,5,0,0,0,1478,34.11Z"></path><rect class="cls-99" x="1262.93" y="-16.78" width="49.3" height="727.49" rx="7" transform="translate(2229.18 1291.24) rotate(-150)"></rect><path class="cls-100" d="M1840,645.5,1497.69,52.68h0l-15.16-26.26a6.42,6.42,0,0,0-1.75-1.94L1468,3.19a6.56,6.56,0,0,0-11.36.18l-23.84,42.75,6.29.64a6.27,6.27,0,0,0,.73,4.31l357.42,619.08a6.34,6.34,0,0,0,8.64,2.31l31.75-18.33A6.33,6.33,0,0,0,1840,645.5Z"></path><rect class="cls-101" x="701.78" y="997.7" width="15.72" height="208.64" transform="translate(1419.28 2204.04) rotate(180)"></rect><path class="cls-102" d="M640.82,1209.62H778.46a10.23,10.23,0,0,0-10.23-10.23H651.05a10.23,10.23,0,0,0-10.23,10.23Z"></path><rect class="cls-103" x="620.39" y="939.59" width="173.06" height="49.08" rx="16.9"></rect><rect class="cls-104" x="1093.23" y="1041.16" width="15.45" height="167.03"></rect><path class="cls-105" d="M1168.59,1211.41H1033.31a10.05,10.05,0,0,1,10.06-10.05h115.17a10.05,10.05,0,0,1,10,10.05Z"></path><rect class="cls-106" x="1018.58" y="1003.73" width="170.09" height="48.24" rx="16.61"></rect><path class="cls-107" d="M986.93,929.79s-23,3.56-48.76,20.81a12.86,12.86,0,0,0-5.68,12.29c3.09,24.47,15.8,103.69,57.69,181.07a19.49,19.49,0,0,1,1.87,13.36l-7.28,33.87-13.5,12.66H1006l23.15-62.64-9.9-3.13a18.75,18.75,0,0,1-13.08-17.54l-1.16-67.2c1-29.93-18.36-50.59-18.36-50.59l55.53-2.7Z"></path><path class="cls-108" d="M957.7,1210c-3.17,4.14,34.08,9.61,52.89.55,0,0,26.09-45.38,26.09-68.75,0,0-2.07-4.76-17.39-3.68,0,0-8.76,53.73-18,59.75s-25.87.61-25.87.61S962.37,1203.85,957.7,1210Z"></path><path class="cls-109" d="M1035.19,1003.73c-.3-.51-59.78-7.15-59.78-7.15s2,18.09-4.14,43-93.41,132.77-93.41,132.77l9.15,29c-28.31,9.86-56.16,11.44-83.57,5l56.76-34.06s53.11-181,85.64-213.29l59.63-20.63Z"></path><path class="cls-110" d="M1168.59,898.42s34.27,51,37.08,74.22-9.38,32.7-45.34,34.26-132,1.53-132,1.53l-81.93-70s59.71-21.3,75.23-27.33S1168.59,898.42,1168.59,898.42Z"></path><path class="cls-111" d="M883.55,1191.58s9.86,9.55,3.2,20.18c0,0-78.1,13.84-99.3,7.56,0,0,4.4-10,28.28-21.49l-1.76,1.35a2.85,2.85,0,0,0,1.88,5.12C831.58,1203.4,864.15,1200.52,883.55,1191.58Z"></path><path class="cls-112" d="M769.84,978.82c30.1,41.49,21.44,86.28-38.93,116.41-4.25-3.86-5.44-7.48-1.17-15.66,48.1-34.63,40.74-66.07,11.17-86Z"></path><path class="cls-113" d="M707,997.7c24.1,43,18.83,76.55-50.45,98.77-3.8-9.8-2.22-15.24,3.66-17.18,52.44-26.35,39.07-47,13-69.4Z"></path><path class="cls-114" d="M656.52,1081.33c-2,8.3-1.06,12.6,5.24,14.32,3.79,13.59,1.7,21.12-4.8,24.11-8.08-11.49-14.21-23.83-16.2-37.94C646.77,1079.6,655.09,1077.66,656.52,1081.33Z"></path><path class="cls-115" d="M729.74,1079.57c-2,8.25-1,12.53,5.2,14.23,3.77,13.52,1.69,21-4.77,24-8-11.42-14.12-23.68-16.1-37.71C720,1077.85,728.31,1075.92,729.74,1079.57Z"></path><path class="cls-116" d="M745.39,808.5c2.76,2.26,4.51,6.18,5.26,13a539.1,539.1,0,0,0,18.53,93c5.44,18.6,13.4,36.24,19.62,54.55,4.73,13.93,14.09,29.42,3.21,42.67-4.77,5.81-11.59,9.48-18.6,11.81a66,66,0,0,1-37.08,1.31c-10.8-2.77-20.91-8.29-32-9.8-13.93-1.9-46.6,9.57-55.33-4.86-14.87-24.62-13.18-67.57-14.75-95.71-.78-13.94-1.07-27.92-.54-41.88.5-13.2-1.15-26,2.77-38.92,2.65-8.7,6.69-16.91,10.82-25,4.81-9.43,12.1-3.65,20.74-3.61s17.28.15,25.92.13l34.36.16C735.93,805.42,741.61,805.4,745.39,808.5Z"></path><path class="cls-117" d="M744.06,736.86s48.88,94.84,48.63,154.91l-11.82,4.05S749.07,794,729.78,771.62,744.06,736.86,744.06,736.86Z"></path><path class="cls-118" d="M785.14,883.79l7.55,8s10,13,12.69,23.12S794.86,932,790.05,933.36s-6.66-3.26-4.38-12.76a43.27,43.27,0,0,1-4.57-30.67Z"></path><rect class="cls-119" x="509.66" y="878.04" width="32" height="430.94" rx="12"></rect><rect class="cls-120" x="1272.15" y="878.04" width="32" height="430.94" rx="12"></rect><rect class="cls-121" x="1226.86" y="866.36" width="23.76" height="430.94" rx="11.88"></rect><path class="cls-122" d="M577.94,1285.37h0a11.92,11.92,0,0,1-11.88-11.88V866.31a11.91,11.91,0,0,1,11.88-11.88h0a11.91,11.91,0,0,1,11.88,11.88v407.18A11.92,11.92,0,0,1,577.94,1285.37Z"></path><rect class="cls-123" x="499.65" y="878.04" width="820.44" height="30.52" rx="12"></rect><rect class="cls-124" x="455.98" y="820.01" width="889.13" height="68.84" rx="12"></rect><path class="cls-125" d="M958.35,821l9.89,42.83v28.63l-164.83-2.8a4.05,4.05,0,0,1-4-4.06v-1.84a4.06,4.06,0,0,1,2.18-3.6l101.29-52.71Z"></path><path class="cls-126" d="M826.15,860.73l-20.39,19.93a.91.91,0,0,0,.69,1.57c14.76-.85,93.41-4.56,161.79,8.15V825Z"></path><path class="cls-127" d="M805.9,876.9c18.38-1.39,121.26-8,162.34,13.48V825s-116,4.94-158.79,26c0,0,4,14.76-4.39,24.14A1,1,0,0,0,805.9,876.9Z"></path><path class="cls-128" d="M810.25,856.1l-3.55,3.45a.63.63,0,0,0,.47,1.08c12.36-.67,90.47-3.39,161.07,29.75C968.24,890.38,910.77,850.13,810.25,856.1Z"></path><path class="cls-129" d="M968.24,819.82S924.39,787.71,874,811l-66,39.44a.46.46,0,0,0,.33.85c16-3.46,95.34-17,159.87,38.32Z"></path><g class="cls-130"><path class="cls-131" d="M968.24,821s-43-32.71-93.35-9.48l-61,36.64a.46.46,0,0,0,.34.85c16-3.46,89.52-18.46,154,36.83Z"></path></g><g class="cls-132"><path class="cls-133" d="M838.88,837.5l43.83-25.81a5.65,5.65,0,0,1,1.64-.64c6.21-1.39,43.29-8.5,72.93,12a4.2,4.2,0,0,1,1.72,4.34l-6.89,31.39a2.07,2.07,0,0,1-3.25,1.22c-10-7.36-48.76-32-109.66-21.66A.48.48,0,0,1,838.88,837.5Z"></path></g><path class="cls-30" d="M950.09,861.48a3.06,3.06,0,0,1-1.85-.61c-10.32-7.63-48.67-31.73-108.86-21.47a1.51,1.51,0,0,1-1-2.79l43.84-25.81a6.7,6.7,0,0,1,1.93-.76c7.09-1.59,44-8.45,73.75,12.19a5.22,5.22,0,0,1,2.14,5.43L953.12,859a3.11,3.11,0,0,1-1.94,2.25A3.21,3.21,0,0,1,950.09,861.48Zm-81.8-26.65c44.2,0,72.49,17.94,81.19,24.38a1,1,0,0,0,1.61-.61l6.9-31.39a3.16,3.16,0,0,0-1.3-3.27c-29.08-20.15-65.17-13.43-72.11-11.88a4.47,4.47,0,0,0-1.34.53L842,836.88A173,173,0,0,1,868.29,834.83Z"></path><path class="cls-30" d="M813.51,862.31a366.05,366.05,0,0,1,38.06,0c12.66.61,25.3,1.78,37.84,3.63a300.91,300.91,0,0,1,37.21,7.77c6.11,1.67,12.13,3.68,18.1,5.83s11.78,4.71,17.5,7.43a.63.63,0,0,1-.53,1.15h0c-5.71-2.64-11.52-5.07-17.46-7.18s-11.94-4-18-5.58a299,299,0,0,0-37.06-7.3c-12.48-1.7-25.06-2.71-37.64-3.18a365,365,0,0,0-37.73.45h0a1.5,1.5,0,0,1-.21-3Z"></path><path class="cls-30" d="M814.28,853.08c6.39-.75,12.71-1,19.07-1.16s12.69,0,19,.38a262.88,262.88,0,0,1,37.71,4.88,224.11,224.11,0,0,1,36.45,10.73l2.22.85,2.19.93,4.37,1.87c2.86,1.36,5.78,2.61,8.57,4.11a188.2,188.2,0,0,1,16.51,9.41.48.48,0,0,1,.16.68.49.49,0,0,1-.68.17h0c-5.39-3.26-10.83-6.45-16.52-9.17-2.79-1.46-5.7-2.67-8.56-4L930.43,871l-2.19-.89-2.21-.83A223,223,0,0,0,889.73,859a259.36,259.36,0,0,0-37.47-4.43q-9.42-.43-18.86-.17c-6.27.18-12.59.55-18.74,1.34h0a1.34,1.34,0,0,1-.34-2.66Z"></path><path class="cls-30" d="M812.63,872.45c12.45-.51,24.85-.51,37.27-.23s24.81,1,37.18,2,24.7,2.64,36.95,4.65a312.67,312.67,0,0,1,36.25,8.52.49.49,0,0,1,.33.62.5.5,0,0,1-.61.34h0a310.51,310.51,0,0,0-36.2-8q-18.35-2.79-36.86-4.18t-37.07-1.53c-12.36-.13-24.76,0-37.07.69h0a1.43,1.43,0,0,1-1.49-1.34,1.41,1.41,0,0,1,1.34-1.48Z"></path><path class="cls-30" d="M904.12,836.64l-.3-.18a93.42,93.42,0,0,0-13.65-6.72l-1.23-.48,33.45-12.19a.5.5,0,0,1,.34.94l-31,11.29A92.62,92.62,0,0,1,904,835.43c7.2-5.8,14.3-11.9,21.11-18.16-12.91-1.38-27.4-2.82-41.48-.56l3.88,8.75a.5.5,0,0,1-.91.41l-4.4-9.94.63-.1c14.82-2.5,30-.87,43.48.56l1.1.12-.81.75c-7.16,6.61-14.65,13.06-22.25,19.17Z"></path><path class="cls-30" d="M887.32,825.54a.49.49,0,0,1-.48-.36.5.5,0,0,1,.34-.62c7.4-2.1,15.07-3.56,22.48-5l11-2.09a.51.51,0,0,1,.58.4.5.5,0,0,1-.4.59l-11,2.09c-7.4,1.4-15,2.85-22.39,4.94A.36.36,0,0,1,887.32,825.54Z"></path><path class="cls-30" d="M891.05,835l-4.72-8.19a.52.52,0,0,1,.19-.69.51.51,0,0,1,.68.19l3.86,6.7a8.31,8.31,0,0,1,2-2,.5.5,0,1,1,.59.81,7.57,7.57,0,0,0-2.13,2.41Z"></path><path class="cls-30" d="M915.65,838.24l12.5-18.42a.51.51,0,0,1,.64-.17.5.5,0,0,1,.76.45l-.7,14-.3.11a103.4,103.4,0,0,1-11.62,3.74Zm12.85-17.16L918,836.6a103.31,103.31,0,0,0,9.91-3.24Z"></path><path class="cls-30" d="M933.58,832.46l-.18-.39a106.82,106.82,0,0,1-4.49-11.44.49.49,0,0,1,0-.24.5.5,0,0,1,.57-.8,61.22,61.22,0,0,1,12.72,8.19,1.42,1.42,0,0,1,.63,1.19c-.08.74-.88,1-1.14,1.06ZM930.09,821a105.83,105.83,0,0,0,4,10.25l7.25-2.19c.39-.12.44-.22.44-.22s0-.09-.28-.3A60.43,60.43,0,0,0,930.09,821Z"></path><path class="cls-30" d="M931.89,837.93a.72.72,0,0,1-.57-.31l-2.85-3.71a.5.5,0,0,1,.09-.7.51.51,0,0,1,.71.09l2.47,3.22,1.48-4.65a.51.51,0,0,1,.63-.33.5.5,0,0,1,.32.63l-1.67,5.26a.67.67,0,0,1-.4.46A.48.48,0,0,1,931.89,837.93Z"></path><path class="cls-30" d="M931.53,836.34a.51.51,0,0,1-.5-.42l-1.89-11.19a.51.51,0,0,1,.41-.58.5.5,0,0,1,.58.41l1.89,11.2a.49.49,0,0,1-.41.57Z"></path><path class="cls-134" d="M977.65,821l-9.89,42.83v28.63l164.84-2.8a4.06,4.06,0,0,0,4-4.06v-1.84a4.05,4.05,0,0,0-2.19-3.6l-101.29-52.71Z"></path><path class="cls-135" d="M1109.86,860.73l20.39,19.93a.92.92,0,0,1-.69,1.57c-14.77-.85-93.42-4.56-161.8,8.15V825Z"></path><path class="cls-136" d="M1130.1,876.9c-18.38-1.39-121.26-8-162.34,13.48V825s116,4.94,158.79,26c0,0-4,14.76,4.4,24.14A1,1,0,0,1,1130.1,876.9Z"></path><path class="cls-137" d="M1125.75,856.1l3.56,3.45a.63.63,0,0,1-.47,1.08c-12.37-.67-90.48-3.39-161.08,29.75C967.76,890.38,1025.23,850.13,1125.75,856.1Z"></path><path class="cls-138" d="M967.76,819.82s43.85-32.11,94.22-8.87l66,39.44a.46.46,0,0,1-.34.85c-16-3.46-95.33-17-159.87,38.32Z"></path><g class="cls-139"><path class="cls-140" d="M967.76,821s43-32.71,93.36-9.48l61,36.64a.46.46,0,0,1-.33.85c-16-3.46-89.52-18.46-154.06,36.83Z"></path></g><g class="cls-141"><path class="cls-142" d="M1097.13,837.5l-43.84-25.81a5.65,5.65,0,0,0-1.64-.64c-6.21-1.39-43.28-8.5-72.93,12a4.17,4.17,0,0,0-1.71,4.34l6.89,31.39a2.06,2.06,0,0,0,3.24,1.22c10-7.36,48.76-32,109.66-21.66A.48.48,0,0,0,1097.13,837.5Z"></path></g><path class="cls-30" d="M984.83,861.29a3.09,3.09,0,0,1-1.94-2.25L976,827.66a5.25,5.25,0,0,1,2.14-5.43c29.8-20.64,66.66-13.78,73.75-12.19a6.65,6.65,0,0,1,1.94.76l43.83,25.81a1.51,1.51,0,0,1-1,2.79c-60.19-10.26-98.55,13.84-108.87,21.47a3,3,0,0,1-1.84.61A3.13,3.13,0,0,1,984.83,861.29ZM1094,836.88l-41.26-24.29a4.69,4.69,0,0,0-1.34-.53c-6.94-1.55-43-8.27-72.12,11.88a3.14,3.14,0,0,0-1.29,3.27l6.89,31.39a1,1,0,0,0,1.62.61c8.7-6.44,37-24.38,81.19-24.38A173.16,173.16,0,0,1,1094,836.88Z"></path><path class="cls-30" d="M1122.26,865.3a364.84,364.84,0,0,0-37.72-.45c-12.59.47-25.17,1.48-37.65,3.18a299.67,299.67,0,0,0-37.06,7.3c-6.09,1.58-12.09,3.51-18,5.58s-11.74,4.54-17.46,7.18h0a.64.64,0,0,1-.54-1.15c5.73-2.72,11.56-5.24,17.51-7.43s12-4.16,18.1-5.83a300.37,300.37,0,0,1,37.2-7.77c12.54-1.85,25.18-3,37.84-3.63a366.25,366.25,0,0,1,38.07,0,1.5,1.5,0,1,1-.18,3h-.06Z"></path><path class="cls-30" d="M1121.35,855.73c-6.16-.79-12.48-1.16-18.75-1.34s-12.58-.12-18.86.17a259.23,259.23,0,0,0-37.46,4.43A223.09,223.09,0,0,0,1010,869.23l-2.21.83-2.18.89-4.37,1.81c-2.85,1.32-5.76,2.53-8.56,4-5.68,2.72-11.12,5.91-16.51,9.17h0a.5.5,0,0,1-.68-.17.5.5,0,0,1,.16-.68,188.2,188.2,0,0,1,16.51-9.41c2.8-1.5,5.71-2.75,8.57-4.11l4.38-1.87,2.18-.93,2.22-.85a224.52,224.52,0,0,1,36.46-10.73,262.7,262.7,0,0,1,37.71-4.88q9.49-.54,19-.38c6.36.12,12.67.41,19.06,1.16a1.34,1.34,0,0,1-.31,2.66h-.06Z"></path><path class="cls-30" d="M1123.21,875.28c-12.3-.67-24.7-.82-37.06-.69s-24.74.65-37.08,1.53-24.63,2.32-36.86,4.18a310.8,310.8,0,0,0-36.19,8h0a.5.5,0,0,1-.62-.35.49.49,0,0,1,.33-.61,312.67,312.67,0,0,1,36.25-8.52q18.38-3,37-4.65t37.19-2c12.41-.28,24.82-.28,37.27.23a1.42,1.42,0,0,1,1.35,1.48,1.41,1.41,0,0,1-1.47,1.35h0Z"></path><path class="cls-30" d="M1031.88,836.64l-.27-.21c-7.6-6.11-15.08-12.56-22.24-19.17l-.81-.75,1.09-.12c13.44-1.43,28.67-3.06,43.48-.56l.64.1-4.4,9.94a.5.5,0,0,1-.92-.41l3.88-8.75c-14.08-2.26-28.57-.82-41.47.56,6.81,6.26,13.9,12.36,21.11,18.16a91.42,91.42,0,0,1,12.29-6.13l-31-11.29a.5.5,0,1,1,.34-.94l33.46,12.19-1.23.48a93.53,93.53,0,0,0-13.66,6.72Z"></path><path class="cls-30" d="M1048.69,825.54a.32.32,0,0,1-.14,0c-7.36-2.09-15-3.54-22.39-4.94l-11-2.09a.51.51,0,0,1-.4-.59.5.5,0,0,1,.59-.4l11,2.09c7.41,1.41,15.07,2.87,22.47,5a.5.5,0,0,1-.13,1Z"></path><path class="cls-30" d="M1045,835l-.43-.78a7.57,7.57,0,0,0-2.13-2.41.5.5,0,0,1-.12-.7.51.51,0,0,1,.7-.11,8.55,8.55,0,0,1,2,2l3.85-6.7a.52.52,0,0,1,.69-.19.51.51,0,0,1,.18.69Z"></path><path class="cls-30" d="M1020.35,838.24l-1.28-.33a103.24,103.24,0,0,1-11.61-3.74l-.31-.11-.7-14a.49.49,0,0,1,.47-.52.45.45,0,0,1,.3.07.49.49,0,0,1,.63.17Zm-12.23-4.88a104.24,104.24,0,0,0,9.91,3.24l-10.53-15.52Z"></path><path class="cls-30" d="M1002.42,832.46,994.34,830c-.26-.08-1.06-.32-1.15-1.06a1.42,1.42,0,0,1,.63-1.19,61.75,61.75,0,0,1,12.72-8.19.5.5,0,0,1,.57.8.4.4,0,0,1,0,.24,104.69,104.69,0,0,1-4.48,11.44Zm-8.23-3.6s.06.1.44.21l7.25,2.19a105.75,105.75,0,0,0,4-10.25,60.75,60.75,0,0,0-11.45,7.54c-.25.21-.27.29-.27.31Z"></path><path class="cls-30" d="M1004.12,837.93a.54.54,0,0,1-.22,0,.67.67,0,0,1-.4-.46l-1.67-5.26a.51.51,0,0,1,.32-.63.5.5,0,0,1,.63.33l1.48,4.65,2.48-3.22a.5.5,0,1,1,.79.61l-2.85,3.7A.69.69,0,0,1,1004.12,837.93Z"></path><path class="cls-30" d="M1004.48,836.34h-.09a.5.5,0,0,1-.41-.57l1.9-11.2a.5.5,0,1,1,1,.17L1005,835.92A.49.49,0,0,1,1004.48,836.34Z"></path><path class="cls-143" d="M620.37,830.78l118.32-1.47A16.44,16.44,0,0,1,749.15,833l42,33.56c3.3,2.64,1.65,8.37-2.43,8.43L659,877a12,12,0,0,1-8.55-3.48l-33.53-32.58C613.32,837.4,615.54,830.84,620.37,830.78Z"></path><path class="cls-144" d="M623.46,830.63l111.24-1.38a15.38,15.38,0,0,1,9.83,3.45L784,864.25c3.1,2.47,1.55,7.86-2.29,7.92L659.8,874.05a11.31,11.31,0,0,1-8-3.27l-31.52-30.63C616.84,836.85,618.93,830.68,623.46,830.63Z"></path><path class="cls-145" d="M967.76,582.15c0,4.76,42.78,180.62,42.78,180.62l121.87,35.84a54.75,54.75,0,0,0,61.79-23.35h0a110.16,110.16,0,0,0-34.59-152l-17.26-10.85a324.06,324.06,0,0,1-93.42-89.09l-6.5-9.33Z"></path><path class="cls-30" d="M1175.35,751.82a.24.24,0,0,1-.21-.12.24.24,0,0,1,.08-.34c4.84-2.91,16.07-12.29,15.84-36.6A94.65,94.65,0,0,0,1178.75,669c-14.21-25-38.77-42.06-62.53-58.51l-4.91-3.41c-24.23-16.85-51-37.32-61.88-66.93a.24.24,0,0,1,.15-.32.25.25,0,0,1,.32.15c10.83,29.47,37.52,49.88,61.69,66.69l4.91,3.41c23.81,16.48,48.42,33.53,62.68,58.67a95.3,95.3,0,0,1,12.38,46c.23,24.57-11.17,34.09-16.08,37A.28.28,0,0,1,1175.35,751.82Z"></path><path class="cls-30" d="M1165.47,725.66h0a.25.25,0,0,1-.2-.29c3.22-16.35,2.73-31-1.43-43.41-7.53-22.52-27.51-38.9-44.07-50.65-3.33-2.36-6.77-4.73-10.09-7-15.32-10.55-31.17-21.46-42.67-36.31a.25.25,0,0,1,.4-.31c11.45,14.8,27.26,25.68,42.56,36.2,3.32,2.29,6.76,4.66,10.09,7,11.26,8,19.65,15.07,26.38,22.26,8.68,9.27,14.53,18.64,17.88,28.65,4.19,12.53,4.67,27.22,1.44,43.65A.25.25,0,0,1,1165.47,725.66Z"></path><path class="cls-146" d="M1030.56,816.93s-39.91-38-59.56-63.17a53.4,53.4,0,0,1-9-48.06c9-30.22,24.91-61.52,26.36-66.39,2.23-7.46,47-7.15,47-7.15s88,57.15,122.65,154l-38.85,12.1s-23-38.57-45.71-63.1c0,0,39.31,51.93,40.69,73.19Z"></path><path class="cls-147" d="M976.3,587.33c.46,1.56,18.76,50.53,19.67,51.33s25.62,2.13,37.24-5.81l-28.84-56.41Z"></path><path class="cls-148" d="M949.25,819.75l29.33-28.26,40.56,17.13s40.37,6.26,63.48,0l23.11-6.25L1158,786.11l8.2,23.18a13.94,13.94,0,0,1-5.1,16c-4.51,3.21-9.81,6.74-13.18,8.22-6.88,3-169.53-2.08-169.53-2.08Z"></path><path class="cls-149" d="M981,506.34s-21.15,10.38-34.11,42.54-1.13,46,12.8,47.2,34.6-.28,55.32-21.75S1008.6,493.89,981,506.34Z"></path><path class="cls-150" d="M999.4,558.44s13.75-46.75-26.91-45l-9.18,7.23S947,496.12,970.74,482.6s60.9-4.79,73.18,27.58,7.4,54-9,70.75-24.58-.72-24.58-.72,8.6-15.28,4.31-23-12.61,2.36-12.61,2.36Z"></path><path class="cls-151" d="M999.54,566.61s18.93-20.13,25.86-5.69-18.83,18-28.53,18.55Z"></path><path class="cls-152" d="M538.86,642.48c6.09-19.3,22-37.37,38.53-42.2,11-3.22,17.82-4.43,24.15-14.24,4.83-7.5,8-17.27,15-23,9.27-7.55,25.91-11.91,37.47-13.7,14.7-2.29,30.68.08,42.38,9.26,7.08,5.56,12.31,13.34,19.93,18.14,13,8.19,31.67,6.89,41.58,18.66,12.9,15.32,1,39.85,8.86,58.25,2.4,5.59,6.56,10.34,8.46,16.11,2.6,7.9.57,16.73-3.55,24-8.8,15.44-22.22,23.72-38.73,28.94-18.57,5.86-11.51,19-18.63,32.63-6,11.43-17.55,19.75-30,22.53-10.94,2.45-23.07,1.41-32.54,7.42-11.36,7.21-16,22.91-28.37,28.14-10.39,4.38-22.32-.35-31.94-6.26-27.91-17.17-65.23-15.27-68.55-55.09-.41-4.93-.54-10,1.05-14.68,6.23-18.38,34.79-11.21,31.72-36.52-1.17-9.69-10.27-16.21-15-24.73C535.11,666.23,535.19,654.13,538.86,642.48Z"></path><path class="cls-153" d="M636.29,735.55s48.28-17.89,108.55.63c0,0,6.76,45.63,3.28,67.35l-103.86,3.76Z"></path><path class="cls-154" d="M673.44,680.57,668.85,726a7.2,7.2,0,0,0,5.55,7.74c8.11,1.87,22.76,4.06,35.05-.45a7.25,7.25,0,0,0,4.77-7.49l-4.5-46.7Z"></path><path class="cls-155" d="M642.42,654c4.46,31.7,27.81,61.59,64.55,55,25.42-4.55,33.18-28.77,28.73-60.47s-26.86-55.8-52.43-52.2S638,622.32,642.42,654Z"></path><path class="cls-156" d="M650.61,666.82s-5.71-17.88-13.37-10,10.37,26.51,16.29,26.38S650.61,666.82,650.61,666.82Z"></path><path class="cls-157" d="M704.9,851.44s-103.2,5.9-63.19-67.16l-5.42-48.73s-115,141.82,74.4,124Z"></path><path class="cls-158" d="M683,856.55l6.94,5.17s11.06,6.64,19.28,7.82,12.41-9.81,13.05-13.7-3.16-4.93-10.4-2.26a34.07,34.07,0,0,0-24.43-.76Z"></path><path class="cls-159" d="M635.73,653.35s28.18,32.12,44.91-32.59c0,0,14.52,19.83,21.82,2.81,0,0,29.65,11,33.28-1.48s-39.24-47.74-75-24.16S635.73,653.35,635.73,653.35Z"></path><path class="cls-160" d="M747.68,801.75l-.34,11s-33.36,5.87-103.92,3.5l-.37-12.1S721.22,805.65,747.68,801.75Z"></path></g></g></svg>