<svg xmlns="http://www.w3.org/2000/svg" xmlns:xlink="http://www.w3.org/1999/xlink" viewBox="0 0 1159.13 700.02"><defs><style>.cls-1,.cls-10{opacity:0.5;}.cls-1{fill:url(#linear-gradient);}.cls-2{fill:url(#linear-gradient-2);}.cls-3{fill:url(#linear-gradient-3);}.cls-4{fill:url(#linear-gradient-4);}.cls-5{fill:url(#linear-gradient-5);}.cls-6{fill:#f0f0f0;}.cls-7{fill:url(#linear-gradient-6);}.cls-10,.cls-12,.cls-27,.cls-8{fill:#fff;}.cls-8{opacity:0.47;}.cls-9{fill:url(#linear-gradient-7);}.cls-11{fill:url(#linear-gradient-8);}.cls-12{opacity:0.66;}.cls-13{fill:url(#linear-gradient-9);}.cls-14{fill:url(#linear-gradient-10);}.cls-15{fill:url(#linear-gradient-11);}.cls-16{fill:url(#linear-gradient-12);}.cls-17{fill:url(#linear-gradient-13);}.cls-18{fill:url(#linear-gradient-14);}.cls-19{fill:url(#linear-gradient-15);}.cls-20{fill:url(#linear-gradient-16);}.cls-21{fill:url(#linear-gradient-17);}.cls-22{fill:url(#linear-gradient-18);}.cls-23{fill:url(#linear-gradient-19);}.cls-24{fill:url(#linear-gradient-20);}.cls-25{fill:url(#linear-gradient-21);}.cls-26{fill:url(#linear-gradient-22);}.cls-28{fill:url(#linear-gradient-23);}.cls-29{fill:url(#linear-gradient-24);}.cls-30{fill:url(#linear-gradient-25);}.cls-31{fill:url(#linear-gradient-26);}.cls-32{fill:url(#linear-gradient-27);}.cls-33{fill:url(#linear-gradient-28);}.cls-34{fill:url(#linear-gradient-29);}.cls-35{fill:url(#linear-gradient-30);}.cls-36{fill:url(#linear-gradient-31);}.cls-37{fill:url(#linear-gradient-32);}.cls-38{fill:url(#linear-gradient-33);}.cls-39{fill:url(#linear-gradient-34);}.cls-40{fill:url(#linear-gradient-35);}.cls-41{fill:url(#linear-gradient-36);}.cls-42{fill:url(#linear-gradient-37);}.cls-43{fill:url(#linear-gradient-38);}.cls-44{fill:url(#linear-gradient-39);}.cls-45{fill:url(#linear-gradient-40);}.cls-46{fill:url(#linear-gradient-41);}.cls-47{fill:url(#linear-gradient-42);}.cls-48{fill:url(#linear-gradient-43);}.cls-49{fill:url(#linear-gradient-44);}.cls-50{fill:url(#linear-gradient-45);}.cls-51{fill:url(#linear-gradient-46);}.cls-52{fill:url(#linear-gradient-47);}.cls-53{fill:url(#linear-gradient-48);}.cls-54{fill:url(#linear-gradient-49);}.cls-55{fill:url(#linear-gradient-50);}.cls-56{fill:url(#linear-gradient-51);}.cls-57{fill:url(#linear-gradient-52);}.cls-58{fill:url(#linear-gradient-53);}.cls-59{fill:url(#linear-gradient-54);}.cls-60{fill:url(#linear-gradient-55);}.cls-61{fill:url(#linear-gradient-56);}.cls-62{fill:url(#linear-gradient-57);}.cls-63{fill:url(#linear-gradient-58);}.cls-64{fill:url(#linear-gradient-59);}.cls-65{fill:url(#linear-gradient-60);}.cls-66{fill:url(#linear-gradient-61);}.cls-67{fill:url(#linear-gradient-62);}.cls-68{fill:url(#linear-gradient-63);}.cls-69{fill:url(#linear-gradient-64);}.cls-70{fill:url(#linear-gradient-65);}.cls-71{fill:url(#linear-gradient-66);}.cls-72{fill:url(#linear-gradient-67);}.cls-73{fill:url(#linear-gradient-68);}.cls-74{fill:url(#linear-gradient-69);}.cls-75{fill:url(#linear-gradient-70);}.cls-76{fill:url(#linear-gradient-71);}.cls-77{fill:url(#linear-gradient-72);}.cls-78{fill:url(#linear-gradient-73);}.cls-79{fill:url(#linear-gradient-74);}.cls-80{fill:url(#linear-gradient-75);}.cls-81{fill:url(#linear-gradient-76);}.cls-82{fill:url(#linear-gradient-77);}.cls-83{fill:url(#linear-gradient-78);}.cls-84{fill:url(#linear-gradient-79);}.cls-85{fill:url(#linear-gradient-80);}.cls-86{fill:url(#linear-gradient-81);}.cls-87{fill:url(#linear-gradient-82);}.cls-88{fill:url(#linear-gradient-83);}.cls-89{fill:url(#linear-gradient-84);}.cls-90{fill:url(#linear-gradient-85);}.cls-91{fill:url(#linear-gradient-86);}.cls-92{fill:url(#linear-gradient-87);}.cls-93{fill:url(#linear-gradient-88);}.cls-94{fill:url(#linear-gradient-89);}.cls-95{fill:url(#linear-gradient-90);}.cls-96{fill:url(#linear-gradient-91);}.cls-97{fill:url(#linear-gradient-92);}.cls-98{fill:url(#linear-gradient-93);}.cls-99{fill:url(#linear-gradient-94);}.cls-100{fill:url(#linear-gradient-95);}.cls-101{fill:url(#linear-gradient-96);}</style><linearGradient id="linear-gradient" x1="1906.08" y1="382.83" x2="322.91" y2="363.04" gradientTransform="translate(-30.99 -5.03) rotate(-1.08)" gradientUnits="userSpaceOnUse"><stop offset="0" stop-color="#b37cff"></stop><stop offset="1" stop-color="#f895e7"></stop></linearGradient><linearGradient id="linear-gradient-2" x1="-73.07" y1="31.25" x2="51.97" y2="519.2" gradientTransform="matrix(1.24, 0, 0, 1, 197.03, -3.47)" gradientUnits="userSpaceOnUse"><stop offset="0" stop-color="#cb236d"></stop><stop offset="1" stop-color="#4c246d"></stop></linearGradient><linearGradient id="linear-gradient-3" x1="-661.48" y1="193.58" x2="-762.92" y2="685.68" gradientTransform="matrix(-1, 0.02, 0.02, 1, -492.86, 4.02)" gradientUnits="userSpaceOnUse"><stop offset="0" stop-color="#2b3582"></stop><stop offset="1" stop-color="#150e42"></stop></linearGradient><linearGradient id="linear-gradient-4" x1="-546.97" y1="249.91" x2="-702.65" y2="751.77" gradientTransform="matrix(-1, 0.02, 0.02, 1, -492.86, 4.02)" gradientUnits="userSpaceOnUse"><stop offset="0" stop-color="#53d8ff"></stop><stop offset="1" stop-color="#3840f7"></stop></linearGradient><linearGradient id="linear-gradient-5" x1="-608.97" y1="414.39" x2="-663.11" y2="677.04" xlink:href="#linear-gradient-3"></linearGradient><linearGradient id="linear-gradient-6" x1="-648.3" y1="-387.95" x2="-229.59" y2="-387.95" gradientTransform="matrix(-0.73, -0.68, -0.68, 0.73, 327.16, 249.97)" gradientUnits="userSpaceOnUse"><stop offset="0" stop-color="#a737d5"></stop><stop offset="1" stop-color="#ef497a"></stop></linearGradient><linearGradient id="linear-gradient-7" x1="-2492.93" y1="660.27" x2="-2641.72" y2="-72.12" gradientTransform="matrix(-0.98, -0.21, -0.21, 0.98, -1389.6, -473.63)" xlink:href="#linear-gradient"></linearGradient><linearGradient id="linear-gradient-8" x1="880.86" y1="-11.92" x2="306.82" y2="830.1" gradientTransform="translate(-30.99 -5.03) rotate(-1.08)" gradientUnits="userSpaceOnUse"><stop offset="0" stop-color="#fdf53f"></stop><stop offset="0.66" stop-color="#e57a58"></stop><stop offset="1" stop-color="#d93c65"></stop></linearGradient><linearGradient id="linear-gradient-9" x1="11919.88" y1="-3886.56" x2="11863.91" y2="-3920.48" gradientTransform="matrix(-1, 0.07, 0.24, 0.9, 13725.68, 2763.18)" xlink:href="#linear-gradient-4"></linearGradient><linearGradient id="linear-gradient-10" x1="11888.81" y1="-3899.1" x2="11824.76" y2="-3966.83" gradientTransform="matrix(-1, 0.07, 0.24, 0.9, 13725.68, 2763.18)" xlink:href="#linear-gradient-4"></linearGradient><linearGradient id="linear-gradient-11" x1="11915.79" y1="-3887.12" x2="11863.51" y2="-3918.81" gradientTransform="matrix(-1, 0.07, 0.24, 0.9, 13725.68, 2763.18)" xlink:href="#linear-gradient-4"></linearGradient><linearGradient id="linear-gradient-12" x1="-14998.51" y1="-3474.39" x2="-14974.62" y2="-3481.31" gradientTransform="translate(16124.32 2508.58) rotate(-4.14)" xlink:href="#linear-gradient-4"></linearGradient><linearGradient id="linear-gradient-13" x1="666.55" y1="231.76" x2="530.24" y2="431.71" xlink:href="#linear-gradient-8"></linearGradient><linearGradient id="linear-gradient-14" x1="712.87" y1="219.39" x2="480.79" y2="559.82" xlink:href="#linear-gradient-8"></linearGradient><linearGradient id="linear-gradient-15" x1="708.08" y1="282.1" x2="485.22" y2="608.99" xlink:href="#linear-gradient-8"></linearGradient><linearGradient id="linear-gradient-16" x1="363.89" y1="547.43" x2="269.11" y2="686.45" gradientTransform="translate(-30.99 -5.03) rotate(-1.08)" xlink:href="#linear-gradient-2"></linearGradient><linearGradient id="linear-gradient-17" x1="452.98" y1="701.74" x2="344.07" y2="568.4" gradientTransform="translate(-30.99 -5.03) rotate(-1.08)" xlink:href="#linear-gradient-2"></linearGradient><linearGradient id="linear-gradient-18" x1="245.4" y1="607.61" x2="496.72" y2="343.02" gradientTransform="matrix(0.72, 0.69, -0.69, 0.72, 419.89, -118.34)" xlink:href="#linear-gradient-2"></linearGradient><linearGradient id="linear-gradient-19" x1="267.72" y1="584.14" x2="468.03" y2="373.25" gradientTransform="matrix(0.72, 0.69, -0.69, 0.72, 419.68, -118.83)" xlink:href="#linear-gradient-8"></linearGradient><linearGradient id="linear-gradient-20" x1="625.07" y1="269.68" x2="649.72" y2="192.66" gradientTransform="translate(-40.74 39.77) rotate(-1.63)" xlink:href="#linear-gradient-4"></linearGradient><linearGradient id="linear-gradient-21" x1="626.9" y1="217.4" x2="747.05" y2="-48.56" gradientTransform="translate(-40.74 39.77) rotate(-1.63)" xlink:href="#linear-gradient-4"></linearGradient><linearGradient id="linear-gradient-22" x1="782.78" y1="345.77" x2="758.14" y2="189.69" gradientTransform="translate(-40.74 39.77) rotate(-1.63)" xlink:href="#linear-gradient-4"></linearGradient><linearGradient id="linear-gradient-23" x1="-310.03" y1="477.57" x2="-331.47" y2="687.47" gradientTransform="translate(1132.35 -27) rotate(-1.08)" xlink:href="#linear-gradient-2"></linearGradient><linearGradient id="linear-gradient-24" x1="-234.17" y1="445.07" x2="-323.49" y2="559.34" gradientTransform="translate(1132.35 -27) rotate(-1.08)" gradientUnits="userSpaceOnUse"><stop offset="0" stop-color="#f9b776"></stop><stop offset="1" stop-color="#f47960"></stop></linearGradient><linearGradient id="linear-gradient-25" x1="-1326.54" y1="2200.15" x2="-1174.99" y2="2010.12" gradientTransform="matrix(-0.42, 0.91, 0.91, 0.42, -1544.34, 774.99)" xlink:href="#linear-gradient-4"></linearGradient><linearGradient id="linear-gradient-26" x1="-739.17" y1="-3902.69" x2="-666.49" y2="-3727.4" gradientTransform="matrix(-0.98, -0.19, -0.19, 0.98, -547.08, 4026.64)" xlink:href="#linear-gradient-4"></linearGradient><linearGradient id="linear-gradient-27" x1="-681.97" y1="-3720.2" x2="-629.71" y2="-3547.29" gradientTransform="matrix(-0.98, -0.19, -0.19, 0.98, -547.08, 4026.64)" xlink:href="#linear-gradient-4"></linearGradient><linearGradient id="linear-gradient-28" x1="-722.25" y1="-3063.12" x2="-670" y2="-2890.22" gradientTransform="matrix(-0.98, -0.19, -0.23, 1.22, -568.57, 4137.7)" xlink:href="#linear-gradient-4"></linearGradient><linearGradient id="linear-gradient-29" x1="-1313.22" y1="2051.05" x2="-1275.22" y2="2151.76" gradientTransform="matrix(-0.42, 0.91, 0.91, 0.42, -1544.34, 774.99)" xlink:href="#linear-gradient-24"></linearGradient><linearGradient id="linear-gradient-30" x1="378.99" y1="546.26" x2="406.12" y2="546.26" gradientTransform="translate(364.72 -12.5) rotate(-1.08)" xlink:href="#linear-gradient-24"></linearGradient><linearGradient id="linear-gradient-31" x1="415.89" y1="631.31" x2="416.57" y2="706.16" gradientTransform="translate(364.72 -12.5) rotate(-1.08)" xlink:href="#linear-gradient-2"></linearGradient><linearGradient id="linear-gradient-32" x1="457.2" y1="661.85" x2="383.19" y2="719.97" gradientTransform="translate(364.72 -12.5) rotate(-1.08)" xlink:href="#linear-gradient-4"></linearGradient><linearGradient id="linear-gradient-33" x1="411.93" y1="662.69" x2="408.04" y2="696.61" gradientTransform="translate(364.72 -12.5) rotate(-1.08)" xlink:href="#linear-gradient-24"></linearGradient><linearGradient id="linear-gradient-34" x1="470.35" y1="678.6" x2="396.34" y2="736.71" gradientTransform="translate(364.72 -12.5) rotate(-1.08)" xlink:href="#linear-gradient-4"></linearGradient><linearGradient id="linear-gradient-35" x1="451.33" y1="630.99" x2="452.01" y2="705.84" gradientTransform="translate(364.72 -12.5) rotate(-1.08)" xlink:href="#linear-gradient-2"></linearGradient><linearGradient id="linear-gradient-36" x1="443.58" y1="666.32" x2="439.7" y2="700.23" gradientTransform="translate(364.72 -12.5) rotate(-1.08)" xlink:href="#linear-gradient-24"></linearGradient><linearGradient id="linear-gradient-37" x1="489.76" y1="511.22" x2="365.46" y2="704.1" gradientTransform="translate(364.72 -12.5) rotate(-1.08)" gradientUnits="userSpaceOnUse"><stop offset="0" stop-color="#7c27dd"></stop><stop offset="1" stop-color="#2b41d9"></stop></linearGradient><linearGradient id="linear-gradient-38" x1="-354.28" y1="473.3" x2="-374.24" y2="668.74" gradientTransform="translate(1132.35 -27) rotate(-1.08)" xlink:href="#linear-gradient-2"></linearGradient><linearGradient id="linear-gradient-39" x1="420.52" y1="445.87" x2="405.68" y2="509.99" gradientTransform="translate(364.72 -12.5) rotate(-1.08)" xlink:href="#linear-gradient-24"></linearGradient><linearGradient id="linear-gradient-40" x1="-1507.33" y1="-833.22" x2="-1533.66" y2="-798.4" gradientTransform="matrix(0.67, -0.74, 0.74, 0.67, 2420.39, -144.3)" xlink:href="#linear-gradient-24"></linearGradient><linearGradient id="linear-gradient-41" x1="-1527.44" y1="-824.86" x2="-1495.99" y2="-824.86" gradientTransform="matrix(0.67, -0.74, 0.74, 0.67, 2420.39, -144.3)" xlink:href="#linear-gradient-3"></linearGradient><linearGradient id="linear-gradient-42" x1="-1545.89" y1="-805.64" x2="-1524.77" y2="-827.31" gradientTransform="matrix(0.67, -0.74, 0.74, 0.67, 2420.39, -144.3)" xlink:href="#linear-gradient-24"></linearGradient><linearGradient id="linear-gradient-43" x1="408.02" y1="457.95" x2="377.3" y2="514.39" gradientTransform="translate(364.72 -12.5) rotate(-1.08)" xlink:href="#linear-gradient-2"></linearGradient><linearGradient id="linear-gradient-44" x1="420.05" y1="563.01" x2="409.63" y2="581.56" gradientTransform="translate(364.72 -12.5) rotate(-1.08)" xlink:href="#linear-gradient-3"></linearGradient><linearGradient id="linear-gradient-45" x1="774.08" y1="454.73" x2="804.45" y2="426.56" gradientTransform="translate(-30.99 -5.03) rotate(-1.08)" gradientUnits="userSpaceOnUse"><stop offset="0" stop-color="#fdf53f"></stop><stop offset="1" stop-color="#d93c65"></stop></linearGradient><linearGradient id="linear-gradient-46" x1="986.54" y1="549.54" x2="1048.47" y2="399.03" gradientTransform="translate(-30.99 -5.03) rotate(-1.08)" xlink:href="#linear-gradient-3"></linearGradient><linearGradient id="linear-gradient-47" x1="4569.71" y1="464.64" x2="4515.7" y2="531.03" gradientTransform="matrix(-0.99, -0.11, -0.11, 0.99, 5501.96, 435.31)" xlink:href="#linear-gradient-24"></linearGradient><linearGradient id="linear-gradient-48" x1="4569.08" y1="427.78" x2="4499.68" y2="525.16" gradientTransform="matrix(-0.99, -0.11, -0.11, 0.99, 5501.96, 435.31)" xlink:href="#linear-gradient-2"></linearGradient><linearGradient id="linear-gradient-49" x1="-7312.54" y1="1493.86" x2="-7309.65" y2="1473.37" gradientTransform="matrix(0.97, 0.26, -0.26, 0.97, 8414.36, 930.6)" xlink:href="#linear-gradient-24"></linearGradient><linearGradient id="linear-gradient-50" x1="-7325.76" y1="1449.96" x2="-7298.79" y2="1480.98" gradientTransform="matrix(0.97, 0.26, -0.26, 0.97, 8414.36, 930.6)" xlink:href="#linear-gradient-24"></linearGradient><linearGradient id="linear-gradient-51" x1="957.33" y1="536.31" x2="1019.25" y2="385.8" gradientTransform="translate(-30.99 -5.03) rotate(-1.08)" xlink:href="#linear-gradient-3"></linearGradient><linearGradient id="linear-gradient-52" x1="-7319.02" y1="1444.1" x2="-7292.05" y2="1475.12" gradientTransform="matrix(0.97, 0.26, -0.26, 0.97, 8414.36, 930.6)" xlink:href="#linear-gradient-24"></linearGradient><linearGradient id="linear-gradient-53" x1="4391.33" y1="717.63" x2="4455.69" y2="604.02" gradientTransform="matrix(-1, 0.01, 0.01, 1, 5402.04, -62.35)" xlink:href="#linear-gradient-24"></linearGradient><linearGradient id="linear-gradient-54" x1="4405.36" y1="677.46" x2="4424.17" y2="677.46" gradientTransform="matrix(-1, 0.01, 0.01, 1, 5402.04, -62.35)" xlink:href="#linear-gradient-3"></linearGradient><linearGradient id="linear-gradient-55" x1="4464.27" y1="633.58" x2="4368.01" y2="664.36" gradientTransform="matrix(-1, 0.01, 0.01, 1, 5402.04, -62.35)" xlink:href="#linear-gradient-24"></linearGradient><linearGradient id="linear-gradient-56" x1="4422.8" y1="680.86" x2="4445.23" y2="680.86" gradientTransform="matrix(-1, 0.01, 0.01, 1, 5402.04, -62.35)" xlink:href="#linear-gradient-3"></linearGradient><linearGradient id="linear-gradient-57" x1="4453.42" y1="530.03" x2="4399.69" y2="649.8" gradientTransform="matrix(-1, 0.01, 0.01, 1, 5402.04, -62.35)" xlink:href="#linear-gradient-2"></linearGradient><linearGradient id="linear-gradient-58" x1="4459.51" y1="560.56" x2="4566.27" y2="438.44" gradientTransform="matrix(-0.99, -0.11, -0.11, 0.99, 5501.96, 435.31)" xlink:href="#linear-gradient-24"></linearGradient><linearGradient id="linear-gradient-59" x1="729.89" y1="473.81" x2="752.49" y2="473.81" gradientTransform="translate(-30.99 -5.03) rotate(-1.08)" xlink:href="#linear-gradient-24"></linearGradient><linearGradient id="linear-gradient-60" x1="673.18" y1="441.5" x2="648.73" y2="402.84" gradientTransform="translate(-30.99 -5.03) rotate(-1.08)" xlink:href="#linear-gradient-4"></linearGradient><linearGradient id="linear-gradient-61" x1="683.37" y1="461.88" x2="667.45" y2="432.88" gradientTransform="translate(-30.99 -5.03) rotate(-1.08)" xlink:href="#linear-gradient-4"></linearGradient><linearGradient id="linear-gradient-62" x1="742.99" y1="472.56" x2="695.51" y2="517.77" gradientTransform="translate(-30.99 -5.03) rotate(-1.08)" xlink:href="#linear-gradient-4"></linearGradient><linearGradient id="linear-gradient-63" x1="-359.83" y1="748.25" x2="-358.74" y2="715.54" gradientTransform="matrix(-1, 0.02, 0.02, 1, 270.01, -10.38)" xlink:href="#linear-gradient-37"></linearGradient><linearGradient id="linear-gradient-64" x1="-320.97" y1="664.53" x2="-388.36" y2="717.45" gradientTransform="matrix(-1, 0.02, 0.02, 1, 270.01, -10.38)" xlink:href="#linear-gradient-4"></linearGradient><linearGradient id="linear-gradient-65" x1="2474.06" y1="665.71" x2="2470.4" y2="697.64" gradientTransform="translate(-1842.5 29.18) rotate(-1.08)" xlink:href="#linear-gradient-24"></linearGradient><linearGradient id="linear-gradient-66" x1="2536.17" y1="680.61" x2="2470.99" y2="731.78" gradientTransform="translate(-1842.5 29.18) rotate(-1.08)" xlink:href="#linear-gradient-4"></linearGradient><linearGradient id="linear-gradient-67" x1="2517.37" y1="768.85" x2="2518.46" y2="736.14" gradientTransform="translate(-1842.5 29.18) rotate(-1.08)" xlink:href="#linear-gradient-37"></linearGradient><linearGradient id="linear-gradient-68" x1="2512.6" y1="669.8" x2="2509.17" y2="699.66" gradientTransform="translate(-1842.5 29.18) rotate(-1.08)" xlink:href="#linear-gradient-24"></linearGradient><linearGradient id="linear-gradient-69" x1="679.6" y1="668.8" x2="683.7" y2="540.18" gradientTransform="translate(-30.99 -5.03) rotate(-1.08)" xlink:href="#linear-gradient-3"></linearGradient><linearGradient id="linear-gradient-70" x1="706.01" y1="439.56" x2="660.52" y2="534.24" gradientTransform="translate(-30.99 -5.03) rotate(-1.08)" xlink:href="#linear-gradient-4"></linearGradient><linearGradient id="linear-gradient-71" x1="664.8" y1="463.28" x2="681.2" y2="463.28" gradientTransform="translate(-30.99 -5.03) rotate(-1.08)" xlink:href="#linear-gradient-24"></linearGradient><linearGradient id="linear-gradient-72" x1="1692.11" y1="-313.21" x2="1720.85" y2="-320.21" gradientTransform="translate(684.24 269.4) rotate(-29.95)" xlink:href="#linear-gradient-24"></linearGradient><linearGradient id="linear-gradient-73" x1="-118.5" y1="114.03" x2="-88.9" y2="114.03" gradientTransform="translate(684.24 269.4) rotate(-29.95)" xlink:href="#linear-gradient-3"></linearGradient><linearGradient id="linear-gradient-74" x1="1691.09" y1="-317.38" x2="1719.83" y2="-324.37" gradientTransform="translate(684.24 269.4) rotate(-29.95)" xlink:href="#linear-gradient-24"></linearGradient><linearGradient id="linear-gradient-75" x1="687.71" y1="430.77" x2="642.22" y2="525.45" gradientTransform="translate(-30.99 -5.03) rotate(-1.08)" xlink:href="#linear-gradient-4"></linearGradient><linearGradient id="linear-gradient-76" x1="668.79" y1="546.99" x2="639.6" y2="571.93" gradientTransform="translate(-30.99 -5.03) rotate(-1.08)" xlink:href="#linear-gradient-24"></linearGradient><linearGradient id="linear-gradient-77" x1="746.77" y1="428.93" x2="743.73" y2="455.91" gradientTransform="translate(-30.99 -5.03) rotate(-1.08)" xlink:href="#linear-gradient-4"></linearGradient><linearGradient id="linear-gradient-78" x1="744.44" y1="447.8" x2="748.42" y2="521.44" gradientTransform="translate(-30.99 -5.03) rotate(-1.08)" xlink:href="#linear-gradient-4"></linearGradient><linearGradient id="linear-gradient-79" x1="746" y1="467.2" x2="745.62" y2="490.38" gradientTransform="translate(-30.99 -5.03) rotate(-1.08)" xlink:href="#linear-gradient-4"></linearGradient><linearGradient id="linear-gradient-80" x1="646.24" y1="508.22" x2="667.84" y2="508.22" gradientTransform="translate(-157.08 -27.07) rotate(-5.29)" gradientUnits="userSpaceOnUse"><stop offset="0" stop-color="#50e7b7"></stop><stop offset="1" stop-color="#323992"></stop></linearGradient><linearGradient id="linear-gradient-81" x1="-793.71" y1="434.44" x2="-728.93" y2="523.82" gradientTransform="matrix(-1, 0.02, 0.02, 1, -235.29, -0.84)" xlink:href="#linear-gradient-2"></linearGradient><linearGradient id="linear-gradient-82" x1="-713.19" y1="678.47" x2="-721.02" y2="643.48" gradientTransform="matrix(-1, 0.02, 0.02, 1, -235.29, -0.84)" xlink:href="#linear-gradient-4"></linearGradient><linearGradient id="linear-gradient-83" x1="-4800.04" y1="746.7" x2="-4778.96" y2="500.39" gradientTransform="matrix(-1, 0.02, 0.02, 1, -4254.79, 75.05)" xlink:href="#linear-gradient-24"></linearGradient><linearGradient id="linear-gradient-84" x1="-776.29" y1="680.97" x2="-765.09" y2="715.68" gradientTransform="matrix(-1, 0.02, 0.02, 1, -235.29, -0.84)" xlink:href="#linear-gradient-4"></linearGradient><linearGradient id="linear-gradient-85" x1="-4757.64" y1="750.36" x2="-4736.56" y2="503.99" gradientTransform="matrix(-1, 0.02, 0.02, 1, -4254.79, 75.05)" xlink:href="#linear-gradient-24"></linearGradient><linearGradient id="linear-gradient-86" x1="570.52" y1="479.77" x2="614.76" y2="622.07" gradientTransform="translate(-30.99 -5.03) rotate(-1.08)" xlink:href="#linear-gradient-80"></linearGradient><linearGradient id="linear-gradient-87" x1="533.26" y1="572.38" x2="586.74" y2="572.38" gradientTransform="translate(-30.99 -5.03) rotate(-1.08)" xlink:href="#linear-gradient-80"></linearGradient><linearGradient id="linear-gradient-88" x1="-4802.35" y1="503.91" x2="-4798.39" y2="474.95" gradientTransform="matrix(-1, 0.02, 0.02, 1, -4254.79, 75.05)" xlink:href="#linear-gradient-24"></linearGradient><linearGradient id="linear-gradient-89" x1="-4924.04" y1="-113.02" x2="-4889.5" y2="-174.49" gradientTransform="matrix(-0.98, -0.18, -0.18, 0.98, -4304.57, -300.81)" xlink:href="#linear-gradient-24"></linearGradient><linearGradient id="linear-gradient-90" x1="-787.5" y1="423.49" x2="-719.84" y2="516.85" gradientTransform="matrix(-1, 0.02, 0.02, 1, -235.29, -0.84)" xlink:href="#linear-gradient-2"></linearGradient><linearGradient id="linear-gradient-91" x1="-4916.69" y1="-108.89" x2="-4882.15" y2="-170.36" gradientTransform="matrix(-0.98, -0.18, -0.18, 0.98, -4304.57, -300.81)" xlink:href="#linear-gradient-24"></linearGradient><linearGradient id="linear-gradient-92" x1="543.22" y1="488.25" x2="587.46" y2="630.55" gradientTransform="translate(-30.99 -5.03) rotate(-1.08)" xlink:href="#linear-gradient-80"></linearGradient><linearGradient id="linear-gradient-93" x1="1039.62" y1="491.01" x2="1069.55" y2="615.72" gradientTransform="translate(-485.94 3.56) rotate(-1.08)" gradientUnits="userSpaceOnUse"><stop offset="0" stop-color="#9cfffb"></stop><stop offset="1" stop-color="#9bfffa"></stop></linearGradient><linearGradient id="linear-gradient-94" x1="1058.36" y1="471.35" x2="1051.99" y2="499.34" gradientTransform="translate(-485.94 3.56) rotate(-1.08)" xlink:href="#linear-gradient-4"></linearGradient><linearGradient id="linear-gradient-95" x1="1055.03" y1="483.1" x2="1051.98" y2="501.39" gradientTransform="translate(-485.94 3.56) rotate(-1.08)" xlink:href="#linear-gradient-4"></linearGradient><linearGradient id="linear-gradient-96" x1="1019.11" y1="524" x2="1036.07" y2="524" gradientTransform="translate(-485.94 3.56) rotate(-1.08)" xlink:href="#linear-gradient-24"></linearGradient></defs><title>Teacher</title><g id="Calque_2" data-name="Calque 2"><g id="Illustration"><path class="cls-1" d="M313.48,692.36c142.3,12.35,152.23-41.44,304.23-24.71,94.75,10.43,118.83,34.41,218.9,32.23,66.84-1.46,132.36-3.82,190-51,13.12-10.74,98.7-83.42,77.18-167.47-10.8-42.16-58.62-41.1-72.86-85.58-11.67-36.43,10-63.49,23.76-106.38,26.63-82.84-16.17-143.64-62.3-174.64C922.82,68,852.53,173.05,705.21,132c-61.72-17.21-68.7-32.38-150.63-78.16C417-23.06,224-15.24,184.86,62.38c-32,63.52,56.63,139,19,202C169.64,321.6,82.9,282.29,31,345.13c-44.42,53.8-37.08,150.76-3.54,213.5C88.52,672.85,243.1,686.26,313.48,692.36Z"></path><path class="cls-2" d="M270.75,623.48c-50.27,9.08-115.51-34.06-137.17-82.14C111.28,491.87,150,470.23,148.43,401c-1.83-78.62-52.74-89.51-88.27-194.85-8-23.77-54.4-161.31-.63-188.26C109.24-7,251.44,59.15,277.79,146.76c18.8,62.48-35.14,89.88-13,162.64,19.46,63.84,67.42,63.86,87,125.44C375.56,509.81,336.77,611.54,270.75,623.48Z"></path><path class="cls-3" d="M268.42,678.4c9.37-84.91-14.49-215.19-36.17-309.53-23.46-102.14-49.47-185.32-49.73-186.15l-3.37,1.06c.26.83,26.24,83.9,49.67,185.91,21.61,94.06,45.41,223.91,36.1,308.33Z"></path><path class="cls-4" d="M216.45,645.83c42.46-23.15,55.69-100.15,30.85-124.63-16.79-16.54-40.08,1.63-63.19-15.4-29.51-21.75-8.91-64.15-32.81-118.19-20.34-46-67.86-89-95-79.45C28,318.12,14.22,388.3,39.41,429.91c16.38,27,40.68,27.94,46.43,53.28,6.67,29.41-22.6,43.43-22.22,72.06C64.3,606.66,160.28,676.46,216.45,645.83Z"></path><path class="cls-5" d="M193.69,665.92a1.85,1.85,0,0,0,.75-.19,1.75,1.75,0,0,0,.77-2.35c-59.06-116.07-78.3-251.66-78.49-253a1.75,1.75,0,1,0-3.46.48c.19,1.36,19.51,137.52,78.83,254.11A1.77,1.77,0,0,0,193.69,665.92Z"></path><path class="cls-6" d="M72.85,446.57a1,1,0,0,1-.78-.37c-33.74-41.66-36.45-73.36-32.78-92.61,4-21,15.87-31.84,16.38-32.3A1,1,0,1,1,57,322.78c-.11.11-11.93,11-15.77,31.31-3.55,18.81-.81,49.85,32.39,90.85a1,1,0,0,1-.77,1.63Z"></path><path class="cls-6" d="M220.11,635.7a1,1,0,0,1-.55-.17,1,1,0,0,1-.28-1.38c26.45-40.21,35.22-70.9,26.06-91.2-8-17.68-27.32-20.64-27.51-20.67a1,1,0,1,1,.28-2c.21,0,20.64,3.15,29.06,21.83,9.45,21,.63,52.3-26.22,93.11A1,1,0,0,1,220.11,635.7Z"></path><path class="cls-7" d="M936.47,516.55c57.2-12.23,103.53-76.26,91.18-109.55-10.72-28.87-61.81-24.48-66.32-49.62-5.42-30.2,65.52-52,62.22-86.38-3.17-33-70.71-36.73-74.61-69.6-4.16-35.1,70.67-49.62,75.18-96.33,3.76-38.95-42.64-87.4-96.34-93.54-43.7-5-96.13,17.59-103.36,50.46-9.88,44.86,71.26,77.93,60.57,121.37-9.85,40.09-85.25,37.6-91.14,74.09-6.34,39.28,76.25,71.7,67.51,102.14-7.68,26.74-74.83,13.52-84.74,39.67C763.5,433.84,851.41,534.74,936.47,516.55Z"></path><path class="cls-8" d="M930.21,71.22c-5.28,33.6-9.59,67.33-13.48,101.11-2,16.88-3.69,33.8-5.46,50.71-.86,8.46-1.6,16.92-2.4,25.39s-1.6,16.92-2.26,25.4l-2,25.42c-.62,8.49-1.28,17-1.83,25.45l-.42,6.36-.37,6.37-.75,12.73-.72,12.74L900,375.65c-1.45,34-2.35,68.07-.29,102.06l.67,0c.64-34,3-67.84,5.39-101.71l.92-12.69,1-12.7,1-12.69.48-6.35.54-6.34c.75-8.46,1.39-16.93,2.07-25.39l2.18-25.37,8.75-101.53c2.93-33.84,5.77-67.71,8.24-101.62Z"></path><path class="cls-9" d="M969.31,655.78c65.56,13.78,138.72-46.22,135.76-86.48-2.52-34.34-59.58-43.24-58.32-74.86,1.49-37.43,82.28-45.77,86.22-87.15,3.37-35.42-53.57-53.27-48-86.72,5.17-31.31,57.15-28.41,70.85-66.09,11.78-32.4-7.73-86.54-53.48-103.6-40.84-15.23-90.16,3.73-101.26,32.59-14.67,38.16,44.75,74.69,30.09,109.11-16.1,37.81-97.51,16.62-114,52.31-20.62,44.53,84.25,124.61,67.1,149.05-13.4,19.1-80.85-25.07-103-2.58C855.14,517.74,888.66,638.82,969.31,655.78Z"></path><path class="cls-8" d="M1078.73,204.76l-24.54,102.05-12.33,51-6.2,25.48-6.33,25.45c-2.06,8.5-4.25,16.95-6.4,25.43s-4.28,16.95-6.5,25.4l-6.59,25.38-6.8,25.32c-2.2,8.46-4.67,16.83-7,25.26l-3.5,12.64c-1.15,4.22-2.48,8.38-3.66,12.58l-3.65,12.6c-1.23,4.19-2.39,8.41-3.75,12.56l-3.92,12.51L973.74,611l1.06.38c12.58-32.7,23.38-66.06,33.37-99.63l7.36-25.22,7-25.33c2.38-8.43,4.54-16.91,6.74-25.38s4.43-16.94,6.52-25.44l6.3-25.5,6.08-25.55c2-8.51,3.88-17.07,5.83-25.6s3.84-17.08,5.66-25.64q5.58-25.65,10.65-51.42c3.36-17.18,6.67-34.37,9.57-51.64Z"></path><path class="cls-8" d="M1085.26,219c19.44-11.19,28.11-44.35,28.2-44.68l-1.1-.28c-.09.33-8.64,33-27.66,44Z"></path><path class="cls-8" d="M1081.49,235.89c28-9,43.68-37.77,43.84-38.06l-1-.54c-.15.29-15.63,28.69-43.19,37.52Z"></path><path class="cls-8" d="M1081.36,252.94c33.32,1.29,56.68-24.81,56.91-25.08l-.85-.74c-.23.26-23.25,26-56,24.69Z"></path><path class="cls-8" d="M1074.55,266.59c31.86,4.74,61.12-11.18,61.42-11.35l-.55-1c-.29.16-29.23,15.91-60.71,11.22Z"></path><path class="cls-8" d="M1071.5,280.42c24.63,5.05,49.37-6.21,49.62-6.33l-.48-1c-.24.12-24.65,11.22-48.91,6.25Z"></path><rect class="cls-8" x="1078.92" y="282.29" width="1.13" height="21.26" transform="translate(743.91 1359.92) rotate(-87.72)"></rect><rect class="cls-8" x="1065.98" y="305.04" width="13.29" height="1.13" transform="translate(-5.71 20.82) rotate(-1.11)"></rect><rect class="cls-8" x="1062.38" y="319.6" width="11.64" height="1.13" transform="translate(-45.39 261.18) rotate(-13.65)"></rect><rect class="cls-8" x="1058.87" y="333.32" width="15.21" height="1.13" transform="translate(-50.3 374.7) rotate(-19.48)"></rect><rect class="cls-8" x="1053.78" y="346.17" width="24.82" height="1.13" transform="translate(-23.09 612.18) rotate(-31.71)"></rect><rect class="cls-8" x="1047.75" y="362.29" width="43.11" height="1.13" transform="translate(-29.18 624.43) rotate(-32.14)"></rect><rect class="cls-8" x="1042.72" y="379.61" width="58.85" height="1.13" transform="translate(-47.35 582.08) rotate(-29.75)"></rect><rect class="cls-8" x="1031.53" y="398.77" width="83.61" height="1.13" transform="translate(-50.4 620.13) rotate(-31.52)"></rect><path class="cls-8" d="M1034.15,438.59c39.4-8.62,84.28-51.89,84.73-52.33l-.79-.81c-.44.43-45.1,43.49-84.18,52Z"></path><path class="cls-8" d="M1031.2,466.9c55.29-20.13,92-64,92.37-64.41l-.87-.72c-.36.44-36.9,44.05-91.88,64.07Z"></path><rect class="cls-8" x="1022.46" y="480.09" width="20.97" height="1.13" transform="translate(-104.79 540.27) rotate(-27.95)"></rect><rect class="cls-8" x="1018.12" y="498.13" width="21.79" height="1.13" transform="translate(-110.84 589.8) rotate(-30.43)"></rect><rect class="cls-8" x="1011.31" y="514.86" width="29.85" height="1.13" transform="translate(-122.05 531.49) rotate(-27.47)"></rect><rect class="cls-8" x="1005.8" y="530.75" width="42.14" height="1.13" transform="translate(-125.08 432.44) rotate(-22.45)"></rect><path class="cls-8" d="M1004.41,554.35a425.39,425.39,0,0,0,57.11-21l-.48-1a422.55,422.55,0,0,1-56.94,21Z"></path><path class="cls-8" d="M1001.64,575.21c37.76-3.34,73.81-26,74.17-26.21l-.61-1c-.35.22-36.18,22.72-73.66,26Z"></path><path class="cls-8" d="M994.59,598.89c53-2.84,96.91-36.62,97.35-37l-.7-.89c-.43.34-44.11,33.91-96.71,36.73Z"></path><path class="cls-8" d="M986.57,618.59c59.22,8.2,99-28.65,99.38-29l-.77-.82c-.39.37-39.78,36.85-98.46,28.73Z"></path><path class="cls-8" d="M972.38,641.34c43.68,9.51,98.49-25.51,99-25.87l-.61-1c-.55.35-55,35.12-98.18,25.72l-.85-.19-.26,1.1Z"></path><path class="cls-10" d="M430.88,87.72c2.37-20.78-17.67-50.49-54.93-25.17-.89-9.87-46.83-41.31-69.11,22.82-3.47-15.7-37.19-8.43-43.58,17.91-12.56-6.74-43.38,25.51-3.22,31.85,51.29,8.09,169,8,190.6-27.43S430.88,87.72,430.88,87.72Z"></path><path class="cls-10" d="M558.64,112.4c1-8.89-7.57-21.6-23.51-10.77-.38-4.22-20-17.68-29.56,9.76-1.49-6.72-15.91-3.6-18.65,7.66-5.37-2.88-18.55,10.92-1.37,13.63,21.94,3.46,72.31,3.42,81.54-11.74S558.64,112.4,558.64,112.4Z"></path><path class="cls-11" d="M912.73,667.05,232.24,679.9a28.35,28.35,0,0,1-28.75-25.67l-42.21-444.8a28.34,28.34,0,0,1,27.68-31l737.69-13.93a28.35,28.35,0,0,1,28.87,29.29l-15,445.89A28.35,28.35,0,0,1,912.73,667.05Z"></path><path class="cls-12" d="M872.12,633.61,275.44,644.88c-13,.24-24-9.17-25.19-21.6L213.53,248.59c-1.36-13.84,9.83-25.88,24.29-26.15l646.83-12.21c14.23-.27,25.78,11,25.29,24.66L896.51,610.52C896.05,623.22,885.34,633.36,872.12,633.61Z"></path><polygon class="cls-13" points="919.67 113.97 922.61 126.28 929.68 118.99 919.67 113.97"></polygon><path class="cls-14" d="M973.32,93.67l-26.26,37.1a3.2,3.2,0,0,1-4.56.7l-36.26-27.78a1.31,1.31,0,0,1-.46-1.36,1.29,1.29,0,0,1,1.09-.93Z"></path><polygon class="cls-15" points="919.67 113.97 973.32 93.67 925.51 118.47 926.18 121.92 919.67 113.97"></polygon><polygon class="cls-16" points="928.99 121.11 922.61 126.28 925.51 118.47 928.99 121.11"></polygon><path class="cls-17" d="M722.65,328.6l-302.84,5.72a12.22,12.22,0,0,1-12.45-12h0a12.21,12.21,0,0,1,12-12.44l302.84-5.72a12.22,12.22,0,0,1,12.45,12h0A12.22,12.22,0,0,1,722.65,328.6Z"></path><path class="cls-18" d="M842,386.94,295.91,397.25a12.22,12.22,0,0,1-12.45-12h0a12.21,12.21,0,0,1,12-12.44l546.08-10.32a12.21,12.21,0,0,1,12.44,12h0A12.21,12.21,0,0,1,842,386.94Z"></path><path class="cls-19" d="M831.32,442.83,308.68,452.7a12.21,12.21,0,0,1-12.44-12h0a12.22,12.22,0,0,1,12-12.44l522.64-9.87a12.2,12.2,0,0,1,12.44,12h0A12.2,12.2,0,0,1,831.32,442.83Z"></path><path class="cls-20" d="M276.62,540.29c.06,3-31.36,69-46.08,99.82a6.8,6.8,0,0,0,8.61,9.27l34.5-13.46a6.81,6.81,0,0,1,7.85,2.17L307,671a6.8,6.8,0,0,0,12.08-3l19.4-112.25Z"></path><path class="cls-21" d="M382.28,538.3c.05,3,33.94,67.81,49.81,98a6.8,6.8,0,0,1-8.25,9.58l-35-12.14a6.79,6.79,0,0,0-7.76,2.46l-24.24,33.84a6.8,6.8,0,0,1-12.18-2.55L321,556.07Z"></path><circle class="cls-22" cx="331.23" cy="482.58" r="98.68" transform="translate(-244.22 375.56) rotate(-45)"></circle><circle class="cls-23" cx="331.71" cy="482.08" r="78.65" transform="translate(-243.73 375.75) rotate(-45)"></circle><path class="cls-24" d="M515.93,87.91l-18.17,65.47a31.84,31.84,0,0,0,4.13,26.1c12.82,19.29,44.15,54.14,110.57,71.92,67.45,18,105.64-.52,122.08-12.76a33.87,33.87,0,0,0,12.32-17.82l19.89-69.34Z"></path><path class="cls-25" d="M659.74,3.63,470.8,56.55A12.64,12.64,0,0,0,466,78.32c37.46,32,122.57,106.63,154.81,150a12.61,12.61,0,0,0,15,4.11l191.17-79.13a12.63,12.63,0,0,0,3.51-21.16C793.34,99.54,699,18,668.27,4.24A12.53,12.53,0,0,0,659.74,3.63Z"></path><path class="cls-26" d="M655.65,101.23s100.73,63.54,108.4,78.05-7.77,80.5-7.77,80.5c15.86,55.85,18.2,116.5-8.58,148.23,0,0-33-73.45-18.27-104.4S749.87,260,749.87,260s12.9-70.35,8.82-80.4C758.69,179.57,647.1,105.25,655.65,101.23Z"></path><path class="cls-27" d="M496.23,74.08l96.69,95.38L617.1,193.3l6,6,3,3a17.33,17.33,0,0,0,3.12,2.41,18.09,18.09,0,0,0,15.28,1.66L709,184.73a1,1,0,0,1,.62,1.84l-64.23,22.06a20.53,20.53,0,0,1-21-4.51l-3.06-3-6.09-5.92-24.36-23.66L493.43,76.94a2,2,0,1,1,2.79-2.87Z"></path><path class="cls-27" d="M748.91,293.72l-.19.2-.23.27-.45.53-.87,1.17c-.58.79-1.08,1.66-1.62,2.49L744.11,301c-.45.9-.84,1.84-1.26,2.75s-.77,1.87-1.12,2.82-.71,1.9-1,2.87l-.83,2.94c-.26,1-.58,2-.75,3l-.6,3c-.19,1-.43,2-.52,3-.24,2-.52,4.08-.73,6.12l-.3,6.17c0,.52-.06,1-.06,1.55l0,1.54.07,3.1c0,4.14.53,8.25.87,12.38a29.15,29.15,0,0,0,.4,3.08l.48,3.07c.34,2.05.63,4.11,1,6.15.92,4.05,1.75,8.12,2.73,12.16l3.39,12v0a.69.69,0,0,1-1.33.39l-3.72-12c-1.1-4-2.05-8.13-3.08-12.2-.42-2.06-.77-4.13-1.16-6.19l-.57-3.1a30.19,30.19,0,0,1-.49-3.12c-.45-4.18-1.13-8.35-1.21-12.57l-.16-3.17-.07-1.58c0-.53,0-1.06,0-1.58l.14-6.35c.17-2.11.39-4.22.59-6.34.07-1.06.29-2.1.46-3.15l.55-3.15a30.53,30.53,0,0,1,.7-3.12l.79-3.11c.3-1,.67-2,1-3.06a30.57,30.57,0,0,1,1.11-3c.43-1,.82-2,1.28-3l1.48-2.91c.58-.93,1.1-1.89,1.73-2.8l1-1.37.54-.67.28-.34.34-.38a2,2,0,0,1,3,2.68l0,0Z"></path><path class="cls-27" d="M752,319.71v3.93l0,4.43.12,8.88.3,17.77.72,35.55a1.09,1.09,0,0,1-2.17.07l-1.63-35.52-.76-17.77-.35-8.89-.15-4.46-.05-2.24,0-1.13c0-.49,0-1.06.08-1.58a1.94,1.94,0,0,1,3.88.17Z"></path><path class="cls-28" d="M860.72,469.43c-19,3.33-31.64-8.91-41-16.31-12.4-9.75-21.81-4.71-21.81-4.71L811.38,474c19.81,18.67,39.67,14.06,52.13,7.66A26,26,0,0,0,860.72,469.43Z"></path><path class="cls-29" d="M887.27,457.13,881,460.78c-7.49,4.93-14.22,7.58-20.3,8.65a26,26,0,0,1,2.79,12.19,58.24,58.24,0,0,0,12.86-8.89C890.51,463.61,887.27,457.13,887.27,457.13Z"></path><path class="cls-30" d="M816.12,635.36l-1.41,7.28c-2.41,12.5,2.46,24,10.89,25.58l10,1.94c8.43,1.62,17.22-7.19,19.63-19.69l1.41-7.29c.09-.48.17-1,.25-1.45L889.26,424l-21.83-4.22-51,214.16C816.31,634.4,816.21,634.88,816.12,635.36Zm10.25,1.39c1.82-9.42,7.82-16.17,13.42-15.09s8.65,9.58,6.83,19-7.82,16.17-13.41,15.09S824.56,646.16,826.37,636.75Z"></path><path class="cls-31" d="M870.67,343.84l-8.16,42.27a9.88,9.88,0,0,0,2.3,8.41l10.4,11.77a9.89,9.89,0,0,0,11.84,2.29l14-7.06a9.85,9.85,0,0,0,5.26-6.95l8.16-42.27A7.59,7.59,0,0,1,927.93,349a56.83,56.83,0,0,1,10.59,45.56c-5.86,30.4-33.6,46.74-62.84,41.09s-48.9-31.12-43-61.52a56.79,56.79,0,0,1,26.79-38.35A7.6,7.6,0,0,1,870.67,343.84Z"></path><path class="cls-32" d="M874.65,344.61l-8.16,42.26a9.9,9.9,0,0,0,2.3,8.42l10.41,11.77A9.88,9.88,0,0,0,891,409.35l14-7.06a9.92,9.92,0,0,0,5.27-7l8.15-42.27a7.59,7.59,0,0,1,13.42-3.29,56.83,56.83,0,0,1,10.6,45.56c-5.87,30.4-33.61,46.73-62.84,41.09s-48.91-31.12-43-61.52a56.82,56.82,0,0,1,26.79-38.35A7.6,7.6,0,0,1,874.65,344.61Z"></path><path class="cls-33" d="M819.29,636l-1.4,7.29c-2.41,12.5,2.46,24,10.89,25.58l10,1.93c8.43,1.63,17.22-7.19,19.63-19.69l1.4-7.28c.1-.48.18-1,.25-1.45l32.36-217.76-21.83-4.21-51,214.15C819.49,635,819.39,635.49,819.29,636Zm10.26,1.39c1.82-9.41,7.82-16.17,13.41-15.09s8.66,9.59,6.84,19-7.82,16.16-13.41,15.08S827.73,646.77,829.55,637.36Z"></path><path class="cls-34" d="M888.08,466.56a4.64,4.64,0,0,0-1.07-3.8c-1.76-2-4.79-4.82-7-2.94-3.28,2.79.31,12.34.31,12.34l3.64,5.55,0,3.54C886,479,887.16,473.29,888.08,466.56Z"></path><path class="cls-35" d="M763.46,512.32a42.12,42.12,0,0,1-9.63,7.33A81,81,0,0,0,772,535.18l2.3,4.91,6.91-8.61S768.38,525.4,763.46,512.32Z"></path><path class="cls-36" d="M804.35,672.39a1.49,1.49,0,0,0-.06-.46c-2.46-9-13.94-14.48-13.94-14.48l-4.5.44c-2.44,8.05-2,13-1.55,15.14a1.21,1.21,0,0,0,.05.18A107,107,0,0,0,804.35,672.39Z"></path><path class="cls-37" d="M784.35,673.21a1.94,1.94,0,0,0,1.45,1.41c5.31,1,13.7,0,17.22-.57a1.63,1.63,0,0,0,1.33-1.66A107,107,0,0,1,784.35,673.21Z"></path><path class="cls-38" d="M783.92,651.21l2.08,9.15a1.51,1.51,0,0,0,1.3,1.22,12.78,12.78,0,0,0,3-.11,1.88,1.88,0,0,0,1.45-2.24l-1.48-8.14Z"></path><path class="cls-39" d="M823.87,672.37c-5,0-7.56-.59-8.91-1.1,0,.49,0,1,0,1.52a1,1,0,0,0,1,1l27.32-.7a1.24,1.24,0,0,0,1-1.83C840.68,671.6,831.57,672.44,823.87,672.37Z"></path><path class="cls-40" d="M844.25,671.24a1.06,1.06,0,0,0-.11-.21c-2.47-3.32-8.75-9.92-20.95-12.6l-5.83-.08s-2.5,4.56-2.4,12.92c1.35.51,3.93,1.05,8.91,1.1C831.57,672.44,840.68,671.6,844.25,671.24Z"></path><path class="cls-41" d="M816.12,649.55c.07.43,1,7,1.35,9.57a1.27,1.27,0,0,0,1.09,1.12,13.16,13.16,0,0,0,4-.14,1.72,1.72,0,0,0,1.28-1.75l-.2-10.36Z"></path><path class="cls-42" d="M809.17,529.18s15.06,53.14,16.07,120.35a2.6,2.6,0,0,1-2,2.57,30,30,0,0,1-6.5.88,2.42,2.42,0,0,1-2.34-2c-2.19-11.51-14.72-76.39-21.37-86.84,0,0-3.14,58.06-1.22,88.11a1.42,1.42,0,0,1-1.23,1.51,24.15,24.15,0,0,1-5.23.08,1.91,1.91,0,0,1-1.73-1.59c-1.58-9.75-10.76-67.8-11.21-109.74,0-2.37,6-12.76,6-12.76Z"></path><path class="cls-43" d="M827.49,464.19a59.25,59.25,0,0,1-6.12-9c-2.42-4.37-.13,2.86-.87-2.11-17.71-12.28-43.91-5.4-54.07-3.93a13.61,13.61,0,0,0-8.5,4.78c-8.54,10.26-27.16,38.26-4.1,65.69a42.12,42.12,0,0,0,9.63-7.33c-2.63-7-3-16,2-27.06a25,25,0,0,0,.71,2.57,160.08,160.08,0,0,1,8.44,46,1.45,1.45,0,0,0,.94,1.33c9.54,3.62,27.74,1,33.85,0a2.06,2.06,0,0,0,1.68-2.37c-3.42-21.72,11.33-57.83,15.24-66.88A5.86,5.86,0,0,1,827.49,464.19Z"></path><path class="cls-44" d="M782.47,430.54,781,449.23s10.56,3,18.09-2.56l-5.69-16.86Z"></path><path class="cls-45" d="M794.24,409c.26.23,11.06,20.48,11.06,20.48l-11.69,5.92-13.09-17.67S789.94,405.14,794.24,409Z"></path><path class="cls-46" d="M785.75,418.17a1.89,1.89,0,0,0,.18,1.65l6.07,9.7a2,2,0,0,0,.33.39c.71.64,3.14,2.49,4.95-.13,1.53-2.23,3-4.26,4.55-5.11a1.87,1.87,0,0,1,2.55.79,69.49,69.49,0,0,1,4.21,9.47,1.87,1.87,0,0,1-1,2.32,51.57,51.57,0,0,1-11.24,3.51,1.89,1.89,0,0,1-1.8-.72c-1.85-2.44-7.06-9.24-8.83-10.94s-4.6-.91-5.93-.5a1.86,1.86,0,0,1-1.51-.17c-1.37-.79-3.78-2.79-1.68-6.28a1.89,1.89,0,0,0-.63-2.55c-1.54-1-3.22-2.81-1.71-5.87a5.87,5.87,0,0,1,6.3-3.24,2,2,0,0,0,2-1.17,1.25,1.25,0,0,1,1-.79,1.81,1.81,0,0,0,1.43-2.17,4.83,4.83,0,0,1,2.59-5.58c5-2.89,9.59,1.59,10.79,5.41s-4.43,6.66-8,7.18C787.69,413.76,786.3,416.65,785.75,418.17Z"></path><path class="cls-47" d="M788,432.66s-2.39-6.58-5.28-6.28-5.12,3.23-1.47,6.41C785.76,436.74,788,432.66,788,432.66Z"></path><path class="cls-48" d="M764.49,483.57c-4-10.38-2.87-23-2.86-23.16l1.06.1c0,.13-1.14,12.53,2.79,22.68Z"></path><path class="cls-49" d="M792.48,562.81a.53.53,0,0,1-.52-.38c-1.25-4.48-10.07-9.25-10.16-9.3a.53.53,0,1,1,.51-.93c.37.2,9.3,5,10.67,9.94a.52.52,0,0,1-.36.65A.34.34,0,0,1,792.48,562.81Z"></path><path class="cls-50" d="M800.32,402.89l-27,21.05a.65.65,0,0,1-1-.41L772,421.6s-11.25-11.31.31-21.54,25.19,1.36,25.19,1.36l2.62.52A.53.53,0,0,1,800.32,402.89Z"></path><path class="cls-51" d="M1031.22,463.63c-4.52-16.72-18.49-30.45-34.06-33.93a5.23,5.23,0,0,1-3.84-6.4v-.06c2.26-9.72-4-17.47-13.38-19.65s-18.41,2-20.66,11.75A21.51,21.51,0,0,0,964,434.07a5.23,5.23,0,0,1,.2,6.93c-9.49,11.11-13.35,28.08-9.24,43.25,6,22.34,27,32.33,48.1,26.63S1037.26,486,1031.22,463.63Z"></path><path class="cls-52" d="M914.13,432.12a.84.84,0,0,1,1.56.13c.8,2.69,2.71,7.38,6.55,9l.56.25a2,2,0,0,0-.27-1.75c-1.22-1.79.87-4.31.87-4.31a5.5,5.5,0,0,0,1.87,3.52,5.32,5.32,0,0,1,1.25,5.95c-1.92,8.07-4.81,18.74,7.39,26.26S962.65,456,962.65,456l-7.92,26.86s-12.82,9.84-28.19-3.37-5.73-33-5.73-33S909.19,442,914.13,432.12Z"></path><path class="cls-53" d="M963.72,453c3.58-1.15,14-3.34,24.19,5.68a6.17,6.17,0,0,1,1.9,6.12c-2.49,9.93-9,39.22-2.58,51.72,0,0-10.7,12.26-22.81,2.77,0,0-5.79-23.22-13-33.32-5-7,7.22-26.68,10.3-31.45A3.72,3.72,0,0,1,963.72,453Z"></path><path class="cls-54" d="M973.3,433.22s5.61,15,6.14,21.62A11.4,11.4,0,0,1,968,453.21s-.86-15-1.76-17.73Z"></path><path class="cls-55" d="M965.51,412.8s-13.58,19.78-5.14,25.29,18.11-8.55,18.11-8.55,3-10.74-.42-14.3S965.51,412.8,965.51,412.8Z"></path><path class="cls-56" d="M971.87,408s-6.37,1.64-7.22,4.55,9.19,5.42,12,5.49l2.47,11.66s6.46-11.13,3.7-17.43S971.87,408,971.87,408Z"></path><path class="cls-57" d="M975.75,428.16s5.31-6.39,7.54-2.33-4.75,7.26-7.22,5.3Z"></path><path class="cls-58" d="M951.43,568.53c.06,1.06-1.64,9.49-2.57,14a7.36,7.36,0,0,0,.9,5.27l36.14,58.3a7.78,7.78,0,0,1,1,2.28c.7,2.75,2.15,9.51,1.58,15.69l-1.74,3.79,7.8-1.92,1.31-21.08-2.25-1.31a10.56,10.56,0,0,1-4.36-4.91c-3.31-7.64-11.54-27.07-13.75-36.58-2.51-10.81-14.72-19.39-14.72-19.39l2-5Z"></path><path class="cls-59" d="M1003.07,658.52s-4.36-6.63-4.9-9.23-2-7.19-4.61-5.75c0,0-1,12.71-.47,17.66s-5.51,4.9-5.51,4.9a5.65,5.65,0,0,0-2.85,1.51,1.41,1.41,0,0,0,1,2.35,33.73,33.73,0,0,0,8.38-.63,2.58,2.58,0,0,0,2-2.41l.59-14.62,5.47,6.64Z"></path><path class="cls-60" d="M972.53,577.53s2.23,52.71,2.54,60.2-.73,24.11-8.14,29.21l3.31,2.36a43.67,43.67,0,0,0,7.88-10.3c4.34-7.59,5.67-9,5.67-9l-1.54-3a6.68,6.68,0,0,1-.63-4.28c1.47-7.88,6.39-34.11,7.76-39.76,1.62-6.67,1.58-15.54-4.63-22.85S972.53,577.53,972.53,577.53Z"></path><path class="cls-61" d="M981.24,671.47a.48.48,0,0,0,.46-.41c.21-1.76,1.12-8.83,1.94-10.67.93-2.11,4-11-.22-11.63,0,0-10.06,15.31-12,17.38a3.89,3.89,0,0,1-4.48.8,7.48,7.48,0,0,0-3.35,2.5,1.37,1.37,0,0,0,1.12,2.18l7-.06a4.91,4.91,0,0,0,4.54-3.18c1.17-3.09,3.19-7.62,5.61-9.66L980.77,671a.47.47,0,0,0,.47.51Z"></path><path class="cls-62" d="M962.67,513.66s1.66,5-.6,13.26l-14,52.55a1.63,1.63,0,0,0,1,1.95c4.51,1.52,19.31,5.78,39.38,4a2.27,2.27,0,0,0,2-1.82c1.21-6,5.35-26.39,6.2-30.59,3.24-16,6.87-33.22-10.73-43.27C978.08,513.35,970.63,515.51,962.67,513.66Z"></path><path class="cls-63" d="M989.38,460.64s17.29,13.83,21.89,33.09-24.48,21.86-24.48,21.86-4-4.34-8.7-2.67-.51-7.7,5-7.78,3,4.31,10.73.65c7.5-3.57,12-14.26-7.63-30a8.68,8.68,0,0,1-2.61-3.42C979.63,463.05,982.48,456.8,989.38,460.64Z"></path><path class="cls-27" d="M1024.67,485l-.41-.29c3.77-5.35,4.25-13.07,1.26-20.14-2.37-5.63-6.62-10.77-13.37-16.19-2.51-2-5.18-3.93-7.76-5.78-3.1-2.23-6.31-4.54-9.29-7-2.67-2.26-5.49-5.06-6.08-8.72a18.9,18.9,0,0,1,.25-5.65c.41-2.94.81-5.72-.92-7.85l.39-.31c1.86,2.29,1.43,5.31,1,8.23a19,19,0,0,0-.25,5.5c.57,3.5,3.31,6.22,5.91,8.41,3,2.5,6.17,4.8,9.26,7,2.59,1.86,5.26,3.78,7.78,5.8,6.82,5.47,11.12,10.68,13.53,16.38C1029,471.57,1028.54,479.47,1024.67,485Z"></path><path class="cls-27" d="M1014.66,488.19l-.47-.17c2.57-7.09,1.82-15.81-2.06-23.91S1002,449.53,997,444.72l.34-.36c5.07,4.83,11.39,11.43,15.26,19.53S1017.27,481,1014.66,488.19Z"></path><path class="cls-64" d="M708.48,457.45s-1.7-4.39-.1-4.92,21.88-.42,21.88-.42-6.11,5-8.26,5.09a45.12,45.12,0,0,1-6.32-.65Z"></path><path class="cls-65" d="M643,408.21c.56-.51,15.06-6.73,12-10.34a7.16,7.16,0,0,1-1.69-3.59c-.44-2.94-2.38-7.13-10.1-5.06-5.44,1.46-7.7,4-8.58,6.21a7.65,7.65,0,0,1-5.66,4.75c-3.08.59-6.2,2.35-5.52,7.11a7.8,7.8,0,0,1-.07,2.64c-.84,4-2.22,15.13,10.6,7a7.49,7.49,0,0,0,1.24-1Z"></path><path class="cls-66" d="M630.63,415.72l13.3,14L658.32,418l-7.2-16.33a4.87,4.87,0,0,0-5.77-2.75,28.32,28.32,0,0,0-15.08,10.46A4.9,4.9,0,0,0,630.63,415.72Z"></path><path class="cls-67" d="M678.4,459s4.27,0,9.41,10.58c3.84,7.89,7.11,14.69,14.71,14.55s6-26.72,6-26.72l7.2-.9s10.34,44.27-13.56,46.62-30.48-22.56-30.48-22.56Z"></path><path class="cls-68" d="M631.86,675.87a1.49,1.49,0,0,1,0-.42c1.93-8.31,10.38-12.71,10.38-12.71l4.11.24c2.5,7.25,4.09,10.78,3.74,12.77a1,1,0,0,1,0,.17A98.45,98.45,0,0,1,631.86,675.87Z"></path><path class="cls-69" d="M650.08,675.92a1.79,1.79,0,0,1-1.27,1.34c-4.8,1.1-12.47.43-15.69.07a1.48,1.48,0,0,1-1.26-1.46A98.45,98.45,0,0,0,650.08,675.92Z"></path><path class="cls-70" d="M638.77,656.42l2,8.61a1.42,1.42,0,0,0,1.23,1.14,12.29,12.29,0,0,0,2.78-.1,1.76,1.76,0,0,0,1.37-2.11l-1.39-7.66Z"></path><path class="cls-71" d="M684.94,675.19c-4.38,0-6.66-.52-7.84-1,0,.43,0,.88,0,1.34a.87.87,0,0,0,.84.86l24.06-.61a1.1,1.1,0,0,0,.85-1.62C699.74,674.51,691.72,675.25,684.94,675.19Z"></path><path class="cls-72" d="M702.89,674.19a1.51,1.51,0,0,0-.09-.18c-2.18-2.92-7.71-8.73-18.45-11.1l-5.13-.06s-2.21,4-2.12,11.37c1.18.45,3.46.93,7.84,1C691.72,675.25,699.74,674.51,702.89,674.19Z"></path><path class="cls-73" d="M678.12,655.09c.06.38.88,6.18,1.19,8.43a1.13,1.13,0,0,0,1,1,11.55,11.55,0,0,0,3.52-.12,1.52,1.52,0,0,0,1.13-1.54l-.18-9.13Z"></path><path class="cls-74" d="M640.06,542.79s-6.84,73.13-1.41,118.65c0,0,5.47-.11,8.19-1.07,0,0,7.18-71.51,9.56-92a.68.68,0,0,1,1.35-.07c3.73,17.11,18.37,84.21,20.08,90.54,0,0,4.6,1.74,8.21-.15,0,0-9.14-97.46-14.94-114.69Z"></path><path class="cls-75" d="M622,458.28s28.85-6,56.36.76l1.09,21.43a47.2,47.2,0,0,1,0,12.51c-2,11.24-4.37,37.48-8.38,51,0,0-20.91,4.05-31-1.24,0,0-9.14-49.09-13.84-56.31C626.22,486.48,621.3,467.42,622,458.28Z"></path><path class="cls-76" d="M645.64,432.9l-3,23.42s9.73,4.24,16.4-.5l-1.77-16.46Z"></path><path class="cls-77" d="M660.22,417.41c.12.2,2.42,11.94,3.84,19.2a5.12,5.12,0,0,1-4.63,6.08l-2.79.22a10,10,0,0,1-10.59-8.24l-2.27-13.17S657.49,412.68,660.22,417.41Z"></path><path class="cls-78" d="M640.76,421.59a3.93,3.93,0,0,1,.17-5.76,5.54,5.54,0,0,1,6.58-1.07,1.87,1.87,0,0,0,2.16-.47,1.16,1.16,0,0,1,1.08-.43,1.71,1.71,0,0,0,1.91-1.53,4.55,4.55,0,0,1,3.93-4.25c5.35-1.14,8.13,4.18,8.11,8s-5.9,4.69-9.25,4.12c-2.46-.41-4.54,1.79-5.47,3a1.75,1.75,0,0,0-.32,1.53l.92,3.63a17.18,17.18,0,0,1-1.93,3.3,3.65,3.65,0,0,1-1.92,1.28c-1-1.84-3.84-2.11-5.14-2.13a1.74,1.74,0,0,1-1.3-.58c-1-1.11-2.59-3.59.3-6.11A1.77,1.77,0,0,0,640.76,421.59Z"></path><path class="cls-79" d="M647.77,436.77s-.24-6.59-2.91-7.16-5.52,1.42-3.17,5.32C644.62,439.78,647.77,436.77,647.77,436.77Z"></path><path class="cls-80" d="M622,458.28s-52.72,59.39,11.1,80.54l-.09-4.56s-24.09-19.62-6.37-47.33C626.68,486.93,623.91,461,622,458.28Z"></path><path class="cls-81" d="M633.52,534.71s8.1-5.63,11.78-3.88,3.74,4.49,3.74,4.49-1.76,3.69-4.51,2.83-9.1,1.08-11.86.22C632.67,538.37,631.69,534.74,633.52,534.71Z"></path><path class="cls-82" d="M732.74,420.25l-2.24-.41.66-3.67a2.53,2.53,0,0,0-1.82-2.88,23.89,23.89,0,0,0-12.41.43,2.49,2.49,0,0,0-1.77,2.89l.67,3.54-2.23.43-.68-3.54a4.76,4.76,0,0,1,3.39-5.51,26.16,26.16,0,0,1,13.62-.45,4.82,4.82,0,0,1,3.47,5.49Z"></path><path class="cls-83" d="M692.89,452.19c.76-.27,61-1.15,61-1.15s.39-33.76-31.27-33S692.89,452.19,692.89,452.19Z"></path><path class="cls-84" d="M692.37,450.68,755,449.5a1.38,1.38,0,0,1,1,2.36l-1.6,1.57a1.39,1.39,0,0,1-.94.4L693.62,455a1.38,1.38,0,0,1-1.1-.53l-1.21-1.51A1.38,1.38,0,0,1,692.37,450.68Z"></path><path class="cls-27" d="M697.69,445.55h-.08a1,1,0,0,1-.92-1.07c0-.23,2-22.7,23.16-24a1,1,0,1,1,.12,2c-19.45,1.19-21.27,21.94-21.28,22.15A1,1,0,0,1,697.69,445.55Z"></path><path class="cls-85" d="M534.24,422.44l6,8.48L554.15,411l-3.65-3.53a5.3,5.3,0,0,0-6.56-.66,31.2,31.2,0,0,0-9.9,9.75A5.34,5.34,0,0,0,534.24,422.44Z"></path><path class="cls-86" d="M538.47,424.57s1.12,2.13-5.83,5.63c-3.87,1.95-11.42,4.87-12.27,13a9.28,9.28,0,0,1-7.63,8.31C502.4,453.29,486.51,459,484.29,477c-1.69,13.79,5.42,18.87,12.81,20.53a10.43,10.43,0,0,1,8.12,11.89c-1,5.25.73,11.27,9.89,15.88,20.51,10.33,40.11-26.16,40.11-26.16l3-63.12Z"></path><path class="cls-87" d="M495.36,670.8l-.71,6.86a2.82,2.82,0,0,1-2.43,2.52,43.18,43.18,0,0,1-9.16.32,2.41,2.41,0,0,1-2.09-3.1c.79-2.66,2.25-6.66,4.42-9l7.59-.15A2.35,2.35,0,0,1,495.36,670.8Z"></path><path class="cls-88" d="M553.33,589.48l1.42,7.51s-3.47,43.57-3.91,61a13.67,13.67,0,0,0,2.17,7.71l7.69,12-19.18-10.83-.42-2.31,3-4.33-5-48.64a15,15,0,0,1,1.55-8.29l3.78-7.45Z"></path><path class="cls-89" d="M562,679.38l-6.05.12a3.65,3.65,0,0,1-2.92-1.37c-1.93-2.41-5.93-7.12-7.81-7.21-2.52-.12-2,8.82-2,8.82l-1.41,0-2-11.09a6.55,6.55,0,0,1,3.32-6.94h0s.66,4.24,3.81,6.06,12.86,8.39,12.86,8.39a8.8,8.8,0,0,1,2.46,0A1.6,1.6,0,0,1,562,679.38Z"></path><path class="cls-90" d="M527.41,593.55s-24.25,48.18-28,59.14a105.16,105.16,0,0,0-5.06,20.94c-.06,1.35-1.7,2.67-6.31,2.76-2.38,0-3.56-.89-4.15-1.8a2.68,2.68,0,0,1-.15-2.6c1.4-3,5.83-12.47,7.46-16.77,1.95-5.13,5.9-28.3,8.16-36.38s4.81-16.83,15.15-25.05C514.47,593.79,521.54,586.61,527.41,593.55Z"></path><path class="cls-91" d="M541.82,515.08c6-27.61-10.76-42.84-10.76-42.84,8.18-8.16,21.93-12.92,27-14.47a4,4,0,0,1,3.63.67c4.45,3.46,16.26,13.53,14.67,22-1.14,6.07-12,36.45-12,36.45S553.93,522.05,541.82,515.08Z"></path><path class="cls-92" d="M527.7,529c2.49-8,14.12-13.88,14.12-13.88,12.11,7,22.58,1.77,22.58,1.77s2.53,9,1.06,17.45S554.75,597,554.75,597c-16.09,3.58-41.07-2.52-41.07-2.52C523.63,576,525.21,537,527.7,529Z"></path><path class="cls-93" d="M547.92,439.26l-4.82,23.79c-.47,2.09,1.43,1.72,3.53,1.28,3.44-.72,7.87-2.14,9.31-4.86a2.81,2.81,0,0,0,.25-.9l1.95-16.47a2.94,2.94,0,0,0-1.78-3.07L552,437.18A3,3,0,0,0,547.92,439.26Z"></path><path class="cls-94" d="M557.62,417.47s5.68,3.69,8.28,13.33-1.26,13.18-5.28,13-9.88-1.27-15.06-8.12S550.17,413,557.62,417.47Z"></path><path class="cls-95" d="M550.58,431.72s-2.32-13.83,9.24-11.92l2.37,2.38s5.52-6.46-.81-11.14-15-3.29-19.59,5.54-6.24,15-2.13,20.35,7.05.64,7.05.64-1.93-4.67-.44-6.71,3.52,1.11,3.52,1.11Z"></path><path class="cls-96" d="M549,432.94s-1.15-7.12-4.76-5,1.44,6.64,3.46,8.18Z"></path><path class="cls-97" d="M531,472.64s-10.85,18.12-12.84,31.6,19.39,18.67,27.08,10.69L544,509.35s-12.28,2.47-13.52-4.22,9.69-20.34,9.69-20.34S536.63,474.77,531,472.64Z"></path><path class="cls-98" d="M541.37,526.51l11.89-44.69a1.28,1.28,0,0,1,1.07-.95c2.3-.31,9-1.2,16.67-2,9.28-1,20.06-1.81,26.52-1.39a1.31,1.31,0,0,1,1.1,1.86c-3.53,7.48-18,37.94-25.41,48a1.33,1.33,0,0,1-1,.54l-29.53.28A1.3,1.3,0,0,1,541.37,526.51Z"></path><path class="cls-99" d="M572.25,475l9.2-1.71a.66.66,0,0,1,.75.84l-.86,2.79a.66.66,0,0,1-.53.46L572,478.73a.66.66,0,0,1-.75-.79l.52-2.43A.68.68,0,0,1,572.25,475Z"></path><path class="cls-100" d="M565.49,482.94l.68-4a.93.93,0,0,1,.8-.76l18.6-2.24a.92.92,0,0,1,1,1.11L585.48,482a.92.92,0,0,1-.83.72L566.45,484A.91.91,0,0,1,565.49,482.94Z"></path><path class="cls-101" d="M544.24,515.71s-1.91-7.26-1.24-9.86,2-6,6.62-5.29a67.5,67.5,0,0,1,10.11,2.49s-.21,3.37-3.74,2.35l2.21,1.65s-.26,2.7-3.25,1.31l2.06,2.2a2.35,2.35,0,0,1-3.43.86C551.37,510,550.44,516.47,544.24,515.71Z"></path><path class="cls-27" d="M499.45,489.5a1.88,1.88,0,0,1-1-.33c-4.82-3-7.48-9.36-6.47-15.44a14.52,14.52,0,0,1,4.91-8.91,22.26,22.26,0,0,1,6-3.25c3.48-1.39,7.06-2.62,10.66-3.67l.88-.25a33.32,33.32,0,0,0,6.23-2.25,10.33,10.33,0,0,0,5.08-5.27,15,15,0,0,0,.72-4.12,12.37,12.37,0,0,1,1.12-5,.12.12,0,0,1,.17-.06.13.13,0,0,1,0,.17,12.38,12.38,0,0,0-1.09,4.9,16,16,0,0,1-.73,4.19,10.62,10.62,0,0,1-5.2,5.4,33,33,0,0,1-6.28,2.27l-.88.25c-3.59,1-7.17,2.28-10.64,3.66a22.15,22.15,0,0,0-6,3.21,14.32,14.32,0,0,0-4.82,8.76c-1,6,1.62,12.23,6.35,15.19.34.21,1,.47,1.25.09a.13.13,0,0,1,.21.14A.71.71,0,0,1,499.45,489.5Z"></path><path class="cls-27" d="M498.14,483.83a.11.11,0,0,1-.1-.06,14.86,14.86,0,0,1-2.92-8.27,9.4,9.4,0,0,1,3.7-7.78.12.12,0,0,1,.17,0,.13.13,0,0,1,0,.18,9.14,9.14,0,0,0-3.59,7.56,14.62,14.62,0,0,0,2.87,8.14.12.12,0,0,1,0,.17A.11.11,0,0,1,498.14,483.83Z"></path><path class="cls-27" d="M340.14,467.18l-2.22,2.07a1,1,0,1,1-1.38-1.47h0l0,0,2.17-2,0,0a1,1,0,0,1,1.36,1.47Z"></path><path class="cls-27" d="M332.42,473.74,330,475.5a1,1,0,1,1-1.2-1.67h0l0,0,2.42-1.71,0,0a1,1,0,0,1,1.18,1.67Z"></path><path class="cls-27" d="M323.94,479.26l-2.67,1.45a1.06,1.06,0,0,1-1-1.86h0l0,0,2.61-1.4,0,0a1.05,1.05,0,0,1,1.42.43A1,1,0,0,1,323.94,479.26Z"></path><path class="cls-27" d="M314.85,483.71,312,484.84a1.08,1.08,0,0,1-.8-2h0l2.76-1.09h0a1.07,1.07,0,0,1,.79,2Z"></path><path class="cls-27" d="M305.32,487.09l-2.93.81a1.11,1.11,0,1,1-.59-2.13h0l2.86-.77h0a1.09,1.09,0,0,1,.58,2.11Z"></path><path class="cls-27" d="M295.47,489.42l-3,.49a1.13,1.13,0,0,1-.37-2.23h0l2.93-.47h0a1.12,1.12,0,0,1,.36,2.22Z"></path><path class="cls-27" d="M285.44,490.7l-3,.18a1.15,1.15,0,1,1-.14-2.3h0l3-.17h0a1.15,1.15,0,1,1,.13,2.29Z"></path><path class="cls-27" d="M275.33,491l-3-.12a1.18,1.18,0,0,1,.09-2.36h0l3,.14h0a1.17,1.17,0,0,1-.1,2.34Z"></path><path class="cls-27" d="M265.24,490.18l-3-.43a1.21,1.21,0,0,1,.34-2.39h0l2.94.44h0a1.2,1.2,0,0,1-.35,2.37Z"></path><path class="cls-27" d="M255.27,488.38l-2.94-.74a1.24,1.24,0,0,1-.9-1.49,1.23,1.23,0,0,1,1.49-.89H253l2.87.73h0a1.22,1.22,0,0,1-.6,2.37Z"></path><path class="cls-27" d="M245.55,485.57l-2.86-1a1.25,1.25,0,1,1,.85-2.36h0l0,0,2.79,1h0a1.24,1.24,0,0,1-.84,2.34Z"></path><path class="cls-27" d="M236.14,481.86l-2.75-1.28a1.26,1.26,0,0,1-.62-1.69,1.28,1.28,0,0,1,1.7-.62h0l2.69,1.27h0a1.27,1.27,0,0,1-1.08,2.3Z"></path><path class="cls-27" d="M227.11,477.32l-2.63-1.51a1.3,1.3,0,1,1,1.3-2.26h0l2.57,1.49,0,0a1.3,1.3,0,0,1,.46,1.77A1.28,1.28,0,0,1,227.11,477.32Z"></path><path class="cls-27" d="M218.5,472l-2.5-1.72a1.33,1.33,0,0,1,1.51-2.19h0l0,0,2.44,1.69,0,0a1.32,1.32,0,0,1-1.5,2.17Z"></path><path class="cls-27" d="M210.35,466.06,208,464.15a1.35,1.35,0,1,1,1.7-2.1h0l0,0L212,464l0,0a1.34,1.34,0,0,1-1.7,2.08Z"></path><path class="cls-27" d="M202.68,459.48l-2.2-2.08a1.38,1.38,0,1,1,1.89-2h0l0,0,2.14,2.05,0,0a1.37,1.37,0,0,1,0,1.93A1.35,1.35,0,0,1,202.68,459.48Z"></path><path class="cls-27" d="M195.52,452.36l-2.05-2.23a1.4,1.4,0,1,1,2.06-1.89h0l0,0,2,2.21,0,0a1.39,1.39,0,0,1-2.06,1.87Z"></path><path class="cls-27" d="M188.88,444.75,187,442.38a1.42,1.42,0,1,1,2.22-1.77h0l0,0,1.84,2.33,0,0a1.42,1.42,0,0,1-.24,2A1.39,1.39,0,0,1,188.88,444.75Z"></path><path class="cls-27" d="M182.77,436.7l-1.71-2.49a1.44,1.44,0,1,1,2.37-1.64h0l0,0,1.68,2.45,0,0a1.44,1.44,0,1,1-2.38,1.63Z"></path><path class="cls-27" d="M177.25,428.25l-1.55-2.61a1.44,1.44,0,0,1,.51-2,1.46,1.46,0,0,1,2,.5h0v0l1.51,2.56,0,0a1.45,1.45,0,0,1-2.49,1.47Z"></path><path class="cls-27" d="M172.31,419.44l-1.37-2.7a1.46,1.46,0,0,1,2.61-1.32h0v0l1.34,2.66v0a1.46,1.46,0,1,1-2.6,1.31Z"></path><path class="cls-27" d="M168,410.33l-1.18-2.79a1.47,1.47,0,0,1,2.7-1.14h0v0l1.16,2.74v0a1.47,1.47,0,0,1-2.7,1.15Z"></path><path class="cls-27" d="M164.24,401l-1-2.85a1.48,1.48,0,1,1,2.79-1h0v0l1,2.8v0a1.48,1.48,0,1,1-2.79,1Z"></path><path class="cls-27" d="M161.12,391.36l-.81-2.92a1.48,1.48,0,1,1,2.86-.8h0v0l.79,2.86v0a1.48,1.48,0,0,1-2.86.8Z"></path><path class="cls-27" d="M158.61,381.59l-.63-3a1.49,1.49,0,1,1,2.92-.63h0v0l.62,2.9v0a1.49,1.49,0,0,1-2.92.63Z"></path><path class="cls-27" d="M156.71,371.68l-.46-3a1.5,1.5,0,1,1,3-.45h0v0l.44,2.94v0a1.5,1.5,0,1,1-3,.45Z"></path><path class="cls-27" d="M155.41,361.67l-.28-3a1.51,1.51,0,1,1,3-.27h0v0l.27,3v0a1.51,1.51,0,0,1-3,.27Z"></path><path class="cls-27" d="M154.71,351.6l-.1-3a1.52,1.52,0,0,1,3-.09h0v0l.09,3v0a1.52,1.52,0,1,1-3,.09Z"></path><path class="cls-27" d="M154.61,341.51l.08-3a1.53,1.53,0,0,1,3.06.09h0v0l-.09,3v0a1.53,1.53,0,1,1-3-.09Z"></path><path class="cls-27" d="M155.11,331.43l.27-3a1.54,1.54,0,0,1,3.06.28h0v0l-.26,3v0a1.53,1.53,0,1,1-3-.27Z"></path><path class="cls-27" d="M156.21,321.4l.45-3a1.54,1.54,0,1,1,3.05.46h0v0l-.45,2.94v0a1.54,1.54,0,0,1-3-.46Z"></path><path class="cls-27" d="M157.91,311.45l.63-3a1.55,1.55,0,1,1,3,.64h0v0l-.62,2.9v0a1.55,1.55,0,0,1-3-.64Z"></path><path class="cls-27" d="M160.21,301.61l.81-2.92a1.56,1.56,0,1,1,3,.84h0v0l-.8,2.86v0a1.56,1.56,0,1,1-3-.84Z"></path><path class="cls-27" d="M163.11,291.94l1-2.86a1.57,1.57,0,0,1,3,1h0v0l-1,2.81v0a1.57,1.57,0,0,1-3-1Z"></path><path class="cls-27" d="M166.61,282.48l1.17-2.8a1.58,1.58,0,0,1,2.91,1.22h0v0l-1.15,2.74v0a1.58,1.58,0,1,1-2.91-1.21Z"></path><path class="cls-27" d="M170.72,273.25l1.34-2.71A1.59,1.59,0,1,1,174.9,272h0v0l-1.32,2.65,0,0a1.58,1.58,0,0,1-2.83-1.41Z"></path><path class="cls-27" d="M175.41,264.31l1.53-2.62a1.6,1.6,0,0,1,2.76,1.61h0v0l-1.5,2.56v0a1.6,1.6,0,1,1-2.76-1.6Z"></path><path class="cls-27" d="M180.7,255.7l1.7-2.51a1.61,1.61,0,1,1,2.66,1.8h0l0,0-1.67,2.45,0,0a1.6,1.6,0,0,1-2.65-1.8Z"></path><path class="cls-27" d="M186.57,247.47l1.87-2.39a1.61,1.61,0,0,1,2.54,2h0l0,0-1.83,2.33,0,0a1.61,1.61,0,0,1-2.54-2Z"></path><path class="cls-27" d="M193,239.66l2-2.25a1.62,1.62,0,1,1,2.41,2.16h0l0,0-2,2.2,0,0a1.62,1.62,0,0,1-2.41-2.16Z"></path><path class="cls-27" d="M199.91,232.3l2.16-2.12a1.65,1.65,0,0,1,2.31,0,1.63,1.63,0,0,1,0,2.3h0l0,0-2.13,2.07,0,0a1.63,1.63,0,0,1-2.27-2.33Z"></path><path class="cls-27" d="M207.29,225.41l2.3-2a1.64,1.64,0,1,1,2.13,2.49h0l0,0-2.26,1.93,0,0a1.63,1.63,0,1,1-2.13-2.48Z"></path><path class="cls-27" d="M215.1,219l2.41-1.83a1.65,1.65,0,0,1,2,2.63h0l0,0-2.37,1.78,0,0a1.64,1.64,0,1,1-2-2.62Z"></path><path class="cls-27" d="M223.28,213.09l2.53-1.67a1.65,1.65,0,0,1,1.82,2.76h0l0,0-2.48,1.63,0,0a1.65,1.65,0,1,1-1.82-2.76Z"></path><path class="cls-27" d="M231.82,207.7l2.62-1.52a1.66,1.66,0,0,1,1.67,2.88h0l-2.58,1.49h0a1.66,1.66,0,1,1-1.66-2.87Z"></path><path class="cls-27" d="M240.67,202.82l2.71-1.35a1.67,1.67,0,1,1,1.5,3h0l0,0-2.66,1.32,0,0a1.67,1.67,0,1,1-1.49-3Z"></path><path class="cls-27" d="M249.8,198.49l2.79-1.19a1.68,1.68,0,0,1,1.32,3.08h0l0,0-2.74,1.16h0a1.67,1.67,0,1,1-1.31-3.08Z"></path><path class="cls-27" d="M259.16,194.71l2.86-1a1.69,1.69,0,0,1,1.14,3.18h0l-2.8,1h0a1.68,1.68,0,0,1-1.14-3.17Z"></path><path class="cls-27" d="M268.74,191.49l2.9-.86a1.7,1.7,0,1,1,1,3.26h0l-2.85.83h0a1.69,1.69,0,0,1-.95-3.25Z"></path><path class="cls-27" d="M278.49,188.84l2.95-.68a1.71,1.71,0,1,1,.77,3.33h0l-2.9.66h0a1.7,1.7,0,0,1-.75-3.32Z"></path><path class="cls-27" d="M288.38,186.79l3-.5a1.71,1.71,0,0,1,.57,3.38h0l-2.93.48h0a1.71,1.71,0,1,1-.56-3.38Z"></path><path class="cls-27" d="M298.39,185.34l3-.31a1.72,1.72,0,1,1,.36,3.42h0l-3,.3h0a1.72,1.72,0,1,1-.35-3.42Z"></path><path class="cls-27" d="M308.46,184.52l3-.13a1.73,1.73,0,0,1,.15,3.46h0l-3,.12h0a1.73,1.73,0,1,1-.13-3.45Z"></path><path class="cls-27" d="M318.56,184.33l3,.07a1.74,1.74,0,1,1-.08,3.47h0l-3-.07h0a1.74,1.74,0,0,1,.08-3.47Z"></path><path class="cls-27" d="M328.66,184.79l3,.26a1.75,1.75,0,1,1-.31,3.49h0l-2.95-.26h0a1.74,1.74,0,0,1,.31-3.47Z"></path><path class="cls-27" d="M338.71,185.91l3,.47a1.76,1.76,0,0,1-.55,3.47h0l-2.92-.46h0a1.76,1.76,0,0,1,.55-3.47Z"></path><path class="cls-27" d="M348.66,187.72l3,.67a1.76,1.76,0,0,1-.78,3.44h0l-2.89-.66h0a1.76,1.76,0,0,1,.78-3.43Z"></path><path class="cls-27" d="M358.47,190.16l2.91.85a1.77,1.77,0,0,1-1,3.4h0l-2.85-.83h0a1.77,1.77,0,1,1,1-3.4Z"></path><path class="cls-27" d="M368.1,193.17l2.86,1a1.78,1.78,0,1,1-1.18,3.36h0l-2.8-1h0a1.78,1.78,0,0,1,1.18-3.36Z"></path><path class="cls-27" d="M377.56,196.69l2.8,1.14a1.79,1.79,0,0,1-1.35,3.31h0L376.23,200h0a1.78,1.78,0,1,1,1.35-3.3Z"></path><path class="cls-27" d="M386.83,200.64l2.74,1.27a1.79,1.79,0,0,1-1.5,3.26h0l-2.71-1.25h0a1.8,1.8,0,0,1,1.51-3.26Z"></path><path class="cls-27" d="M395.92,205l2.69,1.36a1.8,1.8,0,0,1-1.63,3.22h0l-2.66-1.35h0a1.8,1.8,0,1,1,1.64-3.21Z"></path><path class="cls-27" d="M404.83,209.62l2.65,1.45a1.82,1.82,0,0,1-1.74,3.19h0l-2.61-1.44h0a1.81,1.81,0,0,1,1.74-3.18Z"></path><path class="cls-27" d="M413.6,214.53l2.61,1.51a1.82,1.82,0,1,1-1.83,3.15h0l-2.58-1.51h0a1.82,1.82,0,0,1,1.83-3.15Z"></path><path class="cls-27" d="M422.25,219.63l2.57,1.56a1.83,1.83,0,0,1-1.9,3.13h0l-2.56-1.56h0a1.83,1.83,0,0,1,1.9-3.13Z"></path><path class="cls-27" d="M430.79,224.88l2.55,1.6a1.84,1.84,0,0,1-2,3.12h0L428.84,228h0a1.84,1.84,0,0,1,2-3.11Z"></path><path class="cls-27" d="M439.26,230.23l2.53,1.62a1.85,1.85,0,0,1-2,3.11h0l-2.53-1.62a1.85,1.85,0,1,1,2-3.11Z"></path><path class="cls-27" d="M447.69,235.63l2.52,1.62a1.86,1.86,0,1,1-2,3.12h0l-2.52-1.62a1.86,1.86,0,1,1,2-3.12Z"></path><path class="cls-27" d="M456.1,241l2.52,1.62a1.86,1.86,0,1,1-2,3.14h0l-2.52-1.62a1.86,1.86,0,1,1,2-3.14Z"></path><path class="cls-27" d="M464.52,246.39l2.54,1.6h0a1.87,1.87,0,0,1-2,3.17h0l-2.55-1.6a1.87,1.87,0,0,1,2-3.17Z"></path><path class="cls-27" d="M473,251.67l2.55,1.56h0a1.88,1.88,0,0,1-2,3.2L471,254.87a1.88,1.88,0,0,1,2-3.21h0Z"></path><path class="cls-27" d="M481.52,256.82l2.58,1.52h0a1.87,1.87,0,0,1-1.89,3.23l-2.6-1.52a1.87,1.87,0,0,1,1.89-3.23h0Z"></path><path class="cls-27" d="M490.15,261.8l2.61,1.44h0a1.86,1.86,0,0,1-1.81,3.26l-2.64-1.46a1.86,1.86,0,1,1,1.81-3.26h0Z"></path><path class="cls-27" d="M498.89,266.54l2.65,1.37h0a1.86,1.86,0,0,1-1.71,3.31l-2.68-1.39a1.86,1.86,0,1,1,1.7-3.3h0Z"></path><path class="cls-27" d="M507.78,271l2.69,1.27h0a1.85,1.85,0,0,1-1.58,3.35l-2.73-1.28a1.86,1.86,0,0,1,1.58-3.36h0Z"></path><path class="cls-27" d="M516.81,275.1l2.74,1.16h0a1.84,1.84,0,1,1-1.43,3.4l-2.79-1.17a1.85,1.85,0,0,1,1.44-3.41h0Z"></path><path class="cls-27" d="M526,278.82l2.79,1h0a1.84,1.84,0,0,1-1.28,3.45l-2.84-1a1.84,1.84,0,1,1,1.28-3.46h0Z"></path><path class="cls-27" d="M535.36,282.12l2.83.92h0a1.84,1.84,0,0,1-1.12,3.5l-2.88-.93a1.83,1.83,0,1,1,1.12-3.49h0Z"></path><path class="cls-27" d="M544.85,285l2.87.8h0a1.83,1.83,0,0,1-1,3.53l-2.92-.8a1.83,1.83,0,1,1,1-3.53h0Z"></path><path class="cls-27" d="M554.45,287.53l2.9.67h0a1.82,1.82,0,0,1-.82,3.55l-2.95-.69a1.81,1.81,0,0,1-1.36-2.18,1.83,1.83,0,0,1,2.19-1.37h0Z"></path><path class="cls-27" d="M564.15,289.65l2.92.56h0a1.81,1.81,0,1,1-.68,3.56l-3-.57a1.82,1.82,0,0,1,.69-3.57h0Z"></path><path class="cls-27" d="M573.92,291.4l3,.46h0a1.81,1.81,0,0,1-.55,3.58l-3-.46a1.81,1.81,0,0,1,.55-3.58h0Z"></path><path class="cls-27" d="M583.76,292.8l3,.36h0a1.8,1.8,0,0,1-.43,3.58l-3-.36a1.8,1.8,0,0,1,.42-3.58h0Z"></path><path class="cls-27" d="M593.64,293.87l3,.25h0a1.8,1.8,0,1,1-.31,3.58l-3-.25a1.8,1.8,0,0,1,.3-3.59h0Z"></path><path class="cls-27" d="M603.56,294.61l3,.17h0a1.79,1.79,0,0,1-.19,3.57l-3-.16a1.79,1.79,0,1,1,.19-3.58h0Z"></path><path class="cls-27" d="M613.49,295.06l3,.07h0a1.79,1.79,0,1,1-.09,3.57l-3-.07a1.79,1.79,0,0,1,.09-3.57h0Z"></path><path class="cls-27" d="M623.44,295.22h3a1.78,1.78,0,0,1,0,3.56h-3a1.78,1.78,0,1,1,0-3.56h0Z"></path><path class="cls-27" d="M633.4,295.11l3-.08h0a1.77,1.77,0,0,1,.1,3.54l-3,.09a1.78,1.78,0,0,1-.1-3.55h0Z"></path><path class="cls-27" d="M643.35,294.76l3-.15h0a1.76,1.76,0,0,1,.18,3.52l-3,.16a1.77,1.77,0,1,1-.19-3.53h0Z"></path><path class="cls-27" d="M653.29,294.17l3-.22h0a1.76,1.76,0,1,1,.26,3.51l-3,.23a1.76,1.76,0,1,1-.26-3.52h0Z"></path><path class="cls-27" d="M663.22,293.37l3-.29h0a1.75,1.75,0,1,1,.33,3.49l-3,.29a1.75,1.75,0,0,1-.33-3.49h0Z"></path><path class="cls-27" d="M673.14,292.36l3-.34h0a1.75,1.75,0,0,1,.4,3.47l-3,.35a1.75,1.75,0,0,1-.41-3.48h0Z"></path><path class="cls-27" d="M683,291.16l3-.39h0a1.74,1.74,0,0,1,.46,3.45l-3,.4a1.75,1.75,0,0,1-.46-3.46h0Z"></path><path class="cls-27" d="M692.91,289.8l3-.44h0a1.72,1.72,0,1,1,.51,3.4l-3,.46a1.73,1.73,0,0,1-.53-3.42h0Z"></path><path class="cls-27" d="M702.77,288.28l3-.48h0a1.7,1.7,0,0,1,.56,3.36l-3,.5a1.71,1.71,0,0,1-.57-3.37Z"></path><path class="cls-27" d="M712.61,286.61l2.94-.53h0a1.68,1.68,0,1,1,.6,3.31l-3,.55a1.69,1.69,0,0,1-.61-3.33h0Z"></path><path class="cls-27" d="M722.41,284.79l2.94-.58h0a1.67,1.67,0,0,1,2,1.31,1.65,1.65,0,0,1-1.3,2l-3,.6a1.67,1.67,0,1,1-.66-3.28h0Z"></path><path class="cls-27" d="M732.18,282.79l2.92-.63h0a1.65,1.65,0,0,1,.71,3.22l-2.94.65a1.65,1.65,0,1,1-.72-3.22h0Z"></path><path class="cls-27" d="M741.9,280.6l2.91-.7h0a1.63,1.63,0,0,1,.76,3.17l-2.92.71a1.63,1.63,0,1,1-.78-3.17h0Z"></path><path class="cls-27" d="M751.57,278.2l2.88-.77h0a1.61,1.61,0,0,1,.83,3.11l-2.91.78a1.62,1.62,0,0,1-.84-3.12h0Z"></path><path class="cls-27" d="M761.17,275.56l2.86-.84h0a1.59,1.59,0,0,1,.9,3.05l-2.89.86a1.6,1.6,0,0,1-.91-3.06h0Z"></path><path class="cls-27" d="M770.69,272.66l2.84-.92h0a1.57,1.57,0,1,1,1,3l-2.86.94a1.56,1.56,0,0,1-2-1,1.58,1.58,0,0,1,1-2h0Z"></path><path class="cls-27" d="M780.13,269.49l2.8-1h0a1.55,1.55,0,1,1,1,2.92l-2.83,1a1.56,1.56,0,1,1-1.06-2.93h0Z"></path><path class="cls-27" d="M789.45,266l2.77-1.1h0a1.54,1.54,0,0,1,1.14,2.86l-2.8,1.12a1.54,1.54,0,1,1-1.15-2.86h0Z"></path><path class="cls-27" d="M798.65,262.22l2.72-1.2h0a1.52,1.52,0,1,1,1.23,2.77L799.86,265a1.51,1.51,0,0,1-2-.77,1.53,1.53,0,0,1,.77-2h0Z"></path><path class="cls-27" d="M807.69,258.1l2.68-1.31h0a1.5,1.5,0,1,1,1.32,2.69L809,260.81a1.5,1.5,0,1,1-1.32-2.7h0Z"></path><path class="cls-27" d="M816.56,253.62l2.62-1.41h0a1.48,1.48,0,1,1,1.4,2.6L818,256.24a1.49,1.49,0,1,1-1.42-2.61h0Z"></path><path class="cls-27" d="M825.23,248.78l2.56-1.53h0a1.46,1.46,0,0,1,2,.51,1.45,1.45,0,0,1-.5,2l-2.58,1.55a1.46,1.46,0,0,1-1.51-2.51h0Z"></path><path class="cls-27" d="M833.68,243.56l2.48-1.65h0a1.44,1.44,0,0,1,1.59,2.4L835.26,246a1.45,1.45,0,1,1-1.61-2.41h0Z"></path><path class="cls-27" d="M841.86,237.94l2.39-1.77h0a1.41,1.41,0,0,1,1.68,2.26l-2.42,1.81a1.42,1.42,0,1,1-1.7-2.27h0Z"></path><path class="cls-27" d="M849.74,231.91,852,230l0,0a1.38,1.38,0,0,1,1.75,2.13l-2.32,1.93a1.39,1.39,0,0,1-1.77-2.14h0Z"></path><path class="cls-27" d="M857.3,225.47l2.2-2h0a1.34,1.34,0,1,1,1.82,2l-2.22,2.06a1.36,1.36,0,0,1-1.84-2h0Z"></path><path class="cls-27" d="M864.5,218.64l2.09-2.13h0a1.31,1.31,0,0,1,1.88,1.83l-2.1,2.17a1.32,1.32,0,0,1-1.9-1.84h0Z"></path><path class="cls-27" d="M871.32,211.43l2-2.24v0a1.28,1.28,0,0,1,1.93,1.68l-2,2.29a1.29,1.29,0,0,1-2-1.69h0Z"></path><path class="cls-27" d="M877.72,203.84l1.84-2.35v0a1.25,1.25,0,0,1,2,1.53l-1.85,2.39a1.26,1.26,0,0,1-2-1.53h0Z"></path><path class="cls-27" d="M883.67,195.89l1.68-2.45,0,0a1.21,1.21,0,0,1,2,1.36l-1.7,2.51a1.22,1.22,0,0,1-2-1.37h0Z"></path><path class="cls-27" d="M889.11,187.59l1.53-2.55v0a1.17,1.17,0,0,1,2,1.2l-1.53,2.61a1.19,1.19,0,0,1-2-1.21h0Z"></path><path class="cls-27" d="M894,179l1.35-2.65v0a1.14,1.14,0,0,1,2,1l-1.35,2.7a1.16,1.16,0,0,1-2.07-1h0Z"></path><path class="cls-27" d="M898.31,170l1.16-2.73v0a1.11,1.11,0,0,1,2,.86l-1.16,2.79a1.12,1.12,0,1,1-2.07-.87h0Z"></path><path class="cls-27" d="M902,160.81l1-2.82v0a1.08,1.08,0,0,1,2,.69l-1,2.87a1.09,1.09,0,0,1-2.07-.69h0Z"></path><path class="cls-27" d="M904.93,151.34l.74-2.88v0a1,1,0,0,1,1.27-.75,1.05,1.05,0,0,1,.76,1.27l-.74,2.93a1.06,1.06,0,1,1-2.05-.51h0Z"></path><path class="cls-27" d="M907.15,141.68l.52-2.93v0a1,1,0,0,1,2,.34l-.5,3a1,1,0,1,1-2-.34h0Z"></path></g></g></svg>