<svg xmlns="http://www.w3.org/2000/svg" xmlns:xlink="http://www.w3.org/1999/xlink" viewBox="0 0 1030.52 643.42"><defs><style>.cls-1,.cls-15,.cls-2,.cls-3,.cls-60,.cls-61{opacity:0.5;}.cls-1{fill:url(#linear-gradient);}.cls-2{fill:url(#linear-gradient-2);}.cls-4{fill:url(#linear-gradient-3);}.cls-5{fill:url(#linear-gradient-4);}.cls-11,.cls-14,.cls-15,.cls-43,.cls-52,.cls-54,.cls-6{fill:#fff;}.cls-6{opacity:0.47;}.cls-7{fill:url(#linear-gradient-5);}.cls-8{fill:url(#linear-gradient-6);}.cls-9{fill:url(#linear-gradient-7);}.cls-10{fill:url(#linear-gradient-8);}.cls-11{opacity:0.33;}.cls-12{fill:url(#linear-gradient-9);}.cls-13{fill:url(#linear-gradient-10);}.cls-14{opacity:0.57;}.cls-16{fill:url(#linear-gradient-11);}.cls-17{fill:url(#linear-gradient-12);}.cls-18{fill:url(#linear-gradient-13);}.cls-19{fill:url(#linear-gradient-14);}.cls-20{fill:url(#linear-gradient-15);}.cls-21{fill:url(#linear-gradient-16);}.cls-22{fill:url(#linear-gradient-17);}.cls-23{fill:url(#linear-gradient-18);}.cls-24{fill:url(#linear-gradient-19);}.cls-25{fill:url(#linear-gradient-20);}.cls-26{fill:url(#linear-gradient-21);}.cls-27{fill:url(#linear-gradient-22);}.cls-28{fill:url(#linear-gradient-23);}.cls-29{fill:url(#linear-gradient-24);}.cls-30{fill:url(#linear-gradient-25);}.cls-31{fill:url(#linear-gradient-26);}.cls-32{fill:url(#linear-gradient-27);}.cls-33{fill:url(#linear-gradient-28);}.cls-34{fill:url(#linear-gradient-29);}.cls-35{fill:url(#linear-gradient-30);}.cls-36{fill:url(#linear-gradient-31);}.cls-37{fill:url(#linear-gradient-32);}.cls-38{fill:url(#linear-gradient-33);}.cls-39{fill:url(#linear-gradient-34);}.cls-40{fill:url(#linear-gradient-35);}.cls-41{fill:url(#linear-gradient-36);}.cls-42{fill:url(#linear-gradient-37);}.cls-44{fill:url(#linear-gradient-38);}.cls-45{fill:url(#linear-gradient-39);}.cls-46{fill:url(#linear-gradient-40);}.cls-47{fill:url(#linear-gradient-41);}.cls-48{fill:url(#linear-gradient-42);}.cls-49{fill:url(#linear-gradient-43);}.cls-50{fill:url(#linear-gradient-44);}.cls-51{fill:url(#linear-gradient-45);}.cls-52{opacity:0.6;}.cls-53{fill:url(#linear-gradient-46);}.cls-54{opacity:0.78;}.cls-55{fill:url(#linear-gradient-47);}.cls-56{fill:url(#linear-gradient-48);}.cls-57{fill:url(#linear-gradient-49);}.cls-58{fill:url(#linear-gradient-50);}.cls-59{fill:url(#linear-gradient-51);}.cls-60{fill:url(#linear-gradient-52);}.cls-61{fill:url(#linear-gradient-53);}.cls-62{fill:url(#linear-gradient-54);}.cls-63{fill:url(#linear-gradient-55);}.cls-64{fill:url(#linear-gradient-56);}.cls-65{fill:url(#linear-gradient-57);}.cls-66{fill:url(#linear-gradient-58);}.cls-67{fill:#f79e6d;}.cls-68{fill:url(#linear-gradient-59);}.cls-69{fill:url(#linear-gradient-60);}.cls-70{fill:url(#linear-gradient-61);}.cls-71{fill:url(#linear-gradient-62);}.cls-72{fill:url(#linear-gradient-63);}.cls-73{fill:url(#linear-gradient-64);}.cls-74{fill:url(#linear-gradient-65);}.cls-75{fill:url(#linear-gradient-66);}.cls-76{fill:url(#linear-gradient-67);}.cls-77{fill:url(#linear-gradient-68);}.cls-78{fill:url(#linear-gradient-69);}.cls-79{fill:url(#linear-gradient-70);}.cls-80{fill:url(#linear-gradient-71);}.cls-81{fill:url(#linear-gradient-72);}.cls-82{fill:url(#linear-gradient-73);}.cls-83{fill:url(#linear-gradient-74);}.cls-84{fill:url(#linear-gradient-75);}.cls-85{fill:url(#linear-gradient-76);}.cls-86{fill:url(#linear-gradient-77);}.cls-87{fill:url(#linear-gradient-78);}.cls-88{fill:url(#linear-gradient-79);}.cls-89{fill:url(#linear-gradient-80);}.cls-90{fill:url(#linear-gradient-81);}.cls-91{fill:url(#linear-gradient-82);}.cls-92{fill:url(#linear-gradient-83);}.cls-93{fill:url(#linear-gradient-84);}.cls-94{fill:url(#linear-gradient-85);}.cls-95{fill:url(#linear-gradient-86);}.cls-96{fill:url(#linear-gradient-87);}.cls-97{fill:url(#linear-gradient-88);}.cls-98{fill:url(#linear-gradient-89);}.cls-99{fill:url(#linear-gradient-90);}.cls-100{fill:url(#linear-gradient-91);}.cls-101{fill:url(#linear-gradient-92);}.cls-102{fill:url(#linear-gradient-93);}.cls-103{fill:url(#linear-gradient-94);}.cls-104{fill:url(#linear-gradient-95);}.cls-105{fill:url(#linear-gradient-96);}.cls-106{fill:url(#linear-gradient-97);}.cls-107{fill:url(#linear-gradient-98);}.cls-108{fill:url(#linear-gradient-99);}.cls-109{fill:url(#linear-gradient-100);}.cls-110{fill:url(#linear-gradient-101);}.cls-111{fill:url(#linear-gradient-102);}.cls-112{fill:url(#linear-gradient-103);}.cls-113{fill:url(#linear-gradient-104);}.cls-114{fill:url(#linear-gradient-105);}.cls-115{fill:url(#linear-gradient-106);}.cls-116{fill:url(#linear-gradient-107);}.cls-117{fill:url(#linear-gradient-108);}.cls-118{fill:url(#linear-gradient-109);}.cls-119{fill:url(#linear-gradient-110);}.cls-120{fill:url(#linear-gradient-111);}.cls-121{fill:url(#linear-gradient-112);}.cls-122{fill:url(#linear-gradient-113);}.cls-123{fill:url(#linear-gradient-114);}.cls-124{fill:url(#linear-gradient-115);}.cls-125{fill:url(#linear-gradient-116);}.cls-126{fill:url(#linear-gradient-117);}.cls-127{fill:#eac4f9;}.cls-128{fill:url(#linear-gradient-118);}.cls-129{fill:#91236d;}.cls-130{fill:url(#linear-gradient-119);}.cls-131{fill:url(#linear-gradient-120);}.cls-132{fill:url(#linear-gradient-121);}.cls-133{fill:url(#linear-gradient-122);}.cls-134{fill:url(#linear-gradient-123);}.cls-135{fill:url(#linear-gradient-124);}.cls-136{fill:url(#linear-gradient-125);}.cls-137{fill:url(#linear-gradient-126);}</style><linearGradient id="linear-gradient" x1="5.87" y1="347.1" x2="1044.55" y2="347.1" gradientTransform="matrix(0.99, -0.01, 0.01, 1.02, -10.09, -30.16)" gradientUnits="userSpaceOnUse"><stop offset="0" stop-color="#b37cff"></stop><stop offset="1" stop-color="#f895e7"></stop></linearGradient><linearGradient id="linear-gradient-2" x1="30.67" y1="329.06" x2="1020.71" y2="329.06" gradientTransform="matrix(0.99, -0.01, 0.01, 0.99, -10.18, 18.76)" xlink:href="#linear-gradient"></linearGradient><linearGradient id="linear-gradient-3" x1="838.93" y1="522.09" x2="985.1" y2="180.07" gradientTransform="translate(-74.55 -172.22) rotate(10.02)" gradientUnits="userSpaceOnUse"><stop offset="0" stop-color="#a737d5"></stop><stop offset="1" stop-color="#ef497a"></stop></linearGradient><linearGradient id="linear-gradient-4" x1="1047.53" y1="399.33" x2="887.17" y2="627.82" gradientTransform="translate(-74.55 -172.22) rotate(10.02)" gradientUnits="userSpaceOnUse"><stop offset="0" stop-color="#cb236d"></stop><stop offset="1" stop-color="#4c246d"></stop></linearGradient><linearGradient id="linear-gradient-5" x1="91.3" y1="555.78" x2="372.96" y2="686.75" gradientTransform="matrix(1, 0, 0, 1, 0, 0)" xlink:href="#linear-gradient-3"></linearGradient><linearGradient id="linear-gradient-6" x1="104.28" y1="470.12" x2="234.16" y2="470.12" gradientTransform="matrix(1, 0, 0, 1, 0, 0)" xlink:href="#linear-gradient-4"></linearGradient><linearGradient id="linear-gradient-7" x1="113.83" y1="315.55" x2="503.93" y2="657.77" gradientTransform="matrix(1, 0, 0, 1, 0, 0)" xlink:href="#linear-gradient-3"></linearGradient><linearGradient id="linear-gradient-8" x1="269.18" y1="-60.13" x2="283.27" y2="282.08" gradientTransform="matrix(1, 0, 0, 1, 0, 0)" xlink:href="#linear-gradient-4"></linearGradient><linearGradient id="linear-gradient-9" x1="673.1" y1="33.19" x2="611.43" y2="243.89" gradientUnits="userSpaceOnUse"><stop offset="0" stop-color="#fdf53f"></stop><stop offset="1" stop-color="#d93c65"></stop></linearGradient><linearGradient id="linear-gradient-10" x1="669.61" y1="21.76" x2="555.86" y2="207.44" xlink:href="#linear-gradient-9"></linearGradient><linearGradient id="linear-gradient-11" x1="755.97" y1="33.19" x2="694.3" y2="243.89" xlink:href="#linear-gradient-9"></linearGradient><linearGradient id="linear-gradient-12" x1="752.48" y1="21.76" x2="638.73" y2="207.44" xlink:href="#linear-gradient-9"></linearGradient><linearGradient id="linear-gradient-13" x1="721.56" y1="138.63" x2="629.12" y2="218.37" gradientUnits="userSpaceOnUse"><stop offset="0" stop-color="#53d8ff"></stop><stop offset="1" stop-color="#3840f7"></stop></linearGradient><linearGradient id="linear-gradient-14" x1="-68.81" y1="402.84" x2="70.71" y2="402.84" gradientTransform="translate(282.45 -90.32) rotate(-7.11)" gradientUnits="userSpaceOnUse"><stop offset="0" stop-color="#2b3582"></stop><stop offset="1" stop-color="#150e42"></stop></linearGradient><linearGradient id="linear-gradient-15" x1="-68.81" y1="399.74" x2="-39.87" y2="399.74" xlink:href="#linear-gradient-14"></linearGradient><linearGradient id="linear-gradient-16" x1="10573.17" y1="609.12" x2="10601.12" y2="433.3" gradientTransform="matrix(1, 0, 0, -1, -10170.39, 1091.23)" xlink:href="#linear-gradient-4"></linearGradient><linearGradient id="linear-gradient-17" x1="10584.15" y1="610.52" x2="10612.69" y2="431.03" gradientTransform="matrix(1, 0, 0, -1, -10170.39, 1228.06)" xlink:href="#linear-gradient-4"></linearGradient><linearGradient id="linear-gradient-18" x1="10561.5" y1="615.74" x2="10591.21" y2="428.89" gradientTransform="matrix(-1, 0, 0, 1, 10996.15, 0)" xlink:href="#linear-gradient-9"></linearGradient><linearGradient id="linear-gradient-19" x1="472.97" y1="581.8" x2="495.71" y2="581.8" gradientUnits="userSpaceOnUse"><stop offset="0" stop-color="#f9b776"></stop><stop offset="1" stop-color="#f47960"></stop></linearGradient><linearGradient id="linear-gradient-20" x1="441.5" y1="521.63" x2="538.14" y2="386.18" gradientUnits="userSpaceOnUse"><stop offset="0" stop-color="#2b3582"></stop><stop offset="0.23" stop-color="#252a70"></stop><stop offset="0.73" stop-color="#19164f"></stop><stop offset="1" stop-color="#150e42"></stop></linearGradient><linearGradient id="linear-gradient-21" x1="456.53" y1="602.79" x2="477.87" y2="602.79" xlink:href="#linear-gradient-19"></linearGradient><linearGradient id="linear-gradient-22" x1="406.67" y1="589.13" x2="411.99" y2="408.02" gradientTransform="matrix(1, 0, 0, 1, 0, 0)" xlink:href="#linear-gradient-14"></linearGradient><linearGradient id="linear-gradient-23" x1="538.7" y1="413" x2="486.2" y2="330.82" xlink:href="#linear-gradient-9"></linearGradient><linearGradient id="linear-gradient-24" x1="521.74" y1="356.67" x2="596.19" y2="356.67" xlink:href="#linear-gradient-19"></linearGradient><linearGradient id="linear-gradient-25" x1="487.4" y1="267.51" x2="320" y2="389.26" xlink:href="#linear-gradient-9"></linearGradient><linearGradient id="linear-gradient-26" x1="450.7" y1="246.79" x2="500.1" y2="246.79" xlink:href="#linear-gradient-19"></linearGradient><linearGradient id="linear-gradient-27" x1="463.4" y1="234.5" x2="295.99" y2="356.25" xlink:href="#linear-gradient-9"></linearGradient><linearGradient id="linear-gradient-28" x1="343.33" y1="310.25" x2="489.43" y2="301.88" xlink:href="#linear-gradient-9"></linearGradient><linearGradient id="linear-gradient-29" x1="417.02" y1="357.57" x2="227.9" y2="686.2" xlink:href="#linear-gradient-19"></linearGradient><linearGradient id="linear-gradient-30" x1="830" y1="-1072.31" x2="768.25" y2="-990.62" gradientTransform="translate(-30.55 1436.79) rotate(-14.47)" xlink:href="#linear-gradient-19"></linearGradient><linearGradient id="linear-gradient-31" x1="782.84" y1="-1052.61" x2="856.6" y2="-1052.61" gradientTransform="translate(-30.55 1436.79) rotate(-14.47)" xlink:href="#linear-gradient-14"></linearGradient><linearGradient id="linear-gradient-32" x1="739.56" y1="-1007.62" x2="789.09" y2="-1058.43" gradientTransform="translate(-30.55 1436.79) rotate(-14.47)" xlink:href="#linear-gradient-19"></linearGradient><linearGradient id="linear-gradient-33" x1="10484.97" y1="995.86" x2="10388.14" y2="1022.4" gradientTransform="matrix(-1, -0.05, -0.05, 1, 10963.48, -123.06)" xlink:href="#linear-gradient-14"></linearGradient><linearGradient id="linear-gradient-34" x1="10423.19" y1="291.09" x2="10354.48" y2="363.71" gradientTransform="matrix(-1, 0, 0, 1, 10996.15, 0)" xlink:href="#linear-gradient-14"></linearGradient><linearGradient id="linear-gradient-35" x1="10381.65" y1="309.17" x2="10350.47" y2="356.12" gradientTransform="matrix(-1, 0, 0, 1, 10996.15, 0)" xlink:href="#linear-gradient-13"></linearGradient><linearGradient id="linear-gradient-36" x1="8859.13" y1="338.93" x2="8797.15" y2="379.11" gradientTransform="matrix(-1, 0, 0, 1, 9182.83, 0)" xlink:href="#linear-gradient-13"></linearGradient><linearGradient id="linear-gradient-37" x1="334.05" y1="344.55" x2="351.39" y2="331.7" xlink:href="#linear-gradient-13"></linearGradient><linearGradient id="linear-gradient-38" x1="273.26" y1="350.06" x2="367.22" y2="375.36" gradientTransform="matrix(1, 0, 0, 1, 0, 0)" xlink:href="#linear-gradient-3"></linearGradient><linearGradient id="linear-gradient-39" x1="715.26" y1="518.71" x2="218.26" y2="518.71" xlink:href="#linear-gradient-13"></linearGradient><linearGradient id="linear-gradient-40" x1="715.26" y1="518.71" x2="390.26" y2="518.71" xlink:href="#linear-gradient-13"></linearGradient><linearGradient id="linear-gradient-41" x1="10264.37" y1="397.5" x2="10780.41" y2="397.5" gradientTransform="matrix(-1, 0, 0, 1, 10996.15, 0)" xlink:href="#linear-gradient-13"></linearGradient><linearGradient id="linear-gradient-42" x1="375.03" y1="396.24" x2="196.45" y2="396.24" xlink:href="#linear-gradient-13"></linearGradient><linearGradient id="linear-gradient-43" x1="8317.73" y1="482.88" x2="8145.15" y2="594.75" gradientTransform="matrix(-1, 0, 0, 1, 9182.83, 0)" xlink:href="#linear-gradient-13"></linearGradient><linearGradient id="linear-gradient-44" x1="768.76" y1="479.48" x2="1037.86" y2="523.93" xlink:href="#linear-gradient-13"></linearGradient><linearGradient id="linear-gradient-45" x1="2801.71" y1="2302.07" x2="2785.21" y2="2336.57" gradientTransform="matrix(-1, 0, 0, 1, 4439.27, 0)" xlink:href="#linear-gradient-14"></linearGradient><linearGradient id="linear-gradient-46" x1="-6275.41" y1="447.34" x2="-6532.09" y2="608.97" gradientTransform="matrix(-1, 0, 0, 1, -5576.73, 0)" xlink:href="#linear-gradient"></linearGradient><linearGradient id="linear-gradient-47" x1="-6574.93" y1="550.06" x2="-6294.89" y2="550.06" gradientTransform="matrix(-1, 0, 0, 1, -5576.73, 0)" xlink:href="#linear-gradient-3"></linearGradient><linearGradient id="linear-gradient-48" x1="7133.17" y1="-3634.49" x2="7049.73" y2="-3685.06" gradientTransform="matrix(0.97, -0.22, 0.03, 0.93, -6055.57, 5013.98)" xlink:href="#linear-gradient-13"></linearGradient><linearGradient id="linear-gradient-49" x1="7085.39" y1="-3668.94" x2="6984.16" y2="-3696.07" gradientTransform="matrix(0.97, -0.22, 0.03, 0.93, -6055.57, 5013.98)" xlink:href="#linear-gradient-13"></linearGradient><linearGradient id="linear-gradient-50" x1="7126.95" y1="-3633.44" x2="7048.01" y2="-3681.29" gradientTransform="matrix(0.97, -0.22, 0.03, 0.93, -6055.57, 5013.98)" xlink:href="#linear-gradient-13"></linearGradient><linearGradient id="linear-gradient-51" x1="-10270.8" y1="-3253.53" x2="-10234.29" y2="-3264.1" gradientTransform="matrix(-0.97, 0.22, 0.22, 0.97, -8537.22, 5498.8)" xlink:href="#linear-gradient-13"></linearGradient><linearGradient id="linear-gradient-52" x1="298.88" y1="248.3" x2="431.35" y2="275.32" gradientTransform="matrix(0.94, 0.01, -0.01, 0.81, 48.08, -159.61)" xlink:href="#linear-gradient"></linearGradient><linearGradient id="linear-gradient-53" x1="442.06" y1="296.25" x2="515.27" y2="311.19" gradientTransform="matrix(0.94, 0.01, -0.01, 0.81, 48.08, -159.61)" xlink:href="#linear-gradient"></linearGradient><linearGradient id="linear-gradient-54" x1="945.11" y1="79.42" x2="881.22" y2="197.26" xlink:href="#linear-gradient-9"></linearGradient><linearGradient id="linear-gradient-55" x1="884.45" y1="121.62" x2="837.76" y2="207.74" xlink:href="#linear-gradient-9"></linearGradient><linearGradient id="linear-gradient-56" x1="639.93" y1="482.98" x2="563.9" y2="441.08" gradientTransform="matrix(1, 0, 0, 1, 0, 0)" xlink:href="#linear-gradient-4"></linearGradient><linearGradient id="linear-gradient-57" x1="679.56" y1="474.33" x2="585.93" y2="519.68" xlink:href="#linear-gradient-19"></linearGradient><linearGradient id="linear-gradient-58" x1="680" y1="475.25" x2="586.37" y2="520.61" xlink:href="#linear-gradient-19"></linearGradient><linearGradient id="linear-gradient-59" x1="488.17" y1="622.59" x2="502.83" y2="622.59" xlink:href="#linear-gradient-13"></linearGradient><linearGradient id="linear-gradient-60" x1="489.63" y1="621.67" x2="505.23" y2="621.67" gradientTransform="matrix(1, 0, 0, 1, 0, 0)" xlink:href="#linear-gradient-14"></linearGradient><linearGradient id="linear-gradient-61" x1="497.42" y1="605.9" x2="508.89" y2="605.9" xlink:href="#linear-gradient-19"></linearGradient><linearGradient id="linear-gradient-62" x1="439.32" y1="112.87" x2="461.3" y2="112.87" gradientTransform="translate(270.24 348.12) rotate(14.82)" xlink:href="#linear-gradient-13"></linearGradient><linearGradient id="linear-gradient-63" x1="433.85" y1="112.67" x2="460.34" y2="112.67" gradientTransform="translate(270.24 348.12) rotate(14.82)" xlink:href="#linear-gradient-14"></linearGradient><linearGradient id="linear-gradient-64" x1="652.46" y1="568.99" x2="665.06" y2="568.99" xlink:href="#linear-gradient-19"></linearGradient><linearGradient id="linear-gradient-65" x1="501.13" y1="563.94" x2="586.04" y2="563.94" gradientTransform="matrix(1, 0, 0, 1, 0, 0)" xlink:href="#linear-gradient-14"></linearGradient><linearGradient id="linear-gradient-66" x1="563.38" y1="558.65" x2="644.17" y2="530.1" gradientTransform="matrix(1, 0, 0, 1, 0, 0)" xlink:href="#linear-gradient-14"></linearGradient><linearGradient id="linear-gradient-67" x1="590.76" y1="461.6" x2="521.65" y2="571.75" gradientTransform="matrix(1, 0, 0, 1, 0, 0)" xlink:href="#linear-gradient-4"></linearGradient><linearGradient id="linear-gradient-68" x1="563.36" y1="504.94" x2="507.63" y2="406.45" xlink:href="#linear-gradient-19"></linearGradient><linearGradient id="linear-gradient-69" x1="574" y1="466.1" x2="583.12" y2="466.1" gradientTransform="matrix(1, 0, 0, 1, 0, 0)" xlink:href="#linear-gradient-4"></linearGradient><linearGradient id="linear-gradient-70" x1="598.59" y1="462.79" x2="604.42" y2="446.16" xlink:href="#linear-gradient-19"></linearGradient><linearGradient id="linear-gradient-71" x1="615.19" y1="428.51" x2="589.61" y2="448.09" xlink:href="#linear-gradient-19"></linearGradient><linearGradient id="linear-gradient-72" x1="597.18" y1="413" x2="621.01" y2="443.69" gradientTransform="matrix(1, 0, 0, 1, 0, 0)" xlink:href="#linear-gradient-14"></linearGradient><linearGradient id="linear-gradient-73" x1="612.02" y1="424.36" x2="586.43" y2="443.94" xlink:href="#linear-gradient-19"></linearGradient><linearGradient id="linear-gradient-74" x1="687.82" y1="471.88" x2="664.87" y2="483" xlink:href="#linear-gradient-19"></linearGradient><linearGradient id="linear-gradient-75" x1="908.76" y1="274.47" x2="780.76" y2="407.1" xlink:href="#linear-gradient-19"></linearGradient><linearGradient id="linear-gradient-76" x1="888.74" y1="265.33" x2="817.58" y2="366.38" xlink:href="#linear-gradient-9"></linearGradient><linearGradient id="linear-gradient-77" x1="16115.24" y1="-126.9" x2="16146.39" y2="-126.9" gradientTransform="translate(-14698.2 4802.2) rotate(-15.13)" xlink:href="#linear-gradient-14"></linearGradient><linearGradient id="linear-gradient-78" x1="16115.24" y1="-121.3" x2="16146.39" y2="-121.3" gradientTransform="translate(-14698.2 4802.2) rotate(-15.13)" xlink:href="#linear-gradient-13"></linearGradient><linearGradient id="linear-gradient-79" x1="15733.48" y1="-1418.02" x2="15742.49" y2="-1418.02" gradientTransform="translate(-14889.58 2061.6) rotate(-0.66)" xlink:href="#linear-gradient-19"></linearGradient><linearGradient id="linear-gradient-80" x1="15527.96" y1="460.35" x2="15559.1" y2="460.35" gradientTransform="matrix(1, 0.01, -0.01, 1, -14783.47, -28.42)" xlink:href="#linear-gradient-14"></linearGradient><linearGradient id="linear-gradient-81" x1="15527.96" y1="465.9" x2="15559.1" y2="465.9" gradientTransform="matrix(1, 0.01, -0.01, 1, -14783.47, -28.42)" xlink:href="#linear-gradient-13"></linearGradient><linearGradient id="linear-gradient-82" x1="15531.6" y1="450.99" x2="15541.52" y2="450.99" gradientTransform="matrix(1, 0.01, -0.01, 1, -14783.47, -28.42)" xlink:href="#linear-gradient-19"></linearGradient><linearGradient id="linear-gradient-83" x1="-6365.88" y1="395.51" x2="-6474.54" y2="507.62" gradientTransform="matrix(-1, 0, 0, 1, -5622.91, 0)" xlink:href="#linear-gradient-4"></linearGradient><linearGradient id="linear-gradient-84" x1="15605.08" y1="387.01" x2="15572.79" y2="428.75" gradientTransform="translate(-14789.81)" xlink:href="#linear-gradient-4"></linearGradient><linearGradient id="linear-gradient-85" x1="848.59" y1="288.46" x2="745.43" y2="427.7" xlink:href="#linear-gradient-9"></linearGradient><linearGradient id="linear-gradient-86" x1="15608.2" y1="317.99" x2="15611.81" y2="295.72" gradientTransform="translate(-14789.81)" xlink:href="#linear-gradient-19"></linearGradient><linearGradient id="linear-gradient-87" x1="808.36" y1="359.04" x2="748.69" y2="425.65" xlink:href="#linear-gradient-19"></linearGradient><linearGradient id="linear-gradient-88" x1="826.91" y1="272.4" x2="723.76" y2="411.64" xlink:href="#linear-gradient-9"></linearGradient><linearGradient id="linear-gradient-89" x1="795.07" y1="347.13" x2="735.4" y2="413.75" xlink:href="#linear-gradient-19"></linearGradient><linearGradient id="linear-gradient-90" x1="-6045.8" y1="926.89" x2="-6173.8" y2="1059.52" gradientTransform="matrix(-0.98, -0.21, -0.21, 0.98, -3887.39, -430.02)" xlink:href="#linear-gradient-19"></linearGradient><linearGradient id="linear-gradient-91" x1="907.24" y1="280" x2="915.64" y2="280" xlink:href="#linear-gradient-19"></linearGradient><linearGradient id="linear-gradient-92" x1="129.28" y1="-1046.57" x2="101.74" y2="-1010.13" gradientTransform="translate(1328.8 1197.24) rotate(-35.45)" xlink:href="#linear-gradient-19"></linearGradient><linearGradient id="linear-gradient-93" x1="108.25" y1="-1037.78" x2="141.15" y2="-1037.78" gradientTransform="translate(1328.8 1197.24) rotate(-35.45)" xlink:href="#linear-gradient-14"></linearGradient><linearGradient id="linear-gradient-94" x1="88.94" y1="-1017.71" x2="111.03" y2="-1040.38" gradientTransform="translate(1328.8 1197.24) rotate(-35.45)" xlink:href="#linear-gradient-19"></linearGradient><linearGradient id="linear-gradient-95" x1="898.24" y1="283.78" x2="971.24" y2="183.78" xlink:href="#linear-gradient-9"></linearGradient><linearGradient id="linear-gradient-96" x1="872.44" y1="264.95" x2="945.45" y2="164.94" xlink:href="#linear-gradient-9"></linearGradient><linearGradient id="linear-gradient-97" x1="908.73" y1="295.91" x2="906.01" y2="340.54" xlink:href="#linear-gradient-9"></linearGradient><linearGradient id="linear-gradient-98" x1="928.69" y1="278.02" x2="872.55" y2="339.34" xlink:href="#linear-gradient-9"></linearGradient><linearGradient id="linear-gradient-99" x1="956.99" y1="129.61" x2="798.27" y2="340.94" xlink:href="#linear-gradient-9"></linearGradient><linearGradient id="linear-gradient-100" x1="958.64" y1="228.96" x2="884.01" y2="322.34" xlink:href="#linear-gradient-9"></linearGradient><linearGradient id="linear-gradient-101" x1="6642.18" y1="228.96" x2="6567.55" y2="322.34" gradientTransform="matrix(-1, 0, 0, 1, 7500.72, 0)" xlink:href="#linear-gradient-9"></linearGradient><linearGradient id="linear-gradient-102" x1="2019.37" y1="-390.78" x2="1996.42" y2="-379.67" gradientTransform="translate(-1052.25 -291.11) rotate(27.21)" xlink:href="#linear-gradient-19"></linearGradient><linearGradient id="linear-gradient-103" x1="-4256.49" y1="393.29" x2="-4241.26" y2="431.49" gradientTransform="matrix(-1, 0, 0, 1, -3844.91, 0)" xlink:href="#linear-gradient-14"></linearGradient><linearGradient id="linear-gradient-104" x1="-4416.96" y1="-79.57" x2="-4388.83" y2="-15.56" gradientTransform="matrix(-0.98, -0.21, -0.21, 0.98, -3887.39, -430.02)" xlink:href="#linear-gradient-19"></linearGradient><linearGradient id="linear-gradient-105" x1="-4200.82" y1="637.85" x2="-4187.91" y2="637.85" gradientTransform="matrix(-1, 0, 0, 1, -3844.91, 0)" xlink:href="#linear-gradient-3"></linearGradient><linearGradient id="linear-gradient-106" x1="-4255.38" y1="688.77" x2="-4236.8" y2="471.59" gradientTransform="matrix(-1, 0, 0, 1, -3844.91, 0)" xlink:href="#linear-gradient-19"></linearGradient><linearGradient id="linear-gradient-107" x1="-4260.81" y1="635.49" x2="-4239.92" y2="635.49" gradientTransform="matrix(-1, 0, 0, 1, -3844.91, 0)" xlink:href="#linear-gradient-3"></linearGradient><linearGradient id="linear-gradient-108" x1="-4218" y1="692" x2="-4199.42" y2="474.76" gradientTransform="matrix(-1, 0, 0, 1, -3844.91, 0)" xlink:href="#linear-gradient-19"></linearGradient><linearGradient id="linear-gradient-109" x1="-4254.93" y1="469.75" x2="-4245.63" y2="555.96" gradientTransform="matrix(-1, 0, 0, 1, -3844.91, 0)" xlink:href="#linear-gradient-9"></linearGradient><linearGradient id="linear-gradient-110" x1="-4203.74" y1="473.98" x2="-4250.2" y2="548.32" gradientTransform="matrix(-1, 0, 0, 1, -3844.91, 0)" xlink:href="#linear-gradient-9"></linearGradient><linearGradient id="linear-gradient-111" x1="-4257.42" y1="474.69" x2="-4253.93" y2="449.15" gradientTransform="matrix(-1, 0, 0, 1, -3844.91, 0)" xlink:href="#linear-gradient-19"></linearGradient><linearGradient id="linear-gradient-112" x1="-4386.79" y1="-19.96" x2="-4356.33" y2="-74.16" gradientTransform="matrix(-0.98, -0.19, -0.19, 0.98, -3888.15, -388.84)" xlink:href="#linear-gradient-19"></linearGradient><linearGradient id="linear-gradient-113" x1="-4380.24" y1="-67.16" x2="-4365.01" y2="-28.96" gradientTransform="matrix(-0.98, -0.19, -0.19, 0.98, -3888.15, -388.84)" xlink:href="#linear-gradient-14"></linearGradient><linearGradient id="linear-gradient-114" x1="-4380.3" y1="-16.32" x2="-4349.85" y2="-70.52" gradientTransform="matrix(-0.98, -0.19, -0.19, 0.98, -3888.15, -388.84)" xlink:href="#linear-gradient-19"></linearGradient><linearGradient id="linear-gradient-115" x1="-4422.52" y1="-77.13" x2="-4394.38" y2="-13.12" gradientTransform="matrix(-0.98, -0.21, -0.21, 0.98, -3887.39, -430.02)" xlink:href="#linear-gradient-19"></linearGradient><linearGradient id="linear-gradient-116" x1="463.54" y1="405.27" x2="471.28" y2="405.27" xlink:href="#linear-gradient-19"></linearGradient><linearGradient id="linear-gradient-117" x1="339.27" y1="494.43" x2="401.26" y2="494.43" xlink:href="#linear-gradient-19"></linearGradient><linearGradient id="linear-gradient-118" x1="1300.74" y1="3001.25" x2="1377.13" y2="3001.25" gradientTransform="matrix(0.11, 0.99, -0.99, 0.11, 2968.99, -1469.01)" xlink:href="#linear-gradient-13"></linearGradient><linearGradient id="linear-gradient-119" x1="263.27" y1="51.59" x2="132.73" y2="311.88" xlink:href="#linear-gradient-13"></linearGradient><linearGradient id="linear-gradient-120" x1="233.24" y1="466.9" x2="207.71" y2="513.99" xlink:href="#linear-gradient-9"></linearGradient><linearGradient id="linear-gradient-121" x1="206.84" y1="565.42" x2="263.84" y2="688.42" gradientTransform="matrix(1, 0, 0, 1, 0, 0)" xlink:href="#linear-gradient-14"></linearGradient><linearGradient id="linear-gradient-122" x1="233.49" y1="558.05" x2="163.06" y2="695.81" gradientTransform="matrix(1, 0, 0, 1, 0, 0)" xlink:href="#linear-gradient-4"></linearGradient><linearGradient id="linear-gradient-123" x1="290.48" y1="496.92" x2="200.69" y2="678.69" gradientTransform="matrix(1, 0, 0, 1, 0, 0)" xlink:href="#linear-gradient-4"></linearGradient><linearGradient id="linear-gradient-124" x1="271" y1="485.93" x2="245.03" y2="536.98" xlink:href="#linear-gradient-9"></linearGradient><linearGradient id="linear-gradient-125" x1="280.11" y1="490.56" x2="254.14" y2="541.62" xlink:href="#linear-gradient-9"></linearGradient><linearGradient id="linear-gradient-126" x1="245.69" y1="432.67" x2="111.02" y2="652.51" xlink:href="#linear-gradient-9"></linearGradient></defs><title>Directeur</title><g id="Calque_2" data-name="Calque 2"><g id="Illustration"><path class="cls-1" d="M236.37,624.06s-179.12,10.63-189-37.84,34.93-22.84,29.94-45.73S-14.39,483.62,2.08,393.73,77,327,95.85,282.34,16.2,187.19,82.94,102.89,202.52,90.25,245.22,88.3s33.83-81.86,115-84.86,80,98.17,129.7,100.85S520.16,70,594.73,79.87s66.49,48.75,140.87,30.43S890,27.67,974.32,108s-29,163.57-17,210.05,41.12,23.33,65,77.36-55.57,86.38-44,138.6S873.56,659.5,759.75,623.55,236.37,624.06,236.37,624.06Z"></path><path class="cls-2" d="M249.27,619S78.54,628.85,69.14,584.23s33.32-21,28.56-42.12S10.31,489.79,26,407s71.42-61.44,89.42-102.58-75.9-87.58-12.26-165.21,114-11.68,154.68-13.48,32.28-75.38,109.66-78.16,76.27,90.35,123.59,92.81S520,108.82,591,117.88s63.36,44.86,134.26,28,147.84-91.33,228.15-17.38S907.24,285,918.64,327.76s57.07,30.78,79.84,80.51-53,79.55-42,127.62-99.89,115.54-208.36,82.49S249.27,619,249.27,619Z"></path><g class="cls-3"><path class="cls-4" d="M679.9,628.79a2.82,2.82,0,0,1-2.33-2.49c-1.39-13.54-7.9-88.43,12.74-128.19,22.75-43.82,59.44-84.6,41.51-189-10.15-59.15-3.78-91.39-.54-102.57a1.9,1.9,0,0,1,3.54-.29c9.32,20,48.18,104,54.24,130,6.89,29.58,11.44,87.11-35.16,113.4-45.87,25.87-87.28,91.58-70.73,175.83a2.82,2.82,0,0,1-3.27,3.32Z"></path><path class="cls-5" d="M690,630.57a3.4,3.4,0,0,1-2.73-2.63c-2.56-12-12.29-69.59,27.11-104.9,41.1-36.83,71.12-39.26,79.14-62.32a1.47,1.47,0,0,1,2.83.13c4.59,20.67,15.93,92.11-38.72,119.65-54.23,27.32-62.76,39.87-63.67,47.2a3.38,3.38,0,0,1-4,2.87Z"></path><path class="cls-6" d="M790.6,480.22s-.16.73-.53,2-1,3.23-1.9,5.61a79,79,0,0,1-3.88,8.36,81,81,0,0,1-6.45,10.12,77.71,77.71,0,0,1-9.59,10.58,74.56,74.56,0,0,1-12.92,9.45,75.56,75.56,0,0,1-7.59,3.78l-2,.85-2,.76-4,1.45A70.64,70.64,0,0,0,725,540.68a65.86,65.86,0,0,0-12.54,10.73,70.19,70.19,0,0,0-9.31,13.08,81.61,81.61,0,0,0-6,13.89,100.68,100.68,0,0,0-3.45,13.24c-.85,4.18-1.39,8.06-1.74,11.52s-.52,6.48-.64,9-.17,4.47-.17,5.82l0,2.06h0a.66.66,0,0,1-.66.65.67.67,0,0,1-.64-.61s0-.72-.14-2.07-.21-3.34-.3-5.87-.06-5.62.1-9.16a119.07,119.07,0,0,1,1.06-11.86,105.57,105.57,0,0,1,3-13.85,82.35,82.35,0,0,1,5.88-14.78A69.72,69.72,0,0,1,709,548.29a66.63,66.63,0,0,1,13.32-11.71A76,76,0,0,1,738,528.52l4-1.46,1.91-.69,1.86-.77a69.43,69.43,0,0,0,7.15-3.46,74.31,74.31,0,0,0,12.38-8.53,77.48,77.48,0,0,0,9.59-9.59,84.34,84.34,0,0,0,6.9-9.26c1.89-2.88,3.35-5.53,4.52-7.73s1.95-4,2.48-5.21.77-1.89.77-1.89a.54.54,0,0,1,.68-.33A.55.55,0,0,1,790.6,480.22Z"></path></g><g class="cls-3"><path class="cls-7" d="M223.57,624a2.23,2.23,0,0,0,2.21-2.6c-2.29-13.55-15.72-75.54-69.79-76-47.91-.44-77,23.49-87.12,33.61a3.34,3.34,0,0,0,1.46,5.58c6.54,1.8,17.43,6.18,24.42,16.32,10.53,15.29,37.84,12.89,54.86-8.13,16.86-20.82,58.85-33.3,71.77,29.45a2.25,2.25,0,0,0,2.19,1.8Z"></path><path class="cls-8" d="M114.74,317.83a2.68,2.68,0,0,0-5,.42c-5.87,21.83-18,87,35.58,117.83,64.9,37.36,66.47,20.46,74.56,86.25,7,56.63,9.35,91.06,9.87,99.56A2.22,2.22,0,0,0,232,624h0a2.2,2.2,0,0,0,2.21-2.28c-.61-17.83-5.07-135.65-17.81-193.27C193.68,325.91,140.61,374.71,114.74,317.83Z"></path><path class="cls-9" d="M155.25,155.67a2.07,2.07,0,0,0-4.08.06c-1.73,11.64-5,26.49-11.18,36.18-11.43,18-32.2,83.49,24.82,116.15s71,49.94,70.61,112.66C235,478,238.48,600.35,239.08,621a3.07,3.07,0,0,0,3.08,3h0a3.07,3.07,0,0,0,3.07-3.07c.08-26.82.46-221.81-4.43-269.06C233.05,277,169.92,238.61,155.25,155.67Z"></path><path class="cls-10" d="M345.76,2.53a2.65,2.65,0,0,0-5-1.17c-6.33,11.21-20.58,30.33-49.09,44.18C248.94,66.3,172.18,109.24,218,203.05c47.59,97.53,30.7,165.66,34,199.76,3,31.59,6.24,194.32,6.69,218.22a3,3,0,0,0,3,2.93h0a3,3,0,0,0,3-3.07c-.66-26.36-5.37-214.25-5.45-244.34-.1-32.36-8.1-143.11,20.82-183.5C308,154,350.21,103.85,345.76,2.53Z"></path><path class="cls-6" d="M156.17,205.18a5.15,5.15,0,0,0-.17.54q-.17.5-.42,1.53c-.19.68-.33,1.56-.56,2.56s-.4,2.19-.5,3.53a52.75,52.75,0,0,0-.16,9.58c.08.92.16,1.87.25,2.85s.33,2,.5,3c.1.51.16,1,.29,1.55s.27,1,.41,1.56.27,1.06.41,1.6a13.46,13.46,0,0,0,.48,1.61,62.25,62.25,0,0,0,6.21,13.25,81.92,81.92,0,0,0,10.41,12.77c4,4.05,8.58,8.05,13.27,12s9.51,8,14.13,12.36a126.16,126.16,0,0,1,12.94,13.84,100.42,100.42,0,0,1,10.07,15.4,108.84,108.84,0,0,1,6.79,15.77,123.94,123.94,0,0,1,4.08,14.79c1,4.64,1.68,8.93,2.17,12.74.23,1.91.49,3.69.64,5.35s.29,3.17.41,4.54c.24,2.75.29,4.92.39,6.39s.12,2.25.12,2.25a1.05,1.05,0,0,1-2.1.15v0s-.07-.78-.19-2.23-.26-3.6-.59-6.31c-.15-1.35-.32-2.85-.51-4.48s-.49-3.38-.76-5.25c-.57-3.75-1.36-7.95-2.42-12.48a134.16,134.16,0,0,0-4.24-14.37,105.82,105.82,0,0,0-6.81-15.2,98.93,98.93,0,0,0-9.92-14.72,122.53,122.53,0,0,0-12.65-13.38c-4.54-4.21-9.34-8.19-14.06-12.17s-9.34-8-13.62-12.22c-1.05-1.08-2-2-3.05-3.2l-2.84-3.36c-.46-.56-.95-1.09-1.38-1.67L162,253.87c-.81-1.17-1.63-2.31-2.39-3.47l-2-3.59c-.31-.6-.68-1.16-.94-1.77s-.53-1.22-.79-1.82l-.78-1.78a14.93,14.93,0,0,1-.7-1.78c-.39-1.2-.77-2.38-1.15-3.53a16,16,0,0,1-.46-1.74c-.13-.58-.26-1.16-.39-1.72s-.25-1.13-.37-1.68-.17-1.12-.26-1.66c-.14-1.1-.29-2.16-.43-3.2s-.11-2.06-.17-3a48.13,48.13,0,0,1,.65-10.14c.18-1.39.52-2.61.73-3.68s.51-2,.77-2.68.43-1.28.58-1.66.22-.55.22-.55l0-.08a1.12,1.12,0,0,1,2,.88Z"></path><path class="cls-6" d="M116,329.75s0,.2.08.52.15.82.31,1.47a40.77,40.77,0,0,0,1.73,5.51c.41,1.17,1,2.41,1.66,3.77.35.66.72,1.34,1.11,2.06.19.35.37.72.58,1.08l.68,1.08a58.36,58.36,0,0,0,7,9.2l2.28,2.31c.75.81,1.65,1.5,2.49,2.28l1.29,1.14.66.58.71.53,2.88,2.17c.95.77,2,1.39,3.06,2.08s2.1,1.4,3.2,2.06l7,3.79c2.41,1.31,4.86,2.53,7.32,4l3.71,2.19,3.64,2.37c2.46,1.53,4.79,3.31,7.17,5,1.21.84,2.33,1.8,3.47,2.74l3.41,2.83,3.24,3c1.06,1,2.18,2,3.16,3.09l3,3.23c.49.54,1,1.05,1.48,1.63l1.37,1.7q1.38,1.69,2.73,3.39c.9,1.13,1.66,2.35,2.48,3.52l2.41,3.5,2.11,3.62c.69,1.2,1.41,2.37,2.05,3.57l1.78,3.62,1.73,3.55c.48,1.21,1,2.4,1.43,3.57.94,2.36,1.9,4.62,2.56,6.91s1.45,4.45,2,6.57,1,4.2,1.46,6.15c.22,1,.48,1.92.65,2.86s.31,1.84.46,2.72c.56,3.53,1.2,6.58,1.38,9.14.5,5.09.78,8,.78,8a.71.71,0,0,1-.64.78.72.72,0,0,1-.79-.6v-.05s-.43-2.86-1.17-7.88c-.28-2.52-1-5.51-1.7-9-.18-.86-.36-1.75-.55-2.67s-.49-1.83-.74-2.78c-.53-1.9-1.08-3.9-1.65-6s-1.45-4.16-2.18-6.37-1.69-4.42-2.65-6.69q-.74-1.69-1.47-3.45l-1.76-3.41-1.8-3.48c-.65-1.15-1.37-2.27-2.07-3.42l-2.12-3.46L196,412.2c-.82-1.11-1.58-2.27-2.47-3.35l-2.69-3.23L189.5,404c-.45-.55-1-1-1.45-1.56l-2.93-3.08c-1-1.07-2.06-2-3.09-3l-3.16-2.9a138.39,138.39,0,0,0-13.69-10.23L161.64,381l-3.59-2.1c-2.34-1.43-4.85-2.68-7.25-4l-.9-.48L149,374l-1.8-1-3.54-2c-1.14-.7-2.23-1.47-3.33-2.18a36.86,36.86,0,0,1-3.18-2.24l-3-2.37-.73-.58-.67-.62-1.34-1.25-1.31-1.23a13.3,13.3,0,0,1-1.24-1.25l-2.3-2.55-.55-.63-.51-.65-1-1.3c-.64-.86-1.32-1.65-1.85-2.53l-1.61-2.52c-.51-.82-.92-1.67-1.36-2.46a44.48,44.48,0,0,1-2.16-4.61c-.53-1.49-1.06-2.82-1.39-4.09a33.57,33.57,0,0,1-1.27-5.91c-.08-.69-.13-1.23-.14-1.61a4.4,4.4,0,0,1,0-.54v-.06a.61.61,0,0,1,1.22,0Z"></path><path class="cls-6" d="M91.21,572l1-.83c.65-.55,1.63-1.31,2.9-2.24s2.86-2,4.72-3.2,4-2.43,6.38-3.73,5-2.58,7.89-3.81a97.53,97.53,0,0,1,9.17-3.46l2.45-.77,2.53-.69c1.68-.5,3.43-.82,5.18-1.23a93.18,93.18,0,0,1,10.76-1.51l2.73-.21,2.73,0c1.82-.08,3.63.07,5.43.12s3.57.32,5.32.47,3.47.56,5.15.87,3.31.76,4.9,1.19,3.12.94,4.59,1.46l4.24,1.68c1.35.6,2.62,1.24,3.85,1.82s2.33,1.28,3.41,1.9,2.11,1.17,3,1.81c1.8,1.27,3.44,2.29,4.67,3.27l3.85,3.13a.63.63,0,0,1,.09.89.65.65,0,0,1-.84.13l0,0-4-2.71c-1.27-.88-2.93-1.76-4.76-2.87-.92-.56-2-1-3-1.56s-2.19-1.13-3.42-1.59-2.47-1.06-3.79-1.57l-4.14-1.4L169.64,556c-1.53-.36-3.12-.63-4.71-1s-3.27-.45-4.93-.67-3.37-.3-5.08-.34-3.44-.11-5.18,0l-2.6.1-2.61.21a92.44,92.44,0,0,0-10.29,1.53c-3.35.77-6.66,1.52-9.79,2.53-1.58.45-3.1,1-4.61,1.48s-3,1.05-4.36,1.6c-2.81,1.1-5.46,2.18-7.86,3.29s-4.6,2.14-6.51,3.13-3.57,1.88-4.93,2.61l-3.12,1.78L92,573h0a.62.62,0,0,1-.87-.21A.64.64,0,0,1,91.21,572Z"></path><path class="cls-11" d="M329.37,31.27s-.55.79-1.64,2.22S325,37,322.9,39.6s-4.81,5.66-8,9.1-6.83,7.24-11,11.18c-2.06,2-4.29,4-6.59,6.11s-4.75,4.17-7.31,6.26l-3.89,3.17L282,78.56c-2.73,2.14-5.66,4.15-8.58,6.27-1.4,1-3,2.06-4.35,3.11L267,89.54l-2.12,1.67a103.14,103.14,0,0,0-8.19,7.22c-1.34,1.26-2.57,2.62-3.84,4s-2.46,2.75-3.57,4.23a77.45,77.45,0,0,0-6.28,9.14,78.52,78.52,0,0,0-4.91,9.95l-1,2.59-.48,1.3-.42,1.32-.82,2.63-.69,2.67a101.34,101.34,0,0,0-2.93,21.38,151.58,151.58,0,0,0,.79,20.34c.28,3.24.79,6.36,1.18,9.4.25,1.51.5,3,.75,4.45s.47,2.89.76,4.29c.55,2.79,1,5.47,1.65,8s1.09,4.94,1.68,7.18,1.08,4.36,1.62,6.29,1,3.71,1.49,5.31c.87,3.22,1.68,5.71,2.17,7.43l.78,2.62h0a.5.5,0,0,1-.34.62.49.49,0,0,1-.61-.31s-.33-.9-.93-2.58-1.52-4.15-2.57-7.33q-.78-2.38-1.71-5.27c-.63-1.92-1.21-4-1.89-6.25s-1.31-4.64-2-7.17-1.32-5.21-2-8-1.21-5.75-1.83-8.79-1.1-6.23-1.47-9.51A140.48,140.48,0,0,1,228,157.51a101.9,101.9,0,0,1,2.63-22.29l.69-2.8.83-2.79.42-1.39.49-1.37,1-2.76a82.14,82.14,0,0,1,5.06-10.59,74.76,74.76,0,0,1,6.56-9.74c1.17-1.56,2.49-3,3.75-4.47s2.62-2.85,4-4.18a107.52,107.52,0,0,1,8.51-7.56l2.19-1.74,2.24-1.68c1.5-1.14,2.93-2.11,4.43-3.19,5.82-4,11.33-8.13,16.42-12.19,2.58-2,5-4,7.36-6s4.62-3.86,6.74-5.77l3.13-2.76,2.95-2.68c1.93-1.73,3.71-3.43,5.4-5,3.34-3.21,6.25-6,8.57-8.39,4.7-4.72,7.25-7.55,7.25-7.55a.49.49,0,0,1,.7,0A.51.51,0,0,1,329.37,31.27Z"></path></g><path class="cls-12" d="M626.52,87.56l-6.36,101.68h38.11V90.4a6.65,6.65,0,0,0-4.51-6.28c-5-1.73-13.61-3.88-22-2.38A6.31,6.31,0,0,0,626.52,87.56Z"></path><path class="cls-13" d="M578.79,87.07,583,189.14h36.1l2.74-103.21a6.31,6.31,0,0,0-4.46-6.22c-11.74-3.53-23.4-3.87-34.92,1.39A6.27,6.27,0,0,0,578.79,87.07Z"></path><path class="cls-14" d="M588.47,156.46l.28,3.56a2,2,0,0,0,2.09,1.83l18.91-1.1a2,2,0,0,0,1.87-1.84l.18-2.45a2,2,0,0,0-2-2.14H590.45A2,2,0,0,0,588.47,156.46Z"></path><path class="cls-14" d="M589.25,165v1.3a1.76,1.76,0,0,0,1.84,1.76l18.11-.75a1.76,1.76,0,0,0,1.69-1.76v-1.38a1.76,1.76,0,0,0-1.84-1.76l-18.12.83A1.77,1.77,0,0,0,589.25,165Z"></path><path class="cls-14" d="M614,87.55a3.52,3.52,0,0,0-2.73-1.17l-22.09,1a3.89,3.89,0,0,0-3.5,4.14l1.14,50.68a3.87,3.87,0,0,0,3.44,3.94l19.45,1.26a3.45,3.45,0,0,0,2.68-1.06,4.2,4.2,0,0,0,1.19-2.85l1.5-53A4.3,4.3,0,0,0,614,87.55Z"></path><path class="cls-14" d="M631.42,160.31l.24,3.56a1.81,1.81,0,0,0,1.78,1.83l16.13-1.1a1.85,1.85,0,0,0,1.59-1.83l.16-2.46a1.89,1.89,0,0,0-1.69-2.13H633.11A1.88,1.88,0,0,0,631.42,160.31Z"></path><path class="cls-14" d="M632.09,168.82v1.3a1.64,1.64,0,0,0,1.57,1.76l15.44-.76a1.66,1.66,0,0,0,1.45-1.76V168a1.64,1.64,0,0,0-1.58-1.76l-15.45.84A1.66,1.66,0,0,0,632.09,168.82Z"></path><path class="cls-15" d="M649.3,90.1l-12.58-1.44a4.89,4.89,0,0,0-5.46,4.72l-1.5,48.85a4.91,4.91,0,0,0,5,5.05l12-.33a4.91,4.91,0,0,0,4.77-4.68l2.11-47.08A4.9,4.9,0,0,0,649.3,90.1Z"></path><path class="cls-16" d="M709.39,87.56,703,189.24h38.12V90.4a6.65,6.65,0,0,0-4.51-6.28c-5-1.73-13.62-3.88-22-2.38A6.31,6.31,0,0,0,709.39,87.56Z"></path><path class="cls-17" d="M661.66,87.07l4.23,102.07H702l2.74-103.21a6.31,6.31,0,0,0-4.46-6.22c-11.74-3.53-23.4-3.87-34.92,1.39A6.27,6.27,0,0,0,661.66,87.07Z"></path><path class="cls-14" d="M671.34,156.46l.28,3.56a2,2,0,0,0,2.09,1.83l18.91-1.1a2,2,0,0,0,1.87-1.84l.18-2.45a2,2,0,0,0-2-2.14H673.32A2,2,0,0,0,671.34,156.46Z"></path><path class="cls-14" d="M672.12,165v1.3A1.76,1.76,0,0,0,674,168l18.11-.75a1.76,1.76,0,0,0,1.69-1.76v-1.38a1.76,1.76,0,0,0-1.84-1.76l-18.12.83A1.77,1.77,0,0,0,672.12,165Z"></path><path class="cls-14" d="M696.88,87.55a3.52,3.52,0,0,0-2.73-1.17l-22.09,1a3.89,3.89,0,0,0-3.5,4.14l1.14,50.68a3.87,3.87,0,0,0,3.44,3.94l19.45,1.26a3.45,3.45,0,0,0,2.68-1.06,4.2,4.2,0,0,0,1.19-2.85l1.5-53A4.3,4.3,0,0,0,696.88,87.55Z"></path><path class="cls-14" d="M714.29,160.31l.24,3.56a1.81,1.81,0,0,0,1.78,1.83l16.13-1.1a1.85,1.85,0,0,0,1.59-1.83l.16-2.46a1.89,1.89,0,0,0-1.69-2.13H716A1.88,1.88,0,0,0,714.29,160.31Z"></path><path class="cls-14" d="M715,168.82v1.3a1.64,1.64,0,0,0,1.57,1.76l15.44-.76a1.65,1.65,0,0,0,1.44-1.76V168a1.64,1.64,0,0,0-1.57-1.76l-15.45.84A1.66,1.66,0,0,0,715,168.82Z"></path><path class="cls-15" d="M732.17,90.1l-12.58-1.44a4.88,4.88,0,0,0-3.77,1.16,4.94,4.94,0,0,0-1.7,3.56l-1.49,48.85a4.91,4.91,0,0,0,5,5.05l12-.33a4.91,4.91,0,0,0,4.77-4.68l2.11-47.08A4.9,4.9,0,0,0,732.17,90.1Z"></path><rect class="cls-18" x="550.26" y="182.71" width="223" height="15" rx="5.4"></rect><path class="cls-19" d="M412.6,382.2,274.16,399.46,255.6,250.51A14.22,14.22,0,0,1,268,234.64L378.17,220.9A14.22,14.22,0,0,1,394,233.26Z"></path><path class="cls-20" d="M268.44,234.58l-.49.06a14.22,14.22,0,0,0-12.35,15.87L273.39,393.3l28.72-3.58-17.8-142.79A14.22,14.22,0,0,0,268.44,234.58Z"></path><rect class="cls-21" x="406.41" y="475.69" width="12.93" height="139.85" transform="translate(825.76 1091.23) rotate(180)"></rect><path class="cls-22" d="M356.25,609.82H469.51a0,0,0,0,1,0,0v3.59a4.82,4.82,0,0,1-4.82,4.82h-104a4.48,4.48,0,0,1-4.48-4.48v-3.94a0,0,0,0,1,0,0Z" transform="translate(825.76 1228.06) rotate(180)"></path><rect class="cls-23" x="334.83" y="442.39" width="151.34" height="42.92" rx="14.78"></rect><path class="cls-24" d="M479.36,568.46l-6,17.45a6.08,6.08,0,0,0,2.35,7.13,16.07,16.07,0,0,0,5,1.93,7.06,7.06,0,0,0,7.82-3.55l7.22-13.6Z"></path><path class="cls-25" d="M420.6,411.34s75.84,13.15,108.38,43.2-29.87,125.93-29.87,125.93-10.22-.06-22.61-10.68c0,0,37-72.11,5.11-93.13-35.84-23.64-77.15-29-77.15-29l15.4-34Z"></path><path class="cls-26" d="M456.53,597.29c.09,2.24,4.66,9.92,7.33,14.22a7,7,0,0,0,5.91,3.3,17.64,17.64,0,0,0,4.88-.58,4.52,4.52,0,0,0,3-5.63l-5.22-17.83Z"></path><path class="cls-27" d="M347.59,388.57s-16.85,45.05,0,58.74,57,29.12,66,56.4,24.21,80.3,44.6,99.08c0,0,14.32-1.39,19.68-7.09,0,0-11.61-79.16-19.27-99.46-6.63-17.59-16.4-43-35.12-57.17-5.36-4.06-4.43-10.49-2-16.74L426.06,411Z"></path><path class="cls-28" d="M523.26,353.27C495,355,503.82,309.85,504.33,308.06l-42.87,30.28s2.27,24.13,37.91,36.78a44.21,44.21,0,0,0,24.55,1.78A39,39,0,0,1,523.26,353.27Z"></path><path class="cls-29" d="M577.87,339.69c-10.52-7.32-22.44,0-22.44,0-14.08,9.21-24.49,13.12-32.17,13.58a39,39,0,0,0,.66,23.63c15.76-3.39,27-14.8,31.94-20.65a5.09,5.09,0,0,1,7-.77c2.19,1.73,4.32,4.1,3.93,6.59-.76,4.92,4.95,6.48,5.38,4.7s-2-12.36-2-12.36,11.42,11.48,15.87,15.89,10.06,0,10.06,0S588.4,347,577.87,339.69Z"></path><path class="cls-30" d="M391.57,238.38s41.09-16.45,117.56,46.68c0,0,6.38,13.22-.59,25S435.18,379.15,426.06,411c0,0-39.55,12.85-80.46-17.63C345.6,393.32,349.21,304.83,391.57,238.38Z"></path><path class="cls-31" d="M472.8,223.7l-20.23,24.52a8,8,0,0,0-1.06,8.65c2.81,5.73,9.47,14.07,24.24,12.91a12.4,12.4,0,0,0,10.21-7l14.14-29.24Z"></path><path class="cls-32" d="M359.76,343.4C355,324,403.3,280.66,403.3,280.66l-11.73-42.28s-104.33,69.45-77.74,125.3c3.81,8,8.87,13.62,14.74,17.37C337,358.43,350.36,348.06,359.76,343.4Z"></path><path class="cls-33" d="M359.72,340.57a1.13,1.13,0,0,1-1.1-.87c-4.88-19.86,41.9-62.07,43.89-63.86a1.14,1.14,0,1,1,1.52,1.7c-.48.43-47.75,43.07-43.2,61.61a1.15,1.15,0,0,1-.83,1.39A1.33,1.33,0,0,1,359.72,340.57Z"></path><path class="cls-34" d="M432.94,341.72s-57.29,22.25-71.27,5.52a9.33,9.33,0,0,1-1.91-3.84c-9.4,4.66-22.79,15-31.19,37.65,30.13,19.25,81.62-10.71,95.55-19.55a10.41,10.41,0,0,1,7.69-1.41c5.37,1.12,14.65,2.75,19.66,2,7.32-1.12,17.83,24.7,29.7,16.73C481.17,378.8,471,333.92,432.94,341.72Z"></path><path class="cls-35" d="M516.81,187.68c.2.79-4.74,54.39-4.74,54.39l-30.55-3.48-2.86-51.5S513.4,174.48,516.81,187.68Z"></path><path class="cls-36" d="M486.62,197.77,486,225a3.48,3.48,0,0,0,.12,1c.53,2.07,2.88,9.06,9.88,6.22,6.36-2.58,12.2-4.83,16.49-4a3.8,3.8,0,0,1,3.08,4.09,164.42,164.42,0,0,1-4.18,25.18,3.78,3.78,0,0,1-4.33,2.73c-5.83-1-18.08-3.54-27.45-7.87a3.79,3.79,0,0,1-2.22-3.2c-.46-6.8-1.93-27.48-3.23-33.18-1.22-5.35-8.22-7.87-11.24-8.72a3.76,3.76,0,0,1-2.3-1.85c-1.7-3.2-4.4-10.76,5-15a3.81,3.81,0,0,0,1.86-5.16c-1.89-3.88-3.18-10,4-14.18s13.5-.82,17,2.17a3.82,3.82,0,0,0,4.89,0,3,3,0,0,1,3.41-.26,3.75,3.75,0,0,0,5.1-2.18c1.43-4,4.74-8.44,12.41-8,13.6.83,16.74,15.46,14.17,24.52s-17.27,7.33-25,3.75c-5.83-2.73-12.54,1.54-15.43,3.74A3.74,3.74,0,0,0,486.62,197.77Z"></path><path class="cls-37" d="M474,225.88s3.8-16-2.25-19.12-14.2-.28-11.14,10.66C464.46,231,474,225.88,474,225.88Z"></path><path class="cls-38" d="M462.28,385.58h.28l120.19-.13a5.38,5.38,0,0,0,0-10.76l-120.19.13a5.38,5.38,0,0,0-.27,10.75Z"></path><path class="cls-39" d="M690.79,276.46H590.7a19.07,19.07,0,0,0-17.25,10.94l-46.28,98.12H651.56a11.61,11.61,0,0,0,10.79-7.33l35.88-90.8A8,8,0,0,0,690.79,276.46Z"></path><path class="cls-40" d="M620.28,326.77c-2.17,6.74-.57,13.28,3.58,14.62s9.26-3.05,11.43-9.79.57-13.28-3.58-14.62S622.45,320,620.28,326.77Z"></path><path class="cls-41" d="M299.57,351.72h67V338.3h-67C301,338.3,301,351.72,299.57,351.72Z"></path><path class="cls-42" d="M366.6,348.36v-6.14c0-2.16-1.33-3.92-3-3.92H299.85a2.32,2.32,0,0,1-2.32-2.32.7.7,0,0,1,.7-.71H368c1.59,0,4.13,2.51,4.13,5.62v8.57c0,2.92-2.46,5.29-4,5.29H298.6a1.07,1.07,0,0,1-1.07-1.07,2,2,0,0,1,2-2h64.57C365.46,351.72,366.6,350.22,366.6,348.36Z"></path><path class="cls-43" d="M364.74,342.06H301.89a1,1,0,0,1,0-2h62.85a1,1,0,0,1,0,2Z"></path><path class="cls-43" d="M364.74,344.05H301.89a1,1,0,0,1,0-2h62.85a1,1,0,0,1,0,2Z"></path><path class="cls-43" d="M364.74,346H301.89a1,1,0,0,1,0-2h62.85a1,1,0,0,1,0,2Z"></path><path class="cls-43" d="M364.74,348H301.89a1,1,0,0,1,0-2h62.85a1,1,0,0,1,0,2Z"></path><path class="cls-43" d="M364.74,350H301.89a1,1,0,0,1,0-2h62.85a1,1,0,0,1,0,2Z"></path><rect class="cls-44" x="283.72" y="354.57" width="121.01" height="29.21" rx="5.65"></rect><path class="cls-43" d="M309.7,380.92H299.31a2.41,2.41,0,0,1-2.41-2.41V359.83a2.42,2.42,0,0,1,2.41-2.41H309.7a2.43,2.43,0,0,1,2.42,2.41v18.68A2.42,2.42,0,0,1,309.7,380.92Zm-10.39-22.5a1.41,1.41,0,0,0-1.41,1.41v18.68a1.41,1.41,0,0,0,1.41,1.41H309.7a1.42,1.42,0,0,0,1.42-1.41V359.83a1.42,1.42,0,0,0-1.42-1.41Z"></path><path class="cls-43" d="M317.49,380.92h-2.23a2.05,2.05,0,0,1-2.05-2.06V359.48a2.06,2.06,0,0,1,2.05-2.06h2.23a2.06,2.06,0,0,1,2.05,2.06v19.38A2.05,2.05,0,0,1,317.49,380.92Zm-2.23-22.5a1.06,1.06,0,0,0-1.05,1.06v19.38a1.05,1.05,0,0,0,1.05,1.06h2.23a1.05,1.05,0,0,0,1.05-1.06V359.48a1.06,1.06,0,0,0-1.05-1.06Z"></path><path class="cls-45" d="M218.26,405.71V625.36c0,3.81,3.85,6.35,7.65,6.35H709.22c3.81,0,6-2.54,6-6.35V405.71Z"></path><path class="cls-46" d="M390.26,405.71V625.36c0,3.81,3.4,6.35,7.21,6.35H715.26v-226Z"></path><path class="cls-47" d="M215.83,390.79a5.62,5.62,0,0,1,1-4.41,4.87,4.87,0,0,1,3.86-1.94H726a5.67,5.67,0,0,1,4.84,2.83,6.51,6.51,0,0,1,.38,5.89l-5.48,12.65a7.64,7.64,0,0,1-7,4.75H224.2a5.92,5.92,0,0,1-5.7-5Z"></path><path class="cls-48" d="M203.49,384a7.21,7.21,0,0,0-5.31,2.29,6.52,6.52,0,0,0-1.66,5.33l1.85,12c.48,3.31,3.45,5.1,6.95,5.1H374.77l.26-24.94Z"></path><path class="cls-49" d="M795.34,514.52H987.11V485.11H795.34C799.45,485.11,799.45,514.52,795.34,514.52Z"></path><path class="cls-50" d="M987.11,507.16V493.7a8.53,8.53,0,0,0-8.46-8.59H796.15c-3.67,0-6.66-2.28-6.66-5.1a1.84,1.84,0,0,1,2-1.55H991c4.58,0,11.84,5.51,11.84,12.31v18.8c0,6.41-7,11.6-11.36,11.6H792.57c-1.7,0-3.08-1-3.08-2.35,0-2.37,2.52-4.3,5.61-4.3H979.86A7.3,7.3,0,0,0,987.11,507.16Z"></path><path class="cls-43" d="M981.8,492.15H802a1,1,0,0,1,0-2H981.8a1,1,0,0,1,0,2Z"></path><path class="cls-43" d="M981.8,496.51H802a1,1,0,0,1,0-2H981.8a1,1,0,0,1,0,2Z"></path><path class="cls-43" d="M981.8,500.88H802a1,1,0,0,1,0-2H981.8a1,1,0,0,1,0,2Z"></path><path class="cls-43" d="M981.8,505.24H802a1,1,0,0,1,0-2H981.8a1,1,0,0,1,0,2Z"></path><path class="cls-43" d="M981.8,509.61H802a1,1,0,0,1,0-2H981.8a1,1,0,0,1,0,2Z"></path><path class="cls-51" d="M976.22,635.64H677.42c-10.31,0-18.66-7.56-18.66-16.9V595c0-9.34,8.35-16.9,18.66-16.9h298.8c10.3,0,18.66,7.56,18.66,16.9v23.71C994.88,628.08,986.52,635.64,976.22,635.64Z"></path><path class="cls-52" d="M729.51,629h-26c-3.71,0-6.72-2.72-6.72-6.09V590.83c0-3.36,3-6.09,6.72-6.09h26c3.71,0,6.72,2.73,6.72,6.09v32.11C736.23,626.31,733.22,629,729.51,629Z"></path><path class="cls-53" d="M988.81,524.37v9.91a5.34,5.34,0,0,1-3,4.43l-1.88,1.09c-1.53.91-1.21,2.58.62,3.19h0c1.21.39,1.43,1.5.43,2.1l-2.36,1.43a1.91,1.91,0,0,0,0,3.51l1.7,1a1.78,1.78,0,0,1-.09,3.3l-1.83,1c-1.26.72-1.47,2-.48,2.87l1,.89a3,3,0,0,1,1.11,2.23V577H736.83V523.43Z"></path><path class="cls-54" d="M745.39,535.84H980.14c.51,0,.93-.28.93-.63s-.42-.63-.93-.63H745.39c-.51,0-.93.29-.93.63S744.88,535.84,745.39,535.84Z"></path><path class="cls-54" d="M745.39,545.17h229.2c.51,0,.92-.28.92-.63s-.41-.63-.92-.63H745.39c-.51,0-.93.28-.93.63S744.88,545.17,745.39,545.17Z"></path><path class="cls-54" d="M745.39,552H971.74c.51,0,.92-.28.92-.63s-.41-.63-.92-.63H745.39c-.51,0-.93.28-.93.63S744.88,552,745.39,552Z"></path><path class="cls-55" d="M732.34,520H994.22c2,0,3.77,1,4,2.34.22,1.54-1.57,2.84-3.8,2.84H751.56c-4.27,0-7.95,2-8.84,4.85-4,12.66-3.67,25.85.07,39.46.87,3.15,4.94,5.44,9.68,5.44H989.42c2,0,3.77,1,4,2.33.22,1.55-1.56,2.84-3.8,2.84H734.08c-6.11,0-11.37-3-12.46-7-4.41-16.51-4.8-32.35,0-47.34,1.08-3.36,5.52-5.74,10.59-5.74Z"></path><path class="cls-43" d="M213.86,379.65c.12-1,.28-2,.48-3a.69.69,0,1,1,1.36.28h0c-.19,1-.35,1.93-.46,2.9a.69.69,0,0,1-.78.61A.68.68,0,0,1,213.86,379.65Z"></path><path class="cls-43" d="M216.36,369.81c.38-.94.79-1.88,1.23-2.79a.7.7,0,0,1,1.27.61h0c-.43.88-.83,1.78-1.19,2.69a.7.7,0,0,1-1.31-.52Z"></path><path class="cls-43" d="M221.2,360.9l1.82-2.44a.71.71,0,0,1,1.14.85h0l0,0-1.77,2.37,0,0a.71.71,0,1,1-1.13-.85Z"></path><path class="cls-43" d="M227.77,353.21l2.22-2.07a.71.71,0,1,1,1,1h0l0,0-2.17,2,0,0a.71.71,0,1,1-1-1Z"></path><path class="cls-43" d="M235.5,346.72,238,345a.72.72,0,0,1,.82,1.18h0l0,0-2.44,1.69,0,0a.72.72,0,1,1-.83-1.18Z"></path><path class="cls-43" d="M244,341.3l2.66-1.44a.73.73,0,0,1,.7,1.29h0l-2.63,1.41h0a.72.72,0,0,1-1-.29A.73.73,0,0,1,244,341.3Z"></path><path class="cls-43" d="M253,336.82l2.77-1.18a.73.73,0,1,1,.58,1.35h0l-2.74,1.16h0a.73.73,0,0,1-1-.39A.73.73,0,0,1,253,336.82Z"></path><path class="cls-43" d="M262.38,333.14l2.86-1a.75.75,0,0,1,.94.47.74.74,0,0,1-.47.94h0l-2.83.94h0a.74.74,0,1,1-.47-1.41Z"></path><path class="cls-43" d="M272,330.18l2.92-.75a.74.74,0,0,1,.91.53.75.75,0,0,1-.53.91h0l-2.89.74h0a.75.75,0,0,1-.91-.54A.74.74,0,0,1,272,330.18Z"></path><path class="cls-43" d="M281.76,327.87l2.95-.58a.76.76,0,0,1,.89.6.75.75,0,0,1-.6.88h0l-2.93.57h0a.76.76,0,0,1-.88-.6A.75.75,0,0,1,281.76,327.87Z"></path><path class="cls-43" d="M291.65,326.14l3-.4a.76.76,0,1,1,.21,1.5h0l-3,.41h0A.77.77,0,0,1,291,327,.76.76,0,0,1,291.65,326.14Z"></path><path class="cls-43" d="M301.62,325l3-.25a.77.77,0,0,1,.13,1.53h0l-3,.24h0a.75.75,0,0,1-.82-.69A.77.77,0,0,1,301.62,325Z"></path><path class="cls-43" d="M311.64,324.32l3-.09a.77.77,0,0,1,.05,1.54h0l-3,.09h0a.77.77,0,1,1,0-1.54Z"></path><path class="cls-43" d="M321.67,324.18l3,.05a.78.78,0,0,1,.77.79.77.77,0,0,1-.79.76h0l-3,0h0a.78.78,0,0,1,0-1.55Z"></path><path class="cls-43" d="M331.7,324.52l3,.2a.78.78,0,0,1,.73.83.79.79,0,0,1-.84.74h0l-3-.2h0a.78.78,0,1,1,.1-1.56Z"></path><path class="cls-43" d="M341.7,325.34l3,.31a.79.79,0,1,1-.16,1.57h0l-3-.31h0a.79.79,0,0,1-.7-.87A.78.78,0,0,1,341.7,325.34Z"></path><path class="cls-43" d="M351.66,326.46l3,.39a.8.8,0,1,1-.21,1.58h0l-3-.39h0a.8.8,0,0,1,.21-1.58Z"></path><path class="cls-43" d="M361.58,327.85l3,.46a.8.8,0,1,1-.24,1.58h0l-3-.46h0a.8.8,0,1,1,.24-1.58Z"></path><path class="cls-43" d="M371.47,329.48l3,.53a.81.81,0,0,1-.29,1.59h0l-2.94-.54h0a.8.8,0,1,1,.29-1.58Z"></path><path class="cls-43" d="M381.31,331.34l2.95.61a.81.81,0,0,1-.33,1.59h0l-2.93-.61h0a.81.81,0,0,1,.32-1.59Z"></path><path class="cls-43" d="M391.11,333.44l2.93.67a.82.82,0,0,1-.36,1.59h0l-2.92-.67h0a.81.81,0,0,1-.62-1A.82.82,0,0,1,391.11,333.44Z"></path><path class="cls-43" d="M400.86,335.74l2.91.74a.82.82,0,0,1,.6,1,.83.83,0,0,1-1,.6h0l-2.91-.74h0a.82.82,0,0,1-.6-1A.83.83,0,0,1,400.86,335.74Z"></path><path class="cls-43" d="M410.55,338.25l2.9.79a.83.83,0,0,1,.58,1,.82.82,0,0,1-1,.58h0l-2.89-.79a.82.82,0,0,1-.58-1A.84.84,0,0,1,410.55,338.25Z"></path><path class="cls-43" d="M420.2,341l2.88.85a.83.83,0,0,1,.57,1,.85.85,0,0,1-1,.57h0l-2.87-.84a.83.83,0,0,1,.46-1.6Z"></path><path class="cls-43" d="M429.79,343.83l2.87.9a.84.84,0,0,1-.5,1.6h0l-2.85-.9a.84.84,0,0,1-.56-1A.85.85,0,0,1,429.79,343.83Z"></path><path class="cls-43" d="M439.33,346.88l2.85.95a.84.84,0,0,1,.54,1.06.86.86,0,0,1-1.07.54h0l-2.84-.94a.83.83,0,0,1-.54-1.06A.84.84,0,0,1,439.33,346.88Z"></path><path class="cls-43" d="M448.82,350.09l2.83,1a.84.84,0,0,1-.55,1.59h0l-2.83-1a.84.84,0,1,1,.56-1.59Z"></path><path class="cls-43" d="M458.25,353.43l2.83,1a.85.85,0,0,1-.59,1.6h0l-2.82-1a.85.85,0,1,1,.58-1.6Z"></path><path class="cls-43" d="M467.64,356.91l2.81,1.07a.86.86,0,0,1,.49,1.11.85.85,0,0,1-1.1.49h0l-2.8-1.07a.85.85,0,0,1-.5-1.1A.86.86,0,0,1,467.64,356.91Z"></path><path class="cls-43" d="M477,360.51l2.8,1.1a.87.87,0,0,1-.64,1.61h0l-2.79-1.11a.85.85,0,0,1-.48-1.11A.86.86,0,0,1,477,360.51Z"></path><path class="cls-43" d="M486.28,364.22l2.78,1.13a.88.88,0,0,1,.48,1.13.87.87,0,0,1-1.13.48h0l-2.77-1.13a.87.87,0,0,1,.65-1.61Z"></path><path class="cls-43" d="M495.54,368l2.76,1.16a.87.87,0,0,1-.67,1.61h0l-2.77-1.16a.87.87,0,0,1,.68-1.61Z"></path><path class="cls-43" d="M504.75,371.93l2.76,1.18a.88.88,0,0,1-.69,1.61h0l-2.76-1.18a.88.88,0,1,1,.69-1.61Z"></path><path class="cls-43" d="M513.94,375.9l2.75,1.2a.88.88,0,0,1-.71,1.62h0l-2.75-1.21a.88.88,0,0,1,.71-1.61Z"></path><path class="cls-43" d="M523.09,379.93l2.75,1.23a.89.89,0,0,1-.73,1.62h0l-2.74-1.23a.89.89,0,0,1-.45-1.17A.9.9,0,0,1,523.09,379.93Z"></path><path class="cls-43" d="M532.22,384l2.74,1.23a.9.9,0,0,1-.74,1.63h0l-2.73-1.24a.89.89,0,0,1-.45-1.18A.88.88,0,0,1,532.22,384Z"></path><path class="cls-43" d="M541.33,388.16l2.73,1.25a.9.9,0,1,1-.75,1.63h0l-2.72-1.25a.89.89,0,0,1-.45-1.18A.91.91,0,0,1,541.33,388.16Z"></path><path class="cls-43" d="M550.42,392.33l2.73,1.26a.9.9,0,1,1-.76,1.64h0L549.67,394a.9.9,0,0,1,.75-1.64Z"></path><path class="cls-43" d="M559.5,396.52l2.73,1.26a.91.91,0,0,1-.76,1.65h0l-2.72-1.26a.91.91,0,0,1,.76-1.65Z"></path><path class="cls-43" d="M568.58,400.72,571.3,402a.91.91,0,0,1-.76,1.66h0l-2.73-1.27a.91.91,0,1,1,.77-1.65Z"></path><path class="cls-43" d="M577.66,404.91l2.72,1.25a.92.92,0,0,1,.45,1.22.91.91,0,0,1-1.21.45h0l-2.72-1.26a.91.91,0,0,1-.45-1.21A.92.92,0,0,1,577.66,404.91Z"></path><path class="cls-43" d="M586.74,409.08l2.73,1.25a.92.92,0,1,1-.77,1.68h0L586,410.76a.92.92,0,0,1,.77-1.68Z"></path><path class="cls-43" d="M595.84,413.22l2.73,1.24a.93.93,0,1,1-.76,1.69h0l-2.74-1.24a.93.93,0,0,1,.77-1.69Z"></path><path class="cls-43" d="M605,417.33l2.74,1.22a.93.93,0,0,1,.47,1.23.94.94,0,0,1-1.23.48h0L604.19,419a.93.93,0,0,1,.76-1.7Z"></path><path class="cls-43" d="M614.09,421.38l2.74,1.2a.94.94,0,1,1-.75,1.72h0l-2.75-1.21a.93.93,0,0,1-.48-1.23A.94.94,0,0,1,614.09,421.38Z"></path><path class="cls-43" d="M623.25,425.37l2.75,1.18a.95.95,0,1,1-.74,1.74h0l-2.76-1.19a.94.94,0,0,1,.75-1.73Z"></path><path class="cls-43" d="M632.44,429.29l2.76,1.16a1,1,0,0,1,.52,1.24,1,1,0,0,1-1.24.51h0L631.7,431a.95.95,0,0,1,.74-1.74Z"></path><path class="cls-43" d="M641.67,433.12l2.77,1.13a1,1,0,1,1-.71,1.77h0l-2.78-1.14a1,1,0,1,1,.73-1.76Z"></path><path class="cls-43" d="M650.93,436.86l2.79,1.1a1,1,0,0,1-.7,1.78h0l-2.8-1.11a1,1,0,0,1,.71-1.77Z"></path><path class="cls-43" d="M660.24,440.48l2.8,1.07a1,1,0,1,1-.68,1.8h0l-2.8-1.07a1,1,0,1,1,.69-1.8Z"></path><path class="cls-43" d="M669.59,444l2.81,1a1,1,0,1,1-.66,1.82h0l-2.82-1a1,1,0,1,1,.67-1.82Z"></path><path class="cls-43" d="M679,447.37l2.83,1a1,1,0,1,1-.63,1.85h0l-2.83-1a1,1,0,1,1,.64-1.83Z"></path><path class="cls-43" d="M688.43,450.6l2.84.94a1,1,0,1,1-.61,1.87h0l-2.85-.94a1,1,0,0,1,.62-1.86Z"></path><path class="cls-43" d="M697.92,453.68l2.86.9h0a1,1,0,0,1-.59,1.88h0l-2.87-.9a1,1,0,0,1,.59-1.88Z"></path><path class="cls-43" d="M707.47,456.6l2.87.84h0a1,1,0,1,1-.56,1.9h0l-2.88-.85a1,1,0,1,1,.56-1.89Z"></path><path class="cls-43" d="M717.07,459.33l2.89.79h0a1,1,0,1,1-.52,1.92h0l-2.9-.79a1,1,0,0,1,.52-1.92Z"></path><path class="cls-43" d="M726.72,461.88l2.9.73h0a1,1,0,0,1,.72,1.21,1,1,0,0,1-1.21.73h0l-2.91-.73a1,1,0,1,1,.48-1.94Z"></path><path class="cls-43" d="M736.42,464.23l2.91.66h0a1,1,0,0,1-.44,2h0l-2.93-.67a1,1,0,0,1,.45-1.95Z"></path><path class="cls-43" d="M746.16,466.36l2.93.6h0a1,1,0,1,1-.4,2h0l-3-.6a1,1,0,0,1,.41-2Z"></path><path class="cls-43" d="M756,468.28l2.95.53h0a1,1,0,0,1-.36,2h0l-2.95-.54a1,1,0,1,1,.36-2Z"></path><path class="cls-43" d="M765.78,470l3,.46h0a1,1,0,0,1-.31,2h0l-3-.46a1,1,0,0,1-.85-1.16,1,1,0,0,1,1.17-.85Z"></path><path class="cls-43" d="M775.65,471.38l3,.37h0a1,1,0,0,1-.25,2h0l-3-.37a1,1,0,0,1-.89-1.15,1,1,0,0,1,1.15-.88Z"></path><path class="cls-43" d="M785.56,472.51l3,.28h0a1,1,0,0,1,.92,1.13,1,1,0,0,1-1.12.92h0l-3-.28a1,1,0,0,1,.2-2.05Z"></path><path class="cls-43" d="M795.49,473.36l3,.2h0a1,1,0,0,1,1,1.1,1,1,0,0,1-1.1,1h0l-3-.21a1,1,0,1,1,.15-2.06Z"></path><path class="cls-43" d="M805.45,473.93l3,.11h0a1,1,0,1,1-.08,2.08h0l-3-.12a1,1,0,1,1,.08-2.07Z"></path><path class="cls-43" d="M815.41,474.21l3,0h0a1,1,0,1,1,0,2.09h0l-3,0a1,1,0,0,1,0-2.09Z"></path><path class="cls-43" d="M825.38,474.21l3-.06h0a1.05,1.05,0,1,1,0,2.1h0l-3,.06a1.05,1.05,0,1,1,0-2.1Z"></path><path class="cls-43" d="M835.35,473.91l3-.15h0a1.06,1.06,0,0,1,.11,2.11h0l-3,.15a1.06,1.06,0,0,1-.1-2.11Z"></path><path class="cls-43" d="M845.3,473.31l3-.24h0a1.06,1.06,0,0,1,.17,2.12h0l-3,.23a1.06,1.06,0,1,1-.16-2.11Z"></path><path class="cls-43" d="M855.22,472.4l3-.33h0a1.05,1.05,0,0,1,1.18.94,1.07,1.07,0,0,1-.94,1.18h0l-3,.33a1.06,1.06,0,1,1-.24-2.11Z"></path><path class="cls-43" d="M865.11,471.18l3-.43h0a1.07,1.07,0,0,1,.31,2.11h0l-3,.44a1.07,1.07,0,0,1-.31-2.12Z"></path><path class="cls-43" d="M875,469.62l2.94-.53h0a1.07,1.07,0,1,1,.38,2.11h0l-3,.53a1.08,1.08,0,0,1-.38-2.12Z"></path><path class="cls-43" d="M884.73,467.72l2.92-.63h0a1.09,1.09,0,0,1,.47,2.12h0l-2.94.64a1.08,1.08,0,0,1-1.28-.83,1.07,1.07,0,0,1,.82-1.28Z"></path><path class="cls-43" d="M894.43,465.47l2.9-.75h0a1.08,1.08,0,1,1,.54,2.1h0l-2.92.75a1.08,1.08,0,1,1-.54-2.1Z"></path><path class="cls-43" d="M904,462.84l2.86-.86h0a1.09,1.09,0,0,1,.63,2.09h0l-2.89.87a1.08,1.08,0,0,1-1.35-.73,1.09,1.09,0,0,1,.73-1.36Z"></path><path class="cls-43" d="M913.53,459.82l2.81-1h0a1.1,1.1,0,0,1,.72,2.07h0l-2.85,1a1.1,1.1,0,0,1-.72-2.07Z"></path><path class="cls-43" d="M922.87,456.4l2.77-1.11h0a1.1,1.1,0,1,1,.82,2h0l-2.8,1.12a1.1,1.1,0,1,1-.81-2Z"></path><path class="cls-43" d="M932,452.55l2.72-1.24h0a1.11,1.11,0,1,1,.92,2h0L933,454.57a1.11,1.11,0,1,1-.92-2Z"></path><path class="cls-43" d="M941,448.26l2.65-1.37h0a1.12,1.12,0,0,1,1.5.47,1.1,1.1,0,0,1-.47,1.5h0L942,450.24a1.11,1.11,0,1,1-1-2Z"></path><path class="cls-43" d="M949.74,443.51l2.57-1.52h0a1.12,1.12,0,0,1,1.13,1.93h0l-2.6,1.53a1.11,1.11,0,1,1-1.13-1.92Z"></path><path class="cls-43" d="M958.19,438.28l2.48-1.66h0a1.13,1.13,0,0,1,1.56.31,1.11,1.11,0,0,1-.31,1.55h0l-2.5,1.69a1.14,1.14,0,0,1-1.56-.31,1.11,1.11,0,0,1,.31-1.55Z"></path><path class="cls-43" d="M966.31,432.57l2.37-1.81h0a1.12,1.12,0,0,1,1.58.21,1.14,1.14,0,0,1-.21,1.58h0l-2.41,1.83a1.12,1.12,0,0,1-1.36-1.79Z"></path><path class="cls-43" d="M974.06,426.36l2.24-2h0a1.13,1.13,0,1,1,1.49,1.7h0l-2.28,2a1.14,1.14,0,0,1-1.6-.11,1.13,1.13,0,0,1,.11-1.59Z"></path><path class="cls-43" d="M981.38,419.66l2.1-2.11h0a1.13,1.13,0,0,1,1.61,0,1.15,1.15,0,0,1,0,1.61h0L983,421.28a1.13,1.13,0,1,1-1.61-1.6Z"></path><path class="cls-43" d="M988.23,412.48l1.95-2.24,0,0a1.14,1.14,0,1,1,1.72,1.5h0l-2,2.27a1.14,1.14,0,0,1-1.72-1.5Z"></path><path class="cls-43" d="M994.57,404.86l1.81-2.37v0a1.15,1.15,0,0,1,1.83,1.39h0l-1.84,2.4a1.15,1.15,0,1,1-1.82-1.39Z"></path><path class="cls-43" d="M1000.39,396.82l1.64-2.49h0a1.16,1.16,0,1,1,1.93,1.27h0l-1.67,2.52a1.15,1.15,0,0,1-1.92-1.27Z"></path><path class="cls-43" d="M1005.66,388.41l1.48-2.58v0a1.16,1.16,0,1,1,2,1.14h0l-1.5,2.63a1.16,1.16,0,0,1-2-1.15Z"></path><path class="cls-43" d="M1010.38,379.68l1.3-2.68v0a1.16,1.16,0,1,1,2.09,1h0l-1.33,2.72a1.16,1.16,0,1,1-2.08-1Z"></path><path class="cls-43" d="M1014.52,370.66l1.13-2.75v0a1.18,1.18,0,0,1,1.53-.64,1.17,1.17,0,0,1,.63,1.52h0l-1.15,2.79a1.17,1.17,0,0,1-2.16-.89Z"></path><path class="cls-43" d="M1018.1,361.4l1-2.82v0a1.17,1.17,0,0,1,2.22.76h0l-1,2.86a1.17,1.17,0,1,1-2.22-.76Z"></path><path class="cls-43" d="M1021.12,351.94l.8-2.87v0a1.18,1.18,0,1,1,2.27.63h0l-.81,2.91a1.18,1.18,0,1,1-2.27-.63Z"></path><path class="cls-43" d="M1023.58,342.32l.63-2.91v0a1.18,1.18,0,1,1,2.31.5h0l-.64,2.95a1.18,1.18,0,0,1-1.41.9,1.17,1.17,0,0,1-.9-1.4Z"></path><path class="cls-43" d="M1025.5,332.57l.47-2.94v0a1.19,1.19,0,0,1,2.34.38h0l-.48,3a1.19,1.19,0,0,1-2.34-.38Z"></path><path class="cls-43" d="M1026.89,322.74l.31-3v0a1.2,1.2,0,0,1,2.38.25h0l-.32,3a1.19,1.19,0,0,1-2.37-.26Z"></path><path class="cls-43" d="M1027.75,312.84l.16-3v0a1.2,1.2,0,1,1,2.39.13h0l-.16,3a1.2,1.2,0,0,1-2.39-.13Z"></path><path class="cls-43" d="M1028.1,302.9v-3a1.21,1.21,0,1,1,2.41,0h0v3a1.21,1.21,0,0,1-2.41,0Z"></path><path class="cls-43" d="M1028,293l-.14-3h0a1.21,1.21,0,1,1,2.42-.11h0l.13,3a1.21,1.21,0,1,1-2.41.11Z"></path><path class="cls-43" d="M1027.35,283l-.27-3v0a1.21,1.21,0,1,1,2.41-.22h0l.28,3a1.21,1.21,0,0,1-2.41.22Z"></path><path class="cls-43" d="M1026.27,273.16l-.42-3v0a1.22,1.22,0,0,1,2.42-.34h0l.41,3a1.22,1.22,0,0,1-2.41.34Z"></path><path class="cls-43" d="M1024.72,263.34l-.55-2.93v0a1.22,1.22,0,1,1,2.4-.45h0l.56,3a1.22,1.22,0,1,1-2.4.45Z"></path><path class="cls-43" d="M1022.72,253.6l-.68-2.9v0a1.24,1.24,0,0,1,.92-1.48,1.23,1.23,0,0,1,1.48.91h0l.69,2.94a1.24,1.24,0,0,1-.92,1.48,1.23,1.23,0,0,1-1.47-.92Z"></path><path class="cls-43" d="M1020.29,244l-.82-2.87v0a1.23,1.23,0,1,1,2.37-.67h0l.82,2.9a1.23,1.23,0,0,1-2.37.67Z"></path><path class="cls-43" d="M1017.42,234.44l-.94-2.83v0a1.24,1.24,0,1,1,2.35-.78h0l.95,2.86a1.24,1.24,0,0,1-.78,1.57,1.25,1.25,0,0,1-1.57-.79Z"></path><path class="cls-43" d="M1014.13,225.05l-1.06-2.79h0a1.25,1.25,0,0,1,2.33-.89h0l1.07,2.82a1.24,1.24,0,1,1-2.32.88Z"></path><path class="cls-43" d="M1010.45,215.81l-1.19-2.74h0a1.25,1.25,0,1,1,2.29-1h0l1.19,2.77a1.25,1.25,0,0,1-2.29,1Z"></path><path class="cls-43" d="M1006.37,206.74l-1.3-2.69h0a1.26,1.26,0,0,1,.59-1.68,1.25,1.25,0,0,1,1.67.59h0l1.31,2.72a1.25,1.25,0,1,1-2.26,1.08Z"></path><path class="cls-43" d="M1001.91,197.85l-1.41-2.63v0a1.26,1.26,0,0,1,2.22-1.19h0l1.42,2.66a1.26,1.26,0,1,1-2.22,1.19Z"></path><path class="cls-43" d="M997.09,189.14l-1.51-2.57h0a1.27,1.27,0,0,1,.45-1.73,1.25,1.25,0,0,1,1.73.45h0l1.53,2.6a1.26,1.26,0,0,1-2.18,1.28Z"></path><path class="cls-43" d="M991.93,180.64l-1.62-2.51h0a1.27,1.27,0,0,1,2.14-1.37h0l1.63,2.53a1.27,1.27,0,1,1-2.14,1.38Z"></path><path class="cls-43" d="M986.42,172.36l-1.71-2.45h0a1.27,1.27,0,1,1,2.08-1.46h0l1.72,2.47a1.26,1.26,0,0,1-.31,1.77,1.28,1.28,0,0,1-1.77-.31Z"></path><path class="cls-43" d="M980.59,164.29l-1.81-2.37h0a1.28,1.28,0,1,1,2-1.55h0l1.83,2.4a1.29,1.29,0,0,1-.25,1.79,1.27,1.27,0,0,1-1.79-.25Z"></path><path class="cls-43" d="M974.45,156.46l-1.9-2.3h0a1.28,1.28,0,0,1,.17-1.81,1.29,1.29,0,0,1,1.81.17h0l1.92,2.32a1.29,1.29,0,1,1-2,1.63Z"></path><path class="cls-43" d="M968,148.88l-2-2.23h0a1.29,1.29,0,0,1,1.93-1.72h0l2,2.25a1.29,1.29,0,0,1-1.92,1.72Z"></path><path class="cls-43" d="M961.3,141.54l-2.07-2.16h0a1.29,1.29,0,1,1,1.87-1.79h0l2.09,2.17a1.3,1.3,0,0,1-1.87,1.8Z"></path><path class="cls-43" d="M954.31,134.45l-2.15-2.07h0A1.3,1.3,0,0,1,954,130.5h0l2.17,2.1a1.3,1.3,0,1,1-1.81,1.86Z"></path><path class="cls-43" d="M947.06,127.64l-2.22-2h0a1.3,1.3,0,0,1,1.74-1.94h0l2.25,2a1.32,1.32,0,0,1,.09,1.85,1.3,1.3,0,0,1-1.84.09Z"></path><path class="cls-43" d="M939.57,121.08l-2.29-1.91h0a1.31,1.31,0,1,1,1.68-2h0l2.31,1.93a1.31,1.31,0,1,1-1.68,2Z"></path><path class="cls-43" d="M931.86,114.79,929.5,113h0a1.32,1.32,0,0,1,1.62-2.08h0l2.37,1.86a1.31,1.31,0,1,1-1.61,2.07Z"></path><path class="cls-43" d="M923.93,108.77,921.52,107h0a1.32,1.32,0,0,1,1.55-2.13h0l2.44,1.77a1.32,1.32,0,1,1-1.56,2.13Z"></path><path class="cls-43" d="M915.81,103l-2.47-1.67h0a1.33,1.33,0,0,1,1.49-2.2h0l2.49,1.69a1.31,1.31,0,0,1,.35,1.84,1.33,1.33,0,0,1-1.84.35Z"></path><path class="cls-43" d="M907.51,97.5,905,95.91h0a1.33,1.33,0,0,1,1.42-2.25h0L909,95.27a1.33,1.33,0,0,1,.41,1.83,1.34,1.34,0,0,1-1.84.41Z"></path><path class="cls-43" d="M899,92.27l-2.57-1.52h0a1.35,1.35,0,0,1-.47-1.83,1.33,1.33,0,0,1,1.83-.47h0L900.41,90a1.33,1.33,0,1,1-1.36,2.29Z"></path><path class="cls-43" d="M890.42,87.29l-2.62-1.44h0a1.34,1.34,0,1,1,1.3-2.35h0L891.72,85a1.34,1.34,0,1,1-1.29,2.35Z"></path><path class="cls-43" d="M881.65,82.57,879,81.21h0a1.34,1.34,0,0,1-.59-1.81,1.35,1.35,0,0,1,1.82-.58h0l2.68,1.38a1.35,1.35,0,1,1-1.24,2.39Z"></path><path class="cls-43" d="M872.74,78.12,870,76.83h0a1.35,1.35,0,1,1,1.16-2.43h0l2.71,1.3a1.35,1.35,0,1,1-1.16,2.43Z"></path><path class="cls-43" d="M863.71,73.92,861,72.71h0a1.36,1.36,0,0,1,1.1-2.48h0l2.75,1.22a1.36,1.36,0,1,1-1.1,2.48Z"></path><path class="cls-43" d="M854.56,70l-2.77-1.13h0a1.36,1.36,0,0,1,1-2.52h0l2.79,1.14a1.36,1.36,0,0,1-1,2.52Z"></path><path class="cls-43" d="M845.3,66.29l-2.79-1.05h0a1.38,1.38,0,0,1-.79-1.77,1.36,1.36,0,0,1,1.76-.79h0l2.82,1.06a1.37,1.37,0,0,1-1,2.56Z"></path><path class="cls-43" d="M836,62.87l-2.83-1h0a1.37,1.37,0,1,1,.9-2.59h0l2.85,1a1.37,1.37,0,0,1-.9,2.59Z"></path><path class="cls-43" d="M826.5,59.7l-2.85-.9h0a1.38,1.38,0,0,1,.83-2.63h0l2.87.91a1.38,1.38,0,1,1-.83,2.63Z"></path><path class="cls-43" d="M817,56.79,814.1,56h0a1.38,1.38,0,0,1,.76-2.66h0l2.9.83A1.38,1.38,0,0,1,817,56.8Z"></path><path class="cls-43" d="M807.37,54.15l-2.89-.75h0a1.39,1.39,0,0,1,.69-2.69h0l2.91.75a1.39,1.39,0,1,1-.69,2.69Z"></path><path class="cls-43" d="M797.7,51.76l-2.91-.67h0a1.39,1.39,0,1,1,.62-2.72h0l2.93.68a1.39,1.39,0,1,1-.62,2.71Z"></path><path class="cls-43" d="M788,49.63,785,49h0a1.4,1.4,0,1,1,.55-2.74h0l2.95.59a1.4,1.4,0,0,1-.55,2.74Z"></path><path class="cls-43" d="M778.18,47.76l-2.94-.51h0a1.4,1.4,0,1,1,.47-2.76h0l3,.51a1.4,1.4,0,0,1-.48,2.76Z"></path><path class="cls-43" d="M768.35,46.16l-3-.43h0a1.41,1.41,0,0,1,.41-2.79h0l3,.44A1.39,1.39,0,0,1,770,45a1.4,1.4,0,0,1-1.59,1.19Z"></path><path class="cls-43" d="M758.48,44.82l-2.7-.31h0a1.41,1.41,0,0,1,.33-2.81h0l2.71.32a1.41,1.41,0,0,1-.33,2.81Z"></path><polygon class="cls-56" points="738.35 27.73 739.32 45.3 725.72 38.65 738.35 27.73"></polygon><path class="cls-57" d="M650.26,23.65l54.86,38a5.32,5.32,0,0,0,7-1L753.77,8.4a1.67,1.67,0,0,0,.09-2,2,2,0,0,0-2-.77Z"></path><polygon class="cls-58" points="738.35 27.74 650.26 23.65 731.66 36.18 732.16 41.04 738.35 27.74"></polygon><polygon class="cls-59" points="727.65 41.16 739.32 45.3 731.66 36.18 727.65 41.16"></polygon><path class="cls-60" d="M338,52.14c-1.21-10.38,10.61-25,32-12.09.58-4.92,27.41-20.22,39.84,12,2.13-7.81,21.6-3.9,25.1,9.3,7.32-3.26,24.93,13.09,1.63,15.92-29.76,3.6-97.93,2.56-110.15-15.3S338,52.14,338,52.14Z"></path><path class="cls-61" d="M465.81,89.34c-.67-5.75,5.86-13.84,17.68-6.69.33-2.72,15.16-11.17,22,6.62,1.17-4.32,11.93-2.15,13.87,5.14,4.05-1.8,13.78,7.24.9,8.8-16.45,2-54.13,1.41-60.88-8.46S465.81,89.34,465.81,89.34Z"></path><path class="cls-62" d="M946.56,136.59l-14.5-6.26a3.72,3.72,0,0,0-3.46.26L915.22,139a3.72,3.72,0,0,1-5.69-3.51L911,119.75a3.72,3.72,0,0,0-1.32-3.21l-12.11-10.13a3.72,3.72,0,0,1,1.57-6.5l15.41-3.45a3.74,3.74,0,0,0,2.65-2.25l5.88-14.65a3.74,3.74,0,0,1,6.68-.51l8,13.58a3.72,3.72,0,0,0,3,1.82l15.75,1.08a3.73,3.73,0,0,1,2.55,6.18l-10.44,11.86a3.72,3.72,0,0,0-.81,3.37l3.84,15.31A3.73,3.73,0,0,1,946.56,136.59Z"></path><path class="cls-43" d="M913.59,115.64a7.35,7.35,0,0,0-1.6-1.87l-7.91-6.61a2.83,2.83,0,0,1,1.2-4.93L915.34,100a7.34,7.34,0,0,0,5.2-4.43L924.39,86a2.82,2.82,0,0,1,5.05-.38l2.69,4.53-.69.41L928.75,86a2,2,0,0,0-3.62.27l-3.84,9.57a8.15,8.15,0,0,1-5.78,4.91L905.45,103a2,2,0,0,0-.85,3.52l7.91,6.62a8.13,8.13,0,0,1,1.76,2.07Z"></path><path class="cls-43" d="M916.44,133.45a2.82,2.82,0,0,1-2.81-3.09l.74-7.86.8.08-.74,7.85a2,2,0,0,0,3.09,1.91l8.73-5.48a8.23,8.23,0,0,1,7.56-.58l9.47,4.09A2,2,0,0,0,946,128l-2.51-10a8.12,8.12,0,0,1,1.79-7.36l6.81-7.74a2,2,0,0,0-1.38-3.36l-10.29-.7a8.09,8.09,0,0,1-3.05-.82l.36-.72a7.08,7.08,0,0,0,2.74.74l10.29.7a2.81,2.81,0,0,1,2.42,1.75,2.78,2.78,0,0,1-.49,2.94l-6.81,7.74a7.33,7.33,0,0,0-1.61,6.64l2.51,10A2.82,2.82,0,0,1,943,131.1L933.49,127a7.43,7.43,0,0,0-6.81.53L918,133A2.86,2.86,0,0,1,916.44,133.45Z"></path><rect class="cls-43" x="932.18" y="90.12" width="0.8" height="3.12" transform="translate(83.45 488.03) rotate(-30.64)"></rect><path class="cls-63" d="M885.51,163.4l-10.6-4.58a2.74,2.74,0,0,0-2.53.2l-9.77,6.13a2.72,2.72,0,0,1-4.16-2.57l1.07-11.48a2.7,2.7,0,0,0-1-2.35l-8.86-7.4a2.73,2.73,0,0,1,1.16-4.76l11.26-2.52a2.73,2.73,0,0,0,1.93-1.64l4.3-10.71a2.73,2.73,0,0,1,4.88-.37l5.88,9.93a2.74,2.74,0,0,0,2.16,1.33l11.51.78a2.73,2.73,0,0,1,1.87,4.52L887,146.57a2.74,2.74,0,0,0-.6,2.47l2.81,11.19A2.73,2.73,0,0,1,885.51,163.4Z"></path><path class="cls-43" d="M861.41,148.09a5.23,5.23,0,0,0-1.16-1.36l-5.78-4.84a2.06,2.06,0,0,1,.87-3.6l7.35-1.65a5.34,5.34,0,0,0,3.81-3.23l2.81-7a2.07,2.07,0,0,1,3.69-.29l2,3.32-.5.3-2-3.32a1.48,1.48,0,0,0-2.65.21l-2.81,7a5.92,5.92,0,0,1-4.22,3.58l-7.35,1.65a1.48,1.48,0,0,0-1.12,1.1,1.46,1.46,0,0,0,.49,1.48l5.78,4.84a5.88,5.88,0,0,1,1.3,1.51Z"></path><path class="cls-43" d="M863.5,161.11a2.11,2.11,0,0,1-1.08-.31,2.06,2.06,0,0,1-1-2l.54-5.75.59.06L862,158.9a1.48,1.48,0,0,0,2.26,1.39l6.38-4a6,6,0,0,1,5.52-.43l6.92,3a1.48,1.48,0,0,0,2-1.72l-1.83-7.31a6,6,0,0,1,1.3-5.38l5-5.65a1.48,1.48,0,0,0-1-2.46l-7.52-.51a5.74,5.74,0,0,1-2.22-.6l.26-.52a5.36,5.36,0,0,0,2,.54l7.52.51a2.06,2.06,0,0,1,1.41,3.42l-5,5.66a5.36,5.36,0,0,0-1.18,4.85L885.7,157a2.06,2.06,0,0,1-2.82,2.4l-6.92-3a5.42,5.42,0,0,0-5,.38l-6.38,4A2.1,2.1,0,0,1,863.5,161.11Z"></path><rect class="cls-43" x="875" y="129.44" width="0.59" height="2.28" transform="translate(55.62 464.23) rotate(-30.63)"></rect><path class="cls-64" d="M627.41,457.92,615,477.09c5.8,11.3,12.24,17.53,18.68,20.49,1.15-7,5.26-12.87,8.28-16.34C630.41,474.7,627.41,457.92,627.41,457.92Z"></path><path class="cls-65" d="M670.23,477.8c-12.76,7.55-21.88,7.1-28.32,3.44-3,3.47-7.13,9.31-8.28,16.34,20.48,9.43,41-14.29,41-14.29Z"></path><path class="cls-66" d="M670.92,481.08s-3.44-6,1.51-10.62c0,0,1.6-1.82,3.35.86,0,0,5.33-4.84,6.79-2.89s5.32,6.77,1.55,12.28S672.61,483.79,670.92,481.08Z"></path><path class="cls-67" d="M676.16,478.11a3.32,3.32,0,0,1-1.73-.43,3,3,0,0,1-1.39-2.32,1,1,0,0,1,2-.26c.09.65.35.81.43.86a1.77,1.77,0,0,0,1,.13l-1.08-3.41a1,1,0,0,1,1.91-.6l1.4,4.43a1,1,0,0,1-.59,1.23A5.63,5.63,0,0,1,676.16,478.11Z"></path><path class="cls-68" d="M489.64,606.56a3.29,3.29,0,0,0-1.41,3.45c1,5.42,4.46,19.74,12.77,28.22a1.26,1.26,0,0,0,1.83,0c-2.11-2.19-4.72-5.94-7.76-12.3C490.38,616.16,489.51,610.13,489.64,606.56Z"></path><path class="cls-69" d="M500.37,606.35s-5.36-2.91-10.69.18l0,0c-.13,3.57.74,9.6,5.43,19.37,3,6.36,5.65,10.11,7.76,12.3a1.45,1.45,0,0,0,.34-.61C504.73,632.2,508,617.14,500.37,606.35Z"></path><path class="cls-70" d="M508.1,606.69l-4.85,4.66a2.57,2.57,0,0,1-3.17.3,6.75,6.75,0,0,1-2.46-3,2.56,2.56,0,0,1,.46-2.71l4.85-5.33A2.56,2.56,0,0,1,507,601l1.51,2.56A2.54,2.54,0,0,1,508.1,606.69Z"></path><path class="cls-71" d="M662.65,582.5a3.3,3.3,0,0,0,3.7.48c5-2.39,17.94-9.35,24-19.55a1.24,1.24,0,0,0-.47-1.77c-1.58,2.59-4.53,6.07-9.9,10.65C671.74,579.33,666.14,581.71,662.65,582.5Z"></path><path class="cls-72" d="M659.71,572.18s-1.44,5.92,2.9,10.29l0,0c3.49-.79,9.09-3.17,17.35-10.19,5.37-4.58,8.32-8.06,9.9-10.65a1.45,1.45,0,0,0-.67-.18C683.59,561.36,668.19,562,659.71,572.18Z"></path><path class="cls-73" d="M659.11,564l5.07,4.42a2.56,2.56,0,0,1,.58,3.12,6.71,6.71,0,0,1-2.81,2.73,2.55,2.55,0,0,1-2.74-.22l-5.74-4.35a2.55,2.55,0,0,1,0-4.11l2.42-1.74A2.56,2.56,0,0,1,659.11,564Z"></path><path class="cls-74" d="M557.36,519.31s-9.89,33.71-16.29,48.52c0,0-11.18,1.71-18.11,5.75S501.13,600,501.13,600s3.9,7.39,8.6,8.53l42.44-29.41L586,539.77l-1.61-18.27Z"></path><path class="cls-75" d="M558,516.56l-2.89,9.23s2.64,24.2,33.16,20.12,34.34-9.06,34.34-9.06-2.65,15.45,30.71,34c0,0,5.08-3.83,6.19-8.18L636.1,524.18c-3.25-5.06-6.27-6.39-12.2-5.46-13.13,2-37.72,4.73-41.44,4.09Z"></path><path class="cls-76" d="M581.8,447.91c-8.89.45-22.95,4.68-32,13a109.46,109.46,0,0,1,10.28,13c2.86-2.69,7-4.93,12.75-6.36a378.93,378.93,0,0,1-18.1,53,1.93,1.93,0,0,0,1.12,2.61c5.57,1.94,22,6.56,35.18-.88l29.21-41.83a35.83,35.83,0,0,0,6-15.09l1.15-7.54S601.18,446.93,581.8,447.91Z"></path><path class="cls-77" d="M565.87,511.21c-1.27-2.8-5.62-5.42-7.69-6.55-1.81-3.72-9-20.45,1.88-30.67a109.46,109.46,0,0,0-10.28-13c-10.48,9.64-14.31,24.79,4.06,46-1,5.23,2.26,11.31,4,12.16C558.69,519.51,567.56,514.94,565.87,511.21Z"></path><path class="cls-78" d="M574.5,467.48a.5.5,0,0,1-.49-.4.49.49,0,0,1,.38-.59l8.13-1.75a.5.5,0,0,1,.21,1l-8.13,1.76Z"></path><path class="cls-79" d="M601.53,436.8l-7.63,14.94a2.46,2.46,0,0,0,.36,2.77c1.85,2.06,6.21,5.41,13.8,3a2.3,2.3,0,0,0,1.57-1.87l2-13.57Z"></path><path class="cls-80" d="M614.26,419.46s4.47,10.28,4.77,15.68,1.47,8.89-4.77,10-11.5-2-14.35-7.4c0,0-4.46-8.28-3.46-11.67S614.26,419.46,614.26,419.46Z"></path><path class="cls-81" d="M602,433.86l.36-.16a.87.87,0,0,0,.42-1.18c-.88-1.7-2.6-5.59-.38-6.5,2.85-1.17,14.17-3.48,16.61-7.49,2.34-3.86.27-8.84-2.86-10.26a.43.43,0,0,0-.56.18l-.26.5a.43.43,0,0,1-.78-.08h0a.43.43,0,0,0-.77-.11c-.75,1.2-2.77,3.15-8.19,4.15-7.7,1.42-12.79,4.53-12.92,9.85a.42.42,0,0,1-.65.35c-.57-.34-1.48-.51-2.7.52-2.11,1.77-1.25,6.38,3.39,10.18a.42.42,0,0,1,0,.68c-.84.54-2.09,1.85,1.15,3.58a10.9,10.9,0,0,0,6.83,1.49.41.41,0,0,0,.34-.51l-1-4.68a.43.43,0,0,1,.42-.51Z"></path><path class="cls-82" d="M602.24,434.84s-1.71-6.56-4.66-4.72,1.53,7.36,3.9,7.6Z"></path><path class="cls-83" d="M685.72,472.38s-2.78-7.93-7.48-3.55-2.44,10.29,2.56,12.42S688.21,478.73,685.72,472.38Z"></path><path class="cls-84" d="M908.21,286.23l-2.35-6.77a172.66,172.66,0,0,1-35.77,22.41c.59,4.79,2.2,10.63,6.18,15.4A148.94,148.94,0,0,0,908.21,286.23Z"></path><path class="cls-85" d="M831.72,312.06l6,23.07c14.79-3.29,27.82-10.23,38.53-17.86-4-4.77-5.59-10.61-6.18-15.4C847,312.48,831.72,312.06,831.72,312.06Z"></path><path class="cls-86" d="M839.27,476.62c7.09-1.57,13.81-3.6,18.27-5.06-4.91-1.82-16.13-5.63-24.76-6l-5.54,1.14s-1.08,3.31,0,9.92C828.44,477.48,831.51,478.34,839.27,476.62Z"></path><path class="cls-87" d="M857.61,471.59l-.07,0c-4.46,1.46-11.18,3.49-18.27,5.06-7.76,1.72-10.83.86-12,0,0,.31.09.61.15.93a2.65,2.65,0,0,0,3.09,2.12c5.86-1.12,20.34-4,27.1-6.19A1,1,0,0,0,857.61,471.59Z"></path><path class="cls-88" d="M827.86,459.17c.79,0-1.05,4.09.19,8.08a2,2,0,0,0,1.9,1.6c.61,0,1.33,0,2.07-.09a2.27,2.27,0,0,0,2.07-2.07l2.44-10.4Z"></path><path class="cls-89" d="M753.73,520.52c7.25.37,14.27.2,19,0-4.25-3.06-14.05-9.73-22.27-12.4l-3.9-.25a2.58,2.58,0,0,0-2.58,1.59,29.79,29.79,0,0,0-1.81,7.85C743.06,518.47,745.79,520.12,753.73,520.52Z"></path><path class="cls-90" d="M772.75,520.55l-.06,0c-4.69.21-11.71.38-19,0-7.94-.4-10.67-2-11.6-3.22,0,.31-.07.61-.09.93a2.64,2.64,0,0,0,2.41,2.87c5.94.48,20.66,1.58,27.77,1.24A1,1,0,0,0,772.75,520.55Z"></path><path class="cls-91" d="M747.07,500.23c.79,0-1.32,4.69-1.35,8.82a1.82,1.82,0,0,0,1.88,1.64c.61,0,1.33,0,2.07-.05a2.29,2.29,0,0,0,2.1-2l3.92-9.45Z"></path><path class="cls-92" d="M745.22,503.18c3-12.16,23.16-97.53,37.32-116l20.1,4.1,2.32-2.85s47.52,13.91,52.95,19.13c4.45,4.29-21.1,56.2-21.1,56.2a10.69,10.69,0,0,1-10.29-2.28l8.06-36.25a2.74,2.74,0,0,0-2.1-3.27l-36.06-7.7a3.07,3.07,0,0,0-3.43,1.7c-7.63,16.21-33.83,72.51-38.37,89.9a1.06,1.06,0,0,1-1.09.81,26.79,26.79,0,0,1-7.12-1.26A1.86,1.86,0,0,1,745.22,503.18Z"></path><path class="cls-93" d="M795.07,413a.5.5,0,0,1-.32-.13.47.47,0,0,1,0-.66l4.71-4.81a.46.46,0,0,1,.65,0,.47.47,0,0,1,0,.65l-4.71,4.81A.47.47,0,0,1,795.07,413Z"></path><path class="cls-94" d="M838.2,311.7c-9.89-2.59-29.37-6.88-42.63-4.49L781.2,389.08c7.12,5,17.09,5.94,29.19,3.75l30.81-48.64a29.3,29.3,0,0,0,2.86-13.09C843.94,323.6,842.92,312.94,838.2,311.7Z"></path><path class="cls-95" d="M817.28,287.92s-3.11,13.21-5.26,19.17a1.51,1.51,0,0,0,1.19,1.84c3,.74,10,2.32,13.46,1.67a1.6,1.6,0,0,0,1.3-1.41l1.94-18Z"></path><path class="cls-96" d="M783.32,377s7.32-2.81,9.52-1.77,6,5,6,5-4.39,3.24-6.71,2.08-7.75,1.39-9.48,2.31S777,381.3,783.32,377Z"></path><path class="cls-97" d="M770.55,358.71a11.84,11.84,0,0,1,2-7.42c8.58-13.29,27.7-16.67,27.7-16.67l-4.67-27.41S763,321.67,755.69,346.65a23.37,23.37,0,0,0,3.07,20.22C762.62,361.48,767,359.39,770.55,358.71Z"></path><path class="cls-98" d="M770.55,358.71c-3.55.68-7.93,2.77-11.79,8.16,7.46,11.29,22.44,16.79,22.44,16.79l4.24-6S771.3,369.05,770.55,358.71Z"></path><path class="cls-99" d="M907.87,288.31c.07.81-2.94,1.37-3.9-2.09.26-1.5.73-8.07,1.88-9.09,6.13-5.44,17.06-11.56,17.06-11.56a2.24,2.24,0,0,1-.38,3.1l-5.45,3.68c.56,1.88,1.39,3.55,1.49,5.7a6.42,6.42,0,0,1-1.61,4.47,56,56,0,0,1-3.87,4.05A6.28,6.28,0,0,1,907.87,288.31Z"></path><path class="cls-100" d="M910.88,285.65l-.93-.38c.28-.68,2.76-6.66,4-8a2,2,0,0,0,.68-1.24.85.85,0,0,0-.24-.51L910,277.89l-1.95,3-.84-.54,2.08-3.26,5.22-2.79.25.21a2,2,0,0,1,.85,1.44,2.77,2.77,0,0,1-1,2C913.73,279,911.62,283.85,910.88,285.65Z"></path><path class="cls-101" d="M831.43,266.34c.21.3,6.71,23.42,6.71,23.42l-13.28,3.43-9.42-21S827.9,261.39,831.43,266.34Z"></path><path class="cls-102" d="M820.46,275.37l4.09,11.44a2.32,2.32,0,0,0,.22.41c.55.77,2.64,3.31,5.11,1,2.23-2.09,4.31-4,6.22-4.31a1.7,1.7,0,0,1,1.94,1.21,73.53,73.53,0,0,1,2.28,11.16,1.7,1.7,0,0,1-1.37,1.83,54.63,54.63,0,0,1-12.69,1.1,1.68,1.68,0,0,1-1.43-1c-1.28-2.76-5.2-11.14-6.65-13.3s-4.68-2-6.07-1.84a1.7,1.7,0,0,1-1.26-.4c-1.22-1.07-3.55-3.78-.3-7.06a1.7,1.7,0,0,0,0-2.45c-1.4-1.31-2.91-3.64-.59-6.54s5.49-2.5,7.41-1.81a1.69,1.69,0,0,0,2-.76,1.34,1.34,0,0,1,1.39-.65,1.66,1.66,0,0,0,1.77-1.73,5.07,5.07,0,0,1,3.9-5.3c5.79-1.83,9.44,3.76,9.81,8s-6,5.81-9.79,5.54c-2.86-.2-5,2.65-5.83,4A1.7,1.7,0,0,0,820.46,275.37Z"></path><path class="cls-103" d="M819.71,289.09s-1-7.27-4-7.61-6,2.15-2.93,6.22C816.55,292.76,819.71,289.09,819.71,289.09Z"></path><polygon class="cls-104" points="912 295.11 904.59 295.11 892.94 260.85 925.32 258.88 912 295.11"></polygon><path class="cls-105" d="M873.24,197.19c0,2.9,0,59.51,28.7,68.71s41.72-38.71,40.69-72.83Z"></path><rect class="cls-106" x="885.32" y="300.3" width="45.95" height="5.58"></rect><polygon class="cls-107" points="931.27 300.3 885.32 300.3 896.95 294.06 919.64 294.06 931.27 300.3"></polygon><path class="cls-108" d="M869.91,189.16c-2.53.15-4.59,2-4.59,4.15v4.36c0,2.12,2.07,3.76,4.59,3.62l78.77-4.24c2.52-.13,4.59-2,4.59-4.12v-5c0-2.13-2.07-3.75-4.59-3.59Z"></path><path class="cls-109" d="M922.29,270.4a3.49,3.49,0,0,1-3.63-2.74c-.23-1.69,1.21-3.21,3.22-3.41.38,0,26.82-2.83,29.32-17.3.42-2.43.38-5.62-2.25-6.95-2.16-1.1-5.7-.75-8.24.81-1.44.89-3,2.44-2.35,4.81.47,1.65-.74,3.32-2.71,3.71a3.74,3.74,0,0,1-4.41-2.28c-1.21-4.29.71-8.48,5.15-11.21,4.93-3,11.65-3.5,16.34-1.12,2.74,1.39,7.13,4.94,5.72,13.12s-8.16,14.57-19.54,18.74a72,72,0,0,1-16.2,3.79Z"></path><path class="cls-110" d="M894.88,270.4a3.49,3.49,0,0,0,3.63-2.74c.23-1.69-1.21-3.21-3.22-3.41-.38,0-26.81-2.83-29.32-17.3-.42-2.43-.37-5.62,2.25-6.95,2.16-1.1,5.71-.75,8.24.81,1.44.89,3,2.44,2.35,4.81-.47,1.65.74,3.32,2.71,3.71a3.74,3.74,0,0,0,4.41-2.28c1.22-4.29-.71-8.48-5.14-11.21-4.93-3-11.66-3.5-16.35-1.12-2.74,1.39-7.13,4.94-5.71,13.12s8.15,14.57,19.53,18.74a72.11,72.11,0,0,0,16.2,3.79Z"></path><path class="cls-43" d="M927,193.15a1,1,0,0,1,0-2l7-.38a1,1,0,1,1,.11,2l-7,.38Z"></path><path class="cls-43" d="M873.23,196a1,1,0,0,1-.05-2l42-2.26a1,1,0,0,1,1,.95,1,1,0,0,1-1,1.05l-42,2.26Z"></path><path class="cls-43" d="M905.78,259.88h-.12c-17.3-2-22.82-30.08-24.57-46.65a1,1,0,0,1,.89-1.1,1,1,0,0,1,1.1.89c1.36,12.86,6.3,43,22.81,44.88a1,1,0,0,1,.88,1.1A1,1,0,0,1,905.78,259.88Z"></path><path class="cls-43" d="M881.58,208.19a1,1,0,0,1-1-.93c-.11-1.76-.14-2.78-.14-2.78a1,1,0,0,1,1-1,1,1,0,0,1,1,1s0,1,.14,2.71a1,1,0,0,1-.93,1.06Z"></path><path class="cls-111" d="M920.36,284.07s1.15-8.33-5-6.58-6.87,8-3.4,12.22S919.67,290.85,920.36,284.07Z"></path><path class="cls-112" d="M402.55,413.84s-5.14,2.5-6.08,5.37c-.76,2.3-6.44,2.59-7,7.12a5.2,5.2,0,0,1-4.34,4.57c-5.8.88-14.74,3.9-16.17,14-1.09,7.68,2.83,10.6,6.94,11.61a5.82,5.82,0,0,1,4.42,6.72c-.59,2.93.28,6.3,5.35,9,11.35,6,22.68-14.19,22.68-14.19l2.33-35.23Z"></path><path class="cls-113" d="M464.3,405.49s-22.66,35.84-49.61,42.77c0,0,5.26,14.95,9.31,16.66,0,0,33.15-27.66,41.67-54.34Z"></path><path class="cls-114" d="M355.89,634.75l-.73,6A2.5,2.5,0,0,1,353,643a38.14,38.14,0,0,1-8.08.12,2.13,2.13,0,0,1-1.79-2.77c.74-2.33,2.09-5.83,4-7.88h6.69A2.06,2.06,0,0,1,355.89,634.75Z"></path><path class="cls-115" d="M408.35,564l1.13,6.65S405.7,609,405,624.35a12.1,12.1,0,0,0,1.78,6.84l6.59,10.69L396.66,632l-.34-2,2.74-3.76-3.59-43A13.17,13.17,0,0,1,397,576l3.46-6.5Z"></path><path class="cls-116" d="M414.49,643.42h-5.34a3.19,3.19,0,0,1-2.55-1.25c-1.67-2.16-5.12-6.38-6.76-6.49-2.22-.15-1.94,7.74-1.94,7.74h-1.24l-1.58-9.8a5.8,5.8,0,0,1,3.05-6.07h0s.5,3.75,3.25,5.41,11.2,7.61,11.2,7.61a7.47,7.47,0,0,1,2.17.06A1.41,1.41,0,0,1,414.49,643.42Z"></path><path class="cls-117" d="M385.44,567.18s-22.18,42.07-25.71,51.67a91.87,91.87,0,0,0-4.8,18.38c-.08,1.19-1.55,2.32-5.62,2.32a3.92,3.92,0,0,1-3.63-1.65,2.38,2.38,0,0,1-.09-2.3c1.29-2.59,5.36-10.89,6.87-14.65,1.8-4.5,5.67-24.86,7.79-31.94s4.53-14.76,13.78-21.83C374,567.18,380.37,561,385.44,567.18Z"></path><path class="cls-118" d="M399.45,498.24c5.72-24.24-8.77-37.95-8.77-37.95,9.14-8.78,25.8-12.77,25.8-12.77s15.9,11.62,14,20.72c-1.11,5.33-11.18,31.94-11.18,31.94A22.1,22.1,0,0,1,399.45,498.24Z"></path><path class="cls-119" d="M386.76,510.24c2.33-7,12.69-12,12.69-12a22.1,22.1,0,0,0,19.87,1.94s2.09,8,.65,15.4-10.49,55.09-10.49,55.09c-14.24,2.89-36.16-2.91-36.16-2.91C382.4,551.65,384.44,517.26,386.76,510.24Z"></path><path class="cls-120" d="M406.09,431.5l-4.65,20.89c-.45,1.84,1.23,1.54,3.09,1.19,3.05-.58,7-1.76,8.29-4.13a2.34,2.34,0,0,0,.24-.79l2-14.49a2.6,2.6,0,0,0-1.52-2.73l-3.86-1.71A2.6,2.6,0,0,0,406.09,431.5Z"></path><path class="cls-121" d="M415,412.45s4.95,3.35,7.08,11.89-1.33,11.6-4.88,11.41-8.68-1.28-13.13-7.41S408.51,408.35,415,412.45Z"></path><path class="cls-122" d="M408.56,424.9s-1.82-12.23,8.34-10.36l2.05,2.14s5-5.6-.53-9.83-13.13-3.15-17.36,4.55-5.75,13.12-2.21,17.91,6.2.68,6.2.68-1.62-4.15-.28-5.92,3.09,1,3.09,1Z"></path><path class="cls-123" d="M407.17,426s-.9-6.3-4.11-4.5,1.16,5.88,2.91,7.27Z"></path><path class="cls-124" d="M464.15,412.87c.07.74-2.68,1.25-3.56-1.9.24-1.37.67-7.37,1.72-8.3,5.59-5,15.55-10.53,15.55-10.53a2,2,0,0,1-.34,2.82l-5,3.36a19.68,19.68,0,0,1,1.36,5.2,5.76,5.76,0,0,1-1.47,4.06,48.39,48.39,0,0,1-3.52,3.7A5.77,5.77,0,0,1,464.15,412.87Z"></path><path class="cls-125" d="M466.93,410.46l-.92-.38c.25-.62,2.51-6.09,3.66-7.28a1.8,1.8,0,0,0,.61-1.1.7.7,0,0,0-.19-.41l-3.94,2.11-1.77,2.76-.84-.53,1.9-3,4.79-2.56.26.21a1.87,1.87,0,0,1,.78,1.35,2.52,2.52,0,0,1-.88,1.85C469.53,404.39,467.6,408.82,466.93,410.46Z"></path><path class="cls-126" d="M390.68,460.29s-25.75,52.87-35.08,57.49c0,0-9.47,1-15.26,2.74a1.51,1.51,0,0,0,.06,2.91c4,1.1,10.72,2,16.85-1.3,0,0-3.29,4.93-1.37,6.85,0,0,4.38-5.21,6-6.85,1.45-1.45,27.82-30.2,38.9-47.54.9-1.4.28-5.56-.34-7.1C399,463.94,395.86,458.27,390.68,460.29Z"></path><g class="cls-3"><path class="cls-127" d="M92,220.81a1,1,0,0,1-.85-.48c-.71-1.16-1.37-2.36-2-3.57a1,1,0,1,1,1.78-.9c.59,1.17,1.23,2.32,1.91,3.43a1,1,0,0,1-.34,1.37A1,1,0,0,1,92,220.81Z"></path><path class="cls-127" d="M85.89,205.53a1,1,0,0,1-1-.79c-.07-.33-.14-.66-.2-1a50.56,50.56,0,0,1-.86-6.8,1,1,0,0,1,2-.11,48,48,0,0,0,.82,6.52c.06.32.13.64.2,1a1,1,0,0,1-.77,1.18A.76.76,0,0,1,85.89,205.53Zm-.18-20.1-.19,0a1,1,0,0,1-.79-1.18,50,50,0,0,1,2.14-7.56,1,1,0,1,1,1.87.69,48.48,48.48,0,0,0-2,7.27A1,1,0,0,1,85.71,185.43Zm7.86-18.5a1,1,0,0,1-.57-.17,1,1,0,0,1-.25-1.4,51.52,51.52,0,0,1,5-6.09,1,1,0,0,1,1.45,1.38,48.53,48.53,0,0,0-4.77,5.85A1,1,0,0,1,93.57,166.93Zm14.55-13.85a1,1,0,0,1-.53-1.85,50.12,50.12,0,0,1,7-3.61,1,1,0,1,1,.78,1.84,47.23,47.23,0,0,0-6.7,3.47A1,1,0,0,1,108.12,153.08Zm18.87-6.9a1,1,0,0,1-1-.86,1,1,0,0,1,.84-1.13,51.12,51.12,0,0,1,7.41-.55h.43a1,1,0,1,1,0,2h-.41a48.64,48.64,0,0,0-7.12.53Z"></path><path class="cls-127" d="M150.92,148.55a1,1,0,0,1-.34-.05c-1.23-.45-2.48-.84-3.74-1.18a1,1,0,0,1-.7-1.23,1,1,0,0,1,1.23-.7c1.3.35,2.61.76,3.89,1.22a1,1,0,0,1-.34,1.94Z"></path><path class="cls-127" d="M180.08,176.66a1,1,0,0,1-.93-.63c-.48-1.2-1-2.4-1.6-3.57a1,1,0,0,1,.45-1.34,1,1,0,0,1,1.34.45c.61,1.21,1.17,2.47,1.67,3.72a1,1,0,0,1-.55,1.3A1,1,0,0,1,180.08,176.66Z"></path><path class="cls-127" d="M134.15,244.52c-1,0-2,0-3-.09a1,1,0,1,1,.12-2,49.67,49.67,0,0,0,7.42-.13,1,1,0,0,1,1.09.9,1,1,0,0,1-.9,1.09C137.32,244.45,135.73,244.52,134.15,244.52Zm16.65-2.87a1,1,0,0,1-.94-.67,1,1,0,0,1,.61-1.27,48.82,48.82,0,0,0,6.78-3,1,1,0,0,1,.95,1.76,49.45,49.45,0,0,1-7.06,3.14A1,1,0,0,1,150.8,241.65Zm16.91-10.22a1,1,0,0,1-.67-1.74,49,49,0,0,0,5.05-5.43,1,1,0,0,1,1.4-.16,1,1,0,0,1,.16,1.4,49.45,49.45,0,0,1-5.26,5.66A1,1,0,0,1,167.71,231.43Zm11.56-16a1,1,0,0,1-.41-.09,1,1,0,0,1-.5-1.32,48.08,48.08,0,0,0,2.53-7,1,1,0,0,1,1.93.54,50.8,50.8,0,0,1-2.64,7.26A1,1,0,0,1,179.27,215.39Zm4.36-19.28h0a1,1,0,0,1-1-1c0-.32,0-.64,0-1a47.93,47.93,0,0,0-.43-6.44,1,1,0,0,1,.86-1.13,1,1,0,0,1,1.12.86,50.31,50.31,0,0,1,.45,6.71c0,.34,0,.67,0,1A1,1,0,0,1,183.63,196.11Z"></path><path class="cls-127" d="M119.1,242.16a1,1,0,0,1-.3,0c-1.29-.41-2.58-.89-3.83-1.4a1,1,0,0,1,.76-1.85c1.21.49,2.44.95,3.68,1.35a1,1,0,0,1-.31,1.95Z"></path><path class="cls-128" d="M115.41,227.08a.59.59,0,0,0,.69,0l5.9-4.16a31.42,31.42,0,0,0,9.92,2.35l3.42,6.35a.58.58,0,0,0,.61.31l8.55-1.39a.6.6,0,0,0,.49-.48l1.23-7.12a31.34,31.34,0,0,0,8.67-5.36l6.91,2.09a.59.59,0,0,0,.65-.23l5.07-7a.59.59,0,0,0,0-.69l-4.16-5.9a31.41,31.41,0,0,0,2.34-9.92l6.36-3.41a.61.61,0,0,0,.31-.62L171,183.33a.59.59,0,0,0-.49-.49l-7.11-1.23a31.34,31.34,0,0,0-5.36-8.67L160.1,166a.57.57,0,0,0-.22-.65l-7-5.07a.59.59,0,0,0-.69,0l-5.9,4.16a31.41,31.41,0,0,0-9.92-2.34l-3.42-6.36a.59.59,0,0,0-.61-.31l-8.55,1.39a.59.59,0,0,0-.49.49l-1.23,7.11a31.34,31.34,0,0,0-8.67,5.36l-6.91-2.08a.57.57,0,0,0-.65.22l-5.07,7a.59.59,0,0,0,0,.69l4.16,5.9a31.14,31.14,0,0,0-2.34,9.92l-6.36,3.42a.59.59,0,0,0-.31.61l1.39,8.55a.59.59,0,0,0,.49.49l7.11,1.23a31.19,31.19,0,0,0,5.36,8.67l-2.08,6.91a.58.58,0,0,0,.22.66Z"></path><path class="cls-43" d="M134.14,202.89a9.2,9.2,0,0,1-8.44-5.55,9.19,9.19,0,1,1,17-.26,9.22,9.22,0,0,1-8.54,5.81Zm0-15.39a6.21,6.21,0,1,0,2.29.44A6.29,6.29,0,0,0,134.13,187.5Z"></path><path class="cls-43" d="M134.2,215.94h-.38l-.74,0h0l.15-3a19.75,19.75,0,0,0,4.13-.23l.7-.13a19.24,19.24,0,0,0,11.19-6.72l.23-.28.51-.68a19.29,19.29,0,0,0,3.66-11.3,19.67,19.67,0,0,0-.25-3.15,19.4,19.4,0,0,0-38.55,3.07,19.86,19.86,0,0,0,.25,3.15,19.29,19.29,0,0,0,4.31,9.39L117.1,208a22.39,22.39,0,1,1,20.72,7.68h0A23.15,23.15,0,0,1,134.2,215.94Z"></path><path class="cls-129" d="M157.12,167.23a1,1,0,0,1-.85-.48c-.7-1.15-1.38-2.33-2-3.51a1,1,0,0,1,1.76-1c.63,1.15,1.29,2.3,2,3.42a1,1,0,0,1-.33,1.37A1,1,0,0,1,157.12,167.23Z"></path><path class="cls-129" d="M150,152.28a1,1,0,0,1-.94-.66c-.88-2.45-1.65-5-2.31-7.5a1,1,0,0,1,.72-1.22,1,1,0,0,1,1.22.72c.64,2.47,1.4,4.93,2.26,7.32a1,1,0,0,1-.61,1.28A1,1,0,0,1,150,152.28Zm-4.5-19.81a1,1,0,0,1-1-.9c-.27-2.59-.41-5.23-.43-7.83a1,1,0,0,1,1-1h0a1,1,0,0,1,1,1c0,2.54.16,5.11.42,7.65a1,1,0,0,1-.89,1.1Zm.44-20.31h-.14a1,1,0,0,1-.85-1.13c.38-2.58.88-5.17,1.5-7.7a1,1,0,0,1,1.21-.74,1,1,0,0,1,.73,1.21c-.6,2.47-1.09,5-1.46,7.52A1,1,0,0,1,145.9,112.16Zm5.4-19.58a1.07,1.07,0,0,1-.39-.07,1,1,0,0,1-.54-1.31c1-2.4,2.12-4.79,3.34-7.1a1,1,0,0,1,1.35-.42,1,1,0,0,1,.42,1.35c-1.19,2.26-2.29,4.59-3.26,6.94A1,1,0,0,1,151.3,92.58Zm10-17.67a1,1,0,0,1-.59-.2,1,1,0,0,1-.21-1.4c1.55-2.09,3.21-4.14,4.95-6.08a1,1,0,0,1,1.42-.08,1,1,0,0,1,.07,1.41c-1.69,1.9-3.32,3.9-4.83,5.94A1,1,0,0,1,161.29,74.91Zm14-14.73a1,1,0,0,1-.77-.36,1,1,0,0,1,.14-1.41c2-1.66,4.12-3.24,6.28-4.7a1,1,0,0,1,1.39.27,1,1,0,0,1-.27,1.39c-2.1,1.42-4.17,3-6.13,4.58A1,1,0,0,1,175.27,60.18Zm17.15-10.87a1,1,0,0,1-.43-1.9c2.36-1.11,4.8-2.13,7.25-3a1,1,0,1,1,.68,1.88c-2.39.86-4.77,1.85-7.07,2.94A1.11,1.11,0,0,1,192.42,49.31ZM211.71,43a1,1,0,0,1-.2-2l.26-.05c2.47-.49,5-.87,7.5-1.13a1,1,0,0,1,1.1.9,1,1,0,0,1-.89,1.09c-2.45.26-4.91.63-7.33,1.1l-.25.05Zm28-.75-.14,0c-2.52-.36-5.08-.61-7.63-.73a1,1,0,0,1-.95-1,1,1,0,0,1,1-1c2.61.13,5.23.38,7.81.76a1,1,0,0,1,.85,1.13A1,1,0,0,1,239.68,42.22Z"></path><path class="cls-129" d="M255.8,46.25a1,1,0,0,1-.33-.06c-1.24-.45-2.5-.87-3.75-1.25A1,1,0,0,1,252.3,43c1.29.39,2.58.82,3.84,1.27a1,1,0,0,1-.34,2Z"></path><path class="cls-129" d="M303.6,90.82a1,1,0,0,1-.92-.6c-.53-1.19-1.09-2.4-1.67-3.58a1,1,0,0,1,.44-1.34,1,1,0,0,1,1.35.45c.6,1.21,1.17,2.44,1.71,3.67a1,1,0,0,1-.51,1.31A1,1,0,0,1,303.6,90.82Z"></path><path class="cls-129" d="M231.91,206.83a1,1,0,0,1,0-2c2.49-.13,5-.37,7.5-.73a1,1,0,0,1,.28,2c-2.54.36-5.13.62-7.68.74Zm-12.39-.31h-.1c-2.55-.26-5.12-.64-7.64-1.13a1,1,0,1,1,.39-2c2.45.48,5,.85,7.45,1.1a1,1,0,0,1-.1,2Zm32.08-3.09a1,1,0,0,1-.29-2c2.41-.71,4.8-1.55,7.12-2.48a1,1,0,1,1,.74,1.85c-2.37,1-4.82,1.82-7.28,2.55A1,1,0,0,1,251.6,203.43Zm18.31-8a1,1,0,0,1-.86-.49,1,1,0,0,1,.35-1.37c2.16-1.27,4.28-2.66,6.3-4.13a1,1,0,0,1,1.4.23,1,1,0,0,1-.23,1.39c-2.07,1.51-4.24,2.93-6.45,4.23A1,1,0,0,1,269.91,195.44Zm15.84-12.17a1,1,0,0,1-.71-.3,1,1,0,0,1,0-1.41c1.78-1.75,3.51-3.61,5.13-5.52a1,1,0,1,1,1.52,1.29c-1.65,2-3.42,3.86-5.25,5.66A1,1,0,0,1,285.75,183.27Zm12.47-15.6a1,1,0,0,1-.52-.15,1,1,0,0,1-.33-1.38c1.32-2.13,2.55-4.34,3.67-6.59a1,1,0,0,1,1.34-.44,1,1,0,0,1,.45,1.34c-1.15,2.29-2.41,4.56-3.76,6.74A1,1,0,0,1,298.22,167.67Zm8.39-18.14a1,1,0,0,1-.3-.05,1,1,0,0,1-.65-1.26c.77-2.38,1.44-4.83,2-7.27a1,1,0,1,1,2,.44c-.56,2.5-1.25,5-2,7.45A1,1,0,0,1,306.61,149.53Zm3.79-19.62h-.06a1,1,0,0,1-.93-1.07c.12-1.86.19-3.74.19-5.6,0-.64,0-1.29,0-1.93a1,1,0,0,1,1-1,1,1,0,0,1,1,1c0,.66,0,1.32,0,2,0,1.9-.07,3.83-.2,5.74A1,1,0,0,1,310.4,129.91Zm-1-20a1,1,0,0,1-1-.83c-.09-.54-.19-1.09-.3-1.64-.37-1.91-.82-3.83-1.33-5.71a1,1,0,0,1,.71-1.23,1,1,0,0,1,1.22.71c.52,1.92,1,3.89,1.36,5.85.11.56.21,1.12.31,1.68a1,1,0,0,1-.81,1.16Z"></path><path class="cls-129" d="M200,202.11a1.06,1.06,0,0,1-.34-.06c-1.26-.45-2.53-.94-3.77-1.46a1,1,0,0,1,.76-1.84c1.21.5,2.45,1,3.69,1.42a1,1,0,0,1-.34,1.94Z"></path><path class="cls-130" d="M196.35,178.4a1,1,0,0,0,1.16,0l9.88-7a52.88,52.88,0,0,0,16.6,3.93L229.71,186a1,1,0,0,0,1,.51l14.31-2.32a1,1,0,0,0,.82-.81l2.06-11.91a52.78,52.78,0,0,0,14.51-9L274,166a1,1,0,0,0,1.09-.37l8.48-11.77a1,1,0,0,0,0-1.15l-7-9.88a52.59,52.59,0,0,0,3.92-16.61l10.65-5.72a1,1,0,0,0,.51-1l-2.33-14.32a1,1,0,0,0-.81-.81l-11.9-2.06a52.63,52.63,0,0,0-9-14.51l3.48-11.58a1,1,0,0,0-.37-1.09l-11.76-8.48a1,1,0,0,0-1.15,0l-9.88,7a52.94,52.94,0,0,0-16.61-3.93L225.69,59a1,1,0,0,0-1-.51l-14.32,2.32a1,1,0,0,0-.82.81l-2.06,11.91a52.78,52.78,0,0,0-14.51,9L181.38,79a1,1,0,0,0-1.1.37L171.8,91.16a1,1,0,0,0,0,1.15l7,9.88a52.6,52.6,0,0,0-3.93,16.61l-10.64,5.72a1,1,0,0,0-.51,1L166,139.86a1,1,0,0,0,.81.82l11.91,2.06a52.6,52.6,0,0,0,9,14.51l-3.48,11.58a1,1,0,0,0,.37,1.09Z"></path><path class="cls-43" d="M227.7,136.89a14.4,14.4,0,1,1,5.71-1.19A14.3,14.3,0,0,1,227.7,136.89Zm0-25.76A11.38,11.38,0,1,0,238.14,118,11.34,11.34,0,0,0,227.69,111.13Z"></path><path class="cls-43" d="M227.81,158.74h0c-.62,0-1.24,0-1.86-.05l.16-3a33.39,33.39,0,0,0,7.12-.4c1-.15,1.91-.35,2.84-.58a33.23,33.23,0,0,0,17.19-10.64l.33-.39c.5-.6,1-1.22,1.44-1.87a33.49,33.49,0,0,0-32.54-52.64,33.56,33.56,0,0,0-28.13,33.05,34,34,0,0,0,.44,5.38,33.35,33.35,0,0,0,7.44,16.21L200,145.76a36.49,36.49,0,1,1,63.93-29.37,37.14,37.14,0,0,1,.48,5.93,36.55,36.55,0,0,1-36.55,36.42Z"></path></g><path class="cls-131" d="M206.62,510.58s-3.69-22.91,7.56-30.33a.76.76,0,0,1,1.17.65v4.35a1.19,1.19,0,0,0,2,.87c2.42-2.29,6.75-5.75,11.35-6.47a1.54,1.54,0,0,1,1.66,2.15c-2.82,6-10.2,22.91-9.92,34Z"></path><path class="cls-132" d="M194.67,510.57,187.14,631h45.13v-117a7.87,7.87,0,0,0-5.34-7.44c-6-2-16.12-4.59-26.09-2.82A7.5,7.5,0,0,0,194.67,510.57Z"></path><path class="cls-133" d="M194.79,586.39,193.26,620a4.9,4.9,0,0,0,4.88,5.11h22.8a4.88,4.88,0,0,0,4.88-4.89V586.61a4.88,4.88,0,0,0-4.88-4.88H199.67A4.88,4.88,0,0,0,194.79,586.39Z"></path><path class="cls-134" d="M275.72,631V506.52a7.08,7.08,0,0,0-5-6.78,52.88,52.88,0,0,0-30.91.1A6.41,6.41,0,0,0,235.3,506V631Z"></path><path class="cls-135" d="M239.3,508.6l1,18.37a4.3,4.3,0,0,0,4.3,4.08h21.65a4.32,4.32,0,0,0,4.31-4.17l.59-18.13a4.31,4.31,0,0,0-3.39-4.35c-5.26-1.14-15.6-2.7-25.17-.22A4.33,4.33,0,0,0,239.3,508.6Z"></path><path class="cls-136" d="M241,539h0a4.3,4.3,0,0,0,4.3,4H266a4.31,4.31,0,0,0,4.31-4.4h0a4.31,4.31,0,0,0-4.31-4.22H245.28A4.31,4.31,0,0,0,241,539Z"></path><path class="cls-137" d="M138.16,510l5,120.85h42.75l3.23-122.2a7.45,7.45,0,0,0-5.27-7.36c-13.9-4.18-27.71-4.59-41.35,1.65A7.46,7.46,0,0,0,138.16,510Z"></path><path class="cls-14" d="M142.06,514.53l.51,6.57a3.65,3.65,0,0,0,3.86,3.37l34.92-2a3.66,3.66,0,0,0,3.45-3.38l.34-4.54a3.67,3.67,0,0,0-3.66-3.94H145.71A3.66,3.66,0,0,0,142.06,514.53Z"></path><path class="cls-14" d="M143.5,530.23v2.4a3.25,3.25,0,0,0,3.39,3.25l33.45-1.39a3.27,3.27,0,0,0,3.13-3.26v-2.54a3.26,3.26,0,0,0-3.41-3.25L146.61,527A3.26,3.26,0,0,0,143.5,530.23Z"></path></g></g></svg>