<svg xmlns="http://www.w3.org/2000/svg" width="70" height="70" viewBox="0 0 70 70">
  <g id="Group_171189" data-name="Group 171189" transform="translate(-634 -6740)">
    <g id="Group_171194" data-name="Group 171194">
      <g id="Group_164325" data-name="Group 164325" transform="translate(4 407)">
        <circle id="Ellipse_3311" data-name="Ellipse 3311" cx="35" cy="35" r="35" transform="translate(630 6333)" fill="rgba(252,79,25,0.1)"/>
      </g>
      <g id="logo" transform="translate(650.998 6757)">
        <g id="tj_logo-04" data-name="tj logo-04" transform="translate(0.002 0.001)">
          <path id="Shape" d="M21.393,21.358h0a3.484,3.484,0,0,1-2.454-1.017L15.992,17.4a7.022,7.022,0,0,1-4.711,1.834h-.034a7.518,7.518,0,0,1-.877-.053A7.059,7.059,0,0,1,6.265,17.2L3.14,14.1,2.063,13.023A6.94,6.94,0,0,1,.781,4.887,7.164,7.164,0,0,1,2.065,3.158L3.178,2.046A6.986,6.986,0,0,1,8.1,0h.068a7.087,7.087,0,0,1,4.966,2.046l3.032,3,1.17,1.164a6.922,6.922,0,0,1,.209,9.644L20.5,18.8a1.26,1.26,0,0,0,1.034.371,1.621,1.621,0,0,0,1.15-.777.025.025,0,0,0,0-.022,14.993,14.993,0,0,0,.988-1.66l1.914,1.018A19.822,19.822,0,0,1,24.5,19.579v.02a3.763,3.763,0,0,1-2.72,1.735,2.992,2.992,0,0,1-.384.024ZM8.162,2.2A4.906,4.906,0,0,0,4.73,3.605L3.616,4.7a4.827,4.827,0,0,0-.879,1.2,4.684,4.684,0,0,0-.538,2.2,4.76,4.76,0,0,0,1.419,3.414l1.347,1.339,2.857,2.821a4.817,4.817,0,0,0,2.417,1.3,4.89,4.89,0,0,0,.993.1,4.955,4.955,0,0,0,3.439-1.4l1.113-1.106a4.9,4.9,0,0,0,.993-1.415l.011.017a4.753,4.753,0,0,0-.993-5.384L14.343,6.342,11.591,3.612a4.747,4.747,0,0,0-2.273-1.27A4.842,4.842,0,0,0,8.162,2.2ZM12.93,13.912a1.109,1.109,0,0,1-.777-.319l-2.236-2.22-.043-.044a1.091,1.091,0,0,1-.083-1.344.663.663,0,0,1,.126-.153.95.95,0,0,1,.191-.156,1.113,1.113,0,0,1,1.36.166L12.632,11l1.077,1.059a1.089,1.089,0,0,1,.035,1.5l-.035.036a1.109,1.109,0,0,1-.779.317Z" transform="translate(8.196 8.13)" fill="#f4a86f"/>
          <path id="Path" d="M3.1,18.346,1.152,17.333A15.315,15.315,0,0,0,2.6,7.317,15.265,15.265,0,0,0,0,1.246L1.8,0A17.618,17.618,0,0,1,4.755,6.892,17.433,17.433,0,0,1,3.1,18.346Z" transform="translate(30.722 7.517)" fill="#f2796e"/>
          <path id="Path-2" data-name="Path" d="M15.655,7.528,13.85,8.774A15.794,15.794,0,0,0,.136,2.2L0,.03a17.984,17.984,0,0,1,15.655,7.5Z" transform="translate(16.872 -0.001)" fill="#6186bd"/>
          <path id="Path-3" data-name="Path" d="M14.927,2.167a16.8,16.8,0,0,0-2.063.264A15.657,15.657,0,0,0,1.943,10.448L0,9.447A17.948,17.948,0,0,1,14.795,0Z" transform="translate(2.082 0.029)" fill="#d57fb3"/>
          <path id="Path-4" data-name="Path" d="M5,17.169,3.209,18.42A17.57,17.57,0,0,1,2.086,0L4.027,1A15.429,15.429,0,0,0,5,17.169Z" transform="translate(-0.002 9.473)" fill="#00a9da"/>
          <path id="Path-5" data-name="Path" d="M15.776,7.783a1.137,1.137,0,0,1-.339.789,1.041,1.041,0,0,1-.777.3A17.886,17.886,0,0,1,0,1.252L1.795,0A15.707,15.707,0,0,0,14.662,6.686h.018A1.047,1.047,0,0,1,15.447,7,1.143,1.143,0,0,1,15.776,7.783Z" transform="translate(3.217 26.651)" fill="#d5e27e"/>
        </g>
      </g>
    </g>
  </g>
</svg>
