<svg xmlns="http://www.w3.org/2000/svg" width="70" height="70" viewBox="0 0 70 70">
  <g id="Group_171192" data-name="Group 171192" transform="translate(-1032 -6560)">
    <g id="Group_166226" data-name="Group 166226" transform="translate(6 374)">
      <circle id="Ellipse_3312" data-name="Ellipse 3312" cx="35" cy="35" r="35" transform="translate(1026 6186)" fill="rgba(252,79,25,0.1)"/>
    </g>
    <g id="Group_170051" data-name="Group 170051" transform="translate(20076.402 -11962.057)">
      <path id="Path_85579" data-name="Path 85579" d="M-19289.15,18549.07v-8.768s-23.148-.555-26.207,0-5.465,3.264-6.785,5.063-1.258,5.789-1.258,5.789v23.674h9.266s-.2-21.955,0-23.852,2.416-1.906,2.416-1.906Z" transform="translate(296.998)" fill="rgba(252,79,25,0.99)"/>
      <path id="Path_85580" data-name="Path 85580" d="M-19223.369,18643.52v8.051s11.256-.246,12.076,0,1,3.582,0,3.609-12.076,0-12.076,0v9.395s13.01.516,14.861,0,4.234-3.1,4.234-3.1a13.7,13.7,0,0,0,2.164-4.33c.3-1.8,0-13.625,0-13.625Z" transform="translate(210.577 -89.748)" fill="rgba(252,79,25,0.99)"/>
    </g>
  </g>
</svg>
