<svg xmlns="http://www.w3.org/2000/svg" width="70" height="70" viewBox="0 0 70 70">
  <g id="Group_171190" data-name="Group 171190" transform="translate(-234 -6560)">
    <g id="Group_164322" data-name="Group 164322" transform="translate(234 6560)">
      <circle id="Ellipse_3310" data-name="Ellipse 3310" cx="35" cy="35" r="35" fill="rgba(252,79,25,0.1)"/>
    </g>
    <g id="Group_170050" data-name="Group 170050" transform="translate(-575.998 6191.999)">
      <g id="sswhite" transform="translate(833.999 385.001)">
        <path id="Path_85576" data-name="Path 85576" d="M13.532,39.132a25.722,25.722,0,0,1-7.021-1.547H6.191a1.977,1.977,0,0,1-1.6-1.856l-1.277-4.64L3,29.542v-.309l.319-.309h.638l.319.928a9.208,9.208,0,0,0,1.915,3.4,12.344,12.344,0,0,0,7.021,4.022A11.491,11.491,0,0,0,19.6,35.729a5.867,5.867,0,0,0,3.191-4.022,5.43,5.43,0,0,0-3.191-6.5l-5.744-2.475a24.327,24.327,0,0,1-5.744-2.475A7.967,7.967,0,0,1,4.6,16.549a8.883,8.883,0,0,1-.638-4.022A8.467,8.467,0,0,1,9.7,5.1a13.612,13.612,0,0,1,9.255-.309l1.915.619h1.6l.319-.309.638.309v.619l.638,4.331.319,1.856v.309l-.319.309h-.638l-.319-.928a8.692,8.692,0,0,0-3.191-4.331,14.377,14.377,0,0,0-5.106-1.856,6.555,6.555,0,0,0-4.787.619A4.833,4.833,0,0,0,6.83,10.052a4.851,4.851,0,0,0,1.277,4.64,5.629,5.629,0,0,0,2.553,2.165l6.383,2.165c2.234.928,4.149,1.547,5.425,3.094,1.6,1.237,2.872,2.784,2.872,4.95a9.381,9.381,0,0,1-3.83,9.59,14.266,14.266,0,0,1-6.064,2.166Z" transform="translate(-3 -4.132)" fill="#135893" fill-rule="evenodd"/>
      </g>
    </g>
  </g>
</svg>
