<svg xmlns="http://www.w3.org/2000/svg" width="70" height="70" viewBox="0 0 70 70">
  <g id="Group_171191" data-name="Group 171191" transform="translate(-634 -6560)">
    <g id="Group_164325" data-name="Group 164325" transform="translate(4 227)">
      <circle id="Ellipse_3311" data-name="Ellipse 3311" cx="35" cy="35" r="35" transform="translate(630 6333)" fill="rgba(252,79,25,0.1)"/>
    </g>
    <g id="Group_170054" data-name="Group 170054" transform="translate(-561 6089)">
      <g id="Group_170053" data-name="Group 170053" transform="translate(1213 489)">
        <g id="Group_170052" data-name="Group 170052" transform="translate(0)">
          <path id="Path_85582" data-name="Path 85582" d="M348.85,282.829q4.407-1.64,8.815-3.279c.541-.2,1.083-.4,1.628-.591.228-.08.487-.273.7-.047.173.184,0,.42-.067.623-.9,2.551-1.643,5.15-2.524,7.708-.7,2.038-1.262,4.13-1.945,6.178-.777,2.33-1.514,4.675-2.278,7.008-.713,2.176-1.391,4.371-2.067,6.562-.659,2.137-1.391,4.252-2.091,6.376l-.124-.162q-.007-.153-.014-.306l.129-.293c.189-.145.148-.353.148-.546q0-9.872,0-19.744c0-.228.1-.52-.275-.591a.12.12,0,0,1-.049-.089Q348.842,287.232,348.85,282.829Z" transform="translate(-325.067 -278.806)" fill="#68c4ec"/>
          <path id="Path_85583" data-name="Path 85583" d="M197.572,316.815c2.7-1.027,5.393-2.062,8.095-3.08q6.277-2.366,12.56-4.713c.187-.07.382-.115.574-.172.182.194.249.089.282-.108.117-.069.23-.155.376-.071.608-.134.72.146.713.708-.031,2.541-.015,5.083-.016,7.625-2.666,0-5.331,0-8,.006-.257,0-.564-.123-.757.181l0,.037c-.3-.017-.6-.048-.9-.048q-5.044-.005-10.088,0c-.875,0-1.751-.007-2.627-.011A.361.361,0,0,0,197.572,316.815Z" transform="translate(-196.853 -304.126)" fill="#fe9d28"/>
          <path id="Path_85584" data-name="Path 85584" d="M297.915,387.434q-2.9-7.248-5.8-14.5c-.046-.115-.108-.225-.163-.337-.068-.212-.124-.428-.2-.635q-.963-2.475-1.933-4.948l8.644-.009q0,2.114,0,4.229,0,7.892,0,15.784C298.454,387.392,298.534,387.871,297.915,387.434Z" transform="translate(-275.046 -354.384)" fill="#054d80"/>
          <path id="Path_85585" data-name="Path 85585" d="M214.368,366.125q.967,2.474,1.933,4.948c.081.207.137.423.2.635-2.341-.781-4.679-1.567-7-2.4-2.585-.925-5.211-1.735-7.815-2.609-.267-.09-.619-.069-.753-.416.236-.284.561-.165.847-.166q5.76-.012,11.52-.005a1.615,1.615,0,0,0,.948-.158Z" transform="translate(-199.707 -353.094)" fill="#e44848"/>
          <path id="Path_85586" data-name="Path 85586" d="M343.429,387.427c.619.437.539-.042.539-.413q0-7.892,0-15.784,0-2.115,0-4.229h.28c.009,1.007.024,2.014.026,3.021q.015,9.068.025,18.135,0,.151,0,.3t.014.312l-.031.6A8.2,8.2,0,0,1,343.429,387.427Z" transform="translate(-320.54 -354.377)" fill="#024579"/>
          <path id="Path_85587" data-name="Path 85587" d="M210.062,365.2a1.614,1.614,0,0,1-.948.158q-5.76,0-11.52.005c-.286,0-.61-.118-.847.166-.261-.009-.535.035-.746-.181q.01-.128.019-.256l.436-.026c.876,0,1.751.011,2.627.011q5.044,0,10.088,0c.3,0,.6.031.9.048A.043.043,0,0,1,210.062,365.2Z" transform="translate(-195.521 -352.29)" fill="#df374b"/>
          <path id="Path_85588" data-name="Path 85588" d="M343.064,315.414c0-2.542-.015-5.084.016-7.625.007-.562-.105-.842-.713-.707.158-.233.422-.246.659-.318.3.224.187.552.188.837.009,2.662.006,5.324.007,7.985l-.153,0Z" transform="translate(-319.639 -302.538)" fill="#fe9817"/>
          <path id="Path_85589" data-name="Path 85589" d="M346.919,314.908c0-2.662,0-5.324-.007-7.985,0-.285.116-.613-.188-.837l.335-.121q-.008,4.493-.016,8.986A.185.185,0,0,1,346.919,314.908Z" transform="translate(-323.336 -301.86)" fill="#f1a33f"/>
          <path id="Path_85590" data-name="Path 85590" d="M193.754,363.1l-.436.026-.5-.034c.159-.285.455-.28.719-.342A.361.361,0,0,1,193.754,363.1Z" transform="translate(-192.817 -350.316)" fill="#fea824"/>
          <path id="Path_85591" data-name="Path 85591" d="M192.817,365.014l.5.034-.019.256C193.036,365.376,192.918,365.209,192.817,365.014Z" transform="translate(-192.817 -352.244)" fill="#ed643b"/>
          <path id="Path_85592" data-name="Path 85592" d="M349.044,511.643l.031-.6.124.165C349.169,511.357,349.25,511.551,349.044,511.643Z" transform="translate(-325.304 -476.643)" fill="#63bbe3"/>
          <path id="Path_85593" data-name="Path 85593" d="M338.3,309.337c-.032.2-.1.3-.282.108Z" transform="translate(-315.953 -304.722)" fill="#fe9817"/>
          <path id="Path_85594" data-name="Path 85594" d="M348.9,387.324q-.012-9.068-.025-18.135c0-1.007-.017-2.014-.026-3.021l.047-.148c.371.073.275.371.275.6q.006,10.074,0,20.148c0,.2.041.409-.148.557Z" transform="translate(-325.137 -353.544)" fill="#6ecef6"/>
          <path id="Path_85595" data-name="Path 85595" d="M298.112,365.241l-.047.148h-.28l-8.644.01-.119-.169a.043.043,0,0,0,.01-.073l0-.037,8.757-.02.153,0a.185.185,0,0,0,.124.043A.122.122,0,0,0,298.112,365.241Z" transform="translate(-274.376 -352.319)" fill="#01408e"/>
          <path id="Path_85596" data-name="Path 85596" d="M349.158,506.969l.124,0-.129.3Z" transform="translate(-325.397 -473.189)" fill="#63bbe3"/>
          <path id="Path_85597" data-name="Path 85597" d="M297.824,364.061l-8.757.02c.192-.3.5-.18.757-.181,2.666-.009,5.331-.006,8-.007Q297.822,363.977,297.824,364.061Z" transform="translate(-274.416 -351.273)" fill="#fea824"/>
        </g>
      </g>
    </g>
  </g>
</svg>
