<svg xmlns="http://www.w3.org/2000/svg" width="70" height="70" viewBox="0 0 70 70">
  <g id="Group_171193" data-name="Group 171193" transform="translate(-1032 -6740)">
    <g id="Group_166226" data-name="Group 166226" transform="translate(6 554)">
      <circle id="Ellipse_3312" data-name="Ellipse 3312" cx="35" cy="35" r="35" transform="translate(1026 6186)" fill="rgba(252,79,25,0.1)"/>
    </g>
    <g id="_1324878828016" transform="translate(1050 6758)">
      <g id="Group_171188" data-name="Group 171188">
        <path id="Path_87441" data-name="Path 87441" d="M311.332,45.365h-2.557L313.667,19.9H303.98l.755-3.936,12.227.094Z" transform="translate(-301.028 -15.016)" fill="#08628d"/>
        <g id="Group_171187" data-name="Group 171187" transform="translate(11.344 0.944)">
          <path id="Path_87442" data-name="Path 87442" d="M444.309,447.77h11.108l-.628,3.265H443.68Z" transform="translate(-442.543 -418.254)" fill="#ff9d00" fill-rule="evenodd"/>
          <path id="Path_87443" data-name="Path 87443" d="M427.01,48.741h2.557l5.542-28.845H445.1l.756-3.935-12.564.094Z" transform="translate(-427.01 -15.96)" fill="#ff9d00"/>
        </g>
        <path id="Path_87444" data-name="Path 87444" d="M263.516,2.12c1.2,0,1.929,1.3,1.62,2.909S263.6,7.936,262.4,7.936s-1.929-1.3-1.62-2.907,1.536-2.909,2.739-2.909Zm-.4,1.482c.591,0,.946.639.795,1.427a1.637,1.637,0,0,1-1.344,1.426c-.591,0-.946-.638-.795-1.426A1.638,1.638,0,0,1,263.121,3.6Z" transform="translate(-260.706 -2.12)" fill="#08628d" fill-rule="evenodd"/>
        <path id="Path_87445" data-name="Path 87445" d="M684.127,2.12c1.2,0,1.93,1.3,1.62,2.909s-1.535,2.907-2.739,2.907-1.93-1.3-1.621-2.907,1.536-2.909,2.739-2.909ZM683.841,3.6c.591,0,.947.639.8,1.427a1.637,1.637,0,0,1-1.344,1.426c-.59,0-.946-.638-.795-1.426A1.639,1.639,0,0,1,683.841,3.6Z" transform="translate(-652.626 -2.12)" fill="#ff9d00" fill-rule="evenodd"/>
        <path id="Path_87446" data-name="Path 87446" d="M599.071,429.08c1.2,0,1.929,1.3,1.62,2.907s-1.536,2.908-2.739,2.908-1.929-1.3-1.621-2.908S597.867,429.08,599.071,429.08Zm-.286,1.481c.591,0,.947.638.8,1.426a1.637,1.637,0,0,1-1.344,1.426c-.591,0-.947-.638-.795-1.426a1.637,1.637,0,0,1,1.343-1.426Z" transform="translate(-573.371 -399.895)" fill="#ff9d00" fill-rule="evenodd"/>
        <path id="Path_87447" data-name="Path 87447" d="M357.763,429.08c1.2,0,1.929,1.3,1.621,2.907s-1.536,2.908-2.74,2.908-1.93-1.3-1.62-2.908S356.559,429.08,357.763,429.08Zm-.285,1.481c.59,0,.946.638.795,1.426a1.638,1.638,0,0,1-1.344,1.426c-.591,0-.947-.638-.8-1.426A1.638,1.638,0,0,1,357.478,430.561Z" transform="translate(-348.524 -399.895)" fill="#08628d" fill-rule="evenodd"/>
      </g>
    </g>
  </g>
</svg>
