<svg xmlns="http://www.w3.org/2000/svg" xmlns:xlink="http://www.w3.org/1999/xlink" width="570.551" height="390.77" viewBox="0 0 570.551 390.77">
  <defs>
    <clipPath id="clip-path">
      <rect id="Rectangle_148838" data-name="Rectangle 148838" width="111.902" height="121.536" fill="#75cb7b"/>
    </clipPath>
  </defs>
  <g id="whatsapp-for-education-image" transform="translate(-211.449 -8845.506)">
    <g id="Group_175363" data-name="Group 175363" transform="translate(212 8846)">
      <line id="Line_437" data-name="Line 437" x2="359.734" transform="translate(62.851 354.114)" fill="none" stroke="#131f32" stroke-width="1"/>
      <g id="ill-4" transform="translate(0)">
        <path id="Path_89031" data-name="Path 89031" d="M491.565,302.426c-68.695,63.409-31.173,85.385-16.689,68.159,24.156-9.007-51.9-169.577-138.276-158.288C194.358,230.912,193.169,416.873,96.22,387.812-1.376,358.63-26.091,232.047,68.7,162.275,163.169,92.862,44.251-9.548,32.388,28.881c-6.794,21.857,47.429,75.59,109.381,35.045C194.935,12.768,264.2-34.527,317.7,38.671c44.215,92.83,123.389,34.3,180.823,27.264C556.22,53.205,639.307,166,491.565,302.426Z" transform="translate(-9 -1)" fill="none" stroke="#f6a10e" stroke-miterlimit="10" stroke-width="1" stroke-dasharray="6 6"/>
        <path id="Path_89033" data-name="Path 89033" d="M376.475,246.98l25.349,85.715a9.036,9.036,0,0,0,8.547,6.414l102.951.291a9.524,9.524,0,1,0,0-19.048H473.987L442.422,232.5H387.352A11.313,11.313,0,0,0,376.475,246.98Z" transform="translate(-229.279 -60.941)" fill="#ffc9b0"/>
        <path id="Path_89034" data-name="Path 89034" d="M479.376,360.873c12.927,0,23.407-.174,23.407-.389s-10.48-.388-23.407-.388-23.407.174-23.407.388S466.449,360.873,479.376,360.873Z" transform="translate(-268.467 -93.979)" fill="#ea6f57"/>
        <path id="Path_89035" data-name="Path 89035" d="M522.02,236.172c.194-.1,7.187,20.408,15.637,45.87,8.45,25.364,15.151,45.967,14.957,46.064s-7.187-20.408-15.637-45.87C528.528,256.872,521.826,236.172,522.02,236.172Z" transform="translate(-367.249 -61.892)" fill="#ea6f57"/>
        <path id="Path_89036" data-name="Path 89036" d="M468.048,452.547l-6.313-.194v-76h6.313Z" transform="translate(-238.006 -98.189)" fill="#475056"/>
        <path id="Path_89037" data-name="Path 89037" d="M426.614,475.451h58.371l-26.417-9.135h-6.313Z" transform="translate(-228.915 -121.482)" fill="#475056"/>
        <path id="Path_89038" data-name="Path 89038" d="M392.276,195.489l9.615,48.3-1.748,36.249,64.975-10.787-2.525-31.681-.1-26.239,15.928,30.9,12.432-24L468.13,177.121a39.307,39.307,0,0,0-14.86-9.621,27.931,27.931,0,0,0-9.323-1.749,37.16,37.16,0,0,1-22.533,0c-.874.1-2.137.194-3.788.389h-.291a28.679,28.679,0,0,0-25.058,27.016Z" transform="translate(-209.339 -43.658)" fill="#fcb939"/>
        <path id="Path_89039" data-name="Path 89039" d="M521.458,166.275s-26.709.195-30.011,28.377l-.485,20.7,23.018-.194Z" transform="translate(-313.074 -43.794)" fill="#fcb939"/>
        <path id="Path_89044" data-name="Path 89044" d="M417.107,243.908s12.626.874,14.86,4.276c2.234,3.3,5.73,12.828,4.467,12.925a3.222,3.222,0,0,1-2.234-.68l-3.5-6.122s.582,5.928-1.554,6.025c-2.039.1-12.334,2.138-12.334,2.138Z" transform="translate(-173.371 -63.895)" fill="#ffbe9d"/>
        <path id="Path_89045" data-name="Path 89045" d="M443.126,224.686v32.556a12.449,12.449,0,0,0,14.956,11.467l50.893-10.5-.1-20.894-43.9,8.455-.583-22.06Z" transform="translate(-265.142 -58.666)" fill="#fcb939"/>
        <path id="Path_89050" data-name="Path 89050" d="M372.728,447.826l9.615,26.531,13.694,18.757a2.976,2.976,0,0,1-.777,4.179,2.787,2.787,0,0,1-2.622.194c-5.536-2.332-25.738-10.787-26.321-12.731-.68-2.332-13.694-30.806-13.694-30.806Z" transform="translate(-85.674 -116.694)" fill="#184992"/>
        <g id="Group_175348" data-name="Group 175348" transform="translate(279.866 366.312)" opacity="0.6">
          <g id="Group_175347" data-name="Group 175347" opacity="0.6">
            <path id="Path_89051" data-name="Path 89051" d="M384.154,509.584,354.531,495.3l.388,1.069a4.393,4.393,0,0,0,1.942,2.235c2.428,1.264,9.227,4.762,24.475,11.176A3.161,3.161,0,0,0,384.154,509.584Z" transform="translate(-354.531 -495.298)" fill="#fff" opacity="0.6"/>
          </g>
        </g>
        <g id="Group_175351" data-name="Group 175351" transform="translate(279.832 355.703)" opacity="0.6">
          <g id="Group_175350" data-name="Group 175350" opacity="0.6">
            <g id="Group_175349" data-name="Group 175349" opacity="0.6">
              <path id="Path_89052" data-name="Path 89052" d="M392.07,481a1.639,1.639,0,0,1-.68,3.207,1.879,1.879,0,0,1-1.36-2.041,1.745,1.745,0,0,1,2.137-1.069" transform="translate(-389.997 -480.983)" fill="#fff" opacity="0.6"/>
            </g>
          </g>
        </g>
        <path id="Path_89053" data-name="Path 89053" d="M362.925,500.579c.194,0,.194-1.555,1.554-2.915,1.263-1.361,2.817-1.556,2.817-1.75,0-.1-.388-.194-1.069,0a5.117,5.117,0,0,0-2.234,1.361,4.781,4.781,0,0,0-1.166,2.332C362.731,500.19,362.828,500.579,362.925,500.579Z" transform="translate(-63.926 -129.116)" fill="#fff"/>
        <path id="Path_89054" data-name="Path 89054" d="M358.518,504.827c.194.1.68-1.166,1.845-2.041,1.165-.972,2.428-1.166,2.428-1.36s-1.457-.195-2.817.874C358.615,503.272,358.323,504.73,358.518,504.827Z" transform="translate(-56.216 -130.547)" fill="#fff"/>
        <path id="Path_89055" data-name="Path 89055" d="M367.381,495.9c.195.1.972-1.75,2.72-3.3,1.748-1.652,3.593-2.235,3.5-2.43,0-.194-2.137.195-3.982,1.944A6.948,6.948,0,0,0,367.381,495.9Z" transform="translate(-73.626 -127.646)" fill="#fff"/>
        <path id="Path_89056" data-name="Path 89056" d="M371.574,486.364a33.624,33.624,0,0,1,3.205-1.847,18.246,18.246,0,0,1,3.5-1.069c0-.194-1.748-.292-3.788.583A5.413,5.413,0,0,0,371.574,486.364Z" transform="translate(-81.412 -125.884)" fill="#fff"/>
        <path id="Path_89057" data-name="Path 89057" d="M375.107,476.032a11.866,11.866,0,0,1,3.3-2.04c2.039-.778,3.788-.292,3.788-.486,0-.1-.388-.292-1.165-.389a6.327,6.327,0,0,0-2.914.292,5.821,5.821,0,0,0-2.428,1.555A2.178,2.178,0,0,0,375.107,476.032Z" transform="translate(-87.956 -123.229)" fill="#fff"/>
        <path id="Path_89058" data-name="Path 89058" d="M382.56,470.408a1.964,1.964,0,0,0-.388-.972,8.215,8.215,0,0,0-1.845-2.332,3.373,3.373,0,0,0-1.845-.972,1.481,1.481,0,0,0-1.166.68,2.167,2.167,0,0,0,0,1.361,4.062,4.062,0,0,0,4.662,2.235,4.653,4.653,0,0,0,3.4-3.984,1.529,1.529,0,0,0-.389-1.263,1.038,1.038,0,0,0-1.359-.1,3.361,3.361,0,0,0-1.36,1.555,7.885,7.885,0,0,0-1.069,3.79,12.827,12.827,0,0,1,1.457-3.6,3.386,3.386,0,0,1,1.263-1.361c.291-.1.582-.1.68.1a.872.872,0,0,1,.194.874,4.157,4.157,0,0,1-3.01,3.4,3.475,3.475,0,0,1-3.983-1.847,1.681,1.681,0,0,1-.1-.972.532.532,0,0,1,.583-.389,2.9,2.9,0,0,1,1.651.777A10.958,10.958,0,0,1,382.56,470.408Z" transform="translate(-92.689 -121.104)" fill="#fff"/>
        <path id="Path_89059" data-name="Path 89059" d="M322.6,438.481l-.874,21.574s21.561,8.066,21.853,12.051l-41.763-.1-.1-33.625Z" transform="translate(5.054 -114.249)" fill="#184992"/>
        <g id="Group_175353" data-name="Group 175353" transform="translate(312.656 343.893)" opacity="0.6">
          <g id="Group_175352" data-name="Group 175352" opacity="0.6">
            <path id="Path_89060" data-name="Path 89060" d="M347,465.113a1.724,1.724,0,0,0-1.166,1.944,1.667,1.667,0,0,0,1.942,1.166,1.806,1.806,0,0,0,1.263-2.04c-.291-.778-1.36-1.458-2.137-.972" transform="translate(-345.798 -465.047)" fill="#fff" opacity="0.6"/>
          </g>
        </g>
        <g id="Group_175354" data-name="Group 175354" transform="translate(306.866 354.455)" opacity="0.6">
          <path id="Path_89061" data-name="Path 89061" d="M301.566,482.6v-3.3l40.209,1.361s1.845.777,1.651,2.138Z" transform="translate(-301.566 -479.298)" fill="#fff" opacity="0.6"/>
        </g>
        <path id="Path_89062" data-name="Path 89062" d="M334.121,467.292c0,.194-1.069.291-2.04.972-1.068.583-1.554,1.555-1.748,1.458-.194,0,.1-1.264,1.36-2.041C332.955,466.806,334.218,467.1,334.121,467.292Z" transform="translate(-6.664 -121.681)" fill="#fff"/>
        <path id="Path_89063" data-name="Path 89063" d="M327.141,469.7c0,.195-.874.583-1.553,1.361-.68.875-.874,1.75-1.069,1.75s-.291-1.166.582-2.235C325.976,469.6,327.141,469.5,327.141,469.7Z" transform="translate(4.686 -122.336)" fill="#fff"/>
        <path id="Path_89064" data-name="Path 89064" d="M318.986,475.568c-.194,0-.485-.972.1-2.138.485-1.166,1.457-1.555,1.554-1.361s-.485.777-.972,1.652C319.277,474.693,319.18,475.568,318.986,475.568Z" transform="translate(15.366 -122.959)" fill="#fff"/>
        <path id="Path_89065" data-name="Path 89065" d="M334.95,460.427c-.1.194-1.068-.1-2.137,0-1.166.1-2.039.388-2.137.291-.1-.194.777-.874,2.137-.972C334.077,459.552,335.047,460.232,334.95,460.427Z" transform="translate(-7.785 -119.772)" fill="#fff"/>
        <g id="Group_175355" data-name="Group 175355" transform="translate(306.769 328.508)" opacity="0.3">
          <path id="Path_89066" data-name="Path 89066" d="M350.973,444.285l-.1,3.79-20.59-.194v-3.5Z" transform="translate(-330.286 -444.285)" opacity="0.3"/>
        </g>
        <path id="Path_89067" data-name="Path 89067" d="M336.913,453.587c0,.1-.777.195-2.137,0a8.138,8.138,0,0,1-2.234-.68,7.192,7.192,0,0,1-1.166-.68,2.572,2.572,0,0,1-.582-.485c-.194-.195-.388-.777-.1-1.069a1.158,1.158,0,0,1,.874-.485c.292,0,.583.1.777.1a4.894,4.894,0,0,1,1.263.485,11.306,11.306,0,0,1,1.942,1.264,3.939,3.939,0,0,1,1.262,1.75c-.1.1-.582-.583-1.553-1.361a8.387,8.387,0,0,0-1.846-1.069,5.472,5.472,0,0,0-1.165-.388c-.486-.1-.777-.1-.972.1v.194c.1.1.291.194.485.389a10.044,10.044,0,0,1,1.069.68,10.859,10.859,0,0,0,2.039.777A14.914,14.914,0,0,1,336.913,453.587Z" transform="translate(-9.651 -117.305)" fill="#fff"/>
        <path id="Path_89068" data-name="Path 89068" d="M327.757,452.826c-.1,0-.485-.68-.583-2.04a6.972,6.972,0,0,1,.292-2.333,3.682,3.682,0,0,1,.582-1.263c.291-.389.583-.972,1.36-1.069a.984.984,0,0,1,.874.583,2.29,2.29,0,0,1,.195.777,3.682,3.682,0,0,1,0,1.458,4.327,4.327,0,0,1-.874,2.138c-.777,1.069-1.651,1.361-1.651,1.264-.1-.1.68-.486,1.263-1.555a5.082,5.082,0,0,0,.68-1.944v-1.166c-.1-.485-.194-.777-.388-.777a1.236,1.236,0,0,0-.777.68,5.948,5.948,0,0,0-.485,1.166,5.762,5.762,0,0,0-.388,2.041C327.66,452.049,327.854,452.826,327.757,452.826Z" transform="translate(-0.787 -116.253)" fill="#fff"/>
        <path id="Path_89069" data-name="Path 89069" d="M379.689,299.073c-24.67,2.527-57.4,5.929-57.4,5.929l4.467,40.233s48.077-12.731,47.785-11.662c-.388,1.069,2.234,85.617,2.234,85.617h28.943l.582-95.724A24.215,24.215,0,0,0,379.689,299.073Z" transform="translate(-72.919 -78.146)" fill="#3e6193"/>
        <path id="Path_89070" data-name="Path 89070" d="M367.767,312.858V325.3c0,8.455,9.713,17.493,18.162,17.493h6.6c5.147,0,13.306-3.79,17.482-6.8l2.526-1.846,30.2,93.489s34.479-6.22,34.479-7.289-23.407-76.58-34.187-111.662c-4.371-14.286-19.716-22.644-33.9-17.784l-1.457.583C392.242,297.795,367.767,312.858,367.767,312.858Z" transform="translate(-177.545 -75.701)" fill="#3e6193"/>
        <path id="Path_89071" data-name="Path 89071" d="M418.207,421.127a1.189,1.189,0,0,1-.195-.291,6.7,6.7,0,0,0-.388-.972c-.291-.874-.777-2.138-1.36-3.887-1.165-3.4-2.719-8.261-4.661-14.383-3.885-12.148-9.033-29.058-14.666-47.716-2.817-9.329-5.439-18.27-7.867-26.336-1.165-4.082-2.331-7.872-3.4-11.467-.582-1.847-1.068-3.5-1.554-5.248-.485-1.652-.971-3.3-1.553-4.762a19.52,19.52,0,0,0-4.856-6.9,32.233,32.233,0,0,0-5.147-3.985c-1.457-.972-2.623-1.749-3.5-2.235a3.362,3.362,0,0,1-.875-.583,1.2,1.2,0,0,1-.291-.194s.1,0,.291.194a9.077,9.077,0,0,1,.972.486c.874.486,2.039,1.166,3.5,2.138a44.8,44.8,0,0,1,5.245,3.887,20.647,20.647,0,0,1,5.05,7,34.4,34.4,0,0,1,1.651,4.762c.485,1.652,1.068,3.4,1.554,5.15,1.068,3.6,2.234,7.483,3.5,11.467,2.428,8.067,5.148,17.007,7.964,26.336,5.634,18.659,10.684,35.472,14.375,47.813,1.845,6.026,3.4,10.982,4.467,14.481.486,1.652.972,3.012,1.263,3.887.1.389.194.777.291,1.069A.345.345,0,0,1,418.207,421.127Z" transform="translate(-118.623 -76.39)" fill="#134896"/>
        <path id="Path_89072" data-name="Path 89072" d="M363.153,329.406c.195.1-1.456,2.623-2.816,5.928s-1.942,6.22-2.234,6.22c-.194,0,.1-3.012,1.554-6.511S363.056,329.211,363.153,329.406Z" transform="translate(-56.287 -86.029)" fill="#134896"/>
        <path id="Path_89073" data-name="Path 89073" d="M360.033,334.645c.1.194-2.428,1.264-4.953,3.3-2.623,2.041-4.274,4.179-4.468,4.081s1.263-2.526,3.983-4.664S360.033,334.451,360.033,334.645Z" transform="translate(-47.629 -87.381)" fill="#134896"/>
        <path id="Path_89074" data-name="Path 89074" d="M449.673,436.9c-.194.1-8.353-24.976-18.162-55.88-9.907-30.9-17.676-56.073-17.482-56.073.194-.1,8.353,24.976,18.162,55.879S449.867,436.807,449.673,436.9Z" transform="translate(-184.277 -84.879)" fill="#134896"/>
        <path id="Path_89075" data-name="Path 89075" d="M305.91,261.325l98.774.972,18.356-52.089-71.774.486-16.705,46.841-28.651.389Z" transform="translate(-77.52 -55.169)" fill="#3e6193"/>
        <path id="Path_89076" data-name="Path 89076" d="M364.72,245.125a3.983,3.983,0,1,0-4.5,3.387A3.984,3.984,0,0,0,364.72,245.125Z" transform="translate(-56.947 -63.034)" fill="#fff"/>
        <path id="Path_89077" data-name="Path 89077" d="M436.816,86.632c.972-3.5,3.5-5.151,6.9-6.317a11.233,11.233,0,0,1,10.2,1.652c1.942,1.458,3.4,3.6,5.633,4.373,3.691,1.263,8.061-1.458,11.655.194a5.1,5.1,0,0,1-2.331,9.718c2.428.874,3.205,4.373,1.748,6.511a6.879,6.879,0,0,1-6.9,2.527,14.518,14.518,0,0,1-6.7-3.79c-1.942-1.75-3.691-3.694-5.73-5.248a11.468,11.468,0,0,0-7.187-2.624c-3.5.194-6.507,2.818-8.061,5.928s-1.942,6.705-2.137,10.2-.291,7.094-1.263,10.4c-.1.388-.291.874-.68.972-.583.194-1.069-.388-1.36-.972a51.176,51.176,0,0,1-5.925-19.145c-.388-3.888-.291-7.58,1.845-10.787C428.756,86.924,434.194,84.494,436.816,86.632Z" transform="translate(-216.486 -21.39)" fill="#263238"/>
        <path id="Path_89078" data-name="Path 89078" d="M439.533,104.513l-1.748,39.359c-.291,6.705.582,16.618,11.169,16.618,9.226-.68,11.946-9.329,12.14-15.549.1-2.915.291-5.442.291-5.734,0,0,10-.485,11.267-10.4.582-4.762.971-14.675,1.165-23.712a18.46,18.46,0,0,0-16.51-18.854l-.972-.1C445.943,85.659,439.824,94.114,439.533,104.513Z" transform="translate(-226.002 -23.041)" fill="#ffbe9d"/>
        <path id="Path_89079" data-name="Path 89079" d="M466.925,155.724a23.531,23.531,0,0,1-12.529-5.053s2.331,7.483,12.237,7.58Z" transform="translate(-231.444 -39.754)" fill="#eb996e"/>
        <path id="Path_89088" data-name="Path 89088" d="M491,120.7c-.194-.1-6.6-2.72-7.09,4.082s6.41,5.928,6.41,5.734C490.318,130.225,491,120.7,491,120.7Z" transform="translate(-277.37 -31.844)" fill="#ffbe9d"/>
        <path id="Path_89089" data-name="Path 89089" d="M490.081,128.477a1.215,1.215,0,0,1-.291.195,1.341,1.341,0,0,1-.874,0,2.82,2.82,0,0,1-1.166-2.721,3.275,3.275,0,0,1,.486-1.653,1.659,1.659,0,0,1,.971-.874.586.586,0,0,1,.68.389c.1.194,0,.291.1.388,0,0,.194-.1.1-.388a1.644,1.644,0,0,0-.194-.486,1.409,1.409,0,0,0-.68-.194,1.925,1.925,0,0,0-1.36.972,5.165,5.165,0,0,0-.582,1.847c-.1,1.361.582,2.721,1.457,3.012a1.236,1.236,0,0,0,1.069-.1C489.984,128.672,490.081,128.574,490.081,128.477Z" transform="translate(-278.978 -32.623)" fill="#eb996e"/>
        <path id="Path_89090" data-name="Path 89090" d="M472.3,102.7a14.5,14.5,0,0,1-12.334-4.179c-2.234-2.332-3.691-5.442-6.6-6.706a7.7,7.7,0,0,0-6.215.194A17.65,17.65,0,0,0,442,95.8c1.359,5.248-.486,10.69-2.331,15.743a2.6,2.6,0,0,1-.971,1.458,2.214,2.214,0,0,1-2.623-.874,8.4,8.4,0,0,1-1.36-4.568,26.3,26.3,0,0,1,1.263-10.981,19.482,19.482,0,0,1,6.216-9.038,17.957,17.957,0,0,1,13.111-3.4,21.418,21.418,0,0,1,12.238,5.928,12.14,12.14,0,0,1,3.593,5.248" transform="translate(-222.153 -22.487)" fill="#263238"/>
        <path id="Path_89091" data-name="Path 89091" d="M624.754,356.031H582.7V446.7h42.055Z" transform="translate(-484.354 -92.926)" fill="#475056"/>
        <path id="Path_89092" data-name="Path 89092" d="M622.965,438.032V432.1c0-3.791,0-9.329-.1-16.23,0-13.8-.1-33.236-.1-55.879l.194.194H587.807l.291-.292c0,30.321-.1,57.824-.1,77.94l-.194-.195c10.878,0,19.619.1,25.738.1h8.838a.9.9,0,0,0,.583.291h-9.421c-6.119,0-14.957.1-25.835.1h-.195v-.194c0-20.214,0-47.716-.1-77.94V359.7h35.644v.194c0,22.741-.1,42.178-.1,56.074,0,6.9-.1,12.342-.1,16.132v5.345A4.427,4.427,0,0,1,622.965,438.032Z" transform="translate(-486.16 -93.877)" fill="#bababa"/>
        <path id="Path_89093" data-name="Path 89093" d="M621.316,367.787v-.972c0-.68,0-1.555-.1-2.623l.1.1c-5.439.1-17.094.1-30.594.1l.291-.291v3.5l-.291-.292c8.547,0,16.219.1,21.659.1,2.719,0,4.953.1,6.507.1h1.749a1.637,1.637,0,0,0,.68.292h-2.331c-1.554,0-3.788,0-6.41.1-5.536.1-13.209.1-21.853.1h-.291v-3.79l.291-.292c13.5,0,25.155.1,30.594.1h.1v.1a21.249,21.249,0,0,1-.1,2.72A2.385,2.385,0,0,1,621.316,367.787Z" transform="translate(-486.744 -94.964)" fill="#bababa"/>
        <path id="Path_89094" data-name="Path 89094" d="M629.109,372.744c.8,0,1.457-.13,1.457-.291s-.652-.292-1.457-.292-1.457.13-1.457.292S628.3,372.744,629.109,372.744Z" transform="translate(-523.48 -97.103)" fill="#bababa"/>
        <path id="Path_89095" data-name="Path 89095" d="M606.18,379.17c8.046,0,14.568-.13,14.568-.292s-6.522-.291-14.568-.291-14.569.13-14.569.291S598.134,379.17,606.18,379.17Z" transform="translate(-486.953 -98.767)" fill="#bababa"/>
        <path id="Path_89096" data-name="Path 89096" d="M605.759,386.775c7.885,0,14.277-.13,14.277-.291s-6.392-.292-14.277-.292-14.278.131-14.278.292S597.874,386.775,605.759,386.775Z" transform="translate(-486.144 -100.736)" fill="#bababa"/>
        <path id="Path_89097" data-name="Path 89097" d="M610.456,405.938a2.333,2.333,0,1,0-2.331-2.332A2.332,2.332,0,0,0,610.456,405.938Z" transform="translate(-491.231 -104.641)" fill="#72a065"/>
        <path id="Path_89098" data-name="Path 89098" d="M623.158,404.347a8.544,8.544,0,0,0,3.108-.291,16.729,16.729,0,0,0-6.216,0A8.547,8.547,0,0,0,623.158,404.347Z" transform="translate(-513.547 -105.286)" fill="#bababa"/>
        <path id="Path_89099" data-name="Path 89099" d="M597.672,403.561a7.54,7.54,0,0,0,2.913-.291,14.718,14.718,0,0,0-5.827,0A7.541,7.541,0,0,0,597.672,403.561Z" transform="translate(-469.123 -105.082)" fill="#bababa"/>
        <path id="Path_89100" data-name="Path 89100" d="M621.543,384.535a6.006,6.006,0,0,1-1.554-.292,13.7,13.7,0,0,1-4.176-1.943,17.481,17.481,0,0,1-5.05-5.248,30.194,30.194,0,0,1-3.691-8.94,36.879,36.879,0,0,1-1.165-11.564,23.845,23.845,0,0,1,4.37-12.537,20,20,0,0,1,5.245-5.053,15.682,15.682,0,0,1,3.4-1.652,21.666,21.666,0,0,1,3.788-.875c2.525-.388,5.148-.291,7.867-.485a20.59,20.59,0,0,0,7.673-1.75,8.425,8.425,0,0,0,4.759-5.831,8.071,8.071,0,0,0-1.748-7.094,8.445,8.445,0,0,0-6.41-2.915,6.106,6.106,0,0,0-3.205,1.166,3.5,3.5,0,0,0-1.36,2.915,4.762,4.762,0,0,0,4.371,4.179,6.809,6.809,0,0,0,5.536-2.527,14.279,14.279,0,0,0,2.719-5.248c.486-1.847.874-3.693,1.166-5.442a86.1,86.1,0,0,0,.485-16.812c-.1-1.944-.194-3.5-.194-4.568a4.013,4.013,0,0,0-.1-1.166v-.388a1.532,1.532,0,0,0,.1.388c0,.292.1.68.1,1.166.1,1.069.195,2.624.292,4.568a85.707,85.707,0,0,1-.389,16.909c-.291,1.75-.582,3.6-1.068,5.54a14.361,14.361,0,0,1-2.72,5.442,7.392,7.392,0,0,1-5.924,2.623,5.092,5.092,0,0,1-4.759-4.567,3.759,3.759,0,0,1,1.554-3.3,6.48,6.48,0,0,1,3.5-1.361,8.785,8.785,0,0,1,6.993,14.286,9.984,9.984,0,0,1-3.205,2.527,20.679,20.679,0,0,1-7.867,1.847c-2.622.194-5.245.1-7.769.485a22.708,22.708,0,0,0-3.691.874,15,15,0,0,0-3.3,1.653,20.493,20.493,0,0,0-5.147,4.859,23.215,23.215,0,0,0-4.371,12.342,36.031,36.031,0,0,0,1.069,11.467,30.6,30.6,0,0,0,3.593,8.843A18.365,18.365,0,0,0,616.1,382.3a17.414,17.414,0,0,0,4.079,2.041,10.027,10.027,0,0,0,1.166.291C621.349,384.438,621.543,384.535,621.543,384.535Z" transform="translate(-521.742 -75.949)" fill="#263238"/>
        <path id="Path_89101" data-name="Path 89101" d="M622.063,166.276H522.414v68.513h99.649Z" transform="translate(-436.988 -43.794)" fill="#3e6193"/>
        <path id="Path_89102" data-name="Path 89102" d="M595.249,246.007h-13.6v25.85h13.6Z" transform="translate(-454.074 -64.438)" fill="#3e6193"/>
        <path id="Path_89103" data-name="Path 89103" d="M227.012,279.306v9.329h51.379V427.023h4.759V288.636l214.74,1.069V427.023h4.662V289.414l33.119.291V278.529Z" transform="translate(-131.68 -72.859)" fill="#475056"/>
        <path id="Path_89104" data-name="Path 89104" d="M573.635,289.676l20.3,14.577L592.089,306l-20.4-15.452Z" transform="translate(-445.379 -75.745)" fill="#475056"/>
        <path id="Path_89105" data-name="Path 89105" d="M266.993,291.512l-23.6,16.812,1.748,1.653,23.7-17.59Z" transform="translate(123.011 -76.221)" fill="#475056"/>
        <path id="Path_89106" data-name="Path 89106" d="M524.036,274.988H470.909v3.888h53.127Z" transform="translate(-300.792 -71.942)" fill="#3e6193"/>
        <g id="Group_175359" data-name="Group 175359" transform="translate(341.311 3.426)" clip-path="url(#clip-path)">
          <path id="Path_89107" data-name="Path 89107" d="M257.941,52.517l-21.492,3.67A46.017,46.017,0,1,0,206.5,137.231a46.168,46.168,0,0,0,41.4-66.059Z" transform="translate(-146.039 -15.817)" fill="#75d8aa"/>
          <path id="Path_89108" data-name="Path 89108" d="M194.6,9.966a7.3,7.3,0,0,1,13.15-.428c.731,1.407,1.035,3.119,2.131,4.343a4.316,4.316,0,0,0,5.54.489,3.814,3.814,0,0,1-2.313,4.343c.913.122,1.765.183,2.678.306-1.461,3.181-5.418,4.649-8.888,4.037-3.41-.612-6.332-2.936-8.706-5.5" transform="translate(-129.095 -5.623)" fill="#263238"/>
          <path id="Path_89109" data-name="Path 89109" d="M210.351,11.521l8.28,2.753a16.231,16.231,0,0,1,6.393,8.135,31.314,31.314,0,0,0,1.157,3.364,5.029,5.029,0,0,0,2.314,2.569,18.888,18.888,0,0,0,2.5.673,4.563,4.563,0,0,1,2.8,3.242,5.588,5.588,0,0,1-.73,4.282,4.932,4.932,0,0,0-.975,1.957,6.318,6.318,0,0,0,.3,1.468,4.084,4.084,0,0,1-1.827,4.4,4.129,4.129,0,0,1-4.749-.489,5.576,5.576,0,0,1-2.435,3.058c-1.218.551-2.984.061-3.227-1.223a3.163,3.163,0,0,1-6.027-1.162l-22.77-24.956C194.765,10.481,208.037,11.276,210.351,11.521Z" transform="translate(-144.842 -7.116)" fill="#263238"/>
          <path id="Path_89110" data-name="Path 89110" d="M238.228,21.931a2.9,2.9,0,0,1,2.557,2.875L239.2,63.218c-.061,4.526-8.28,9.909-13.09,9.786-4.871-.122-3.47-5.321-3.531-9.6-.122-7.218-.122-9.909-.122-9.848,0,0-6.209-1.04-7.489-9.114-.608-4.037-.426-10.643-.122-16.025.3-4.893,3.531-10.826,8.341-10.337Z" transform="translate(-168.884 -8.84)" fill="#ffbe9d"/>
          <path id="Path_89116" data-name="Path 89116" d="M224.836,64.871A20.259,20.259,0,0,0,235.612,62s-2.617,5.566-10.715,4.771Z" transform="translate(-171.321 -20.219)" fill="#eb996e"/>
          <path id="Path_89121" data-name="Path 89121" d="M210.7,40.616a2.067,2.067,0,0,1,2.131.122,3.9,3.9,0,0,1,1.644,4.465,3.783,3.783,0,0,1-4.018,2.508" transform="translate(-139.714 -14.619)" fill="#ffbe9d"/>
          <path id="Path_89122" data-name="Path 89122" d="M226.5,14.428a16.6,16.6,0,0,0-7.732,2.385,11.223,11.223,0,0,0-5.54,6.606,2.39,2.39,0,0,0,.061,1.835,1.836,1.836,0,0,0,2.191.489,6.713,6.713,0,0,0,1.827-1.651,3.456,3.456,0,0,0,3.348,2.569,3.569,3.569,0,0,0,3.349-2.691,3.021,3.021,0,0,0,3.105,2.752,3.929,3.929,0,0,0,3.409-2.691,11.057,11.057,0,0,0,1.4,3.976,3.333,3.333,0,0,0,3.653,1.468,7.239,7.239,0,0,0,.061,3.609,2.413,2.413,0,0,0,2.862,1.651c1.1-.367,1.521-1.713,1.826-2.875a28.007,28.007,0,0,0,.852-6.789,11.054,11.054,0,0,0-2.07-6.422,10.964,10.964,0,0,0-5.906-3.67,24.5,24.5,0,0,0-7-.612" transform="translate(-168.18 -7.882)" fill="#263238"/>
          <path id="Path_89123" data-name="Path 89123" d="M212.772,45.891c0-.061.3.061.731-.122a1.393,1.393,0,0,0,.669-1.407,1.313,1.313,0,0,0-.852-1.284c-.426-.183-.731-.061-.731-.122s.3-.245.791-.122a1.41,1.41,0,0,1,.791.489,2.222,2.222,0,0,1,.426,1.04,1.535,1.535,0,0,1-1.035,1.651C213.077,46.2,212.772,45.953,212.772,45.891Z" transform="translate(-141.236 -15.247)" fill="#eb996e"/>
          <path id="Path_89125" data-name="Path 89125" d="M213.251,10.941a3.43,3.43,0,0,1,1.339-.122,6.085,6.085,0,0,1,3.044.917,6.743,6.743,0,0,1,2.314,2.2,5.253,5.253,0,0,1,.548,1.223c-.061,0-.244-.428-.731-1.1a7.536,7.536,0,0,0-2.253-2.08A8.185,8.185,0,0,0,214.59,11,11.925,11.925,0,0,1,213.251,10.941Z" transform="translate(-147.619 -6.965)" fill="#e8505b"/>
          <path id="Path_89126" data-name="Path 89126" d="M195.342,10.064V9.819a1.289,1.289,0,0,1,.182-.734,2.914,2.914,0,0,1,2.07-1.59A3.848,3.848,0,0,1,201.186,8.9a7.41,7.41,0,0,1,1.34,1.957c.365.734.67,1.529.974,2.324a12.816,12.816,0,0,0,1.035,2.263A6.749,6.749,0,0,0,206,17.159a4.532,4.532,0,0,0,1.826.856,2.669,2.669,0,0,0,1.705-.245A3.674,3.674,0,0,0,211.354,16c.244-.55.244-.917.3-.917v.245a2.125,2.125,0,0,1-.182.734,3.9,3.9,0,0,1-1.827,1.957,3.062,3.062,0,0,1-1.827.306,3.7,3.7,0,0,1-1.948-.856,7.108,7.108,0,0,1-1.521-1.774,15.133,15.133,0,0,1-1.035-2.263,13.793,13.793,0,0,0-2.192-4.22,3.491,3.491,0,0,0-3.348-1.346,2.834,2.834,0,0,0-2.009,1.468C195.28,9.7,195.4,10.064,195.342,10.064Z" transform="translate(-125.51 -6.087)" fill="#455a64"/>
          <path id="Path_89127" data-name="Path 89127" d="M218.092,23.611a.97.97,0,0,0-.061-.245c0-.122-.061-.367-.061-.673a8.484,8.484,0,0,1,.122-2.385,11.406,11.406,0,0,1,1.218-3.364,10.406,10.406,0,0,1,2.923-3.242,11.309,11.309,0,0,1,3.957-1.774,12.382,12.382,0,0,1,3.531-.367,9.242,9.242,0,0,1,2.374.428,3.118,3.118,0,0,1,.608.245.75.75,0,0,1,.183.122,12.1,12.1,0,0,0-3.166-.55,12.457,12.457,0,0,0-3.47.428,11.424,11.424,0,0,0-3.836,1.774,10.592,10.592,0,0,0-2.861,3.119,12.275,12.275,0,0,0-1.278,3.242A21.191,21.191,0,0,0,218.092,23.611Z" transform="translate(-163.481 -7.157)" fill="#455a64"/>
          <path id="Path_89128" data-name="Path 89128" d="M217.715,23.349a1.654,1.654,0,0,1,0-.612,7.1,7.1,0,0,1,.244-1.713,10.653,10.653,0,0,1,2.618-4.954,10.911,10.911,0,0,1,4.749-3c.669-.183,1.278-.306,1.644-.367.426-.061.608-.061.608,0a23.231,23.231,0,0,0-2.252.612,11.7,11.7,0,0,0-4.566,3,11.558,11.558,0,0,0-2.618,4.832C217.776,22.493,217.776,23.349,217.715,23.349Z" transform="translate(-157.989 -7.445)" fill="#455a64"/>
          <path id="Path_89129" data-name="Path 89129" d="M255.914,88.275c-1.766-5.444-6.089-10.949-10.776-8.93-5.3,2.2-6.759,5.016-9.62,9.358s-4.688,9.359-6.393,14.252c-.67,1.957-1.34,4.159-.3,5.933.913,1.529,2.74,2.141,4.444,2.569,4.384,1.163,8.828,2.2,13.273,3,1.766.305,3.775.611,5.358-.306,2.009-1.162,2.618-3.731,3.044-5.995l4.384-24.038" transform="translate(-197.589 -24.601)" fill="#ff8b1d"/>
          <path id="Path_89130" data-name="Path 89130" d="M209.884,75.881l-6.94,3c-3.531,2.752-4.506,7.523-4.383,11.988L195.7,139.86a45.079,45.079,0,0,0,43.836-.551c.608-.367-3.957-11.56-3.957-11.56l6.453-24.467c.487-3.548.791-10.826-.122-14.251-2.374-8.869-8.645-11.56-15.039-13.334,0,0-6.453,5.444-12.724,4.282C214.085,79.979,210.25,79.612,209.884,75.881Z" transform="translate(-156.613 -23.767)" fill="#ff8b1d"/>
          <g id="Group_175358" data-name="Group 175358" transform="translate(43.957 91.274)" opacity="0.2">
            <g id="Group_175357" data-name="Group 175357" opacity="0.2">
              <g id="Group_175356" data-name="Group 175356" opacity="0.2">
                <path id="Path_89131" data-name="Path 89131" d="M207.2,130.425c4.018,5.811,7.975,11.622,11.994,17.432,1.583,2.263,3.166,4.587,5.48,6.117a10.365,10.365,0,0,0,15.769-10.582,1.911,1.911,0,0,0-.548-1.285,1.94,1.94,0,0,0-2.071-.367,7.305,7.305,0,0,0-1.948.979c-3.774,2.019-8.523.917-12.054-1.468s-6.149-5.933-8.828-9.236a8.141,8.141,0,0,0-3.592-3c-1.461-.551-3.47-.122-4.079,1.345" transform="translate(-207.203 -128.787)" fill="#ef3e4b" opacity="0.2"/>
              </g>
            </g>
          </g>
          <path id="Path_89132" data-name="Path 89132" d="M214.812,77.03a8.821,8.821,0,0,0,2.131,2.63,10.09,10.09,0,0,0,7.671,2.2,13.716,13.716,0,0,0,4.323-1.285,17.225,17.225,0,0,0,3.105-1.957,21.309,21.309,0,0,0,1.888-1.651,7.213,7.213,0,0,1,.669-.612s-.182.245-.608.734c-.426.428-1.035,1.04-1.827,1.713a19.544,19.544,0,0,1-3.105,2.08,12.283,12.283,0,0,1-4.383,1.346,10.461,10.461,0,0,1-7.854-2.324,6.722,6.722,0,0,1-1.583-1.957,2.777,2.777,0,0,1-.3-.612C214.812,77.153,214.812,77.091,214.812,77.03Z" transform="translate(-162.879 -23.938)" fill="#f6a60d"/>
          <path id="Path_89133" data-name="Path 89133" d="M201.6,76.935c4.749,2.019,9.68,4.1,12.907,8.074,3.349,4.037,4.506,9.481,4.262,14.741-.243,5.2-1.765,10.276-3.287,15.291-.609,1.957-1.4,4.159-3.227,4.954-1.644.673-3.47.062-5.114-.551-4.2-1.651-8.4-3.486-12.481-5.443-1.644-.8-3.41-1.713-4.14-3.425-.975-2.141.061-4.526,1.1-6.667,3.531-7.34,7.062-14.68,10.594-21.958" transform="translate(-128.78 -24.088)" fill="#ff8b1d"/>
          <path id="Path_89134" data-name="Path 89134" d="M246.319,118.015l-1.035,4.1L224.219,106.7l-6.454-9.175a5.813,5.813,0,0,0-8.158-1.407L203.64,100.4s.183,3.241,1.644,2.569,4.383-2.263,4.383-2.263l.791,7.768,3.531,2.569,3.531,2.753,23.744,23.671a10.6,10.6,0,0,0,16.925-2.752l3.531-10.031Z" transform="translate(-181.723 -28.774)" fill="#ffbe9d"/>
          <path id="Path_89135" data-name="Path 89135" d="M223.357,130.745c0-.061.427.122.914.551a4.44,4.44,0,0,1,1.218,2.2,9.908,9.908,0,0,1,.243,2.508,2.3,2.3,0,0,1-.122,1.04c-.061,0-.061-.367-.122-1.04a13.388,13.388,0,0,0-.3-2.386,5.421,5.421,0,0,0-1.1-2.141C223.662,130.99,223.357,130.806,223.357,130.745Z" transform="translate(-160.344 -38.017)" fill="#eb996e"/>
          <path id="Path_89136" data-name="Path 89136" d="M268.963,102.631c-.061,0,.061-.245.3-.611a2.784,2.784,0,0,1,1.34-1.1,1.779,1.779,0,0,1,1.7.306.768.768,0,0,1,.3.673c-.061,0-.122-.245-.426-.49a1.661,1.661,0,0,0-1.461-.183,3.448,3.448,0,0,0-1.278.917Z" transform="translate(-241.017 -30.271)" fill="#eb996e"/>
          <path id="Path_89137" data-name="Path 89137" d="M272.275,105.75c-.061.062-.182-.122-.487-.245a2.387,2.387,0,0,0-1.218-.306,3.221,3.221,0,0,0-1.218.306,3.535,3.535,0,0,1-.488.306c-.061,0,.061-.245.365-.49a2.07,2.07,0,0,1,1.34-.489,2.669,2.669,0,0,1,1.339.428C272.215,105.506,272.336,105.69,272.275,105.75Z" transform="translate(-240.617 -31.311)" fill="#eb996e"/>
          <path id="Path_89138" data-name="Path 89138" d="M204.243,115.163a1.364,1.364,0,0,1-.426-.122,2.845,2.845,0,0,1-.975-.734,3.611,3.611,0,0,1-.67-1.773,6.125,6.125,0,0,1,.426-2.447c.365-.856.853-1.713,1.279-2.691a32.9,32.9,0,0,0,1.218-3.242c.731-2.324,1.218-4.954,1.948-7.646a26.555,26.555,0,0,1,3.044-7.34,12.054,12.054,0,0,1,4.81-4.282,8.858,8.858,0,0,1,4.261-.856,4.952,4.952,0,0,1,1.584.306c0,.061-.548-.122-1.584-.183a8.486,8.486,0,0,0-4.14.917,12.069,12.069,0,0,0-4.688,4.22,23.342,23.342,0,0,0-2.983,7.217c-.731,2.692-1.279,5.322-2.01,7.707a32.88,32.88,0,0,1-1.218,3.241c-.487.979-.974,1.835-1.339,2.692a5.081,5.081,0,0,0-.487,2.386,3.356,3.356,0,0,0,.608,1.713,2.176,2.176,0,0,0,.852.734A1.4,1.4,0,0,0,204.243,115.163Z" transform="translate(-139.647 -25.921)" fill="#f6a60d"/>
          <path id="Path_89139" data-name="Path 89139" d="M254.894,99.19a38.928,38.928,0,0,0,.5-5.3,38.889,38.889,0,0,0-.859,5.254,38.862,38.862,0,0,0-.5,5.3A38.947,38.947,0,0,0,254.894,99.19Z" transform="translate(-212.744 -28.477)" fill="#f6a60d"/>
          <path id="Path_89140" data-name="Path 89140" d="M278.343,119.491l-1.1,8.808-13.394-11.5-7.306,1.773s7.549,15.964,13.516,22.265,9.193,7.217,11.446,7.34c3.105.122,4.506-3.67,4.506-3.67l1.339-21.959Z" transform="translate(-246.562 -34.41)" fill="#ffbe9d"/>
          <path id="Path_89141" data-name="Path 89141" d="M268.322,131.985a6.054,6.054,0,0,1,.974,2.2,5.059,5.059,0,0,1,.3,2.386c-.061,0-.244-1.04-.609-2.263A12.6,12.6,0,0,1,268.322,131.985Z" transform="translate(-237.576 -38.341)" fill="#eb996e"/>
          <path id="Path_89142" data-name="Path 89142" d="M284.04,86.592H273.934a2.559,2.559,0,0,0-2.314,3.242l10.168,19.879a2.179,2.179,0,0,0,2.07,1.223h12.3a1.773,1.773,0,0,0,1.339-2.63l-9.8-19.45A4.237,4.237,0,0,0,284.04,86.592Z" transform="translate(-268.029 -26.588)" fill="#455a64"/>
          <path id="Path_89143" data-name="Path 89143" d="M284.351,88.242H274.3a1.7,1.7,0,0,0-1.522,2.447l9.924,19.451a2.181,2.181,0,0,0,2.07,1.224h12.177a1.038,1.038,0,0,0,.913-1.468l-9.8-19.451A4.2,4.2,0,0,0,284.351,88.242Z" transform="translate(-269.069 -27.015)" fill="#263238"/>
          <path id="Path_89144" data-name="Path 89144" d="M290.564,99.22l-6.149,2.447-1.34,4.955,2.984,7.4,10.837,1.59-3.166-3.242.427-2.814s3.044-.978,3.1-1.407c.062-.489-.365-2.019-.852-2.079a24.186,24.186,0,0,0-3.653,1.1s3.775-3,3.653-3.486-.487-1.713-1.278-1.835c-.731-.122-6.819,2.752-6.819,2.752l-.975,2.263-.852-3.609C286.546,103.2,291.9,101.666,290.564,99.22Z" transform="translate(-276.135 -29.858)" fill="#ffbe9d"/>
          <path id="Path_89145" data-name="Path 89145" d="M289.362,113.592c-.061,0-.122-.183-.182-.611a3.507,3.507,0,0,1,.182-1.529,3.13,3.13,0,0,1,.852-1.285c.3-.245.548-.367.548-.305a7.854,7.854,0,0,0-1.157,1.773A9.2,9.2,0,0,0,289.362,113.592Z" transform="translate(-274.141 -32.609)" fill="#eb996e"/>
          <path id="Path_89146" data-name="Path 89146" d="M284.982,111.165c-.061,0,.183-.612.244-1.59a7.2,7.2,0,0,1,.3-1.774,3.928,3.928,0,0,1,.548-.978,2.045,2.045,0,0,1,.974-.612c1.461-.551,2.8-.978,3.774-1.284a7.011,7.011,0,0,1,1.583-.428,6.4,6.4,0,0,1-1.522.673c-.913.367-2.252.857-3.714,1.346a2.287,2.287,0,0,0-.913.551,1.745,1.745,0,0,0-.488.856,6.7,6.7,0,0,0-.365,1.713A2.884,2.884,0,0,1,284.982,111.165Z" transform="translate(-272.683 -31.221)" fill="#eb996e"/>
          <path id="Path_89147" data-name="Path 89147" d="M296.727,109.989c.109-.667.117-1.221.018-1.237s-.269.511-.379,1.177-.118,1.221-.018,1.237S296.617,110.655,296.727,109.989Z" transform="translate(-285.467 -32.326)" fill="#eb996e"/>
          <path id="Path_89148" data-name="Path 89148" d="M294.958,94.113a1.285,1.285,0,1,0-1.278-1.285A1.282,1.282,0,0,0,294.958,94.113Z" transform="translate(-282.965 -27.87)" fill="#fafafa"/>
          <path id="Path_89149" data-name="Path 89149" d="M256.465,120.432a3.658,3.658,0,0,0,.365.305c.243.245.608.551,1.035.917.914.857,2.131,1.958,3.531,3.3l.061.062v.061c-.182,2.08-.365,4.466-.548,7.1-.3,3.792-.487,7.217-.608,9.725-.062,1.224-.122,2.2-.122,2.936a8.645,8.645,0,0,1-.061,1.1,7.533,7.533,0,0,1-.061-1.1c0-.673,0-1.713.061-2.936.061-2.508.244-5.933.548-9.725.183-2.63.427-5.016.609-7.1l.061.122c-1.4-1.345-2.617-2.508-3.47-3.364l-.974-.979Z" transform="translate(-220.605 -35.35)" fill="#eb996e"/>
        </g>
        <path id="Path_89150" data-name="Path 89150" d="M263.32,222.07s3.566,9.349,14.4,18.973c1.371,1.237,3.017,2.474,4.662,3.712.411.275.686.55,1.1.825a36.9,36.9,0,0,0-1.509-5.225c-1.645-4.537-4.936-11.136-10.7-15.123A17.977,17.977,0,0,0,263.32,222.07Z" transform="translate(93.604 -58.24)" fill="#b1d101"/>
        <path id="Path_89151" data-name="Path 89151" d="M264.617,226.338a42.112,42.112,0,0,0,6.308,15.673,70.832,70.832,0,0,0,4.8,6.461c0-.825-.137-1.787-.137-2.612-.137-1.512-.274-2.887-.411-4.4C273.531,236.786,270.377,230.325,264.617,226.338Z" transform="translate(100.397 -59.346)" fill="#9faf00"/>
        <path id="Path_89152" data-name="Path 89152" d="M268.1,241.555a32.5,32.5,0,0,0-8.228-41.932,36.159,36.159,0,0,0-3.017,10.036C254.657,225.744,265.353,238.255,268.1,241.555Z" transform="translate(109.672 -52.428)" fill="#b1d101"/>
        <path id="Path_89153" data-name="Path 89153" d="M273.934,241.555c-.823-21.859-8.227-41.932-8.227-41.932a36.135,36.135,0,0,0-3.017,10.036C260.5,225.744,271.192,238.255,273.934,241.555Z" transform="translate(103.835 -52.428)" fill="#89a100"/>
        <path id="Path_89154" data-name="Path 89154" d="M247.589,248.628l.137,1.238c.274-.138,7.68-4.675,10.148-18.147C258.012,231.718,250.743,232.268,247.589,248.628Z" transform="translate(130.864 -60.739)" fill="#89a100"/>
        <path id="Path_89155" data-name="Path 89155" d="M247.592,249.865c.274-.138,7.679-4.675,10.148-18.147,0,0-2.743,1.925-3.017,3.987s-.137,2.887-1.1,3.849c-1.1.825-3.84,3.162-3.428,5.225C250.609,246.566,247.729,249.728,247.592,249.865Z" transform="translate(130.999 -60.739)" fill="#b1d101"/>
        <path id="Path_89156" data-name="Path 89156" d="M264.246,242.106c.274.413,7.406,11.136,15.085,14.3v-5.637S272.063,242.381,264.246,242.106Z" transform="translate(97.066 -63.428)" fill="#89a100"/>
        <path id="Path_89157" data-name="Path 89157" d="M264.246,242.106c.274.275,7.406,11.136,15.085,14.3v-2.2c-.823-1.513-2.743-4.125-4.388-3.987-2.057,0-3.154-1.787-4.526-4.262S264.383,242.106,264.246,242.106Z" transform="translate(97.066 -63.428)" fill="#b1d101"/>
        <path id="Path_89158" data-name="Path 89158" d="M254.439,253.794v13.2a5.216,5.216,0,0,0,5.211,5.224h6.856a5.216,5.216,0,0,0,5.211-5.224v-13.2Z" transform="translate(111.947 -66.455)" fill="#c9cbca"/>
        <path id="Path_89159" data-name="Path 89159" d="M254.439,253.794v13.2a5.216,5.216,0,0,0,5.211,5.224h2.469a5.216,5.216,0,0,0,5.211-5.224v-13.2Z" transform="translate(116.335 -66.455)" fill="#e2e2e2"/>
        <path id="Path_89160" data-name="Path 89160" d="M26.714,332.429A23.714,23.714,0,1,0,3,308.714,23.714,23.714,0,0,0,26.714,332.429Z" transform="translate(519.571 -74.535)" fill="#65cc6f"/>
        <path id="Path_89162" data-name="Path 89162" d="M588.714,97.429A23.714,23.714,0,1,0,565,73.714,23.714,23.714,0,0,0,588.714,97.429Z" transform="translate(-458.913 -13.687)" fill="#65cc6f"/>
      </g>
      <g id="Group_175361" data-name="Group 175361" transform="translate(116.069 44.967)">
        <path id="Path_89217" data-name="Path 89217" d="M238.076,259.427,240,252.385A13.608,13.608,0,0,1,251.737,232a13.57,13.57,0,0,1,13.546,13.6,13.588,13.588,0,0,1-13.546,13.591h-.006a13.487,13.487,0,0,1-6.473-1.655Zm7.514-4.35.411.245a11.213,11.213,0,0,0,5.731,1.575h0a11.309,11.309,0,0,0,7.964-19.289,11.167,11.167,0,0,0-7.961-3.313A11.31,11.31,0,0,0,242.2,251.6l.268.428-1.138,4.168Z" transform="translate(-238.022 -232)" fill="#fff"/>
        <path id="Path_89218" data-name="Path 89218" d="M238.7,259.208l1.86-6.788a13.107,13.107,0,1,1,11.357,6.56h-.006a13.109,13.109,0,0,1-6.263-1.594Z" transform="translate(-238.2 -232.223)" fill="#52ce60"/>
        <path id="Path_89219" data-name="Path 89219" d="M238,259.5l1.929-7.045a13.6,13.6,0,1,1,11.785,6.81h-.006a13.59,13.59,0,0,1-6.5-1.655Zm7.543-4.352.413.244a11.282,11.282,0,0,0,5.753,1.575h0a11.3,11.3,0,1,0-9.576-5.3l.269.428-1.143,4.17Z" transform="translate(-238 -232.017)" fill="#fff"/>
        <path id="Path_89220" data-name="Path 89220" d="M251.056,242.919c-.254-.565-.523-.577-.765-.587-.2-.009-.425-.009-.651-.009a1.249,1.249,0,0,0-.906.426,3.809,3.809,0,0,0-1.19,2.834,6.605,6.605,0,0,0,1.388,3.514c.17.227,2.35,3.767,5.8,5.13,2.87,1.132,3.455.907,4.078.85a3.434,3.434,0,0,0,2.293-1.616,2.828,2.828,0,0,0,.2-1.615c-.085-.142-.311-.227-.651-.4s-2.011-.992-2.323-1.106-.537-.17-.764.17-.878,1.1-1.076,1.332-.4.255-.736.086a9.3,9.3,0,0,1-2.733-1.687,10.27,10.27,0,0,1-1.891-2.353c-.2-.34,0-.508.15-.694a10.285,10.285,0,0,0,.849-1.162.626.626,0,0,0-.028-.6c-.086-.17-.746-1.851-1.048-2.523Z" transform="translate(-240.74 -234.964)" fill="#fff" fill-rule="evenodd"/>
      </g>
      <g id="Group_175362" data-name="Group 175362" transform="translate(533.034 219.724)">
        <path id="Path_89217-2" data-name="Path 89217" d="M238.076,259.427,240,252.385A13.608,13.608,0,0,1,251.737,232a13.57,13.57,0,0,1,13.546,13.6,13.588,13.588,0,0,1-13.546,13.591h-.006a13.487,13.487,0,0,1-6.473-1.655Zm7.514-4.35.411.245a11.213,11.213,0,0,0,5.731,1.575h0a11.309,11.309,0,0,0,7.964-19.289,11.167,11.167,0,0,0-7.961-3.313A11.31,11.31,0,0,0,242.2,251.6l.268.428-1.138,4.168Z" transform="translate(-238.022 -232)" fill="#fff"/>
        <path id="Path_89218-2" data-name="Path 89218" d="M238.7,259.208l1.86-6.788a13.107,13.107,0,1,1,11.357,6.56h-.006a13.109,13.109,0,0,1-6.263-1.594Z" transform="translate(-238.2 -232.223)" fill="#52ce60"/>
        <path id="Path_89219-2" data-name="Path 89219" d="M238,259.5l1.929-7.045a13.6,13.6,0,1,1,11.785,6.81h-.006a13.59,13.59,0,0,1-6.5-1.655Zm7.543-4.352.413.244a11.282,11.282,0,0,0,5.753,1.575h0a11.3,11.3,0,1,0-9.576-5.3l.269.428-1.143,4.17Z" transform="translate(-238 -232.017)" fill="#fff"/>
        <path id="Path_89220-2" data-name="Path 89220" d="M251.056,242.919c-.254-.565-.523-.577-.765-.587-.2-.009-.425-.009-.651-.009a1.249,1.249,0,0,0-.906.426,3.809,3.809,0,0,0-1.19,2.834,6.605,6.605,0,0,0,1.388,3.514c.17.227,2.35,3.767,5.8,5.13,2.87,1.132,3.455.907,4.078.85a3.434,3.434,0,0,0,2.293-1.616,2.828,2.828,0,0,0,.2-1.615c-.085-.142-.311-.227-.651-.4s-2.011-.992-2.323-1.106-.537-.17-.764.17-.878,1.1-1.076,1.332-.4.255-.736.086a9.3,9.3,0,0,1-2.733-1.687,10.27,10.27,0,0,1-1.891-2.353c-.2-.34,0-.508.15-.694a10.285,10.285,0,0,0,.849-1.162.626.626,0,0,0-.028-.6c-.086-.17-.746-1.851-1.048-2.523Z" transform="translate(-240.74 -234.964)" fill="#fff" fill-rule="evenodd"/>
      </g>
    </g>
  </g>
</svg>
